<?xml version="1.0" encoding="UTF-8" standalone="no"?>
<svg width="203px" height="234px" viewBox="0 0 203 234" version="1.1" xmlns="http://www.w3.org/2000/svg" xmlns:xlink="http://www.w3.org/1999/xlink" xmlns:sketch="http://www.bohemiancoding.com/sketch/ns">
    <title>Untitled</title>
    <description>Created with Sketch (http://www.bohemiancoding.com/sketch)</description>
    <defs>
        <path id="path-1" d="M0,0.154 L244.596,0.154 L244.596,281 L0,281 L0,0.154 Z"></path>
    </defs>
    <g id="Page-1" stroke="none" stroke-width="1" fill="none" fill-rule="evenodd" sketch:type="MSPage">
        <g id="BRW-square-logo" sketch:type="MSLayerGroup" transform="translate(-22.000000, -24.000000)">
            <path d="M35.2769,81.5273 C35.8469,81.5273 36.3909,81.4703 36.9109,81.3593 C37.4329,81.2483 37.8909,81.0603 38.2869,80.8003 C38.6839,80.5413 38.9989,80.1863 39.2359,79.7433 C39.4709,79.2963 39.5889,78.7263 39.5889,78.0313 C39.5889,76.6693 39.2029,75.6973 38.4349,75.1133 C37.6669,74.5323 36.6509,74.2393 35.3889,74.2393 L29.0309,74.2393 L29.0309,81.5273 L35.2769,81.5273 Z M34.9419,70.2623 C35.9839,70.2623 36.8379,70.0143 37.5059,69.5173 C38.1749,69.0233 38.5099,68.2163 38.5099,67.1023 C38.5099,66.4823 38.3989,65.9743 38.1749,65.5773 C37.9519,65.1813 37.6559,64.8713 37.2849,64.6483 C36.9109,64.4243 36.4829,64.2713 35.9999,64.1843 C35.5169,64.0973 35.0149,64.0533 34.4949,64.0533 L29.0309,64.0533 L29.0309,70.2623 L34.9419,70.2623 Z M35.6849,59.5183 C36.9499,59.5183 38.0999,59.6303 39.1409,59.8533 C40.1829,60.0773 41.0769,60.4433 41.8189,60.9513 C42.5619,61.4593 43.1369,62.1343 43.5479,62.9753 C43.9549,63.8193 44.1619,64.8603 44.1619,66.0973 C44.1619,67.4373 43.8579,68.5513 43.2489,69.4453 C42.6429,70.3363 41.7439,71.0673 40.5539,71.6363 C42.1909,72.1083 43.4109,72.9323 44.2179,74.1103 C45.0219,75.2863 45.4239,76.7083 45.4239,78.3663 C45.4239,79.7043 45.1639,80.8623 44.6449,81.8423 C44.1229,82.8223 43.4219,83.6213 42.5429,84.2413 C41.6629,84.8613 40.6609,85.3183 39.5319,85.6153 C38.4039,85.9133 37.2459,86.0613 36.0559,86.0613 L23.1949,86.0613 L23.1949,59.5183 L35.6849,59.5183 Z" id="Fill-1" fill="#CC0000" sketch:type="MSShapeGroup"></path>
            <path d="M60.4263,71.3408 C59.7923,70.6458 58.8323,70.2998 57.5453,70.2998 C56.7013,70.2998 56.0013,70.4418 55.4423,70.7268 C54.8863,71.0118 54.4403,71.3658 54.1053,71.7878 C53.7703,72.2088 53.5353,72.6538 53.3983,73.1248 C53.2613,73.5968 53.1803,74.0158 53.1583,74.3878 L61.7443,74.3878 C61.4963,73.0498 61.0573,72.0328 60.4263,71.3408 M54.4593,81.4508 C55.2523,82.2198 56.3913,82.6048 57.8803,82.6048 C58.9443,82.6048 59.8633,82.3398 60.6303,81.8068 C61.3983,81.2728 61.8673,80.7088 62.0433,80.1138 L66.6893,80.1138 C65.9473,82.4178 64.8043,84.0678 63.2693,85.0598 C61.7333,86.0508 59.8733,86.5448 57.6933,86.5448 C56.1793,86.5448 54.8173,86.3048 53.6023,85.8188 C52.3873,85.3358 51.3603,84.6488 50.5173,83.7578 C49.6763,82.8638 49.0263,81.7978 48.5653,80.5608 C48.1073,79.3208 47.8783,77.9578 47.8783,76.4708 C47.8783,75.0318 48.1133,73.6948 48.5843,72.4548 C49.0563,71.2148 49.7243,70.1458 50.5923,69.2408 C51.4603,68.3368 52.4933,67.6218 53.6973,67.1028 C54.8983,66.5828 56.2303,66.3198 57.6933,66.3198 C59.3293,66.3198 60.7533,66.6388 61.9683,67.2698 C63.1823,67.9018 64.1793,68.7498 64.9613,69.8168 C65.7403,70.8828 66.3043,72.0978 66.6533,73.4598 C66.9993,74.8228 67.1223,76.2468 67.0243,77.7358 L53.1583,77.7358 C53.2313,79.4448 53.6633,80.6838 54.4593,81.4508" id="Fill-3" fill="#CC0000" sketch:type="MSShapeGroup"></path>
            <path d="M35.4248,103.3896 C36.7618,103.3896 37.7678,103.0936 38.4348,102.4986 C39.1048,101.9046 39.4398,100.9386 39.4398,99.5986 C39.4398,98.3116 39.1048,97.3756 38.4348,96.7916 C37.7678,96.2106 36.7618,95.9176 35.4248,95.9176 L29.0308,95.9176 L29.0308,103.3896 L35.4248,103.3896 Z M37.5058,91.3836 C38.6948,91.3836 39.7668,91.5766 40.7218,91.9586 C41.6768,92.3436 42.4948,92.8716 43.1758,93.5386 C43.8578,94.2086 44.3768,94.9826 44.7368,95.8626 C45.0968,96.7426 45.2758,97.6916 45.2758,98.7076 C45.2758,100.2686 44.9458,101.6196 44.2908,102.7586 C43.6338,103.8986 42.5618,104.7666 41.0768,105.3616 L41.0768,105.4366 C41.7938,105.6346 42.3888,105.9366 42.8608,106.3466 C43.3298,106.7546 43.7158,107.2376 44.0108,107.7956 C44.3098,108.3546 44.5248,108.9656 44.6618,109.6366 C44.7988,110.3066 44.8908,110.9736 44.9408,111.6436 C44.9658,112.0656 44.9908,112.5596 45.0158,113.1316 C45.0418,113.7026 45.0838,114.2826 45.1448,114.8766 C45.2058,115.4716 45.3068,116.0356 45.4438,116.5696 C45.5808,117.1026 45.7838,117.5546 46.0578,117.9266 L40.2188,117.9266 C39.8978,117.0826 39.6998,116.0806 39.6248,114.9156 C39.5518,113.7486 39.4398,112.6346 39.2928,111.5686 C39.0918,110.1806 38.6728,109.1666 38.0278,108.5226 C37.3828,107.8766 36.3298,107.5536 34.8668,107.5536 L29.0308,107.5536 L29.0308,117.9266 L23.1948,117.9266 L23.1948,91.3836 L37.5058,91.3836 Z" id="Fill-5" fill="#CC0000" sketch:type="MSShapeGroup"></path>
            <path d="M61.0938,103.2061 C60.4598,102.5111 59.4998,102.1641 58.2128,102.1641 C57.3688,102.1641 56.6688,102.3071 56.1098,102.5921 C55.5538,102.8761 55.1078,103.2311 54.7718,103.6521 C54.4368,104.0741 54.2028,104.5191 54.0658,104.9901 C53.9288,105.4621 53.8478,105.8811 53.8258,106.2521 L62.4118,106.2521 C62.1638,104.9151 61.7248,103.8981 61.0938,103.2061 M55.1268,113.3161 C55.9198,114.0841 57.0588,114.4701 58.5478,114.4701 C59.6118,114.4701 60.5298,114.2041 61.2978,113.6711 C62.0658,113.1381 62.5348,112.5731 62.7108,111.9781 L67.3568,111.9781 C66.6148,114.2821 65.4718,115.9331 63.9368,116.9241 C62.4008,117.9151 60.5408,118.4091 58.3608,118.4091 C56.8468,118.4091 55.4848,118.1691 54.2698,117.6841 C53.0548,117.2001 52.0278,116.5141 51.1838,115.6231 C50.3438,114.7291 49.6938,113.6631 49.2328,112.4261 C48.7748,111.1851 48.5458,109.8231 48.5458,108.3351 C48.5458,106.8971 48.7808,105.5601 49.2518,104.3201 C49.7238,103.0801 50.3908,102.0111 51.2598,101.1061 C52.1278,100.2011 53.1608,99.4861 54.3648,98.9671 C55.5658,98.4481 56.8968,98.1851 58.3608,98.1851 C59.9968,98.1851 61.4208,98.5041 62.6358,99.1351 C63.8498,99.7661 64.8468,100.6141 65.6288,101.6821 C66.4078,102.7481 66.9718,103.9631 67.3208,105.3251 C67.6668,106.6871 67.7898,108.1111 67.6918,109.6001 L53.8258,109.6001 C53.8988,111.3091 54.3308,112.5491 55.1268,113.3161" id="Fill-7" fill="#CC0000" sketch:type="MSShapeGroup"></path>
            <path d="M81.9463,108.9854 C81.6133,109.0974 81.2533,109.1894 80.8683,109.2644 C80.4863,109.3404 80.0813,109.4014 79.6623,109.4494 C79.2403,109.4994 78.8193,109.5604 78.3973,109.6364 C78.0003,109.7124 77.6103,109.8094 77.2273,109.9344 C76.8423,110.0574 76.5073,110.2254 76.2223,110.4344 C75.9373,110.6474 75.7083,110.9124 75.5353,111.2364 C75.3623,111.5574 75.2753,111.9644 75.2753,112.4624 C75.2753,112.9334 75.3623,113.3304 75.5353,113.6514 C75.7083,113.9724 75.9433,114.2264 76.2413,114.4144 C76.5373,114.5974 76.8833,114.7294 77.2833,114.8044 C77.6763,114.8774 78.0873,114.9164 78.5083,114.9164 C79.5503,114.9164 80.3543,114.7434 80.9243,114.3944 C81.4933,114.0484 81.9153,113.6314 82.1893,113.1494 C82.4633,112.6664 82.6273,112.1764 82.6923,111.6804 C82.7533,111.1854 82.7833,110.7894 82.7833,110.4914 L82.7833,108.5224 C82.5603,108.7204 82.2813,108.8744 81.9463,108.9854 M71.5203,101.5334 C72.0643,100.7144 72.7593,100.0584 73.6003,99.5614 C74.4433,99.0674 75.3933,98.7134 76.4463,98.5044 C77.4983,98.2924 78.5593,98.1854 79.6233,98.1854 C80.5893,98.1854 81.5693,98.2554 82.5603,98.3914 C83.5513,98.5264 84.4563,98.7944 85.2743,99.1904 C86.0923,99.5874 86.7623,100.1364 87.2823,100.8434 C87.8013,101.5494 88.0643,102.4854 88.0643,103.6524 L88.0643,113.6514 C88.0643,114.5194 88.1113,115.3494 88.2123,116.1424 C88.3093,116.9354 88.4833,117.5304 88.7313,117.9264 L83.3783,117.9264 C83.2783,117.6284 83.1993,117.3264 83.1353,117.0164 C83.0743,116.7064 83.0323,116.3904 83.0073,116.0664 C82.1643,116.9354 81.1733,117.5414 80.0333,117.8894 C78.8913,118.2364 77.7273,118.4094 76.5373,118.4094 C75.6213,118.4094 74.7673,118.2984 73.9743,118.0744 C73.1783,117.8504 72.4863,117.5054 71.8913,117.0334 C71.2963,116.5634 70.8333,115.9684 70.4983,115.2494 C70.1633,114.5314 69.9953,113.6764 69.9953,112.6854 C69.9953,111.5934 70.1883,110.6944 70.5713,109.9914 C70.9563,109.2844 71.4503,108.7204 72.0593,108.2984 C72.6643,107.8774 73.3603,107.5614 74.1423,107.3494 C74.9213,107.1394 75.7083,106.9724 76.5013,106.8464 C77.2943,106.7234 78.0763,106.6264 78.8443,106.5504 C79.6123,106.4754 80.2933,106.3644 80.8883,106.2154 C81.4833,106.0674 81.9543,105.8494 82.3003,105.5654 C82.6473,105.2804 82.8093,104.8644 82.7833,104.3204 C82.7833,103.7504 82.6923,103.2974 82.5043,102.9634 C82.3203,102.6284 82.0713,102.3684 81.7623,102.1834 C81.4523,101.9974 81.0923,101.8744 80.6843,101.8094 C80.2743,101.7484 79.8353,101.7174 79.3633,101.7174 C78.3213,101.7174 77.5043,101.9404 76.9093,102.3874 C76.3143,102.8344 75.9683,103.5774 75.8703,104.6184 L70.5903,104.6184 C70.6653,103.3794 70.9753,102.3514 71.5203,101.5334" id="Fill-9" fill="#CC0000" sketch:type="MSShapeGroup"></path>
            <path d="M105.5713,105.9756 C105.4233,105.2446 105.1693,104.5986 104.8093,104.0406 C104.4513,103.4856 103.9853,103.0326 103.4153,102.6836 C102.8463,102.3366 102.1253,102.1636 101.2603,102.1636 C100.3913,102.1636 99.6603,102.3366 99.0653,102.6836 C98.4703,103.0326 97.9933,103.4906 97.6353,104.0606 C97.2753,104.6296 97.0163,105.2806 96.8543,106.0116 C96.6923,106.7436 96.6133,107.5056 96.6133,108.2986 C96.6133,109.0416 96.7003,109.7846 96.8733,110.5306 C97.0463,111.2726 97.3253,111.9346 97.7083,112.5176 C98.0933,113.0986 98.5763,113.5706 99.1603,113.9306 C99.7413,114.2906 100.4423,114.4696 101.2603,114.4696 C102.1253,114.4696 102.8513,114.2966 103.4353,113.9476 C104.0163,113.6016 104.4823,113.1376 104.8283,112.5536 C105.1753,111.9736 105.4233,111.3086 105.5713,110.5666 C105.7193,109.8236 105.7943,109.0556 105.7943,108.2596 C105.7943,107.4666 105.7193,106.7066 105.5713,105.9756 L105.5713,105.9756 Z M105.7943,115.4716 C105.1753,116.5136 104.3643,117.2646 103.3603,117.7226 C102.3573,118.1806 101.2233,118.4096 99.9593,118.4096 C98.5213,118.4096 97.2563,118.1296 96.1673,117.5746 C95.0753,117.0166 94.1793,116.2596 93.4723,115.3046 C92.7663,114.3526 92.2333,113.2546 91.8723,112.0156 C91.5123,110.7756 91.3333,109.4886 91.3333,108.1486 C91.3333,106.8606 91.5123,105.6156 91.8723,104.4126 C92.2333,103.2106 92.7663,102.1536 93.4723,101.2346 C94.1793,100.3186 95.0643,99.5806 96.1313,99.0236 C97.1953,98.4646 98.4343,98.1856 99.8473,98.1856 C100.9863,98.1856 102.0703,98.4286 103.1003,98.9116 C104.1273,99.3946 104.9403,100.1066 105.5343,101.0496 L105.6103,101.0496 L105.6103,91.3836 L110.8873,91.3836 L110.8873,117.9266 L105.8703,117.9266 L105.8703,115.4716 L105.7943,115.4716 Z" id="Fill-11" fill="#CC0000" sketch:type="MSShapeGroup"></path>
            <path d="M121.9673,123.6504 C120.9503,124.3204 119.5373,124.6554 117.7283,124.6554 C117.1843,124.6554 116.6453,124.6354 116.1123,124.5994 C115.5783,124.5634 115.0393,124.5184 114.4953,124.4684 L114.4953,120.1214 C114.9893,120.1694 115.4973,120.2184 116.0193,120.2694 C116.5393,120.3164 117.0583,120.3304 117.5803,120.3054 C118.2733,120.2294 118.7893,119.9594 119.1213,119.4874 C119.4573,119.0154 119.6243,118.4964 119.6243,117.9264 C119.6243,117.5044 119.5493,117.1084 119.4013,116.7374 L112.6723,98.7084 L118.2873,98.7084 L122.6373,111.8674 L122.7103,111.8674 L126.9113,98.7084 L132.3763,98.7084 L124.3463,120.3054 C123.7773,121.8664 122.9833,122.9834 121.9673,123.6504" id="Fill-13" fill="#CC0000" sketch:type="MSShapeGroup"></path>
            <path d="M44.5332,149.791 L40.0342,131.726 L39.9592,131.726 L35.5362,149.791 L29.6252,149.791 L22.6002,123.248 L28.4362,123.248 L32.6382,141.314 L32.7112,141.314 L37.3212,123.248 L42.7852,123.248 L47.3232,141.537 L47.3952,141.537 L51.7452,123.248 L57.4702,123.248 L50.3322,149.791 L44.5332,149.791 Z" id="Fill-15" fill="#CC0000" sketch:type="MSShapeGroup"></path>
            <path d="M68.2671,140.8506 C67.9351,140.9616 67.5751,141.0546 67.1891,141.1296 C66.8071,141.2046 66.4021,141.2666 65.9831,141.3146 C65.5611,141.3646 65.1401,141.4256 64.7181,141.5006 C64.3221,141.5766 63.9311,141.6736 63.5481,141.7996 C63.1631,141.9226 62.8281,142.0896 62.5431,142.2996 C62.2581,142.5116 62.0291,142.7776 61.8561,143.1006 C61.6831,143.4216 61.5961,143.8296 61.5961,144.3276 C61.5961,144.7986 61.6831,145.1956 61.8561,145.5166 C62.0291,145.8376 62.2641,146.0916 62.5621,146.2786 C62.8581,146.4626 63.2041,146.5936 63.6041,146.6696 C63.9971,146.7426 64.4081,146.7816 64.8291,146.7816 C65.8711,146.7816 66.6751,146.6086 67.2451,146.2586 C67.8151,145.9136 68.2361,145.4966 68.5101,145.0136 C68.7841,144.5306 68.9481,144.0416 69.0131,143.5446 C69.0741,143.0506 69.1051,142.6546 69.1051,142.3556 L69.1051,140.3866 C68.8811,140.5846 68.6021,140.7396 68.2671,140.8506 M57.8411,133.3986 C58.3851,132.5796 59.0801,131.9236 59.9211,131.4266 C60.7641,130.9326 61.7141,130.5786 62.7661,130.3686 C63.8191,130.1566 64.8801,130.0496 65.9441,130.0496 C66.9101,130.0496 67.8901,130.1206 68.8811,130.2566 C69.8721,130.3906 70.7771,130.6596 71.5951,131.0556 C72.4131,131.4526 73.0831,132.0016 73.6031,132.7076 C74.1221,133.4146 74.3851,134.3506 74.3851,135.5176 L74.3851,145.5166 C74.3851,146.3846 74.4321,147.2136 74.5331,148.0066 C74.6301,148.7996 74.8041,149.3946 75.0521,149.7906 L69.7001,149.7906 C69.5991,149.4926 69.5211,149.1906 69.4561,148.8806 C69.3951,148.5716 69.3531,148.2556 69.3281,147.9316 C68.4851,148.7996 67.4941,149.4066 66.3541,149.7546 C65.2121,150.1016 64.0481,150.2746 62.8581,150.2746 C61.9431,150.2746 61.0881,150.1636 60.2951,149.9396 C59.4991,149.7156 58.8071,149.3706 58.2121,148.8976 C57.6181,148.4286 57.1541,147.8336 56.8191,147.1136 C56.4841,146.3956 56.3161,145.5416 56.3161,144.5496 C56.3161,143.4576 56.5091,142.5596 56.8921,141.8556 C57.2771,141.1496 57.7711,140.5846 58.3801,140.1636 C58.9861,139.7426 59.6811,139.4266 60.4631,139.2136 C61.2421,139.0046 62.0291,138.8366 62.8221,138.7116 C63.6151,138.5886 64.3971,138.4916 65.1651,138.4156 C65.9331,138.3406 66.6141,138.2286 67.2091,138.0806 C67.8041,137.9326 68.2751,137.7146 68.6211,137.4296 C68.9681,137.1456 69.1301,136.7296 69.1051,136.1846 C69.1051,135.6156 69.0131,135.1626 68.8261,134.8286 C68.6411,134.4936 68.3921,134.2336 68.0821,134.0486 C67.7731,133.8616 67.4131,133.7396 67.0051,133.6746 C66.5951,133.6136 66.1561,133.5816 65.6841,133.5816 C64.6431,133.5816 63.8251,133.8056 63.2301,134.2526 C62.6351,134.6996 62.2891,135.4426 62.1911,136.4836 L56.9111,136.4836 C56.9861,135.2446 57.2961,134.2156 57.8411,133.3986" id="Fill-17" fill="#CC0000" sketch:type="MSShapeGroup"></path>
            <path d="M83.4902,130.5723 L83.4902,134.1403 L83.5662,134.1403 C83.8142,133.5463 84.1462,132.9933 84.5682,132.4853 C84.9902,131.9793 85.4722,131.5443 86.0202,131.1833 C86.5642,130.8263 87.1452,130.5473 87.7652,130.3483 C88.3852,130.1503 89.0302,130.0503 89.7002,130.0503 C90.0462,130.0503 90.4292,130.1143 90.8502,130.2373 L90.8502,135.1433 C90.6052,135.0953 90.3062,135.0513 89.9602,135.0143 C89.6142,134.9753 89.2792,134.9593 88.9542,134.9593 C87.9892,134.9593 87.1702,135.1213 86.5032,135.4423 C85.8332,135.7623 85.2942,136.2043 84.8862,136.7623 C84.4762,137.3183 84.1852,137.9683 84.0122,138.7123 C83.8362,139.4573 83.7532,140.2613 83.7532,141.1303 L83.7532,149.7913 L78.4722,149.7913 L78.4722,130.5723 L83.4902,130.5723 Z" id="Fill-19" fill="#CC0000" sketch:type="MSShapeGroup"></path>
            <path d="M97.9512,130.5723 L97.9512,134.1403 L98.0272,134.1403 C98.2752,133.5463 98.6072,132.9933 99.0292,132.4853 C99.4512,131.9793 99.9332,131.5443 100.4812,131.1833 C101.0252,130.8263 101.6062,130.5473 102.2262,130.3483 C102.8462,130.1503 103.4912,130.0503 104.1612,130.0503 C104.5072,130.0503 104.8902,130.1143 105.3112,130.2373 L105.3112,135.1433 C105.0662,135.0953 104.7672,135.0513 104.4212,135.0143 C104.0752,134.9753 103.7402,134.9593 103.4152,134.9593 C102.4502,134.9593 101.6312,135.1213 100.9642,135.4423 C100.2942,135.7623 99.7552,136.2043 99.3472,136.7623 C98.9372,137.3183 98.6462,137.9683 98.4732,138.7123 C98.2972,139.4573 98.2142,140.2613 98.2142,141.1303 L98.2142,149.7913 L92.9332,149.7913 L92.9332,130.5723 L97.9512,130.5723 Z" id="Fill-21" fill="#CC0000" sketch:type="MSShapeGroup"></path>
            <path d="M118.5269,140.8506 C118.1949,140.9616 117.8349,141.0546 117.4489,141.1296 C117.0669,141.2046 116.6619,141.2666 116.2429,141.3146 C115.8209,141.3646 115.3999,141.4256 114.9779,141.5006 C114.5819,141.5766 114.1909,141.6736 113.8079,141.7996 C113.4229,141.9226 113.0879,142.0896 112.8029,142.2996 C112.5179,142.5116 112.2899,142.7776 112.1159,143.1006 C111.9429,143.4216 111.8569,143.8296 111.8569,144.3276 C111.8569,144.7986 111.9429,145.1956 112.1159,145.5166 C112.2899,145.8376 112.5239,146.0916 112.8229,146.2786 C113.1189,146.4626 113.4649,146.5936 113.8639,146.6696 C114.2579,146.7426 114.6689,146.7816 115.0899,146.7816 C116.1309,146.7816 116.9359,146.6086 117.5059,146.2586 C118.0749,145.9136 118.4969,145.4966 118.7699,145.0136 C119.0439,144.5306 119.2089,144.0416 119.2729,143.5446 C119.3339,143.0506 119.3649,142.6546 119.3649,142.3556 L119.3649,140.3866 C119.1409,140.5846 118.8619,140.7396 118.5269,140.8506 M108.1009,133.3986 C108.6459,132.5796 109.3409,131.9236 110.1809,131.4266 C111.0249,130.9326 111.9739,130.5786 113.0269,130.3686 C114.0789,130.1566 115.1399,130.0496 116.2039,130.0496 C117.1699,130.0496 118.1499,130.1206 119.1409,130.2566 C120.1329,130.3906 121.0379,130.6596 121.8559,131.0556 C122.6729,131.4526 123.3439,132.0016 123.8629,132.7076 C124.3819,133.4146 124.6449,134.3506 124.6449,135.5176 L124.6449,145.5166 C124.6449,146.3846 124.6929,147.2136 124.7929,148.0066 C124.8899,148.7996 125.0639,149.3946 125.3119,149.7906 L119.9599,149.7906 C119.8589,149.4926 119.7809,149.1906 119.7159,148.8806 C119.6549,148.5716 119.6129,148.2556 119.5889,147.9316 C118.7449,148.7996 117.7539,149.4066 116.6139,149.7546 C115.4719,150.1016 114.3079,150.2746 113.1189,150.2746 C112.2029,150.2746 111.3479,150.1636 110.5549,149.9396 C109.7589,149.7156 109.0669,149.3706 108.4719,148.8976 C107.8779,148.4286 107.4139,147.8336 107.0789,147.1136 C106.7439,146.3956 106.5769,145.5416 106.5769,144.5496 C106.5769,143.4576 106.7689,142.5596 107.1519,141.8556 C107.5369,141.1496 108.0309,140.5846 108.6399,140.1636 C109.2459,139.7426 109.9409,139.4266 110.7229,139.2136 C111.5019,139.0046 112.2899,138.8366 113.0829,138.7116 C113.8759,138.5886 114.6569,138.4916 115.4249,138.4156 C116.1929,138.3406 116.8739,138.2286 117.4689,138.0806 C118.0639,137.9326 118.5359,137.7146 118.8819,137.4296 C119.2279,137.1456 119.3899,136.7296 119.3649,136.1846 C119.3649,135.6156 119.2729,135.1626 119.0859,134.8286 C118.9019,134.4936 118.6529,134.2336 118.3429,134.0486 C118.0329,133.8616 117.6729,133.7396 117.2649,133.6746 C116.8549,133.6136 116.4159,133.5816 115.9439,133.5816 C114.9029,133.5816 114.0849,133.8056 113.4899,134.2526 C112.8949,134.6996 112.5489,135.4426 112.4509,136.4836 L107.1719,136.4836 C107.2469,135.2446 107.5569,134.2156 108.1009,133.3986" id="Fill-23" fill="#CC0000" sketch:type="MSShapeGroup"></path>
            <path d="M133.7505,130.5723 L133.7505,133.2473 L133.8615,133.2473 C134.5315,132.1333 135.3975,131.3203 136.4645,130.8123 C137.5305,130.3043 138.6195,130.0503 139.7365,130.0503 C141.1495,130.0503 142.3085,130.2433 143.2135,130.6283 C144.1175,131.0103 144.8295,131.5443 145.3495,132.2253 C145.8715,132.9063 146.2335,133.7393 146.4465,134.7163 C146.6555,135.6963 146.7625,136.7793 146.7625,137.9683 L146.7625,149.7913 L141.4845,149.7913 L141.4845,138.9343 C141.4845,137.3483 141.2355,136.1653 140.7395,135.3853 C140.2445,134.6043 139.3655,134.2163 138.1015,134.2163 C136.6625,134.2163 135.6205,134.6433 134.9795,135.4983 C134.3335,136.3523 134.0135,137.7603 134.0135,139.7173 L134.0135,149.7913 L128.7325,149.7913 L128.7325,130.5723 L133.7505,130.5723 Z" id="Fill-25" fill="#CC0000" sketch:type="MSShapeGroup"></path>
            <path d="M163.0464,137.8408 C162.8984,137.1098 162.6444,136.4638 162.2834,135.9048 C161.9264,135.3498 161.4604,134.8978 160.8914,134.5488 C160.3204,134.2018 159.6014,134.0288 158.7344,134.0288 C157.8664,134.0288 157.1354,134.2018 156.5404,134.5488 C155.9454,134.8978 155.4684,135.3558 155.1104,135.9248 C154.7504,136.4948 154.4904,137.1458 154.3284,137.8768 C154.1674,138.6088 154.0894,139.3708 154.0894,140.1638 C154.0894,140.9058 154.1754,141.6498 154.3484,142.3948 C154.5224,143.1378 154.8014,143.7988 155.1834,144.3828 C155.5684,144.9638 156.0524,145.4358 156.6354,145.7958 C157.2164,146.1548 157.9174,146.3348 158.7344,146.3348 C159.6014,146.3348 160.3264,146.1608 160.9104,145.8128 C161.4904,145.4658 161.9574,145.0028 162.3034,144.4188 C162.6504,143.8378 162.8984,143.1738 163.0464,142.4308 C163.1944,141.6888 163.2704,140.9198 163.2704,140.1248 C163.2704,139.3318 163.1944,138.5718 163.0464,137.8408 L163.0464,137.8408 Z M163.2704,147.3368 C162.6504,148.3778 161.8404,149.1298 160.8344,149.5868 C159.8324,150.0448 158.6984,150.2748 157.4344,150.2748 C155.9954,150.2748 154.7314,149.9948 153.6424,149.4398 C152.5504,148.8808 151.6534,148.1238 150.9474,147.1688 C150.2414,146.2168 149.7074,145.1198 149.3474,143.8798 C148.9874,142.6408 148.8094,141.3538 148.8094,140.0128 C148.8094,138.7258 148.9874,137.4808 149.3474,136.2778 C149.7074,135.0758 150.2414,134.0178 150.9474,133.0998 C151.6534,132.1838 152.5394,131.4458 153.6064,130.8878 C154.6694,130.3288 155.9094,130.0498 157.3214,130.0498 C158.4614,130.0498 159.5444,130.2928 160.5754,130.7768 C161.6034,131.2588 162.4154,131.9718 163.0104,132.9148 L163.0854,132.9148 L163.0854,123.2478 L168.3624,123.2478 L168.3624,149.7908 L163.3454,149.7908 L163.3454,147.3368 L163.2704,147.3368 Z" id="Fill-27" fill="#CC0000" sketch:type="MSShapeGroup"></path>
            <path d="M179.4419,155.5156 C178.4259,156.1856 177.0129,156.5206 175.2039,156.5206 C174.6599,156.5206 174.1209,156.5006 173.5879,156.4646 C173.0529,156.4286 172.5149,156.3836 171.9699,156.3326 L171.9699,151.9866 C172.4639,152.0336 172.9719,152.0836 173.4949,152.1336 C174.0139,152.1816 174.5339,152.1956 175.0559,152.1696 C175.7489,152.0946 176.2649,151.8246 176.5969,151.3526 C176.9319,150.8796 177.0989,150.3606 177.0989,149.7906 C177.0989,149.3696 177.0239,148.9736 176.8769,148.6016 L170.1469,130.5726 L175.7619,130.5726 L180.1129,143.7326 L180.1849,143.7326 L184.3869,130.5726 L189.8519,130.5726 L181.8219,152.1696 C181.2519,153.7316 180.4589,154.8476 179.4419,155.5156" id="Fill-29" fill="#CC0000" sketch:type="MSShapeGroup"></path>
            <path d="M203.3823,130.5723 L203.3823,134.1043 L199.5153,134.1043 L199.5153,143.6203 C199.5153,144.5103 199.6663,145.1053 199.9623,145.4043 C200.2613,145.7003 200.8563,145.8513 201.7463,145.8513 C202.0453,145.8513 202.3293,145.8383 202.6013,145.8123 C202.8743,145.7903 203.1343,145.7513 203.3823,145.7003 L203.3823,149.7913 C202.9363,149.8663 202.4423,149.9143 201.8973,149.9393 C201.3503,149.9643 200.8173,149.9783 200.2973,149.9783 C199.4793,149.9783 198.7053,149.9233 197.9743,149.8103 C197.2423,149.6993 196.5973,149.4813 196.0423,149.1603 C195.4843,148.8363 195.0423,148.3783 194.7213,147.7833 C194.3983,147.1883 194.2373,146.4073 194.2373,145.4413 L194.2373,134.1043 L191.0413,134.1043 L191.0413,130.5723 L194.2373,130.5723 L194.2373,124.8093 L199.5153,124.8093 L199.5153,130.5723 L203.3823,130.5723 Z" id="Fill-31" fill="#CC0000" sketch:type="MSShapeGroup"></path>
            <path d="M217.5278,135.0703 C216.8938,134.3753 215.9338,134.0293 214.6468,134.0293 C213.8028,134.0293 213.1028,134.1723 212.5448,134.4563 C211.9888,134.7413 211.5418,135.0953 211.2068,135.5173 C210.8718,135.9393 210.6368,136.3833 210.5008,136.8543 C210.3628,137.3273 210.2828,137.7453 210.2598,138.1173 L218.8458,138.1173 C218.5968,136.7793 218.1598,135.7623 217.5278,135.0703 M211.5608,145.1813 C212.3538,145.9493 213.4938,146.3353 214.9818,146.3353 C216.0458,146.3353 216.9648,146.0693 217.7318,145.5363 C218.4998,145.0033 218.9688,144.4383 219.1448,143.8433 L223.7918,143.8433 C223.0488,146.1473 221.9068,147.7983 220.3708,148.7893 C218.8358,149.7803 216.9748,150.2743 214.7948,150.2743 C213.2808,150.2743 211.9188,150.0343 210.7038,149.5483 C209.4898,149.0653 208.4618,148.3783 207.6188,147.4873 C206.7778,146.5933 206.1278,145.5273 205.6668,144.2913 C205.2088,143.0503 204.9798,141.6883 204.9798,140.2003 C204.9798,138.7613 205.2148,137.4243 205.6858,136.1843 C206.1578,134.9453 206.8258,133.8763 207.6938,132.9703 C208.5618,132.0663 209.5948,131.3513 210.7988,130.8323 C211.9998,130.3123 213.3318,130.0493 214.7948,130.0493 C216.4308,130.0493 217.8548,130.3683 219.0698,131.0003 C220.2838,131.6313 221.2808,132.4793 222.0628,133.5463 C222.8408,134.6123 223.4058,135.8273 223.7558,137.1903 C224.1008,138.5523 224.2238,139.9763 224.1268,141.4653 L210.2598,141.4653 C210.3328,143.1743 210.7648,144.4133 211.5608,145.1813" id="Fill-33" fill="#CC0000" sketch:type="MSShapeGroup"></path>
            <path d="M26.2246,163.9258 L26.2246,185.3528 L39.2896,185.3528 L39.2896,187.2458 L24.0016,187.2458 L24.0016,163.9258 L26.2246,163.9258 Z" id="Fill-35" fill="#CC0000" sketch:type="MSShapeGroup"></path>
            <mask id="mask-2" sketch:name="Clip 38" fill="white">
                <use xlink:href="#path-1"></use>
            </mask>
            <g id="Clip-38"></g>
            <path d="M43.238,187.246 L41.183,187.246 L41.183,170.392 L43.238,170.392 L43.238,187.246 Z M43.238,167.226 L41.183,167.226 L41.183,163.926 L43.238,163.926 L43.238,167.226 Z" id="Fill-37" fill="#CC0000" sketch:type="MSShapeGroup" mask="url(#mask-2)"></path>
            <path d="M47.5825,170.3926 L52.8735,185.1886 L52.9405,185.1886 L58.1645,170.3926 L60.2865,170.3926 L53.9845,187.2466 L51.7955,187.2466 L45.2955,170.3926 L47.5825,170.3926 Z" id="Fill-39" fill="#CC0000" sketch:type="MSShapeGroup" mask="url(#mask-2)"></path>
            <path d="M64.403,187.246 L62.348,187.246 L62.348,170.392 L64.403,170.392 L64.403,187.246 Z M64.403,167.226 L62.348,167.226 L62.348,163.926 L64.403,163.926 L64.403,167.226 Z" id="Fill-40" fill="#CC0000" sketch:type="MSShapeGroup" mask="url(#mask-2)"></path>
            <path d="M70.3809,170.3926 L70.3809,173.2986 L70.4449,173.2986 C70.8389,172.2776 71.5339,171.4536 72.5369,170.8326 C73.5389,170.2136 74.6389,169.9036 75.8369,169.9036 C77.0119,169.9036 77.9949,170.0546 78.7909,170.3586 C79.5869,170.6656 80.2229,171.0956 80.7009,171.6516 C81.1809,172.2046 81.5189,172.8856 81.7139,173.6926 C81.9099,174.4966 82.0069,175.4016 82.0069,176.4016 L82.0069,187.2466 L79.9499,187.2466 L79.9499,176.7276 C79.9499,176.0106 79.8849,175.3396 79.7549,174.7196 C79.6229,174.1006 79.3969,173.5616 79.0699,173.1036 C78.7439,172.6456 78.3019,172.2886 77.7469,172.0256 C77.1909,171.7636 76.4989,171.6346 75.6729,171.6346 C74.8459,171.6346 74.1089,171.7806 73.4659,172.0766 C72.8239,172.3696 72.2799,172.7716 71.8359,173.2826 C71.3889,173.7956 71.0399,174.4046 70.7889,175.1116 C70.5399,175.8206 70.4029,176.5876 70.3809,177.4146 L70.3809,187.2466 L68.3229,187.2466 L68.3229,170.3926 L70.3809,170.3926 Z" id="Fill-41" fill="#CC0000" sketch:type="MSShapeGroup" mask="url(#mask-2)"></path>
            <path d="M95.0054,184.7471 C95.6814,184.3671 96.2484,183.8641 96.7064,183.2451 C97.1614,182.6251 97.5044,181.9101 97.7334,181.1061 C97.9624,180.2991 98.0764,179.4731 98.0764,178.6241 C98.0764,177.7971 97.9794,176.9681 97.7834,176.1421 C97.5854,175.3151 97.2704,174.5631 96.8344,173.8881 C96.3994,173.2121 95.8404,172.6681 95.1534,172.2551 C94.4664,171.8421 93.6344,171.6351 92.6544,171.6351 C91.6744,171.6351 90.8364,171.8361 90.1384,172.2381 C89.4434,172.6401 88.8654,173.1681 88.4104,173.8211 C87.9524,174.4751 87.6204,175.2231 87.4134,176.0601 C87.2064,176.8981 87.1034,177.7531 87.1034,178.6241 C87.1034,179.4731 87.2124,180.2991 87.4304,181.1061 C87.6454,181.9101 87.9834,182.6251 88.4414,183.2451 C88.8994,183.8641 89.4774,184.3671 90.1724,184.7471 C90.8704,185.1301 91.6964,185.3191 92.6544,185.3191 C93.5474,185.3191 94.3324,185.1301 95.0054,184.7471 M99.7274,189.2401 C99.4534,190.2391 99.0234,191.0881 98.4374,191.7861 C97.8484,192.4811 97.0804,193.0151 96.1334,193.3861 C95.1874,193.7581 94.0254,193.9421 92.6544,193.9421 C91.8054,193.9421 90.9794,193.8441 90.1724,193.6481 C89.3674,193.4501 88.6424,193.1461 87.9994,192.7321 C87.3574,192.3191 86.8244,191.7921 86.4004,191.1491 C85.9754,190.5081 85.7294,189.7391 85.6654,188.8461 L87.7234,188.8461 C87.8324,189.4771 88.0444,190.0051 88.3594,190.4301 C88.6754,190.8561 89.0554,191.1971 89.5024,191.4601 C89.9484,191.7221 90.4454,191.9121 90.9904,192.0321 C91.5314,192.1491 92.0874,192.2111 92.6544,192.2111 C94.5694,192.2111 95.9544,191.6661 96.8034,190.5771 C97.6524,189.4881 98.0764,187.9221 98.0764,185.8751 L98.0764,183.5881 L98.0124,183.5881 C97.5324,184.6331 96.8284,185.4731 95.9044,186.1041 C94.9804,186.7351 93.8974,187.0511 92.6544,187.0511 C91.3054,187.0511 90.1504,186.8271 89.1924,186.3811 C88.2344,185.9341 87.4434,185.3191 86.8244,184.5351 C86.2044,183.7501 85.7524,182.8321 85.4704,181.7761 C85.1854,180.7211 85.0454,179.5931 85.0454,178.3941 C85.0454,177.2411 85.2134,176.1471 85.5504,175.1111 C85.8884,174.0781 86.3774,173.1731 87.0194,172.4021 C87.6614,171.6291 88.4574,171.0181 89.4044,170.5711 C90.3534,170.1271 91.4344,169.9031 92.6544,169.9031 C93.2854,169.9031 93.8804,169.9901 94.4364,170.1631 C94.9914,170.3391 95.4964,170.5851 95.9544,170.8971 C96.4094,171.2161 96.8204,171.5791 97.1774,171.9921 C97.5384,172.4081 97.8144,172.8411 98.0124,173.2991 L98.0764,173.2991 L98.0764,170.3931 L100.1344,170.3931 L100.1344,185.8751 C100.1344,187.1151 99.9984,188.2371 99.7274,189.2401" id="Fill-42" fill="#CC0000" sketch:type="MSShapeGroup" mask="url(#mask-2)"></path>
            <path d="M113.624,170.3926 L117.935,184.8286 L118.002,184.8286 L122.118,170.3926 L124.435,170.3926 L128.551,184.8286 L128.616,184.8286 L132.926,170.3926 L135.116,170.3926 L129.693,187.2466 L127.44,187.2466 L123.293,173.0706 L123.227,173.0706 L119.111,187.2466 L116.857,187.2466 L111.437,170.3926 L113.624,170.3926 Z" id="Fill-43" fill="#CC0000" sketch:type="MSShapeGroup" mask="url(#mask-2)"></path>
            <path d="M139.427,187.246 L137.371,187.246 L137.371,170.392 L139.427,170.392 L139.427,187.246 Z M139.427,167.226 L137.371,167.226 L137.371,163.926 L139.427,163.926 L139.427,167.226 Z" id="Fill-44" fill="#CC0000" sketch:type="MSShapeGroup" mask="url(#mask-2)"></path>
            <path d="M150.0767,170.3926 L150.0767,172.1226 L146.6477,172.1226 L146.6477,183.4906 C146.6477,184.1656 146.7397,184.6946 146.9247,185.0746 C147.1077,185.4556 147.5717,185.6686 148.3117,185.7096 C148.9007,185.7096 149.4877,185.6796 150.0767,185.6126 L150.0767,187.3436 C149.7717,187.3436 149.4657,187.3556 149.1607,187.3766 C148.8557,187.3966 148.5527,187.4086 148.2477,187.4086 C146.8737,187.4086 145.9157,187.1426 145.3717,186.6096 C144.8267,186.0766 144.5677,185.0906 144.5897,183.6526 L144.5897,172.1226 L141.6497,172.1226 L141.6497,170.3926 L144.5897,170.3926 L144.5897,165.3296 L146.6477,165.3296 L146.6477,170.3926 L150.0767,170.3926 Z" id="Fill-45" fill="#CC0000" sketch:type="MSShapeGroup" mask="url(#mask-2)"></path>
            <path d="M155.0718,163.9258 L155.0718,173.2988 L155.1358,173.2988 C155.5298,172.2778 156.2248,171.4528 157.2268,170.8328 C158.2298,170.2138 159.3298,169.9038 160.5278,169.9038 C161.7038,169.9038 162.6858,170.0548 163.4818,170.3588 C164.2778,170.6658 164.9148,171.0958 165.3918,171.6518 C165.8728,172.2038 166.2108,172.8858 166.4058,173.6928 C166.6008,174.4968 166.6988,175.4018 166.6988,176.4018 L166.6988,187.2458 L164.6398,187.2458 L164.6398,176.7278 C164.6398,176.0108 164.5768,175.3398 164.4448,174.7198 C164.3138,174.1008 164.0878,173.5618 163.7608,173.1038 C163.4338,172.6458 162.9938,172.2878 162.4378,172.0258 C161.8828,171.7638 161.1888,171.6348 160.3628,171.6348 C159.5368,171.6348 158.7998,171.7798 158.1568,172.0758 C157.5148,172.3688 156.9698,172.7718 156.5268,173.2818 C156.0798,173.7958 155.7308,174.4048 155.4788,175.1118 C155.2308,175.8208 155.0938,176.5878 155.0718,177.4148 L155.0718,187.2458 L153.0138,187.2458 L153.0138,163.9258 L155.0718,163.9258 Z" id="Fill-46" fill="#CC0000" sketch:type="MSShapeGroup" mask="url(#mask-2)"></path>
            <path d="M33.8667,220.0547 C34.6937,220.0547 35.4777,219.9827 36.2177,219.8427 C36.9577,219.7007 37.6117,219.4437 38.1787,219.0757 C38.7447,218.7027 39.1887,218.2087 39.5157,217.5867 C39.8427,216.9667 40.0067,216.1877 40.0067,215.2517 C40.0067,213.7497 39.4787,212.6217 38.4237,211.8707 C37.3657,211.1197 35.8467,210.7447 33.8667,210.7447 L26.2247,210.7447 L26.2247,220.0547 L33.8667,220.0547 Z M33.8667,208.8497 C34.7577,208.8497 35.5307,208.7457 36.1847,208.5397 C36.8377,208.3327 37.3827,208.0507 37.8177,207.6907 C38.2537,207.3307 38.5797,206.9117 38.7977,206.4347 C39.0157,205.9537 39.1247,205.4437 39.1247,204.8987 C39.1247,201.9807 37.3707,200.5237 33.8667,200.5237 L26.2247,200.5237 L26.2247,208.8497 L33.8667,208.8497 Z M33.8667,198.6267 C34.8467,198.6267 35.7877,198.7197 36.6927,198.9067 C37.5947,199.0907 38.3897,199.4067 39.0767,199.8527 C39.7617,200.2997 40.3117,200.8857 40.7247,201.6157 C41.1377,202.3467 41.3467,203.2537 41.3467,204.3427 C41.3467,204.9537 41.2467,205.5457 41.0517,206.1237 C40.8557,206.6997 40.5797,207.2247 40.2197,207.6907 C39.8587,208.1597 39.4347,208.5567 38.9457,208.8827 C38.4547,209.2097 37.9047,209.4387 37.2957,209.5707 L37.2957,209.6337 C38.7977,209.8297 39.9957,210.4467 40.8887,211.4797 C41.7797,212.5127 42.2267,213.7947 42.2267,215.3167 C42.2267,215.6877 42.1957,216.1067 42.1287,216.5757 C42.0647,217.0447 41.9337,217.5227 41.7387,218.0107 C41.5427,218.5017 41.2577,218.9887 40.8887,219.4657 C40.5177,219.9467 40.0237,220.3647 39.4037,220.7217 C38.7817,221.0817 38.0187,221.3757 37.1167,221.6047 C36.2127,221.8327 35.1287,221.9487 33.8667,221.9487 L24.0017,221.9487 L24.0017,198.6267 L33.8667,198.6267 Z" id="Fill-47" fill="#CC0000" sketch:type="MSShapeGroup" mask="url(#mask-2)"></path>
            <path d="M57.1538,221.9482 L57.1538,218.9102 L57.0868,218.9102 C56.5428,220.0442 55.7558,220.9092 54.7188,221.5072 C53.6858,222.1042 52.5388,222.4062 51.2738,222.4062 C50.2068,222.4062 49.2998,222.2582 48.5488,221.9652 C47.7978,221.6722 47.1858,221.2532 46.7188,220.7082 C46.2508,220.1642 45.9068,219.4992 45.6888,218.7152 C45.4708,217.9292 45.3618,217.0392 45.3618,216.0372 L45.3618,205.0942 L47.4208,205.0942 L47.4208,216.0672 C47.4648,217.5922 47.8168,218.7482 48.4818,219.5302 C49.1458,220.3142 50.2938,220.7082 51.9268,220.7082 C52.8208,220.7082 53.5828,220.5152 54.2138,220.1352 C54.8448,219.7532 55.3668,219.2482 55.7828,218.6172 C56.1958,217.9852 56.5008,217.2602 56.6958,216.4442 C56.8918,215.6292 56.9888,214.7942 56.9888,213.9452 L56.9888,205.0942 L59.0478,205.0942 L59.0478,221.9482 L57.1538,221.9482 Z" id="Fill-48" fill="#CC0000" sketch:type="MSShapeGroup" mask="url(#mask-2)"></path>
            <path d="M72.6343,208.3779 C72.3943,207.9079 72.0723,207.5239 71.6713,207.2159 C71.2663,206.9119 70.8053,206.6909 70.2833,206.5489 C69.7613,206.4059 69.2053,206.3369 68.6163,206.3369 C68.1583,206.3369 67.6973,206.3839 67.2283,206.4819 C66.7593,206.5789 66.3293,206.7439 65.9383,206.9739 C65.5473,207.2019 65.2293,207.5009 64.9913,207.8689 C64.7513,208.2409 64.6313,208.6989 64.6313,209.2429 C64.6313,209.6979 64.7463,210.0869 64.9753,210.4019 C65.2043,210.7179 65.4913,210.9849 65.8413,211.2029 C66.1903,211.4209 66.5693,211.5999 66.9833,211.7419 C67.3963,211.8819 67.7783,211.9959 68.1273,212.0829 L70.8693,212.7059 C71.4583,212.7919 72.0393,212.9479 72.6173,213.1779 C73.1953,213.4059 73.7063,213.7049 74.1533,214.0759 C74.6003,214.4479 74.9633,214.9029 75.2473,215.4469 C75.5303,215.9919 75.6723,216.6339 75.6723,217.3739 C75.6723,218.2899 75.4653,219.0689 75.0523,219.7109 C74.6363,220.3539 74.1083,220.8759 73.4663,221.2769 C72.8233,221.6829 72.1013,221.9699 71.2943,222.1439 C70.4893,222.3189 69.6943,222.4059 68.9093,222.4059 C66.9293,222.4059 65.3243,221.9369 64.0923,221.0009 C62.8613,220.0659 62.1603,218.5609 61.9873,216.4949 L64.0453,216.4949 C64.1323,217.8879 64.6373,218.9379 65.5613,219.6449 C66.4883,220.3539 67.6363,220.7079 69.0093,220.7079 C69.5093,220.7079 70.0263,220.6519 70.5593,220.5429 C71.0923,220.4349 71.5903,220.2499 72.0453,219.9869 C72.5033,219.7289 72.8803,219.3959 73.1733,218.9909 C73.4663,218.5889 73.6143,218.0949 73.6143,217.5059 C73.6143,217.0059 73.5103,216.5869 73.3043,216.2489 C73.0973,215.9109 72.8183,215.6289 72.4693,215.3999 C72.1233,215.1709 71.7243,214.9819 71.2803,214.8279 C70.8333,214.6769 70.3813,214.5459 69.9233,214.4369 L67.2793,213.8479 C66.6033,213.6749 65.9833,213.4739 65.4163,213.2439 C64.8493,213.0159 64.3553,212.7329 63.9303,212.3959 C63.5063,212.0579 63.1743,211.6419 62.9343,211.1529 C62.6943,210.6639 62.5733,210.0589 62.5733,209.3409 C62.5733,208.4919 62.7633,207.7639 63.1463,207.1519 C63.5263,206.5429 64.0233,206.0519 64.6313,205.6839 C65.2403,205.3119 65.9213,205.0409 66.6733,204.8649 C67.4243,204.6919 68.1693,204.6059 68.9093,204.6059 C69.7613,204.6059 70.5483,204.7139 71.2803,204.9319 C72.0093,205.1489 72.6513,205.4869 73.2063,205.9419 C73.7623,206.3999 74.2003,206.9679 74.5273,207.6439 C74.8543,208.3159 75.0413,209.1119 75.0833,210.0249 L73.0253,210.0249 C73.0023,209.3939 72.8743,208.8469 72.6343,208.3779" id="Fill-49" fill="#CC0000" sketch:type="MSShapeGroup" mask="url(#mask-2)"></path>
            <path d="M80.6675,198.627 L80.6675,208.001 L80.7315,208.001 C81.1255,206.979 81.8205,206.155 82.8225,205.535 C83.8255,204.915 84.9255,204.606 86.1235,204.606 C87.2985,204.606 88.2815,204.756 89.0775,205.061 C89.8735,205.368 90.5095,205.798 90.9875,206.354 C91.4675,206.906 91.8055,207.588 92.0005,208.395 C92.1965,209.198 92.2945,210.104 92.2945,211.103 L92.2945,221.948 L90.2365,221.948 L90.2365,211.43 C90.2365,210.712 90.1725,210.042 90.0415,209.422 C89.9095,208.802 89.6835,208.263 89.3565,207.806 C89.0295,207.348 88.5885,206.99 88.0335,206.728 C87.4775,206.465 86.7855,206.337 85.9585,206.337 C85.1325,206.337 84.3955,206.481 83.7525,206.777 C83.1105,207.071 82.5655,207.473 82.1225,207.984 C81.6755,208.498 81.3265,209.106 81.0755,209.813 C80.8265,210.523 80.6895,211.29 80.6675,212.116 L80.6675,221.948 L78.6095,221.948 L78.6095,198.627 L80.6675,198.627 Z" id="Fill-50" fill="#CC0000" sketch:type="MSShapeGroup" mask="url(#mask-2)"></path>
            <path d="M106.73,221.948 L104.672,221.948 L104.672,205.094 L106.73,205.094 L106.73,221.948 Z M106.73,201.928 L104.672,201.928 L104.672,198.627 L106.73,198.627 L106.73,201.928 Z M94.417,206.825 L94.417,205.094 L97.292,205.094 L97.292,203.559 C97.292,202.841 97.345,202.176 97.454,201.567 C97.563,200.959 97.77,200.434 98.074,199.998 C98.378,199.562 98.797,199.228 99.333,198.987 C99.867,198.747 100.545,198.627 101.375,198.627 C101.679,198.627 101.961,198.639 102.223,198.661 C102.483,198.683 102.779,198.714 103.106,198.759 L103.106,200.523 C102.821,200.479 102.561,200.439 102.321,200.409 C102.081,200.375 101.841,200.358 101.604,200.358 C101.037,200.358 100.601,200.445 100.296,200.621 C99.99,200.794 99.769,201.028 99.626,201.321 C99.484,201.615 99.403,201.958 99.381,202.353 C99.358,202.743 99.347,203.167 99.347,203.625 L99.347,205.094 L102.681,205.094 L102.681,206.825 L99.347,206.825 L99.347,221.948 L97.292,221.948 L97.292,206.825 L94.417,206.825 Z" id="Fill-51" fill="#CC0000" sketch:type="MSShapeGroup" mask="url(#mask-2)"></path>
            <path d="M112.5742,205.0937 L112.5742,209.0477 L112.6412,209.0477 C113.1632,207.6737 113.9732,206.6177 115.0732,205.8787 C116.1732,205.1387 117.4862,204.8007 119.0102,204.8647 L119.0102,206.9227 C118.0722,206.8807 117.2232,207.0037 116.4612,207.2997 C115.6992,207.5927 115.0392,208.0117 114.4872,208.5567 C113.9312,209.1007 113.5012,209.7487 113.1972,210.4997 C112.8892,211.2507 112.7392,212.0737 112.7392,212.9657 L112.7392,221.9477 L110.6812,221.9477 L110.6812,205.0937 L112.5742,205.0937 Z" id="Fill-52" fill="#CC0000" sketch:type="MSShapeGroup" mask="url(#mask-2)"></path>
            <path d="M132.6782,210.0918 C132.4292,209.3738 132.0742,208.7358 131.6162,208.1828 C131.1592,207.6268 130.6062,207.1798 129.9522,206.8418 C129.2992,206.5038 128.5572,206.3368 127.7302,206.3368 C126.8812,206.3368 126.1302,206.5038 125.4772,206.8418 C124.8242,207.1798 124.2682,207.6268 123.8132,208.1828 C123.3552,208.7358 122.9892,209.3798 122.7182,210.1088 C122.4452,210.8378 122.2662,211.5828 122.1792,212.3458 L133.0882,212.3458 C133.0662,211.5608 132.9292,210.8098 132.6782,210.0918 M122.4892,216.3798 C122.6962,217.1728 123.0282,217.8878 123.4862,218.5188 C123.9412,219.1508 124.5192,219.6718 125.2142,220.0848 C125.9122,220.4988 126.7502,220.7078 127.7302,220.7078 C129.2332,220.7078 130.4072,220.3148 131.2592,219.5298 C132.1092,218.7478 132.6952,217.7008 133.0212,216.3948 L135.0792,216.3948 C134.6442,218.3128 133.8422,219.7918 132.6782,220.8368 C131.5142,221.8838 129.8642,222.4058 127.7302,222.4058 C126.4012,222.4058 125.2532,222.1708 124.2842,221.7018 C123.3162,221.2368 122.5252,220.5938 121.9172,219.7758 C121.3082,218.9598 120.8562,218.0108 120.5622,216.9328 C120.2662,215.8558 120.1212,214.7188 120.1212,213.5208 C120.1212,212.4088 120.2662,211.3228 120.5622,210.2538 C120.8562,209.1878 121.3082,208.2358 121.9172,207.3978 C122.5252,206.5598 123.3162,205.8838 124.2842,205.3728 C125.2532,204.8598 126.4012,204.6058 127.7302,204.6058 C129.0812,204.6058 130.2352,204.8758 131.1932,205.4208 C132.1502,205.9648 132.9292,206.6768 133.5272,207.5598 C134.1272,208.4428 134.5572,209.4548 134.8202,210.5978 C135.0792,211.7418 135.1882,212.9018 135.1442,214.0758 L122.1792,214.0758 C122.1792,214.8168 122.2822,215.5838 122.4892,216.3798" id="Fill-53" fill="#CC0000" sketch:type="MSShapeGroup" mask="url(#mask-2)"></path>
            <path d="M34.52,244.4033 C35.193,244.4033 35.835,244.3023 36.447,244.0923 C37.056,243.8863 37.589,243.5883 38.047,243.1963 C38.505,242.8023 38.868,242.3313 39.141,241.7753 C39.412,241.2193 39.549,240.5833 39.549,239.8653 C39.549,238.4273 39.136,237.2943 38.309,236.4673 C37.48,235.6403 36.218,235.2273 34.52,235.2273 L26.225,235.2273 L26.225,244.4033 L34.52,244.4033 Z M34.682,233.3323 C35.64,233.3323 36.55,233.4523 37.41,233.6923 C38.27,233.9323 39.021,234.2953 39.664,234.7863 C40.306,235.2753 40.817,235.9063 41.199,236.6793 C41.579,237.4533 41.772,238.3603 41.772,239.4073 C41.772,240.8873 41.389,242.1723 40.627,243.2603 C39.865,244.3493 38.734,245.0483 37.231,245.3523 L37.231,245.4173 C37.994,245.5253 38.625,245.7263 39.124,246.0223 C39.624,246.3153 40.035,246.6893 40.351,247.1473 C40.666,247.6053 40.895,248.1333 41.035,248.7303 C41.177,249.3313 41.269,249.9793 41.314,250.6743 C41.333,251.0683 41.355,251.5463 41.378,252.1123 C41.4,252.6783 41.445,253.2523 41.509,253.8273 C41.574,254.4043 41.677,254.9493 41.819,255.4603 C41.961,255.9703 42.151,256.3703 42.392,256.6523 L39.943,256.6523 C39.812,256.4343 39.708,256.1693 39.63,255.8503 C39.555,255.5353 39.501,255.2093 39.468,254.8713 C39.435,254.5363 39.407,254.2043 39.387,253.8773 C39.365,253.5493 39.342,253.2653 39.32,253.0283 C39.278,252.1993 39.206,251.3783 39.108,250.5593 C39.01,249.7443 38.804,249.0153 38.488,248.3733 C38.172,247.7313 37.714,247.2123 37.117,246.8213 C36.517,246.4293 35.696,246.2543 34.651,246.2993 L26.225,246.2993 L26.225,256.6523 L24.002,256.6523 L24.002,233.3323 L34.682,233.3323 Z" id="Fill-54" fill="#CC0000" sketch:type="MSShapeGroup" mask="url(#mask-2)"></path>
            <path d="M47.485,256.652 L45.429,256.652 L45.429,239.798 L47.485,239.798 L47.485,256.652 Z M47.485,236.632 L45.429,236.632 L45.429,233.332 L47.485,233.332 L47.485,236.632 Z" id="Fill-55" fill="#CC0000" sketch:type="MSShapeGroup" mask="url(#mask-2)"></path>
            <path d="M61.1387,243.082 C60.8987,242.613 60.5767,242.228 60.1757,241.921 C59.7707,241.616 59.3097,241.395 58.7877,241.253 C58.2647,241.111 57.7097,241.041 57.1207,241.041 C56.6627,241.041 56.2017,241.089 55.7327,241.186 C55.2637,241.284 54.8337,241.449 54.4427,241.678 C54.0517,241.906 53.7337,242.205 53.4957,242.574 C53.2567,242.945 53.1367,243.403 53.1367,243.948 C53.1367,244.403 53.2507,244.791 53.4797,245.106 C53.7087,245.422 53.9957,245.69 54.3457,245.908 C54.6937,246.126 55.0737,246.305 55.4867,246.447 C55.9007,246.587 56.2827,246.701 56.6317,246.787 L59.3737,247.41 C59.9627,247.497 60.5437,247.653 61.1217,247.882 C61.6997,248.111 62.2107,248.41 62.6577,248.781 C63.1037,249.152 63.4677,249.607 63.7517,250.152 C64.0347,250.696 64.1767,251.339 64.1767,252.079 C64.1767,252.995 63.9697,253.773 63.5567,254.416 C63.1407,255.058 62.6127,255.58 61.9707,255.982 C61.3287,256.387 60.6047,256.675 59.7987,256.848 C58.9937,257.023 58.1987,257.11 57.4137,257.11 C55.4337,257.11 53.8287,256.642 52.5967,255.706 C51.3657,254.77 50.6647,253.266 50.4917,251.199 L52.5497,251.199 C52.6367,252.593 53.1417,253.643 54.0657,254.349 C54.9927,255.058 56.1407,255.413 57.5137,255.413 C58.0137,255.413 58.5307,255.356 59.0637,255.248 C59.5967,255.139 60.0947,254.955 60.5497,254.692 C61.0077,254.433 61.3847,254.101 61.6777,253.695 C61.9707,253.293 62.1187,252.799 62.1187,252.21 C62.1187,251.71 62.0147,251.291 61.8087,250.953 C61.6017,250.615 61.3227,250.334 60.9737,250.104 C60.6277,249.876 60.2277,249.686 59.7847,249.532 C59.3377,249.382 58.8857,249.25 58.4277,249.142 L55.7837,248.552 C55.1077,248.379 54.4877,248.178 53.9207,247.949 C53.3537,247.72 52.8597,247.438 52.4347,247.101 C52.0107,246.763 51.6787,246.347 51.4387,245.857 C51.1987,245.369 51.0777,244.763 51.0777,244.046 C51.0777,243.196 51.2677,242.468 51.6507,241.856 C52.0307,241.248 52.5277,240.756 53.1367,240.388 C53.7447,240.017 54.4267,239.745 55.1777,239.569 C55.9287,239.396 56.6737,239.31 57.4137,239.31 C58.2647,239.31 59.0527,239.419 59.7847,239.637 C60.5137,239.854 61.1557,240.192 61.7107,240.647 C62.2667,241.105 62.7047,241.672 63.0317,242.348 C63.3587,243.02 63.5457,243.816 63.5877,244.729 L61.5297,244.729 C61.5077,244.099 61.3787,243.552 61.1387,243.082" id="Fill-56" fill="#CC0000" sketch:type="MSShapeGroup" mask="url(#mask-2)"></path>
            <path d="M69.2056,233.332 L69.2056,247.966 L78.5456,239.799 L81.2896,239.799 L74.1026,246.036 L81.7786,256.652 L79.1986,256.652 L72.5366,247.475 L69.2056,250.25 L69.2056,256.652 L67.1476,256.652 L67.1476,233.332 L69.2056,233.332 Z" id="Fill-57" fill="#CC0000" sketch:type="MSShapeGroup" mask="url(#mask-2)"></path>
            <path d="M109.9326,45.9316 C109.9326,45.9316 108.6596,47.1886 107.1966,49.1676 C100.1826,37.5666 111.9206,24.5096 111.9206,24.5096 C111.9206,24.5096 98.2076,32.3916 93.3136,45.7866 C90.8816,41.7326 93.3246,31.8196 93.3246,31.8196 C93.3246,31.8196 56.1096,57.9686 86.0396,86.9636 C85.6006,85.4416 84.8336,83.6316 84.9926,81.2136 C85.2966,76.6936 88.2956,74.5096 90.9116,71.2936 C93.5056,68.1016 94.9636,64.9966 95.7866,60.4986 C96.5686,65.4576 98.5796,69.1436 101.7066,72.5106 C105.0236,76.0816 108.5866,81.1696 105.3336,86.9496 C124.7096,75.2446 109.9326,45.9316 109.9326,45.9316" id="Fill-58" fill="#CC0000" sketch:type="MSShapeGroup" mask="url(#mask-2)"></path>
        </g>
    </g>
</svg>