<?xml version="1.0" encoding="UTF-8" standalone="no"?>
<svg width="354px" height="173px" viewBox="0 0 354 173" version="1.1" xmlns="http://www.w3.org/2000/svg" xmlns:xlink="http://www.w3.org/1999/xlink" xmlns:sketch="http://www.bohemiancoding.com/sketch/ns">
    <title>wca-logo-from-pdf</title>
    <description>Created with Sketch (http://www.bohemiancoding.com/sketch)</description>
    <defs></defs>
    <g id="Page-1" stroke="none" stroke-width="1" fill="none" fill-rule="evenodd" sketch:type="MSPage">
        <g id="Group" sketch:type="MSLayerGroup" transform="translate(186.000000, 42.000000)" fill="#FFFFFF">
            <path d="M22.2949,20.0576 L22.2949,20.1876 L22.5519,20.4496 L22.8439,21.0646 L23.3659,21.0646 L23.6269,20.7716 L23.6269,20.6426 L23.4959,20.6726 L22.9429,20.2866 L22.8119,19.8956 L22.5519,19.9276 L22.2949,20.0576 Z M20.2149,16.2286 L20.8949,17.6226 L21.5799,18.7916 L22.2589,19.4106 L22.2279,18.4996 L21.8399,18.1086 L21.9349,17.5896 L21.8049,17.4606 L21.2859,17.3616 L21.1249,16.7136 L21.1249,16.3226 L20.9939,16.1906 L20.1799,15.7046 L20.0529,15.7046 L20.2149,16.2286 Z M10.0139,3.9776 L10.1749,4.2396 L10.9539,4.4626 L10.4049,7.4516 L10.3379,8.8816 L9.8829,10.7366 L9.4919,10.7366 L9.0049,12.3256 L8.7799,12.7166 L7.7049,15.9966 L7.6099,16.9396 L8.3889,16.5156 L8.8759,15.8366 L8.8759,15.7046 L9.3959,15.4456 L9.3959,15.3136 L9.8829,14.8946 L10.7609,13.6256 L13.1319,10.8996 L13.4879,10.2136 L14.5269,9.7916 L15.2739,8.7196 L16.1519,7.9116 L17.2899,7.3576 L18.0689,7.3246 L19.1399,8.4596 L19.4329,9.1106 L19.4009,9.6286 L19.3379,10.2796 L18.9789,10.6706 L19.4009,11.0926 L19.4999,10.5386 L19.5949,10.4096 L20.0179,10.6376 L20.9939,12.8156 L21.5799,14.6016 L22.9749,17.5546 L25.0219,20.0926 L25.4129,20.4496 L25.6709,20.4496 L25.6709,20.0576 L26.0609,20.0576 L25.9989,18.1086 L26.4839,17.6846 L26.6149,17.6846 L26.3219,16.6476 L26.8399,16.6476 L26.9709,16.5156 L26.9709,16.2586 L26.7099,16.2586 L26.7099,16.1286 L26.2549,14.9576 L26.3859,14.8286 L26.6469,14.6966 L26.5799,13.0086 L26.9709,12.7496 L26.9389,12.0986 L27.0689,12.0986 L26.9069,11.1916 L26.9069,10.8006 L27.5549,10.3756 L27.2629,9.8606 L27.1329,9.8606 L27.1009,9.0786 L26.8399,8.8516 L26.8079,8.0736 L27.7179,7.9116 L27.8489,7.6496 L27.6859,7.3876 L26.9069,6.7726 L27.1329,6.3486 L27.5239,6.3486 L27.5239,6.0886 L27.2629,5.8296 L27.4929,5.1796 L27.9119,5.1796 L28.2719,4.7556 L28.2399,4.3696 L29.2789,4.0766 L30.5129,4.3336 L31.4209,4.5946 L32.4289,4.4626 L33.2399,4.5626 L36.5199,4.1406 L38.4729,4.2056 L38.3739,4.5946 L37.8209,4.8546 L36.8139,4.7906 L34.8649,4.9866 L34.2159,5.0166 L33.7939,5.5706 L32.7219,5.7006 L32.0689,6.3186 L31.6819,6.1886 L30.9039,6.3486 L30.5129,6.1196 L29.5039,6.6736 L29.1479,7.5836 L29.0809,9.4056 L28.8879,11.3846 L28.7569,11.6466 L28.7889,13.0726 L28.4329,13.3336 L28.8559,14.6346 L28.6929,16.8426 L28.2039,18.1416 L27.9779,18.6936 L28.2399,18.9216 L28.3689,19.5706 L27.9459,21.5516 L27.2949,22.0736 L26.1599,22.6576 L25.2829,23.7296 L25.0219,23.5996 L24.2429,23.7596 L23.0419,23.0136 L23.0419,22.8836 L22.6189,22.2656 L22.2279,22.1366 L21.4169,20.8706 L21.5119,20.4796 L21.3809,20.2206 L20.9939,20.2206 L20.8329,19.7026 L20.1799,18.9546 L20.1479,18.5636 L19.7599,18.3366 L19.6299,18.3366 L19.5949,17.5546 L18.9149,16.3886 L19.0449,16.2586 L19.5629,16.2586 L19.5309,15.9966 L18.4919,15.6416 L18.5909,14.9916 L18.1999,14.4726 L17.9389,14.2106 L17.7769,13.7256 L17.7769,13.4636 L17.3539,12.4236 L17.3219,11.9036 L16.9339,11.7766 L16.6419,10.6376 L16.2189,10.3756 L15.7289,10.5386 L15.0809,10.5386 L14.7249,11.2866 L14.0729,11.6466 L12.9389,13.1076 L12.4479,13.4956 L11.9299,14.0506 L11.4439,14.9576 L11.0529,15.1196 L10.9539,15.3816 L9.4599,17.2676 L8.5819,18.2076 L7.8349,19.2466 L6.8629,21.0966 L6.6019,21.2596 L4.9449,22.4966 L4.9769,22.8526 L4.0689,23.5366 L3.8069,23.5676 L3.6779,23.4376 L4.1669,22.1056 L4.3929,21.5866 L4.5859,19.6356 L4.9769,19.0836 L4.9449,18.4336 L5.0759,18.3066 L5.3999,17.1356 L5.5309,17.0056 L5.7879,16.3526 L5.7559,15.5756 L6.3729,14.5026 L6.2109,14.1116 L6.9259,11.7416 L7.1549,11.3546 L7.2509,10.3126 L7.9979,9.1106 L7.7049,8.7196 L7.7729,6.7726 L8.1279,5.7316 L8.1279,5.6016 L8.7799,5.5706 L8.9069,5.4386 L8.8759,4.7906 L9.2669,4.7906 L9.3959,4.1076 L9.6229,3.9776 L10.0139,3.9776 Z" id="Fill-1" sketch:type="MSShapeGroup"></path>
            <path d="M41.3491,10.1826 L41.9691,10.2796 L42.3561,11.1916 L42.3561,11.9696 L42.0961,12.8786 L41.3171,13.2706 L40.6681,13.0086 L40.5381,13.1406 L40.9301,13.5276 L40.7991,13.7886 L40.4081,13.7886 L40.2771,13.3976 L40.4081,13.1406 L40.2771,12.7496 L39.8891,12.7496 L38.9771,13.6596 L38.8491,13.6596 L38.7201,13.7886 L38.4581,14.4366 L37.6801,15.0876 L37.4191,15.7386 L37.4191,15.9966 L36.7711,16.6476 L36.5111,17.8166 L35.9891,18.9856 L35.9891,19.6356 L35.5651,20.0926 L35.4701,20.6726 L35.2101,21.3266 L34.9811,22.0416 L35.2101,22.3656 L35.6011,22.1056 L36.7711,20.9346 L37.9371,19.6356 L38.8141,18.7266 L39.7241,17.6226 L40.6021,16.7136 L41.8381,15.1866 L43.2651,13.6596 L43.6561,13.6596 L44.1751,14.1796 L44.1111,14.8946 L44.1751,15.7386 L43.9181,17.1676 L43.9181,18.0766 L43.6561,18.5936 L44.5661,20.4156 L44.4351,20.9346 L45.2141,21.4546 L46.0921,21.5216 L47.2621,20.7416 L48.4951,20.0276 L49.3721,19.1176 L50.9341,17.7226 L52.4921,16.2586 L53.0761,15.9336 L52.6881,16.9726 L51.5821,18.4666 L51.1941,18.5936 L50.4121,19.6356 L49.8941,20.0926 L49.1161,20.6726 L48.7561,21.0026 L48.3021,21.3266 L47.1991,22.2356 L46.2221,22.9826 L44.9891,23.4676 L43.5271,23.6656 L42.7481,23.4046 L42.3561,22.6266 L41.7081,21.9736 L42.2261,21.5866 L42.2261,21.4546 L41.5781,20.9046 L41.5781,20.0276 L41.7081,19.6356 L41.4471,19.1176 L41.5781,18.8556 L41.1861,18.4666 L40.9301,18.0766 L40.7991,18.0766 L38.8491,19.7656 L37.9371,21.0646 L37.1591,21.8436 L37.1591,21.9736 L36.6401,22.3656 L36.2491,23.0136 L35.3401,23.4046 L34.5611,24.1846 L33.9091,24.5766 L33.7791,24.8326 L33.0001,24.9616 L32.7401,24.5766 L33.6521,21.8436 L34.0391,20.8046 L34.2691,19.9946 L34.5261,19.3106 L35.0791,18.4666 L35.2101,18.3366 L35.3401,17.4276 L36.2491,15.6056 L36.7711,15.0876 L36.7711,14.8286 L36.8971,14.5666 L37.4831,13.5926 L38.1981,12.7496 L38.3291,12.4886 L38.8491,12.0016 L39.6281,11.1916 L40.7991,10.2796 L41.3491,10.1826 Z" id="Fill-2" sketch:type="MSShapeGroup"></path>
            <path d="M60.9668,12.5234 L61.4838,12.6504 L61.8128,12.9104 L62.3618,13.4964 L62.7848,13.8544 L63.3698,14.4364 L63.3068,14.7644 L62.8838,14.7294 L62.5598,14.7944 L62.0378,14.5024 L61.5828,14.2114 L60.9988,14.1114 L60.4448,14.4724 L60.0568,14.6344 L59.9598,14.9584 L59.5718,15.1204 L59.3418,15.6414 L59.1488,16.0304 L58.8868,16.2894 L58.5628,16.9394 L58.0418,17.5544 L57.9788,18.0444 L57.6858,18.5004 L57.2948,18.7614 L56.8718,18.8254 L56.4848,19.4104 L56.3538,19.9274 L55.9628,20.1874 L55.7058,20.7714 L55.5748,21.0334 L55.1518,21.5864 L54.8598,21.6814 L54.5348,22.0734 L53.8838,22.6574 L53.3968,23.2114 L52.8128,23.3374 L52.3258,23.7594 L52.0658,23.5024 L52.1288,22.8834 L52.4568,22.4634 L52.5858,21.9434 L52.4568,21.4244 L52.3888,20.9044 L52.7138,19.8004 L52.7138,19.3104 L53.0058,18.7614 L52.8128,18.3364 L52.9738,17.8474 L52.8438,17.1684 L52.9738,16.5504 L53.2358,15.6734 L53.2358,15.0564 L53.3648,14.6344 L53.7208,14.2744 L53.8518,13.8544 L54.2748,13.7894 L54.5348,13.4634 L54.5348,13.2024 L54.9228,12.9424 L55.2468,13.1074 L55.5748,13.1074 L55.8678,13.3644 L55.5748,13.9824 L55.7058,14.3734 L55.5088,14.6664 L55.4768,15.0564 L55.6378,15.4454 L55.4448,15.9334 L55.2468,16.3224 L55.3458,16.7134 L55.1518,17.1684 L54.9228,17.6544 L55.0538,18.1084 L54.9228,18.6294 L54.7918,19.6354 L55.1828,19.2774 L55.6068,19.0844 L55.9628,18.6294 L56.5158,17.9464 L56.9708,17.5894 L57.0368,17.1994 L57.4918,16.4854 L57.8158,16.2584 L58.0418,15.6414 L58.3018,15.2194 L58.4328,14.7294 L58.6938,14.3734 L59.0178,13.8874 L59.3738,13.6594 L59.4408,13.3644 L59.7968,13.2024 L59.9898,12.8784 L60.2198,12.6504 L60.5758,12.5234 L60.9668,12.5234 Z" id="Fill-3" sketch:type="MSShapeGroup"></path>
            <path d="M73.1772,12.5234 L73.6992,12.6504 L74.0232,12.9104 L74.5752,13.4964 L74.9952,13.8544 L75.5812,14.4364 L75.5172,14.7644 L75.0942,14.7294 L74.7702,14.7944 L74.2482,14.5024 L73.7932,14.2114 L73.2092,14.1114 L72.6582,14.4724 L72.2682,14.6344 L72.1692,14.9584 L71.7812,15.1204 L71.5522,15.6414 L71.3592,16.0304 L71.0982,16.2894 L70.7742,16.9394 L70.2562,17.5544 L70.1892,18.0444 L69.8962,18.5004 L69.5092,18.7614 L69.0862,18.8254 L68.6952,19.4104 L68.5642,19.9274 L68.1762,20.1874 L67.9152,20.7714 L67.7862,21.0334 L67.3632,21.5864 L67.0702,21.6814 L66.7452,22.0734 L66.0972,22.6574 L65.6072,23.2114 L65.0232,23.3374 L64.5362,23.7594 L64.2762,23.5024 L64.3432,22.8834 L64.6672,22.4634 L64.7982,21.9434 L64.6672,21.4244 L64.5992,20.9044 L64.9272,19.8004 L64.9272,19.3104 L65.2192,18.7614 L65.0232,18.3364 L65.1852,17.8474 L65.0582,17.1684 L65.1852,16.5504 L65.4462,15.6734 L65.4462,15.0564 L65.5762,14.6344 L65.9322,14.2744 L66.0622,13.8544 L66.4852,13.7894 L66.7452,13.4634 L66.7452,13.2024 L67.1362,12.9424 L67.4612,13.1074 L67.7862,13.1074 L68.0782,13.3644 L67.7862,13.9824 L67.9152,14.3734 L67.7192,14.6664 L67.6872,15.0564 L67.8482,15.4454 L67.6552,15.9334 L67.4612,16.3224 L67.5562,16.7134 L67.3632,17.1684 L67.1362,17.6544 L67.2642,18.1084 L67.1362,18.6294 L67.0072,19.6354 L67.3952,19.2774 L67.8172,19.0844 L68.1762,18.6294 L68.7262,17.9464 L69.1812,17.5894 L69.2482,17.1994 L69.7022,16.4854 L70.0272,16.2584 L70.2562,15.6414 L70.5122,15.2194 L70.6432,14.7294 L70.9042,14.3734 L71.2282,13.8874 L71.5872,13.6594 L71.6512,13.3644 L72.0072,13.2024 L72.2052,12.8784 L72.4302,12.6504 L72.7892,12.5234 L73.1772,12.5234 Z" id="Fill-4" sketch:type="MSShapeGroup"></path>
            <path d="M82.6606,10.1826 L83.2766,10.2796 L83.6686,11.1916 L83.6686,11.9696 L83.4076,12.8786 L82.6286,13.2706 L81.9756,13.0086 L81.8466,13.1406 L82.2376,13.5276 L82.1066,13.7886 L81.7196,13.7886 L81.5886,13.3976 L81.7196,13.1406 L81.5886,12.7496 L81.1986,12.7496 L80.2886,13.6596 L80.1576,13.6596 L80.0286,13.7886 L79.7666,14.4366 L78.9886,15.0876 L78.7266,15.7386 L78.7266,15.9966 L78.0786,16.6476 L77.8186,17.8166 L77.3006,18.9856 L77.3006,19.6356 L76.8776,20.0926 L76.7786,20.6726 L76.5216,21.3266 L76.2926,22.0416 L76.5216,22.3656 L76.9096,22.1056 L78.0786,20.9346 L79.2496,19.6356 L80.1256,18.7266 L81.0356,17.6226 L81.9136,16.7136 L83.1456,15.1866 L84.5766,13.6596 L84.9646,13.6596 L85.4866,14.1796 L85.4196,14.8946 L85.4866,15.7386 L85.2256,17.1676 L85.2256,18.0766 L84.9646,18.5936 L85.8776,20.4156 L85.7466,20.9346 L86.5256,21.4546 L87.4036,21.5216 L88.5726,20.7416 L89.8076,20.0276 L90.6836,19.1176 L92.2416,17.7226 L93.8046,16.2586 L94.3896,15.9336 L93.9976,16.9726 L92.8946,18.4666 L92.5036,18.5936 L91.7236,19.6356 L91.2026,20.0926 L90.4256,20.6726 L90.0666,21.0026 L89.6146,21.3266 L88.5066,22.2356 L87.5356,22.9826 L86.2976,23.4676 L84.8386,23.6656 L84.0566,23.4046 L83.6686,22.6266 L83.0166,21.9736 L83.5376,21.5866 L83.5376,21.4546 L82.8856,20.9046 L82.8856,20.0276 L83.0166,19.6356 L82.7586,19.1176 L82.8856,18.8556 L82.4976,18.4666 L82.2376,18.0766 L82.1066,18.0766 L80.1576,19.7656 L79.2496,21.0646 L78.4706,21.8436 L78.4706,21.9736 L77.9486,22.3656 L77.5606,23.0136 L76.6486,23.4046 L75.8696,24.1846 L75.2216,24.5766 L75.0906,24.8326 L74.3116,24.9616 L74.0516,24.5766 L74.9596,21.8436 L75.3506,20.8046 L75.5776,19.9946 L75.8376,19.3106 L76.3906,18.4666 L76.5216,18.3366 L76.6486,17.4276 L77.5606,15.6056 L78.0786,15.0876 L78.0786,14.8286 L78.2096,14.5666 L78.7946,13.5926 L79.5096,12.7496 L79.6406,12.4886 L80.1576,12.0016 L80.9366,11.1916 L82.1066,10.2796 L82.6606,10.1826 Z" id="Fill-5" sketch:type="MSShapeGroup"></path>
            <path d="M96.105,13.7256 L96.364,14.7646 L96.364,15.6736 L95.843,16.0606 L95.843,16.4526 L96.235,17.2326 L96.235,17.6226 L95.973,18.4016 L96.235,18.7916 L96.105,20.2206 L96.496,21.0026 L99.093,19.0536 L101.04,18.0146 L101.431,18.0146 L102.602,16.9726 L103.642,16.0606 L104.161,16.1906 L104.161,16.3226 L104.293,16.9726 L104.938,18.0146 L105.07,18.7916 L105.33,19.4406 L105.852,20.3496 L106.109,20.3496 L106.501,19.9606 L107.474,19.6686 L108.188,19.1786 L109.359,18.6936 L110.137,18.1746 L110.661,18.5636 L109.751,19.8316 L108.84,20.2206 L105.98,22.1716 L105.07,22.1716 L104.938,22.2986 L104.683,22.6906 L103.512,23.2106 L103.251,23.2106 L102.732,22.5586 L102.732,22.0416 L102.602,22.0416 L102.473,21.9106 L102.341,20.3496 L101.431,19.5706 L100.132,20.2206 L99.871,20.2206 L99.093,20.7416 L98.183,21.5216 L97.144,22.1716 L96.624,22.6906 L96.235,22.8206 L94.936,23.7296 L93.635,24.5076 L93.376,24.3776 L93.376,22.5586 L93.503,21.7806 L93.764,21.5216 L93.764,21.1326 L94.156,20.7416 L93.894,19.8316 L94.026,19.3106 L93.894,18.4016 L94.156,17.6226 L93.894,17.3616 L94.672,15.4126 L95.713,13.8546 L95.713,13.7256 L96.105,13.7256 Z" id="Fill-6" sketch:type="MSShapeGroup"></path>
            <path d="M117.3765,14.4043 L117.4425,14.8283 L116.1085,16.3223 L115.7185,17.0393 L115.7185,17.1683 L115.4635,17.4273 L115.4635,17.6843 L114.6815,18.3373 L114.4215,19.6353 L114.0305,20.1573 L114.0305,20.9343 L114.2915,20.9343 L115.1995,20.0273 L115.1995,19.8953 L115.4635,19.6353 L115.8505,19.6353 L116.8895,18.0763 L117.2805,17.1683 L118.0605,16.1293 L118.9375,15.1863 L118.9375,14.9263 L119.0665,14.4043 L117.7665,14.1473 L117.3765,14.4043 Z M124.5555,-0.1167 L125.4655,1.1823 L125.0735,2.8753 L124.6885,3.0023 L125.0735,3.6523 L124.6885,4.0413 L124.6885,5.0813 L124.1645,5.8633 L124.4285,6.9023 L124.1645,7.0323 L124.0375,7.0323 L123.9045,7.1593 L124.0375,7.6823 L123.5195,8.5903 L123.5195,9.2383 L123.3865,9.8903 L123.1275,10.1523 L122.9955,10.1523 L122.9955,10.4093 L123.5195,10.6713 L123.5195,11.1913 L123.2575,11.3193 L122.9955,12.4883 L122.8655,13.2703 L122.9955,13.3973 L122.7385,14.3093 L122.7385,14.9583 L123.1275,15.7383 L122.9955,15.8673 L122.7385,15.9973 L122.4775,16.6473 L122.7385,17.1683 L122.7385,17.9463 L122.6085,17.9463 L122.0855,18.2083 L122.0855,18.3373 L122.2175,18.4673 L122.4775,18.4673 L122.6085,18.9853 L122.7385,20.6733 L122.4775,22.3653 L122.0855,22.6273 L122.4775,23.0133 L122.4775,23.4043 L122.2175,23.6663 L122.3475,24.5763 L122.0855,25.8723 L121.9565,26.2623 L122.0855,26.7843 L121.6335,27.5943 L121.1765,27.4313 L121.1765,27.0413 L121.4395,26.6543 L121.1765,25.8723 L121.4395,25.3533 L121.3085,24.7053 L121.5665,21.9733 L121.8265,21.8433 L121.8265,21.7153 L121.5665,21.3263 L121.5665,20.4163 L121.4395,20.4163 L121.1765,20.5483 L121.0485,20.2863 L121.0485,20.0273 L121.4395,20.0273 L121.6995,18.7263 L121.8265,18.4673 L121.5665,18.2083 L121.5665,18.0763 L121.4395,17.9463 L121.0485,17.2983 L120.9165,16.7773 L120.9165,16.5153 L121.1765,16.5153 L121.4395,16.7773 L121.3085,17.1683 L121.4395,17.2983 L121.6995,17.0393 L121.5665,15.4763 L121.3085,14.6963 L121.1765,14.8283 L120.5305,14.9583 L120.5305,15.0883 L120.2695,15.3483 L119.7475,15.9973 L119.3585,16.2583 L119.3585,16.5153 L119.6205,16.5153 L119.4885,16.9073 L118.9675,17.4273 L118.5785,18.0763 L117.9285,18.5933 L117.0195,19.8953 L116.5005,20.4163 L115.9795,21.0643 L115.1995,21.5873 L114.5495,21.8433 L114.1625,21.8433 L114.1625,22.3653 L113.1205,23.2743 L112.4705,23.6663 L111.0745,23.9583 L110.6505,23.0133 L112.6005,19.2473 L113.2525,17.6843 L113.5095,17.4273 L113.6395,16.7773 L115.8505,13.6593 L117.1505,12.3583 L118.3195,11.4483 L118.7065,11.3193 L119.0975,10.8003 L119.6205,10.5393 L120.5305,10.6713 L121.3085,9.5003 L121.4395,8.7193 L121.3085,8.3303 L121.4395,7.8123 L121.9565,7.6823 L121.9565,7.4213 L121.8265,7.2913 L121.8265,7.1593 L121.9565,6.6403 L121.6995,5.9923 L121.4395,5.7313 L121.8265,4.6943 L121.9565,4.0413 L122.2175,3.6523 L122.3475,2.7453 L122.2175,1.9633 L123.1275,0.9233 L123.3865,0.9233 L123.5195,0.7943 L123.7775,0.2723 L124.2965,-0.1167 L124.5555,-0.1167 Z" id="Fill-7" sketch:type="MSShapeGroup"></path>
            <path d="M138.814,11.1562 L139.464,11.4162 L139.856,12.0682 L139.594,13.6262 L139.333,13.8872 L139.074,14.4362 L138.748,15.1532 L138.555,15.9972 L138.422,16.1292 L138.197,16.7442 L138.164,17.4272 L137.777,18.5942 L137.253,18.8552 L137.386,20.0272 L137.386,20.4162 L137.122,20.5482 L137.122,21.5872 L136.606,22.1052 L136.606,23.0132 L136.476,23.0132 L136.085,23.1452 L136.085,23.2742 L136.606,23.6662 L136.606,24.7052 L136.214,26.0022 L136.344,26.3922 L135.824,26.9112 L135.824,27.0412 L136.214,27.5642 L135.696,29.9042 L135.824,30.4212 L135.566,31.2002 L135.434,31.3302 L135.043,32.3692 L135.043,32.5022 L135.434,32.2402 L135.696,32.3692 L135.566,33.6702 L135.043,34.0612 L135.043,34.1882 L135.175,34.5802 L135.043,35.2282 L134.784,35.7492 L133.875,36.3972 L133.618,37.1792 L133.618,37.3062 L132.706,37.8302 L132.187,38.1532 L131.148,38.9992 L130.5,38.9992 L130.238,39.2602 L129.067,39.2602 L128.937,39.1292 L127.865,39.3242 L126.696,39.1922 L124.485,38.3462 L122.637,37.3062 L122.246,36.6592 L122.376,36.5292 L123.415,36.9202 L123.547,36.9202 L123.801,36.5292 L124.325,36.6592 L124.584,37.3062 L125.364,37.5682 L125.882,37.3062 L125.882,37.0502 L124.716,36.3972 L123.933,35.7492 L123.286,35.7492 L122.505,35.3572 L122.376,35.4902 L120.945,34.5802 L120.813,34.1882 L120.945,34.0612 L121.336,33.9312 L121.985,34.1882 L122.376,34.8422 L124.065,35.1002 L124.716,35.6192 L125.234,35.8812 L125.626,36.3972 L126.404,36.5292 L126.665,36.2672 L127.054,36.6592 L127.181,37.1792 L127.865,37.4382 L128.614,37.5382 L129.554,37.7662 L130.238,37.3422 L131.277,37.3062 L132.317,36.9202 L132.835,35.4902 L132.835,35.1002 L132.964,34.5802 L133.356,34.0612 L133.618,33.1492 L133.488,32.6312 L133.745,32.2402 L133.875,30.5522 L133.488,30.0292 L133.618,29.1222 L133.745,29.1222 L134.133,29.6422 L134.397,29.6422 L134.525,29.5122 L134.265,28.9902 L134.265,28.4732 L134.006,28.3422 L134.006,28.2122 L134.133,27.6932 L134.525,27.1732 L134.265,26.6542 L134.525,25.2232 L134.525,24.7052 L134.914,24.5762 L134.914,24.3142 L134.784,24.1842 L134.525,24.4432 L134.397,24.4432 L134.265,24.3142 L134.397,23.9232 L134.657,23.9232 L134.784,24.0522 L135.043,23.7932 L134.914,23.2742 L135.305,22.7542 L134.914,22.4972 L135.175,21.7152 L135.043,21.5872 L134.784,21.7152 L134.657,21.5872 L134.784,21.1962 L134.657,21.1962 L134.914,20.5482 L134.784,20.4162 L135.305,18.7262 L135.175,18.4672 L134.397,18.8552 L134.006,19.2472 L133.745,19.7652 L133.096,20.0272 L132.446,20.8042 L132.187,20.8042 L132.055,21.1962 L131.148,21.5872 L130.108,22.3982 L129.328,23.1452 L127.898,23.8282 L126.729,24.1842 L126.339,23.7932 L126.467,23.2742 L126.729,23.1452 L126.988,21.5872 L126.858,21.1962 L127.25,21.0642 L127.25,20.1572 L127.506,19.7652 L127.768,19.6352 L127.638,19.1172 L127.898,18.0762 L127.768,17.4272 L128.03,16.6472 L128.645,15.8982 L129.067,15.4762 L129.783,14.6962 L130.108,14.3092 L130.626,14.3732 L131.148,14.5662 L131.537,14.9582 L131.277,16.1292 L131.277,16.6142 L130.952,17.1352 L130.756,17.6842 L130.301,18.2712 L130.368,18.9852 L129.846,20.2862 L129.458,20.8042 L129.717,21.0642 L130.5,20.8042 L131.148,20.4492 L131.732,19.9272 L132.317,19.3772 L133.488,18.5002 L134.233,17.9162 L134.883,17.2322 L135.531,16.3882 L135.824,15.7382 L135.953,15.3132 L135.892,14.4362 L135.953,13.7562 L136.476,13.0722 L137.386,12.1952 L137.645,12.0682 L138.422,11.1562 L138.814,11.1562 Z M120.813,35.4902 L121.468,35.8812 L121.985,36.2672 L121.985,36.6592 L120.558,36.1402 L120.297,35.6192 L120.426,35.3572 L120.813,35.4902 Z" id="Fill-8" sketch:type="MSShapeGroup"></path>
            <path d="M149.9829,2.4199 L150.2449,2.6769 L149.9829,3.7159 L149.9829,3.8479 L149.5939,3.9779 L149.5629,4.9529 L148.9429,6.8719 L148.5569,8.1679 L148.4249,8.9499 L148.4249,9.7289 L148.0339,9.9899 L147.7769,11.9389 L148.9429,12.2319 L150.6019,12.0679 L151.6439,12.0679 L153.1999,12.0679 L154.6319,11.9699 L155.1489,12.4879 L155.1489,12.6169 L154.7269,12.8489 L153.9769,12.7499 L153.3319,13.1079 L152.6479,13.2349 L151.6719,13.2019 L151.0219,13.2019 L150.5039,13.3339 L148.4249,13.1079 L147.3849,13.6259 L146.9949,14.4039 L146.8649,15.3139 L146.8649,15.7049 L146.9949,16.2289 L146.6049,16.8759 L146.7379,17.9159 L146.2829,18.4009 L146.2829,19.0539 L146.2829,20.1239 L145.7289,21.4249 L145.6289,21.9099 L146.0209,22.0419 L146.1529,22.1719 L145.8909,22.6909 L145.6289,22.9489 L146.1529,23.5999 L146.1529,24.8989 L146.1529,25.4169 L146.5399,25.5469 L148.4889,23.9909 L148.8789,23.2109 L149.2709,22.9489 L150.0509,22.1719 L150.3099,21.5219 L150.9589,21.0029 L150.9589,20.8709 L151.3489,20.4799 L151.3489,19.8319 L151.6069,19.7019 L151.7389,19.3109 L152.3559,19.3109 L152.7479,19.8009 L152.2589,20.8709 L151.8679,21.5219 L151.2199,22.2989 L150.9589,22.8199 L150.5669,22.9489 L150.5669,23.0819 L149.7869,24.1209 L148.3609,25.6789 L147.7089,26.1989 L147.1899,26.1989 L146.5399,26.7179 L145.1109,27.2389 L144.5899,27.4959 L144.2019,27.4959 L143.8429,26.6539 L143.8129,26.1989 L144.0749,25.9379 L143.9419,24.7689 L143.9419,24.3779 L144.0749,23.8589 L143.8129,23.3379 L143.9419,22.8199 L143.6829,22.4289 L144.0749,21.2599 L144.1349,20.2559 L144.5269,19.6689 L144.4609,19.0539 L144.9819,18.5329 L144.7539,17.8829 L144.9159,17.2979 L145.3069,16.8759 L145.1769,16.8759 L144.7859,16.6139 L145.0119,16.1289 L145.3069,15.8369 L145.4039,15.3139 L145.6959,14.7949 L145.8909,13.4639 L145.1439,13.5929 L144.3669,13.6589 L143.6169,13.8879 L143.2259,13.6259 L142.5809,13.6259 L142.4479,13.3639 L142.5809,12.7169 L142.8349,12.5869 L144.3969,12.1949 L145.2439,12.0989 L145.6629,11.9699 L146.2139,12.0679 L146.6049,11.9389 L146.4759,11.1559 L146.0849,10.7679 L146.2139,10.1169 L146.2139,9.7289 L146.7379,8.6889 L146.2139,7.9109 L146.3459,7.6489 L146.6049,7.6489 L146.7379,6.9969 L147.1239,6.6099 L146.8649,6.2189 L147.1239,5.7969 L147.1239,5.0169 L147.3849,4.4979 L147.3849,4.1079 L147.9039,3.9779 L147.7769,3.7159 L149.0729,2.1579 L149.9829,2.4199 Z" id="Fill-9" sketch:type="MSShapeGroup"></path>
            <path d="M160.5054,10.7363 L160.6354,10.7363 L160.6354,11.2553 L160.3734,12.1653 L160.1184,12.5563 L159.9864,12.8153 L159.5964,13.3343 L159.5964,13.5923 L159.2094,14.1113 L158.9784,14.7293 L158.5564,15.1533 L158.5564,16.4523 L158.4274,17.0993 L158.0374,17.3613 L158.0374,17.7533 L158.5264,17.8473 L159.5324,16.8073 L160.3124,15.8033 L160.2464,14.8583 L160.6654,14.6013 L160.7974,12.9423 L160.7344,12.3933 L161.2524,11.6113 L162.0664,10.6043 L162.7824,10.8313 L163.2344,11.1233 L163.2344,12.0333 L162.8434,12.2953 L162.8434,12.4243 L162.9754,12.9423 L162.7164,13.2023 L162.4544,14.3733 L161.8064,14.8943 L161.4154,15.6743 L161.1554,15.9333 L160.8634,16.5823 L161.3824,16.3883 L161.8064,16.0603 L162.1594,15.8033 L162.7164,15.6743 L163.5934,15.0883 L164.2764,14.7643 L164.6324,14.4363 L165.4124,13.9823 L165.9964,13.6263 L166.9064,13.4643 L166.5184,14.2113 L166.0964,14.6343 L165.5394,14.9263 L164.9244,15.4123 L164.6624,15.8033 L163.4934,16.3223 L163.3664,16.5823 L162.2924,16.7143 L161.9364,17.2323 L161.4154,17.6233 L160.7974,17.9163 L159.5964,18.7923 L158.8174,19.0533 L158.1674,19.7023 L158.1674,20.3493 L158.0374,20.4793 L157.9084,20.4793 L157.9084,20.6113 L158.1674,21.4883 L158.3944,22.0733 L158.6864,22.4283 L159.4664,22.5583 L160.1184,22.3653 L160.3434,22.0073 L160.7974,21.8803 L161.0574,21.6813 L161.7074,21.5873 L162.4544,21.1323 L163.2344,20.3493 L163.4934,20.2563 L164.6954,19.4733 L165.4784,18.5933 L166.2234,17.8823 L166.7114,17.7533 L166.8734,18.4333 L165.9314,19.4103 L164.6624,20.4793 L163.7534,20.9673 L163.6234,21.3893 L162.7164,22.1723 L162.0664,22.5583 L161.0264,22.6903 L160.8974,23.0823 L160.8974,23.4673 L160.1184,23.5993 L159.5964,23.9913 L159.2094,23.9913 L157.3234,24.2503 L156.2824,23.5363 L156.0894,22.5583 L155.8294,22.1723 L155.8294,21.2593 L155.6974,20.8713 L155.8294,20.6113 L155.8294,20.4793 L155.5674,19.8323 L155.8294,18.6623 L155.8294,17.8823 L156.2164,17.0993 L156.3484,16.1903 L156.4784,16.0603 L156.9984,15.0213 L157.3854,13.7253 L158.4274,12.2953 L158.8174,12.0333 L158.8174,11.7763 L159.0774,11.6463 L160.1184,10.6043 L160.5054,10.7363 Z" id="Fill-10" sketch:type="MSShapeGroup"></path>
            <path d="M16.8813,29.3721 L16.8813,29.5011 L17.2723,30.0191 L18.1823,30.7981 L18.4433,31.7071 L18.3123,32.7461 L17.7943,32.8791 L17.6633,33.0081 L17.6633,34.0481 L16.8813,34.9571 L16.6243,34.9571 L16.4933,34.0481 L16.3633,33.6611 L16.7543,33.2691 L16.7543,33.1381 L16.3633,32.6221 L15.8413,32.4891 L15.5853,32.3601 L15.4543,31.7421 L14.6753,31.3201 L13.7633,31.5801 L12.5963,32.2301 L11.1663,33.6611 L10.7753,34.3091 L10.5173,34.3091 L10.3873,34.0481 L9.7343,34.0481 L9.3463,34.8271 L8.6943,35.4781 L8.5643,35.7391 L8.5643,35.8671 L8.0473,36.2581 L8.0473,36.5181 L7.5253,37.4271 L7.0073,37.5571 L7.0073,38.3371 L6.6163,39.1141 L6.6163,39.2461 L6.7463,39.2461 L7.0073,39.3761 L6.3583,40.4151 L5.4463,42.4941 L5.0583,42.7561 L5.0583,43.0151 L4.9273,43.1431 L4.6673,43.1431 L4.5363,43.2741 L4.5363,44.5751 L4.1493,45.4821 L3.8883,45.6121 L3.8883,48.6011 L4.1493,49.3811 L4.7983,50.2931 L5.3183,50.6821 L6.4853,51.2021 L7.1373,51.2021 L7.6553,50.6821 L9.2173,50.6821 L9.6053,50.9431 L9.7343,50.8111 L9.7343,50.4201 L12.5963,49.6431 L14.2843,48.8621 L16.4933,47.5631 L17.1413,47.4321 L18.9613,46.1361 L19.6123,46.1361 L20.2603,45.3521 L21.0393,45.3521 L21.1703,45.7441 L20.7823,46.1361 L20.3913,46.2631 L19.4823,47.0451 L17.5323,48.2141 L17.2723,48.4711 L15.9723,48.9921 L15.1933,49.6431 L13.3753,50.4201 L13.2443,50.4201 L10.7753,51.7211 L10.7753,51.8511 L9.0863,52.4981 L8.5643,52.7601 L7.3993,52.8901 L6.8773,53.0211 L6.4853,53.0211 L6.2283,53.4131 L2.7183,53.1511 L2.4583,52.7601 L2.4583,52.6311 L1.9393,52.3711 L1.8103,52.3711 L1.6793,51.0721 L1.5483,50.9431 L1.0303,50.9431 L0.7693,50.0331 L0.5083,49.7711 L0.5083,49.6431 L0.6393,49.5101 L0.7693,49.6431 L0.9003,49.5101 L0.7693,48.8621 L0.6393,48.7321 L0.2483,48.7321 L0.2483,48.3411 L0.5083,48.3411 L0.6393,48.4711 L0.7693,48.4711 L0.7693,48.3411 L0.9003,48.2141 L1.4183,48.3411 L1.5483,48.2141 L1.4183,47.8221 L1.0303,47.8221 L1.4183,46.0031 L1.2873,45.8741 L1.4183,45.6121 L1.5483,45.6121 L1.9393,44.7051 L2.3273,44.5751 L2.4583,44.4431 L2.4583,43.5331 L3.1093,42.6241 L3.4973,42.3641 L3.4973,41.8461 L3.6283,41.3251 L3.6283,41.0631 L4.5363,39.8961 L4.5363,39.7681 L4.6673,39.6381 L4.7983,39.6381 L4.9273,38.9851 L5.9673,37.2981 L6.4853,36.7791 L6.4853,36.5181 L8.1773,34.8271 L8.4383,34.0481 L9.7343,32.8791 L10.1253,32.6221 L10.2563,32.3601 L10.6443,31.9691 L11.8143,31.1881 L12.8533,30.2811 L13.8933,29.8911 L14.8023,29.6291 L15.3233,29.6291 L15.7143,29.3721 L16.8813,29.3721 Z" id="Fill-11" sketch:type="MSShapeGroup"></path>
            <path d="M32.1436,43.8262 L32.7616,43.5332 L33.4446,43.5032 L34.7446,43.6652 L35.8156,43.6652 L36.3696,43.5972 L36.6616,44.0212 L36.4336,44.2802 L35.7496,44.6372 L35.0026,44.8342 L34.5826,44.8342 L34.0286,44.9672 L33.7366,45.0602 L33.5086,45.5512 L33.1526,45.7442 L32.5986,45.7742 L32.4356,47.1752 L32.0146,47.3022 L32.0146,47.7922 L31.8516,48.1152 L31.0726,49.1242 L30.5856,49.5432 L30.0646,50.0952 L29.3176,50.7472 L28.7326,51.3952 L28.1476,51.5582 L28.0176,51.8842 L27.5616,52.0132 L27.1086,52.3382 L26.5896,52.8262 L26.1666,53.0212 L25.4196,53.1512 L24.8676,52.5972 L24.3486,51.9492 L24.4126,51.4592 L24.4436,50.9102 L23.8586,50.1282 L23.7326,49.0572 L23.7326,48.1482 L23.9896,46.8472 L23.3416,46.9762 L22.7876,47.3372 L22.3646,47.5302 L21.4876,48.0152 L21.3606,47.3372 L21.9456,46.4912 L22.7236,46.0692 L23.3726,45.6782 L23.9256,45.0962 L24.8356,44.4122 L25.5186,44.0212 L26.1986,43.6332 L26.8826,43.4722 L26.8506,44.0212 L26.1356,44.7682 L25.9386,45.5512 L26.1026,46.2632 L26.1356,47.0102 L26.1026,47.7922 L26.2976,48.6342 L26.5896,49.2532 L27.0766,49.5432 L27.2056,50.0952 L27.8556,50.0002 L28.4086,49.8032 L28.9936,49.3492 L29.5116,49.0882 L29.8706,48.7322 L30.2266,48.1152 L30.7166,47.5632 L30.6816,47.0452 L30.8116,46.6842 L30.6496,46.0692 L30.5506,45.3202 L30.0966,44.3442 L29.3496,44.0212 L28.8306,43.9252 L28.2466,43.7292 L27.6296,43.3732 L28.1836,43.0142 L28.7326,42.8192 L29.3176,42.6892 L29.9346,42.7222 L30.4246,42.6562 L30.9116,43.0482 L31.3646,43.3052 L32.1436,43.8262 Z" id="Fill-12" sketch:type="MSShapeGroup"></path>
            <path d="M41.6592,41.6836 L41.7882,42.0726 L41.3972,43.2416 L41.6592,44.0216 L41.2682,45.3206 L41.2682,45.8426 L41.0102,48.0486 L40.6182,49.2176 L40.8802,49.9016 L42.0502,48.9606 L42.8292,48.1786 L42.8292,48.0486 L43.4772,47.7916 L43.9982,46.7526 L48.2872,42.5926 L48.8062,42.3306 L48.8062,42.2026 L48.9352,41.8106 L49.7142,41.6836 L50.2362,42.2026 L50.1052,42.8496 L50.2362,43.1116 L49.8452,43.7646 L50.1052,44.2806 L49.7142,45.3206 L49.5832,45.9706 L49.4572,46.8826 L49.4572,47.4006 L49.0662,48.8306 L49.0662,49.8716 L49.1962,49.8716 L50.6242,48.4406 L50.7542,48.4406 L50.8852,48.1786 L52.3152,47.0096 L52.3792,46.6546 L53.3232,46.1996 L54.1332,45.2236 L54.7512,44.9286 L55.1732,44.5416 L55.8222,43.7646 L56.8612,43.3726 L57.5132,43.7646 L58.0312,45.8426 L57.9362,46.1996 L58.0312,46.3926 L57.9012,47.1066 L57.9682,47.4966 L57.7382,48.1156 L58.1612,49.2176 L58.1612,49.9996 L58.5522,50.7806 L59.5262,50.0946 L60.6322,49.6426 L61.3472,49.3806 L61.9952,49.0576 L62.8412,48.4706 L63.4582,48.5706 L62.8412,49.9016 L61.8652,50.3566 L61.2172,51.0726 L60.3082,51.1366 L59.8532,51.7876 L59.0072,52.1756 L57.9682,52.4976 L56.5372,53.2816 L55.6952,52.8266 L55.5642,51.8206 L55.3032,50.9106 L54.9122,50.6486 L55.4342,49.7416 L55.4342,49.6096 L54.9122,49.4796 L54.7812,48.6996 L55.0432,48.4406 L55.0432,47.6606 L54.3942,47.1396 L53.6162,47.4006 L51.1452,49.6096 L50.8852,49.6096 L50.7542,50.1276 L50.3662,50.2566 L49.9752,50.7806 L49.1962,51.4286 L49.0662,51.4286 L48.0272,51.9496 L47.8962,52.3376 L46.8572,53.2466 L46.7262,53.2466 L46.3382,52.7296 L46.4662,50.3896 L46.4662,49.8716 L46.7262,49.6096 L46.8572,48.2776 L47.2482,47.8226 L46.8572,47.1396 L47.2482,46.8826 L47.1172,45.9706 L46.8572,45.7106 L46.0782,46.2296 L45.6862,46.3616 L45.2992,46.8826 L44.9082,47.6606 L44.2602,48.0486 L43.8682,48.8306 L43.3472,49.0876 L41.7882,50.9106 L41.2682,51.2966 L40.7492,51.9496 L40.4892,52.0796 L40.1012,52.4676 L38.9312,52.8596 L38.5402,52.4676 L38.5402,50.6486 L38.4092,50.2566 L38.9312,49.3496 L39.3192,48.9606 L39.0622,48.3086 L39.4502,47.5306 L38.8002,47.2686 L38.8002,46.2296 L39.0622,45.4526 L38.4092,44.8036 L38.0532,44.8986 L37.7932,44.7686 L37.5322,45.1596 L37.2742,45.7746 L36.7212,46.0366 L36.3302,45.7446 L36.5592,45.1906 L37.2742,44.5086 L37.9232,43.9886 L37.9232,43.7296 L38.4092,43.5026 L40.4892,41.6836 L41.6592,41.6836 Z" id="Fill-13" sketch:type="MSShapeGroup"></path>
            <path d="M69.4912,41.6836 L69.6222,42.0726 L69.2312,43.2416 L69.4912,44.0216 L69.1002,45.3206 L69.1002,45.8426 L68.8432,48.0486 L68.4512,49.2176 L68.7122,49.9016 L69.8822,48.9606 L70.6612,48.1786 L70.6612,48.0486 L71.3092,47.7916 L71.8312,46.7526 L76.1192,42.5926 L76.6382,42.3306 L76.6382,42.2026 L76.7672,41.8106 L77.5462,41.6836 L78.0692,42.2026 L77.9382,42.8496 L78.0692,43.1116 L77.6772,43.7646 L77.9382,44.2806 L77.5462,45.3206 L77.4172,45.9706 L77.2892,46.8826 L77.2892,47.4006 L76.8982,48.8306 L76.8982,49.8716 L77.0292,49.8716 L78.4562,48.4406 L78.5872,48.4406 L78.7172,48.1786 L80.1472,47.0096 L80.2112,46.6546 L81.1562,46.1996 L81.9652,45.2236 L82.5832,44.9286 L83.0062,44.5416 L83.6542,43.7646 L84.6932,43.3726 L85.3452,43.7646 L85.8642,45.8426 L85.7682,46.1996 L85.8642,46.3926 L85.7332,47.1066 L85.8002,47.4966 L85.5722,48.1156 L85.9942,49.2176 L85.9942,49.9996 L86.3852,50.7806 L87.3572,50.0946 L88.4642,49.6426 L89.1812,49.3806 L89.8262,49.0576 L90.6752,48.4706 L91.2922,48.5706 L90.6752,49.9016 L89.6992,50.3566 L89.0482,51.0726 L88.1392,51.1366 L87.6872,51.7876 L86.8392,52.1756 L85.8002,52.4976 L84.3692,53.2816 L83.5272,52.8266 L83.3972,51.8206 L83.1362,50.9106 L82.7442,50.6486 L83.2662,49.7416 L83.2662,49.6096 L82.7442,49.4796 L82.6152,48.6996 L82.8752,48.4406 L82.8752,47.6606 L82.2272,47.1396 L81.4482,47.4006 L78.9772,49.6096 L78.7172,49.6096 L78.5872,50.1276 L78.1992,50.2566 L77.8082,50.7806 L77.0292,51.4286 L76.8982,51.4286 L75.8592,51.9496 L75.7282,52.3376 L74.6892,53.2466 L74.5582,53.2466 L74.1702,52.7296 L74.2982,50.3896 L74.2982,49.8716 L74.5582,49.6096 L74.6892,48.2776 L75.0802,47.8226 L74.6892,47.1396 L75.0802,46.8826 L74.9492,45.9706 L74.6892,45.7106 L73.9102,46.2296 L73.5192,46.3616 L73.1312,46.8826 L72.7402,47.6606 L72.0922,48.0486 L71.7002,48.8306 L71.1792,49.0876 L69.6222,50.9106 L69.1002,51.2966 L68.5812,51.9496 L68.3212,52.0796 L67.9332,52.4676 L66.7632,52.8596 L66.3722,52.4676 L66.3722,50.6486 L66.2422,50.2566 L66.7632,49.3496 L67.1512,48.9606 L66.8942,48.3086 L67.2822,47.5306 L66.6342,47.2686 L66.6342,46.2296 L66.8942,45.4526 L66.2422,44.8036 L65.8862,44.8986 L65.6252,44.7686 L65.3652,45.1596 L65.1072,45.7746 L64.5532,46.0366 L64.1622,45.7446 L64.3922,45.1906 L65.1072,44.5086 L65.7562,43.9886 L65.7562,43.7296 L66.2422,43.5026 L68.3212,41.6836 L69.4912,41.6836 Z" id="Fill-14" sketch:type="MSShapeGroup"></path>
            <path d="M98.0063,42.1025 L98.5253,42.3645 L98.7863,42.8855 L98.3963,43.6655 L98.1363,45.6125 L97.7453,46.5215 L97.7453,47.0445 L97.3543,47.8225 L96.9673,48.8625 L96.8373,49.6425 L96.8373,49.7715 L96.9673,49.6425 L97.0993,49.6425 L97.3543,49.3805 L98.1363,49.1235 L98.2633,49.1235 L98.3963,48.9925 L98.3963,48.8625 L99.0463,48.2135 L102.4233,45.8735 L103.3353,45.3525 L104.1123,44.7055 L104.3743,44.4435 L104.3743,44.3135 L104.7633,44.3135 L104.8933,44.0565 L105.2843,43.7945 L105.4133,43.4045 L105.5413,43.4045 L106.3233,42.8855 L106.4553,43.0145 L106.9723,43.1425 L107.2973,44.0565 L106.9083,46.0995 L106.7783,48.3405 L107.1013,48.7325 L107.6193,48.8625 L111.6523,46.1355 L112.5603,45.4825 L113.0783,45.7445 L112.8193,46.5215 L112.6923,46.5215 L109.8303,48.8625 L109.3123,48.8625 L109.3123,49.1235 L108.6613,49.6425 L108.4023,49.7715 L106.3233,51.2025 L104.9243,51.7205 L104.2773,51.7205 L104.4053,51.3335 L104.0143,51.0725 L103.8873,51.0725 L103.8873,49.9015 L104.2773,48.6005 L104.0143,48.2135 L103.9843,47.0445 L103.7553,46.3925 L103.2033,46.5215 L102.5533,47.1745 L102.2963,47.3015 L100.6063,48.4705 L99.5653,48.9925 L99.5653,49.3805 L98.7863,49.9015 L98.3963,49.9015 L97.7453,50.6815 L96.8373,51.2025 L96.4463,51.2025 L96.3173,51.4585 L95.1463,51.9805 L95.0213,52.2425 L94.8893,52.2425 L93.7203,52.4985 L93.7203,51.7205 L94.3653,51.0725 L94.2383,50.5515 L94.4973,50.4195 L94.6293,49.6425 L94.7563,49.5095 L95.0213,49.5095 L95.1463,49.3805 L95.1463,49.1235 L95.0213,48.9925 L94.8893,48.9925 L94.7563,48.8625 L94.7563,48.4705 L95.0213,48.2135 L95.4073,46.2625 L95.2753,45.7445 L95.1463,44.9665 L94.8893,44.7055 L95.1463,44.1835 L95.6663,43.9245 L96.3173,43.1425 L96.5763,43.1425 L97.3543,41.9785 L98.0063,42.1025 Z" id="Fill-15" sketch:type="MSShapeGroup"></path>
            <path d="M116.6138,42.5928 L116.8748,43.6328 L116.8748,44.5418 L116.3538,44.9288 L116.3538,45.3208 L116.7458,46.0998 L116.7458,46.4908 L116.4838,47.2688 L116.7458,47.6598 L116.6138,49.0878 L117.0048,49.8708 L119.6018,47.9218 L121.5508,46.8828 L121.9418,46.8828 L123.1138,45.8428 L124.1498,44.9288 L124.6688,45.0608 L124.6688,45.1908 L124.8008,45.8428 L125.4518,46.8828 L125.5838,47.6598 L125.8408,48.3088 L126.3608,49.2178 L126.6228,49.2178 L127.0108,48.8308 L127.9868,48.5388 L128.7008,48.0488 L129.8678,47.5638 L130.6498,47.0448 L131.1688,47.4318 L130.2598,48.6988 L129.3488,49.0878 L126.4928,51.0398 L125.5838,51.0398 L125.4518,51.1668 L125.1918,51.5588 L124.0228,52.0788 L123.7598,52.0788 L123.2428,51.4288 L123.2428,50.9098 L123.1138,50.9098 L122.9808,50.7808 L122.8518,49.2178 L121.9418,48.4408 L120.6428,49.0878 L120.3848,49.0878 L119.6018,49.6098 L118.6918,50.3898 L117.6548,51.0398 L117.1358,51.5588 L116.7458,51.6878 L115.4448,52.5978 L114.1478,53.3778 L113.8858,53.2458 L113.8858,51.4288 L114.0158,50.6488 L114.2758,50.3898 L114.2758,49.9998 L114.6668,49.6098 L114.4028,48.6988 L114.5348,48.1788 L114.4028,47.2688 L114.6668,46.4908 L114.4028,46.2298 L115.1848,44.2808 L116.2268,42.7228 L116.2268,42.5928 L116.6138,42.5928 Z" id="Fill-16" sketch:type="MSShapeGroup"></path>
            <path d="M136.0044,52.8896 L136.2644,53.5396 L135.8724,54.0616 L135.8724,54.1906 L135.0954,54.3206 L134.9634,54.1906 L135.0954,53.0216 L135.3544,52.7596 L136.0044,52.8896 Z M136.2644,33.3996 L137.3034,33.9176 L137.5654,35.2186 L138.6044,35.7396 L139.2524,36.2576 L139.2524,36.5176 L138.6044,36.6496 L137.4334,37.5566 L135.8724,37.5566 L135.0954,37.4266 L133.9234,36.5176 L134.1854,35.9956 L134.3154,35.8676 L134.8334,34.8266 L135.0954,34.7006 L135.6154,33.7856 L136.0044,33.3996 L136.2644,33.3996 Z M137.4334,41.0636 L137.6944,41.3256 L137.5654,42.8856 L137.4334,43.1426 L137.5654,43.6646 L137.1734,44.3136 L137.5654,44.8336 L137.3034,46.3926 L137.3034,47.6936 L137.0414,47.8226 L137.0414,48.2136 L137.4334,48.7326 L136.5234,49.5096 L136.7824,49.9016 L136.5234,50.8116 L135.8724,52.6306 L135.7404,52.6306 L135.2254,52.3376 L134.9634,51.4586 L135.4854,50.8116 L135.4854,50.4196 L135.7404,48.8956 L135.7404,47.6936 L136.2644,46.3926 L135.8724,45.7436 L136.1324,45.0956 L135.8724,44.7046 L136.1324,43.7946 L136.1014,43.4046 L135.7104,43.1776 L135.0954,42.3646 L134.5764,42.2346 L133.5344,42.4936 L132.2354,43.5666 L131.3264,43.6966 L131.2284,43.4046 L131.5834,42.7856 L132.7524,42.1386 L133.5344,41.8456 L134.3154,41.5866 L135.4854,41.0636 L136.3944,41.1956 L136.6544,40.9366 L137.4334,41.0636 Z" id="Fill-17" sketch:type="MSShapeGroup"></path>
            <path d="M149.7065,31.2881 L149.9685,31.5471 L149.7065,32.5841 L149.7065,32.7161 L149.3205,32.8461 L149.2875,33.8211 L148.6705,35.7391 L148.2805,37.0361 L148.1515,37.8181 L148.1515,38.5991 L147.7605,38.8571 L147.5015,40.8071 L148.6705,41.0991 L150.3295,40.9361 L151.3655,40.9361 L152.9265,40.9361 L154.3535,40.8371 L154.8725,41.3551 L154.8725,41.4881 L154.4505,41.7171 L153.7035,41.6171 L153.0565,41.9781 L152.3725,42.1021 L151.3985,42.0721 L150.7485,42.0721 L150.2295,42.2021 L148.1515,41.9781 L147.1095,42.4941 L146.7185,43.2741 L146.5895,44.1841 L146.5895,44.5751 L146.7185,45.0961 L146.3325,45.7441 L146.4615,46.7831 L146.0065,47.2681 L146.0065,47.9221 L146.0065,48.9921 L145.4555,50.2931 L145.3555,50.7801 L145.7475,50.9101 L145.8775,51.0401 L145.6155,51.5591 L145.3555,51.8201 L145.8775,52.4681 L145.8775,53.7681 L145.8775,54.2851 L146.2665,54.4171 L148.2125,52.8591 L148.6035,52.0791 L148.9955,51.8201 L149.7745,51.0401 L150.0365,50.3901 L150.6835,49.8711 L150.6835,49.7411 L151.0735,49.3501 L151.0735,48.6991 L151.3335,48.5701 L151.4625,48.1791 L152.0775,48.1791 L152.4695,48.6691 L151.9835,49.7411 L151.5925,50.3901 L150.9435,51.1671 L150.6835,51.6871 L150.2915,51.8201 L150.2915,51.9491 L149.5145,52.9881 L148.0855,54.5471 L147.4355,55.0671 L146.9165,55.0671 L146.2665,55.5861 L144.8375,56.1091 L144.3145,56.3661 L143.9285,56.3661 L143.5695,55.5221 L143.5365,55.0671 L143.7985,54.8091 L143.6685,53.6371 L143.6685,53.2461 L143.7985,52.7291 L143.5365,52.2061 L143.6685,51.6871 L143.4075,51.2971 L143.7985,50.1281 L143.8615,49.1241 L144.2535,48.5391 L144.1865,47.9221 L144.7055,47.4001 L144.4795,46.7531 L144.6405,46.1661 L145.0305,45.7441 L144.9015,45.7441 L144.5105,45.4821 L144.7385,44.9971 L145.0305,44.7051 L145.1305,44.1841 L145.4225,43.6651 L145.6155,42.3311 L144.8705,42.4641 L144.0905,42.5271 L143.3435,42.7561 L142.9525,42.4941 L142.3045,42.4941 L142.1745,42.2341 L142.3045,41.5871 L142.5605,41.4551 L144.1215,41.0631 L144.9675,40.9701 L145.3875,40.8371 L145.9405,40.9361 L146.3325,40.8071 L146.1995,40.0241 L145.8095,39.6381 L145.9405,38.9851 L145.9405,38.5991 L146.4615,37.5571 L145.9405,36.7791 L146.0725,36.5171 L146.3325,36.5171 L146.4615,35.8671 L146.8505,35.4781 L146.5895,35.0871 L146.8505,34.6651 L146.8505,33.8851 L147.1095,33.3661 L147.1095,32.9761 L147.6285,32.8461 L147.5015,32.5841 L148.7975,31.0281 L149.7065,31.2881 Z" id="Fill-18" sketch:type="MSShapeGroup"></path>
            <path d="M166.4351,40.0244 L167.0851,40.2864 L167.4771,40.9364 L167.2151,42.4944 L166.9581,42.7554 L166.6971,43.3044 L166.3731,44.0214 L166.1761,44.8674 L166.0441,44.9974 L165.8181,45.6124 L165.7891,46.2974 L165.3981,47.4644 L164.8791,47.7234 L165.0071,48.8954 L165.0071,49.2864 L164.7471,49.4164 L164.7471,50.4554 L164.2271,50.9734 L164.2271,51.8834 L164.0971,51.8834 L163.7081,52.0124 L163.7081,52.1424 L164.2271,52.5344 L164.2271,53.5734 L163.8381,54.8724 L163.9651,55.2624 L163.4471,55.7794 L163.4471,55.9114 L163.8381,56.4314 L163.3171,58.7724 L163.4471,59.2914 L163.1881,60.0684 L163.0551,60.2004 L162.6691,61.2404 L162.6691,61.3694 L163.0551,61.1074 L163.3171,61.2404 L163.1881,62.5384 L162.6691,62.9294 L162.6691,63.0564 L162.8011,63.4484 L162.6691,64.0954 L162.4101,64.6174 L161.5001,65.2674 L161.2391,66.0494 L161.2391,66.1764 L160.3291,66.6984 L159.8081,67.0204 L158.7661,67.8674 L158.1211,67.8674 L157.8591,68.1284 L156.6881,68.1284 L156.5601,67.9964 L155.4861,68.1924 L154.3171,68.0624 L152.1111,67.2164 L150.2581,66.1764 L149.8681,65.5264 L149.9971,65.3974 L151.0371,65.7884 L151.1681,65.7884 L151.4271,65.3974 L151.9461,65.5264 L152.2061,66.1764 L152.9851,66.4364 L153.5061,66.1764 L153.5061,65.9184 L152.3371,65.2674 L151.5591,64.6174 L150.9041,64.6174 L150.1261,64.2284 L149.9971,64.3574 L148.5711,63.4484 L148.4391,63.0564 L148.5711,62.9294 L148.9571,62.7994 L149.6081,63.0564 L149.9971,63.7104 L151.6871,63.9714 L152.3371,64.4874 L152.8581,64.7494 L153.2471,65.2674 L154.0251,65.3974 L154.2841,65.1354 L154.6751,65.5264 L154.8071,66.0494 L155.4861,66.3064 L156.2351,66.4064 L157.1781,66.6344 L157.8591,66.2104 L158.8981,66.1764 L159.9381,65.7884 L160.4581,64.3574 L160.4581,63.9714 L160.5901,63.4484 L160.9771,62.9294 L161.2391,62.0174 L161.1091,61.4994 L161.3691,61.1074 L161.5001,59.4204 L161.1091,58.8994 L161.2391,57.9904 L161.3691,57.9904 L161.7591,58.5104 L162.0191,58.5104 L162.1461,58.3804 L161.8861,57.8604 L161.8861,57.3414 L161.6291,57.2124 L161.6291,57.0804 L161.7591,56.5614 L162.1461,56.0414 L161.8861,55.5224 L162.1461,54.0914 L162.1461,53.5734 L162.5381,53.4434 L162.5381,53.1814 L162.4101,53.0524 L162.1461,53.3144 L162.0191,53.3144 L161.8861,53.1814 L162.0191,52.7914 L162.2781,52.7914 L162.4101,52.9224 L162.6691,52.6614 L162.5381,52.1424 L162.9261,51.6224 L162.5381,51.3654 L162.8011,50.5824 L162.6691,50.4554 L162.4101,50.5824 L162.2781,50.4554 L162.4101,50.0644 L162.2781,50.0644 L162.5381,49.4164 L162.4101,49.2864 L162.9261,47.5934 L162.8011,47.3374 L162.0191,47.7234 L161.6291,48.1154 L161.3691,48.6334 L160.7201,48.8954 L160.0671,49.6724 L159.8081,49.6724 L159.6811,50.0644 L158.7661,50.4554 L157.7291,51.2654 L156.9501,52.0124 L155.5231,52.6964 L154.3521,53.0524 L153.9601,52.6614 L154.0901,52.1424 L154.3521,52.0124 L154.6091,50.4554 L154.4821,50.0644 L154.8711,49.9344 L154.8711,49.0244 L155.1321,48.6334 L155.3911,48.5034 L155.2621,47.9854 L155.5231,46.9464 L155.3911,46.2974 L155.6511,45.5154 L156.2681,44.7684 L156.6881,44.3434 L157.4041,43.5664 L157.7291,43.1774 L158.2501,43.2414 L158.7661,43.4344 L159.1581,43.8264 L158.8981,44.9974 L158.8981,45.4824 L158.5731,46.0034 L158.3791,46.5544 L157.9271,47.1394 L157.9891,47.8554 L157.4701,49.1544 L157.0791,49.6724 L157.3401,49.9344 L158.1211,49.6724 L158.7661,49.3174 L159.3531,48.7954 L159.9381,48.2474 L161.1091,47.3684 L161.8541,46.7834 L162.5061,46.0994 L163.1551,45.2584 L163.4471,44.6054 L163.5791,44.1834 L163.5131,43.3044 L163.5791,42.6244 L164.0971,41.9404 L165.0071,41.0634 L165.2661,40.9364 L166.0441,40.0244 L166.4351,40.0244 Z M148.4391,64.3574 L149.0871,64.7494 L149.6081,65.1354 L149.6081,65.5264 L148.1801,65.0074 L147.9181,64.4874 L148.0471,64.2284 L148.4391,64.3574 Z" id="Fill-19" sketch:type="MSShapeGroup"></path>
            <path d="M25.0039,76.4619 L25.4909,77.9259 L25.3599,78.4109 L25.4909,78.4109 L25.9769,78.9319 L26.2379,79.5499 L26.9849,81.0109 L27.0839,81.4979 L27.6009,81.6279 L27.6999,81.4979 L27.6009,81.1429 L27.3399,80.7819 L27.2099,80.5249 L26.5929,79.7779 L26.5929,79.0309 L26.3689,78.5409 L26.2379,77.6989 L25.4909,76.2049 L25.1309,76.0749 L25.0039,76.4619 Z M22.5339,69.5449 L22.6649,69.8999 L23.0209,70.2919 L22.8899,70.7769 L23.3799,71.2659 L23.5059,72.0129 L23.7679,72.8569 L24.3839,74.4829 L24.2539,74.6119 L24.1269,74.7109 L24.1269,74.8379 L24.6129,75.2299 L25.2299,74.9679 L25.9769,75.2299 L26.1069,75.0999 L25.2299,74.8379 L25.1309,74.7109 L24.8739,74.2209 L24.7439,73.6059 L24.7439,73.2469 L24.3839,72.7599 L23.9969,71.7529 L24.3839,71.3949 L24.2539,71.2659 L24.1269,71.5239 L23.8979,71.5239 L23.7679,71.2659 L23.7679,71.1339 L23.9969,71.0089 L24.1269,71.1339 L24.1269,71.0089 L24.1269,70.9089 L23.6369,70.5189 L23.6369,70.3869 L23.9969,70.1619 L23.9969,70.0299 L23.5059,70.0299 L23.5059,69.8999 L23.5059,69.5449 L22.7589,69.4149 L22.5339,69.5449 Z M20.2929,66.5869 L20.2929,66.8139 L20.4229,67.2049 L20.2929,67.3039 L19.9329,67.3039 L19.5779,68.5359 L18.9609,69.4149 L17.9529,71.6239 L17.5969,72.7599 L17.1079,73.4739 L16.9769,74.0909 L16.9769,74.2209 L16.7199,74.6119 L16.7199,74.7109 L16.4899,75.7149 L16.3599,75.7149 L16.1029,75.8449 L16.2299,76.2049 L17.1079,76.3319 L18.5699,75.7149 L19.9329,75.4579 L20.0639,75.3279 L21.5579,75.1959 L23.0209,74.9679 L23.1499,74.8379 L23.2809,74.2209 L23.5059,74.2209 L23.5059,73.9969 L23.0209,73.9969 L23.0209,73.8649 L22.6649,72.6329 L22.4029,72.2409 L22.4029,72.0129 L22.1429,71.8849 L22.1429,71.7529 L22.0469,70.9089 L21.5259,69.1529 L21.7869,68.7979 L21.9179,68.3079 L21.6559,68.3079 L21.5259,68.4399 L21.5259,68.5359 L21.4269,68.6679 L21.0399,68.6679 L20.8109,67.8219 L21.2999,67.6909 L21.1709,67.5609 L20.8109,67.5609 L20.6799,66.6869 L20.4229,66.5869 L20.2929,66.5869 Z M23.2809,58.1739 L23.7679,58.5649 L23.6369,59.2789 L23.0209,59.8969 L22.6649,61.1619 L22.2739,62.2009 L23.0209,64.8009 L23.3799,65.9729 L23.7679,66.3279 L23.7679,66.8139 L23.9969,66.8139 L24.3839,68.5359 L24.6129,69.0549 L25.4909,71.5239 L25.8459,73.2469 L26.8539,74.6119 L26.8539,75.2299 L26.9849,75.2299 L27.2099,75.3279 L27.3399,75.3279 L27.3399,75.5849 L27.0839,75.7149 L26.9849,75.7149 L27.0839,76.6909 L27.4709,76.8219 L27.4709,76.9519 L27.9569,78.1849 L28.0869,78.8029 L28.3169,79.4199 L28.3169,79.6489 L28.9339,81.0109 L28.9339,81.4019 L29.3249,81.7599 L29.9419,83.2539 L30.2019,83.7399 L29.8109,84.4859 L28.7039,84.3589 L27.8309,83.8689 L27.6009,83.8689 L27.4709,83.7399 L27.4709,83.3539 L27.6999,83.3539 L27.9569,83.4829 L28.0869,83.4829 L28.3169,83.1219 L28.0869,82.7349 L27.6009,83.1219 L27.6009,83.2539 L27.3399,83.2539 L27.2099,82.9919 L27.2099,82.5049 L27.6999,82.5049 L27.8309,82.3749 L27.8309,82.2449 L27.6999,82.0199 L26.2379,82.0199 L25.7509,81.2729 L25.8459,81.0109 L25.9769,81.0109 L26.2379,81.4019 L26.3689,81.4019 L26.3689,81.0109 L26.2379,80.7819 L25.4909,80.5249 L25.1309,79.5499 L24.7439,78.8029 L24.5149,78.0559 L24.3839,77.9259 L24.2539,76.9519 L23.8979,76.5609 L22.1429,76.5609 L19.5779,77.0819 L19.0549,77.1789 L18.4389,77.1789 L17.4669,77.7939 L16.5889,77.9259 L16.4899,78.0559 L14.9959,78.6729 L14.6399,79.5499 L14.6399,80.0349 L14.9959,80.2659 L14.9959,80.5249 L14.0869,80.4589 L13.8259,81.0439 L13.5019,82.0199 L13.0159,82.1159 L13.0159,82.5049 L12.8849,82.6369 L12.3989,84.0979 L12.1699,84.4859 L12.1699,84.8479 L11.7789,85.1069 L11.1619,86.2099 L10.8059,87.0559 L10.1899,88.1899 L9.6679,88.3209 L9.1499,87.9959 L9.1819,87.1859 L9.3119,87.0559 L10.1899,85.7249 L10.4149,85.5919 L10.9369,84.2299 L11.2929,84.0979 L11.2929,83.7399 L11.7789,82.8629 L12.0399,82.0199 L12.1699,80.8809 L12.0399,80.7819 L10.9369,80.7819 L10.6759,80.5249 L10.6759,80.3959 L11.1619,80.0349 L11.6519,78.9319 L12.7869,78.0559 L13.1459,78.0559 L13.7629,77.4379 L13.8929,76.8219 L14.1189,76.0749 L14.9959,73.8649 L15.2569,73.6059 L15.1269,73.2469 L15.8739,72.7599 L15.9729,72.5029 L15.6129,72.3709 L15.6129,72.0129 L15.9729,71.6239 L16.1029,71.0089 L16.5889,70.3869 L16.4899,69.5449 L16.8499,69.2829 L17.3359,69.1529 L17.4669,69.0549 L17.1079,68.7979 L17.2059,68.1809 L17.2059,68.0509 L17.5969,67.5609 L17.8229,67.0749 L17.8229,66.8139 L17.9529,66.6869 L18.0829,66.0659 L18.2139,65.9729 L18.5699,65.8429 L18.2139,65.5809 L18.5699,64.8339 L18.8309,64.8339 L19.1859,64.2169 L19.1859,63.3699 L19.4469,62.4929 L18.9609,60.7739 L18.5699,60.4149 L18.5699,59.7979 L19.2849,59.4079 L20.0639,58.7579 L20.7159,58.6939 L20.9729,59.2789 L21.2029,60.2199 L21.6559,59.4409 L22.7589,58.1739 L23.2809,58.1739 Z" id="Fill-20" sketch:type="MSShapeGroup"></path>
            <path d="M40.7173,66.6504 L41.2073,66.9454 L41.6313,67.3034 L41.8873,67.9214 L42.0183,68.7324 L41.7923,69.0244 L41.6313,69.3824 L41.6313,70.0304 L40.9153,70.7474 L40.2983,71.1334 L39.8443,71.0394 L39.7133,70.7134 L40.0693,70.3554 L40.0693,69.9004 L39.7773,69.5754 L39.2593,69.6394 L38.7683,70.0304 L38.5113,70.9404 L38.3153,71.3944 L38.2513,71.9164 L38.2823,72.4344 L38.1523,73.2144 L38.1203,74.7114 L37.7293,75.3594 L37.9903,76.0064 L38.0563,76.5304 L37.9903,77.1784 L38.1203,78.0884 L38.1203,78.9964 L37.9903,79.2564 L38.2513,81.2064 L37.9903,81.4674 L37.9903,81.5974 L38.3813,81.9884 L38.1203,82.5044 L37.9903,82.6364 L37.7293,82.6364 L37.2123,83.2854 L36.6903,83.0284 L36.5593,83.1554 L36.6903,83.6754 L36.5593,83.8054 L35.9103,83.6754 L35.9103,83.0284 L35.7803,82.8964 L35.5193,82.8964 L35.2623,83.2854 L34.8713,83.1554 L34.2233,83.0284 L33.5713,82.3754 L33.8323,82.1164 L33.7013,81.3364 L33.3143,81.2064 L32.5313,81.3364 L32.6623,81.5974 L32.5313,81.7264 L32.4003,81.7264 L32.2743,81.3364 L31.6223,80.9494 L31.2353,80.9494 L31.2353,80.5584 L30.0653,80.4254 L29.9343,80.2964 L31.1043,78.9964 L31.7523,78.4794 L32.6623,78.7384 L33.2463,79.2564 L33.9623,79.7784 L34.2233,79.7784 L34.7403,80.5584 L35.9103,80.8174 L36.1713,80.5584 L36.0093,79.8754 L36.3023,78.8714 L36.3023,78.2174 L36.4333,77.6994 L36.3023,77.4374 L36.1713,76.3984 L36.4333,76.1394 L36.4333,75.7504 L36.8213,74.5814 L36.4653,73.8984 L36.3973,73.4104 L36.6903,72.8894 L36.8213,72.3714 L36.5593,72.1114 L36.7883,71.3944 L36.9823,70.6784 L37.0493,70.0934 L37.0493,69.2534 L37.2433,68.6994 L37.7293,68.3424 L37.7643,67.9524 L37.8603,67.6904 L38.1203,67.5604 L38.3153,67.1404 L39.0623,66.7184 L39.4533,66.6864 L39.9383,66.5214 L40.7173,66.6504 Z" id="Fill-21" sketch:type="MSShapeGroup"></path>
            <path d="M51.5327,66.6504 L52.0197,66.9454 L52.4427,67.3034 L52.7027,67.9214 L52.8337,68.7324 L52.6037,69.0244 L52.4427,69.3824 L52.4427,70.0304 L51.7307,70.7474 L51.1097,71.1334 L50.6557,71.0394 L50.5247,70.7134 L50.8847,70.3554 L50.8847,69.9004 L50.5927,69.5754 L50.0707,69.6394 L49.5837,70.0304 L49.3237,70.9404 L49.1297,71.3944 L49.0667,71.9164 L49.0977,72.4344 L48.9677,73.2144 L48.9357,74.7114 L48.5447,75.3594 L48.8057,76.0064 L48.8677,76.5304 L48.8057,77.1784 L48.9357,78.0884 L48.9357,78.9964 L48.8057,79.2564 L49.0667,81.2064 L48.8057,81.4674 L48.8057,81.5974 L49.1927,81.9884 L48.9357,82.5044 L48.8057,82.6364 L48.5447,82.6364 L48.0267,83.2854 L47.5047,83.0284 L47.3737,83.1554 L47.5047,83.6754 L47.3737,83.8054 L46.7257,83.6754 L46.7257,83.0284 L46.5947,82.8964 L46.3347,82.8964 L46.0747,83.2854 L45.6867,83.1554 L45.0347,83.0284 L44.3857,82.3754 L44.6477,82.1164 L44.5167,81.3364 L44.1257,81.2064 L43.3467,81.3364 L43.4767,81.5974 L43.3467,81.7264 L43.2157,81.7264 L43.0857,81.3364 L42.4377,80.9494 L42.0467,80.9494 L42.0467,80.5584 L40.8767,80.4254 L40.7497,80.2964 L41.9157,78.9964 L42.5677,78.4794 L43.4767,78.7384 L44.0617,79.2564 L44.7767,79.7784 L45.0347,79.7784 L45.5557,80.5584 L46.7257,80.8174 L46.9867,80.5584 L46.8217,79.8754 L47.1137,78.8714 L47.1137,78.2174 L47.2447,77.6994 L47.1137,77.4374 L46.9867,76.3984 L47.2447,76.1394 L47.2447,75.7504 L47.6357,74.5814 L47.2797,73.8984 L47.2127,73.4104 L47.5047,72.8894 L47.6357,72.3714 L47.3737,72.1114 L47.6037,71.3944 L47.7977,70.6784 L47.8607,70.0934 L47.8607,69.2534 L48.0587,68.6994 L48.5447,68.3424 L48.5757,67.9524 L48.6757,67.6904 L48.9357,67.5604 L49.1297,67.1404 L49.8767,66.7184 L50.2677,66.6864 L50.7537,66.5214 L51.5327,66.6504 Z" id="Fill-22" sketch:type="MSShapeGroup"></path>
            <path d="M62.8696,72.6963 L63.4866,72.4033 L64.1656,72.3713 L65.4666,72.5333 L66.5376,72.5333 L67.0906,72.4653 L67.3846,72.8893 L67.1576,73.1503 L66.4746,73.5073 L65.7276,73.7023 L65.3046,73.7023 L64.7516,73.8343 L64.4596,73.9283 L64.2336,74.4193 L63.8736,74.6123 L63.3246,74.6443 L63.1616,76.0433 L62.7396,76.1703 L62.7396,76.6603 L62.5776,76.9853 L61.7956,77.9913 L61.3086,78.4113 L60.7896,78.9653 L60.0426,79.6153 L59.4586,80.2653 L58.8726,80.4253 L58.7436,80.7513 L58.2886,80.8813 L57.8336,81.2063 L57.3126,81.6963 L56.8896,81.8893 L56.1426,82.0193 L55.5926,81.4673 L55.0716,80.8173 L55.1386,80.3273 L55.1686,79.7783 L54.5846,78.9963 L54.4536,77.9253 L54.4536,77.0153 L54.7156,75.7153 L54.0626,75.8443 L53.5136,76.2053 L53.0906,76.3983 L52.2126,76.8863 L52.0826,76.2053 L52.6676,75.3593 L53.4466,74.9373 L54.0986,74.5463 L54.6486,73.9643 L55.5566,73.2803 L56.2416,72.8893 L56.9246,72.5033 L57.6046,72.3403 L57.5736,72.8893 L56.8576,73.6363 L56.6636,74.4193 L56.8256,75.1313 L56.8576,75.8783 L56.8256,76.6603 L57.0186,77.5013 L57.3126,78.1213 L57.8016,78.4113 L57.9286,78.9653 L58.5806,78.8713 L59.1346,78.6733 L59.7156,78.2173 L60.2376,77.9563 L60.5936,77.6003 L60.9526,76.9853 L61.4396,76.4313 L61.4076,75.9133 L61.5366,75.5523 L61.3756,74.9373 L61.2766,74.1903 L60.8216,73.2153 L60.0746,72.8893 L59.5536,72.7953 L58.9686,72.5963 L58.3516,72.2413 L58.9046,71.8843 L59.4586,71.6873 L60.0426,71.5573 L60.6606,71.5923 L61.1456,71.5243 L61.6326,71.9163 L62.0876,72.1733 L62.8696,72.6963 Z" id="Fill-23" sketch:type="MSShapeGroup"></path>
            <path d="M77.4521,68.374 L77.6141,68.473 L77.1591,69.575 L77.0611,69.708 L76.5421,69.868 L76.1511,70.648 L75.2111,70.909 L75.0801,71.07 L74.9491,71.07 L74.2661,70.747 L73.3261,70.94 L72.5111,71.331 L72.0561,71.753 L71.7321,72.111 L71.4401,72.663 L71.3451,73.15 L71.1161,73.605 L70.4981,75.359 L70.1071,76.822 L70.2701,77.209 L69.7201,77.893 L69.6541,78.803 L69.6221,79.875 L69.8821,81.306 L70.2701,81.564 L70.6611,81.791 L72.1551,81.011 L72.3841,80.589 L73.2261,79.974 L73.9731,78.833 L74.7561,77.893 L75.2111,76.917 L75.4681,76.887 L75.6971,77.145 L75.5981,77.601 L75.3721,78.411 L75.0131,78.965 L74.5261,79.582 L73.9421,80.49 L73.0961,81.306 L72.6101,81.598 L72.0561,82.57 L70.8901,82.8 L69.8151,83.514 L68.8751,83.775 L68.0291,83.059 L68.1281,82.538 L67.8341,82.02 L68.0291,81.498 L67.8981,81.369 L67.3811,81.011 L67.6061,79.128 L67.6061,77.829 L68.1281,76.462 L68.3211,75.943 L68.2571,75.036 L69.3921,73.247 L69.2311,72.925 L69.6541,72.143 L70.3051,71.593 L72.2541,69.837 L73.6181,69.222 L74.9811,68.439 L76.0201,68.244 L77.4521,68.374 Z" id="Fill-24" sketch:type="MSShapeGroup"></path>
            <path d="M81.7686,81.7598 L82.0256,82.4078 L81.6376,82.9288 L81.6376,83.0588 L80.8586,83.1908 L80.7296,83.0588 L80.8586,81.8898 L81.1176,81.6278 L81.7686,81.7598 Z M82.0256,62.2678 L83.0656,62.7858 L83.3266,64.0868 L84.3656,64.6078 L85.0176,65.1258 L85.0176,65.3858 L84.3656,65.5178 L83.1956,66.4268 L81.6376,66.4268 L80.8586,66.2948 L79.6896,65.3858 L79.9466,64.8638 L80.0776,64.7348 L80.5986,63.6958 L80.8586,63.5688 L81.3776,62.6558 L81.7686,62.2678 L82.0256,62.2678 Z M83.1956,69.9338 L83.4576,70.1938 L83.3266,71.7528 L83.1956,72.0128 L83.3266,72.5328 L82.9386,73.1818 L83.3266,73.7018 L83.0656,75.2598 L83.0656,76.5608 L82.8086,76.6908 L82.8086,77.0818 L83.1956,77.6008 L82.2876,78.3808 L82.5476,78.7718 L82.2876,79.6788 L81.6376,81.4978 L81.5086,81.4978 L80.9866,81.2058 L80.7296,80.3268 L81.2466,79.6788 L81.2466,79.2878 L81.5086,77.7628 L81.5086,76.5608 L82.0256,75.2598 L81.6376,74.6128 L81.8996,73.9638 L81.6376,73.5718 L81.8996,72.6628 L81.8646,72.2718 L81.4766,72.0478 L80.8586,71.2328 L80.3386,71.1028 L79.2986,71.3628 L77.9976,72.4348 L77.0896,72.5648 L76.9936,72.2718 L77.3496,71.6558 L78.5196,71.0088 L79.2986,70.7138 L80.0776,70.4548 L81.2466,69.9338 L82.1566,70.0638 L82.4166,69.8068 L83.1956,69.9338 Z" id="Fill-25" sketch:type="MSShapeGroup"></path>
            <path d="M95.0864,67.9209 L95.7044,68.0159 L96.0904,68.9279 L96.0904,69.7079 L95.8314,70.6169 L95.0494,71.0089 L94.4024,70.7469 L94.2714,70.8769 L94.6624,71.2659 L94.5324,71.5249 L94.1424,71.5249 L94.0124,71.1339 L94.1424,70.8769 L94.0124,70.4849 L93.6234,70.4849 L92.7164,71.3949 L92.5834,71.3949 L92.4514,71.5249 L92.1924,72.1729 L91.4144,72.8249 L91.1534,73.4739 L91.1534,73.7349 L90.5054,74.3839 L90.2434,75.5529 L89.7274,76.7239 L89.7274,77.3719 L89.3034,77.8289 L89.2044,78.4109 L88.9444,79.0649 L88.7184,79.7779 L88.9444,80.1039 L89.3364,79.8419 L90.5054,78.6729 L91.6744,77.3719 L92.5514,76.4619 L93.4604,75.3589 L94.3374,74.4489 L95.5714,72.9249 L97.0024,71.3949 L97.3924,71.3949 L97.9124,71.9159 L97.8444,72.6329 L97.9124,73.4739 L97.6504,74.9039 L97.6504,75.8149 L97.3924,76.3319 L98.3014,78.1539 L98.1694,78.6729 L98.9514,79.1929 L99.8284,79.2569 L100.9954,78.4799 L102.2324,77.7629 L103.1084,76.8539 L104.6694,75.4579 L106.2294,73.9969 L106.8144,73.6719 L106.4224,74.7109 L105.3194,76.2049 L104.9284,76.3319 L104.1504,77.3719 L103.6274,77.8289 L102.8504,78.4109 L102.4894,78.7379 L102.0344,79.0649 L100.9314,79.9739 L99.9554,80.7189 L98.7234,81.2059 L97.2594,81.4019 L96.4824,81.1429 L96.0904,80.3649 L95.4404,79.7119 L95.9634,79.3229 L95.9634,79.1929 L95.3134,78.6399 L95.3134,77.7629 L95.4404,77.3719 L95.1814,76.8539 L95.3134,76.5939 L94.9244,76.2049 L94.6624,75.8149 L94.5324,75.8149 L92.5834,77.5009 L91.6744,78.8029 L90.8924,79.5819 L90.8924,79.7119 L90.3734,80.1039 L89.9824,80.7509 L89.0714,81.1429 L88.2944,81.9199 L87.6464,82.3119 L87.5174,82.5699 L86.7334,82.6999 L86.4764,82.3119 L87.3854,79.5819 L87.7734,78.5409 L88.0024,77.7309 L88.2644,77.0469 L88.8134,76.2049 L88.9444,76.0749 L89.0714,75.1659 L89.9824,73.3439 L90.5054,72.8249 L90.5054,72.5649 L90.6354,72.3049 L91.2214,71.3309 L91.9334,70.4849 L92.0614,70.2269 L92.5834,69.7379 L93.3614,68.9279 L94.5324,68.0159 L95.0864,67.9209 Z" id="Fill-26" sketch:type="MSShapeGroup"></path>
            <path d="M112.3618,60.1582 L112.6208,60.4152 L112.3618,61.4542 L112.3618,61.5842 L111.9728,61.7142 L111.9378,62.6912 L111.3198,64.6072 L110.9328,65.9042 L110.8008,66.6862 L110.8008,67.4672 L110.4108,67.7272 L110.1508,69.6752 L111.3198,69.9672 L112.9768,69.8062 L114.0158,69.8062 L115.5768,69.8062 L117.0088,69.7082 L117.5278,70.2262 L117.5278,70.3552 L117.1038,70.5842 L116.3568,70.4852 L115.7088,70.8462 L115.0248,70.9712 L114.0508,70.9402 L113.3988,70.9402 L112.8828,71.0702 L110.8008,70.8462 L109.7638,71.3622 L109.3738,72.1422 L109.2418,73.0522 L109.2418,73.4432 L109.3738,73.9642 L108.9818,74.6122 L109.1118,75.6512 L108.6568,76.1392 L108.6568,76.7902 L108.6568,77.8622 L108.1048,79.1632 L108.0088,79.6482 L108.3998,79.7782 L108.5248,79.9072 L108.2698,80.4262 L108.0088,80.6872 L108.5248,81.3362 L108.5248,82.6372 L108.5248,83.1552 L108.9168,83.2852 L110.8678,81.7262 L111.2588,80.9492 L111.6448,80.6872 L112.4278,79.9072 L112.6848,79.2572 L113.3378,78.7382 L113.3378,78.6092 L113.7238,78.2182 L113.7238,77.5692 L113.9858,77.4372 L114.1148,77.0472 L114.7328,77.0472 L115.1238,77.5372 L114.6378,78.6092 L114.2478,79.2572 L113.5968,80.0352 L113.3378,80.5582 L112.9458,80.6872 L112.9458,80.8172 L112.1668,81.8592 L110.7358,83.4142 L110.0878,83.9372 L109.5668,83.9372 L108.9168,84.4562 L107.4878,84.9762 L106.9688,85.2342 L106.5788,85.2342 L106.2198,84.3902 L106.1918,83.9372 L106.4468,83.6762 L106.3188,82.5052 L106.3188,82.1162 L106.4468,81.5972 L106.1918,81.0762 L106.3188,80.5582 L106.0598,80.1672 L106.4468,78.9962 L106.5138,77.9912 L106.9038,77.4072 L106.8378,76.7902 L107.3608,76.2682 L107.1298,75.6212 L107.2948,75.0362 L107.6858,74.6122 L107.5538,74.6122 L107.1628,74.3502 L107.3908,73.8652 L107.6858,73.5722 L107.7798,73.0522 L108.0728,72.5332 L108.2698,71.2022 L107.5208,71.3312 L106.7388,71.3942 L105.9938,71.6242 L105.6048,71.3622 L104.9518,71.3622 L104.8228,71.1022 L104.9518,70.4552 L105.2138,70.3252 L106.7758,69.9332 L107.6178,69.8372 L108.0398,69.7082 L108.5928,69.8062 L108.9818,69.6752 L108.8548,68.8922 L108.4638,68.5062 L108.5928,67.8522 L108.5928,67.4672 L109.1118,66.4272 L108.5928,65.6462 L108.7228,65.3862 L108.9818,65.3862 L109.1118,64.7342 L109.5038,64.3482 L109.2418,63.9572 L109.5038,63.5332 L109.5038,62.7552 L109.7638,62.2362 L109.7638,61.8462 L110.2828,61.7142 L110.1508,61.4542 L111.4518,59.8962 L112.3618,60.1582 Z" id="Fill-27" sketch:type="MSShapeGroup"></path>
            <path d="M120.5747,81.7598 L120.8367,82.4078 L120.4477,82.9288 L120.4477,83.0588 L119.6657,83.1908 L119.5357,83.0588 L119.6657,81.8898 L119.9277,81.6278 L120.5747,81.7598 Z M120.8367,62.2678 L121.8737,62.7858 L122.1377,64.0868 L123.1747,64.6078 L123.8247,65.1258 L123.8247,65.3858 L123.1747,65.5178 L122.0057,66.4268 L120.4477,66.4268 L119.6657,66.2948 L118.4937,65.3858 L118.7587,64.8638 L118.8857,64.7348 L119.4087,63.6958 L119.6657,63.5688 L120.1857,62.6558 L120.5747,62.2678 L120.8367,62.2678 Z M122.0057,69.9338 L122.2647,70.1938 L122.1377,71.7528 L122.0057,72.0128 L122.1377,72.5328 L121.7467,73.1818 L122.1377,73.7018 L121.8737,75.2598 L121.8737,76.5608 L121.6147,76.6908 L121.6147,77.0818 L122.0057,77.6008 L121.0957,78.3808 L121.3577,78.7718 L121.0957,79.6788 L120.4477,81.4978 L120.3177,81.4978 L119.7957,81.2058 L119.5357,80.3268 L120.0557,79.6788 L120.0557,79.2878 L120.3177,77.7628 L120.3177,76.5608 L120.8367,75.2598 L120.4477,74.6128 L120.7047,73.9638 L120.4477,73.5718 L120.7047,72.6628 L120.6747,72.2718 L120.2857,72.0478 L119.6657,71.2328 L119.1487,71.1028 L118.1077,71.3628 L116.8057,72.4348 L115.8967,72.5648 L115.8007,72.2718 L116.1607,71.6558 L117.3297,71.0088 L118.1077,70.7138 L118.8857,70.4548 L120.0557,69.9338 L120.9667,70.0638 L121.2277,69.8068 L122.0057,69.9338 Z" id="Fill-28" sketch:type="MSShapeGroup"></path>
            <path d="M135.6157,72.6963 L136.2307,72.4033 L136.9147,72.3713 L138.2137,72.5333 L139.2877,72.5333 L139.8367,72.4653 L140.1297,72.8893 L139.9027,73.1503 L139.2197,73.5073 L138.4747,73.7023 L138.0507,73.7023 L137.4987,73.8343 L137.2067,73.9283 L136.9797,74.4193 L136.6227,74.6123 L136.0707,74.6443 L135.9077,76.0433 L135.4857,76.1703 L135.4857,76.6603 L135.3217,76.9853 L134.5437,77.9913 L134.0527,78.4113 L133.5347,78.9653 L132.7907,79.6153 L132.2057,80.2653 L131.6187,80.4253 L131.4887,80.7513 L131.0347,80.8813 L130.5797,81.2063 L130.0607,81.6963 L129.6387,81.8893 L128.8917,82.0193 L128.3387,81.4673 L127.8167,80.8173 L127.8837,80.3273 L127.9167,79.7783 L127.3317,78.9963 L127.1997,77.9253 L127.1997,77.0153 L127.4597,75.7153 L126.8127,75.8443 L126.2597,76.2053 L125.8377,76.3983 L124.9587,76.8863 L124.8287,76.2053 L125.4137,75.3593 L126.1957,74.9373 L126.8447,74.5463 L127.3977,73.9643 L128.3067,73.2803 L128.9867,72.8893 L129.6697,72.5033 L130.3527,72.3403 L130.3197,72.8893 L129.6037,73.6363 L129.4107,74.4193 L129.5707,75.1313 L129.6037,75.8783 L129.5707,76.6603 L129.7687,77.5013 L130.0607,78.1213 L130.5467,78.4113 L130.6777,78.9653 L131.3267,78.8713 L131.8807,78.6733 L132.4657,78.2173 L132.9827,77.9563 L133.3417,77.6003 L133.6997,76.9853 L134.1847,76.4313 L134.1527,75.9133 L134.2847,75.5523 L134.1217,74.9373 L134.0227,74.1903 L133.5677,73.2153 L132.8207,72.8893 L132.3027,72.7953 L131.7187,72.5963 L131.1027,72.2413 L131.6497,71.8843 L132.2057,71.6873 L132.7907,71.5573 L133.4047,71.5923 L133.8927,71.5243 L134.3837,71.9163 L134.8357,72.1733 L135.6157,72.6963 Z" id="Fill-29" sketch:type="MSShapeGroup"></path>
            <path d="M144.2534,71.4609 L144.5124,72.5029 L144.5124,73.4099 L143.9914,73.7989 L143.9914,74.1899 L144.3834,74.9679 L144.3834,75.3589 L144.1214,76.1399 L144.3834,76.5299 L144.2534,77.9559 L144.6454,78.7379 L147.2414,76.7899 L149.1884,75.7499 L149.5794,75.7499 L150.7514,74.7109 L151.7904,73.7989 L152.3094,73.9289 L152.3094,74.0589 L152.4384,74.7109 L153.0864,75.7499 L153.2184,76.5299 L153.4784,77.1789 L154.0004,78.0879 L154.2584,78.0879 L154.6474,77.6989 L155.6224,77.4069 L156.3364,76.9169 L157.5084,76.4319 L158.2854,75.9129 L158.8064,76.3019 L157.8994,77.5689 L156.9894,77.9559 L154.1284,79.9069 L153.2184,79.9069 L153.0864,80.0349 L152.8294,80.4259 L151.6584,80.9489 L151.3994,80.9489 L150.8804,80.2969 L150.8804,79.7779 L150.7514,79.7779 L150.6214,79.6489 L150.4894,78.0879 L149.5794,77.3089 L148.2804,77.9559 L148.0194,77.9559 L147.2414,78.4799 L146.3324,79.2569 L145.2924,79.9069 L144.7724,80.4259 L144.3834,80.5589 L143.0844,81.4679 L141.7834,82.2449 L141.5244,82.1159 L141.5244,80.2969 L141.6514,79.5169 L141.9134,79.2569 L141.9134,78.8709 L142.3044,78.4799 L142.0424,77.5689 L142.1744,77.0469 L142.0424,76.1399 L142.3044,75.3589 L142.0424,75.0999 L142.8204,73.1499 L143.8614,71.5929 L143.8614,71.4609 L144.2534,71.4609 Z" id="Fill-30" sketch:type="MSShapeGroup"></path>
        </g>
        <path d="M86.5,173 C134.272633,173 173,134.272633 173,86.5 C173,38.7273668 134.272633,0 86.5,0 C48.5152909,0 16.2490619,24.4837094 4.62181732,58.5306241 C1.62570111,67.3038547 0,76.7120758 0,86.5 C0,134.272633 38.7273668,173 86.5,173 Z" id="Oval-1" fill="#FFFFFF" sketch:type="MSShapeGroup"></path>
        <g id="Group-157" sketch:type="MSLayerGroup" transform="translate(7.000000, 7.000000)">
            <path d="M86.6147,84.3887 C86.6147,80.3347 83.3227,77.0447 79.2707,77.0447 C75.2147,77.0447 71.9297,80.3347 71.9297,84.3887 C71.9297,88.4427 75.2147,91.7297 79.2707,91.7297 C83.3227,91.7297 86.6147,88.4427 86.6147,84.3887" id="Fill-31" fill="#74B943" sketch:type="MSShapeGroup"></path>
            <path d="M107.6567,84.3887 C107.6567,80.3347 104.3737,77.0447 100.3127,77.0447 C96.2607,77.0447 92.9707,80.3347 92.9707,84.3887 C92.9707,88.4427 96.2607,91.7297 100.3127,91.7297 C104.3737,91.7297 107.6567,88.4427 107.6567,84.3887" id="Fill-33" fill="#74B943" sketch:type="MSShapeGroup"></path>
            <path d="M112.4575,84.3887 C112.4575,88.4427 115.7475,91.7297 119.8005,91.7297 C123.8565,91.7297 127.1405,88.4427 127.1405,84.3887 C127.1405,80.3347 123.8565,77.0447 119.8005,77.0447 C115.7475,77.0447 112.4575,80.3347 112.4575,84.3887" id="Fill-35" fill="#74B943" sketch:type="MSShapeGroup"></path>
            <path d="M132.4614,84.3887 C132.4614,88.4427 135.7514,91.7297 139.8054,91.7297 C143.8624,91.7297 147.1464,88.4427 147.1464,84.3887 C147.1464,80.3347 143.8624,77.0447 139.8054,77.0447 C135.7514,77.0447 132.4614,80.3347 132.4614,84.3887" id="Fill-37" fill="#74B943" sketch:type="MSShapeGroup"></path>
            <path d="M151.4282,84.3887 C151.4282,88.0457 154.1062,91.0727 157.6132,91.6287 C158.2062,87.7087 158.5172,83.6937 158.5172,79.6067 C158.5172,78.7557 158.5012,77.9057 158.4732,77.0587 C154.5582,77.2197 151.4282,80.4337 151.4282,84.3887" id="Fill-39" fill="#0A5928" sketch:type="MSShapeGroup"></path>
            <path d="M4.731,84.3887 C4.731,81.2737 2.79,78.6177 0.048,77.5487 C0.03,78.2327 0.023,78.9207 0.023,79.6067 C0.023,83.4317 0.301,87.1957 0.823,90.8767 C3.149,89.6447 4.731,87.2017 4.731,84.3887" id="Fill-41" fill="#0A5928" sketch:type="MSShapeGroup"></path>
            <path d="M24.5181,84.3887 C24.5181,80.3347 21.2301,77.0447 17.1781,77.0447 C13.1221,77.0447 9.8341,80.3347 9.8341,84.3887 C9.8341,88.4427 13.1221,91.7297 17.1781,91.7297 C21.2301,91.7297 24.5181,88.4427 24.5181,84.3887" id="Fill-43" fill="#74B943" sketch:type="MSShapeGroup"></path>
            <path d="M29.8398,84.3887 C29.8398,88.4427 33.1278,91.7297 37.1838,91.7297 C41.2358,91.7297 44.5248,88.4427 44.5248,84.3887 C44.5248,80.3347 41.2358,77.0447 37.1838,77.0447 C33.1278,77.0447 29.8398,80.3347 29.8398,84.3887" id="Fill-45" fill="#74B943" sketch:type="MSShapeGroup"></path>
            <path d="M65.0474,84.3887 C65.0474,80.3347 61.7594,77.0447 57.7074,77.0447 C53.6514,77.0447 50.3634,80.3347 50.3634,84.3887 C50.3634,88.4427 53.6514,91.7297 57.7074,91.7297 C61.7594,91.7297 65.0474,88.4427 65.0474,84.3887" id="Fill-47" fill="#74B943" sketch:type="MSShapeGroup"></path>
            <path d="M79.2705,43.2163 C75.2145,43.2163 71.9305,46.4993 71.9305,50.5573 C71.9305,54.6133 75.2145,57.8983 79.2705,57.8983 C83.3225,57.8983 86.6145,54.6133 86.6145,50.5573 C86.6145,46.4993 83.3225,43.2163 79.2705,43.2163" id="Fill-49" fill="#74B943" sketch:type="MSShapeGroup"></path>
            <path d="M100.313,43.2163 C96.261,43.2163 92.971,46.4993 92.971,50.5573 C92.971,54.6133 96.261,57.8983 100.313,57.8983 C104.374,57.8983 107.657,54.6133 107.657,50.5573 C107.657,46.4993 104.374,43.2163 100.313,43.2163" id="Fill-51" fill="#0A5928" sketch:type="MSShapeGroup"></path>
            <path d="M112.978,50.5576 C112.978,54.6136 116.265,57.8986 120.319,57.8986 C124.373,57.8986 127.663,54.6136 127.663,50.5576 C127.663,46.4996 124.373,43.2166 120.319,43.2166 C116.265,43.2166 112.978,46.4996 112.978,50.5576" id="Fill-53" fill="#0A5928" sketch:type="MSShapeGroup"></path>
            <path d="M140.3239,57.8986 C144.3809,57.8986 147.6649,54.6136 147.6649,50.5576 C147.6649,46.4996 144.3809,43.2166 140.3239,43.2166 C136.2699,43.2166 132.9849,46.4996 132.9849,50.5576 C132.9849,54.6136 136.2699,57.8986 140.3239,57.8986 Z" id="Fill-55" fill="#74B943" sketch:type="MSShapeGroup"></path>
            <path d="M17.1782,57.8984 C21.2302,57.8984 24.5182,54.6134 24.5182,50.5574 C24.5182,46.4994 21.2302,43.2164 17.1782,43.2164 C13.1222,43.2164 9.8342,46.4994 9.8342,50.5574 C9.8342,54.6134 13.1222,57.8984 17.1782,57.8984" id="Fill-57" fill="#74B943" sketch:type="MSShapeGroup"></path>
            <path d="M29.8398,50.5576 C29.8398,54.6136 33.1278,57.8986 37.1838,57.8986 C41.2358,57.8986 44.5248,54.6136 44.5248,50.5576 C44.5248,46.4996 41.2358,43.2166 37.1838,43.2166 C33.1278,43.2166 29.8398,46.4996 29.8398,50.5576" id="Fill-59" fill="#0A5928" sketch:type="MSShapeGroup"></path>
            <path d="M57.707,43.2163 C53.651,43.2163 50.364,46.4993 50.364,50.5573 C50.364,54.6133 53.651,57.8983 57.707,57.8983 C61.76,57.8983 65.047,54.6133 65.047,50.5573 C65.047,46.4993 61.76,43.2163 57.707,43.2163" id="Fill-61" fill="#0A5928" sketch:type="MSShapeGroup"></path>
            <path d="M86.6147,118.291 C86.6147,114.237 83.3227,110.949 79.2707,110.949 C75.2147,110.949 71.9297,114.237 71.9297,118.291 C71.9297,122.347 75.2147,125.634 79.2707,125.634 C83.3227,125.634 86.6147,122.347 86.6147,118.291" id="Fill-63" fill="#0A5928" sketch:type="MSShapeGroup"></path>
            <path d="M107.6567,118.291 C107.6567,114.237 104.3737,110.949 100.3127,110.949 C96.2607,110.949 92.9707,114.237 92.9707,118.291 C92.9707,122.347 96.2607,125.634 100.3127,125.634 C104.3737,125.634 107.6567,122.347 107.6567,118.291" id="Fill-65" fill="#0A5928" sketch:type="MSShapeGroup"></path>
            <path d="M120.3188,110.9492 C116.2648,110.9492 112.9778,114.2372 112.9778,118.2912 C112.9778,122.3462 116.2648,125.6342 120.3188,125.6342 C124.3728,125.6342 127.6628,122.3462 127.6628,118.2912 C127.6628,114.2372 124.3728,110.9492 120.3188,110.9492" id="Fill-67" fill="#74B943" sketch:type="MSShapeGroup"></path>
            <path d="M140.8462,110.9492 C136.7882,110.9492 133.5022,114.2372 133.5022,118.2912 C133.5022,122.3462 136.7882,125.6342 140.8462,125.6342 C142.1572,125.6342 143.3872,125.2852 144.4522,124.6842 C145.7672,122.7772 147.0092,120.8172 148.1612,118.7972 C148.1712,118.6302 148.1852,118.4632 148.1852,118.2912 C148.1852,114.2372 144.8982,110.9492 140.8462,110.9492" id="Fill-69" fill="#0A5928" sketch:type="MSShapeGroup"></path>
            <path d="M24.5181,118.291 C24.5181,114.237 21.2301,110.949 17.1781,110.949 C13.2691,110.949 10.0801,114.008 9.8551,117.861 C11.2291,120.351 12.7341,122.757 14.3581,125.071 C15.2261,125.432 16.1781,125.634 17.1781,125.634 C21.2301,125.634 24.5181,122.347 24.5181,118.291" id="Fill-71" fill="#0A5928" sketch:type="MSShapeGroup"></path>
            <path d="M44.5249,118.291 C44.5249,114.237 41.2359,110.949 37.1839,110.949 C33.1279,110.949 29.8399,114.237 29.8399,118.291 C29.8399,122.347 33.1279,125.634 37.1839,125.634 C41.2359,125.634 44.5249,122.347 44.5249,118.291" id="Fill-73" fill="#74B943" sketch:type="MSShapeGroup"></path>
            <path d="M65.0474,118.291 C65.0474,114.237 61.7594,110.949 57.7074,110.949 C53.6514,110.949 50.3634,114.237 50.3634,118.291 C50.3634,122.347 53.6514,125.634 57.7074,125.634 C61.7594,125.634 65.0474,122.347 65.0474,118.291" id="Fill-75" fill="#0A5928" sketch:type="MSShapeGroup"></path>
            <path d="M79.2705,23.9263 C83.3225,23.9263 86.6145,20.6383 86.6145,16.5803 C86.6145,12.5273 83.3225,9.2413 79.2705,9.2413 C75.2145,9.2413 71.9305,12.5273 71.9305,16.5803 C71.9305,20.6383 75.2145,23.9263 79.2705,23.9263" id="Fill-77" fill="#0A5928" sketch:type="MSShapeGroup"></path>
            <path d="M99.7944,23.9263 C103.8454,23.9263 107.1404,20.6383 107.1404,16.5803 C107.1404,12.5273 103.8454,9.2413 99.7944,9.2413 C95.7424,9.2413 92.4524,12.5273 92.4524,16.5803 C92.4524,20.6383 95.7424,23.9263 99.7944,23.9263" id="Fill-79" fill="#0A5928" sketch:type="MSShapeGroup"></path>
            <path d="M112.4575,16.5806 C112.4575,20.6386 115.7475,23.9266 119.8005,23.9266 C123.8565,23.9266 127.1405,20.6386 127.1405,16.5806 C127.1405,16.5356 127.1375,16.4936 127.1375,16.4486 C123.9055,13.9956 120.4785,11.7846 116.8885,9.8426 C114.2805,10.9666 112.4575,13.5616 112.4575,16.5806" id="Fill-81" fill="#0A5928" sketch:type="MSShapeGroup"></path>
            <path d="M37.1836,23.9263 C41.2356,23.9263 44.5246,20.6383 44.5246,16.5803 C44.5246,13.8843 43.0646,11.5343 40.8976,10.2593 C37.0286,12.4043 33.3576,14.8623 29.9176,17.6033 C30.4166,21.1743 33.4726,23.9263 37.1836,23.9263" id="Fill-83" fill="#0A5928" sketch:type="MSShapeGroup"></path>
            <path d="M57.707,23.9263 C61.76,23.9263 65.047,20.6383 65.047,16.5803 C65.047,12.5273 61.76,9.2413 57.707,9.2413 C53.651,9.2413 50.364,12.5273 50.364,16.5803 C50.364,20.6383 53.651,23.9263 57.707,23.9263" id="Fill-85" fill="#0A5928" sketch:type="MSShapeGroup"></path>
            <path d="M86.6147,151.749 C86.6147,147.695 83.3227,144.406 79.2707,144.406 C75.2147,144.406 71.9297,147.695 71.9297,151.749 C71.9297,155.139 74.2277,157.985 77.3497,158.829 C77.9887,158.844 78.6257,158.853 79.2707,158.853 C79.9127,158.853 80.5527,158.844 81.1907,158.829 C84.3127,157.985 86.6147,155.139 86.6147,151.749" id="Fill-87" fill="#0A5928" sketch:type="MSShapeGroup"></path>
            <path d="M99.7944,144.4062 C95.7424,144.4062 92.4524,147.6952 92.4524,151.7492 C92.4524,153.9652 93.4384,155.9472 94.9904,157.2932 C99.0524,156.4742 102.9964,155.3482 106.8054,153.9362 C107.0224,153.2462 107.1404,152.5102 107.1404,151.7492 C107.1404,147.6952 103.8454,144.4062 99.7944,144.4062" id="Fill-89" fill="#0A5928" sketch:type="MSShapeGroup"></path>
            <path d="M112.4663,151.582 C116.3083,149.805 119.9873,147.738 123.4653,145.394 C122.3883,144.771 121.1343,144.406 119.8003,144.406 C115.7993,144.406 112.5563,147.603 112.4663,151.582" id="Fill-91" fill="#0A5928" sketch:type="MSShapeGroup"></path>
            <path d="M37.1836,144.4062 C36.2046,144.4062 35.2766,144.6012 34.4246,144.9482 C37.6096,147.1372 40.9616,149.1002 44.4576,150.8132 C43.9956,147.2012 40.9186,144.4062 37.1836,144.4062" id="Fill-93" fill="#0A5928" sketch:type="MSShapeGroup"></path>
            <path d="M65.0474,151.749 C65.0474,147.695 61.7594,144.406 57.7074,144.406 C53.6514,144.406 50.3634,147.695 50.3634,151.749 C50.3634,152.353 50.4444,152.937 50.5814,153.498 C54.4834,155.014 58.5354,156.228 62.7084,157.113 C64.1464,155.774 65.0474,153.87 65.0474,151.749" id="Fill-95" fill="#0A5928" sketch:type="MSShapeGroup"></path>
            <path d="M60.5166,67.0664 C60.5166,71.1174 63.8046,74.4084 67.8566,74.4084 C71.9126,74.4084 75.2006,71.1174 75.2006,67.0664 C75.2006,63.0104 71.9126,59.7224 67.8566,59.7224 C63.8046,59.7224 60.5166,63.0104 60.5166,67.0664" id="Fill-97" fill="#74B943" sketch:type="MSShapeGroup"></path>
            <path d="M81.561,67.0664 C81.561,71.1174 84.845,74.4084 88.904,74.4084 C92.957,74.4084 96.248,71.1174 96.248,67.0664 C96.248,63.0104 92.957,59.7224 88.904,59.7224 C84.845,59.7224 81.561,63.0104 81.561,67.0664" id="Fill-99" fill="#74B943" sketch:type="MSShapeGroup"></path>
            <path d="M109.9468,59.7227 C105.8958,59.7227 102.6028,63.0107 102.6028,67.0667 C102.6028,71.1177 105.8958,74.4087 109.9468,74.4087 C114.0038,74.4087 117.2888,71.1177 117.2888,67.0667 C117.2888,63.0107 114.0038,59.7227 109.9468,59.7227" id="Fill-101" fill="#0A5928" sketch:type="MSShapeGroup"></path>
            <path d="M137.2925,67.0664 C137.2925,63.0104 134.0055,59.7224 129.9535,59.7224 C125.8955,59.7224 122.6095,63.0104 122.6095,67.0664 C122.6095,71.1174 125.8955,74.4084 129.9535,74.4084 C134.0055,74.4084 137.2925,71.1174 137.2925,67.0664" id="Fill-103" fill="#74B943" sketch:type="MSShapeGroup"></path>
            <path d="M150.481,59.7227 C146.42,59.7227 143.137,63.0107 143.137,67.0667 C143.137,71.1177 146.42,74.4087 150.481,74.4087 C154.115,74.4087 157.127,71.7557 157.711,68.2827 C157.476,66.6607 157.2,65.0537 156.868,63.4647 C155.609,61.2317 153.222,59.7227 150.481,59.7227" id="Fill-105" fill="#74B943" sketch:type="MSShapeGroup"></path>
            <path d="M6.2852,74.4082 C10.3412,74.4082 13.6292,71.1172 13.6292,67.0662 C13.6292,63.0112 10.3412,59.7222 6.2852,59.7222 C4.7872,59.7222 3.3992,60.1732 2.2402,60.9412 C1.4112,64.3732 0.7982,67.8932 0.4322,71.4872 C1.7742,73.2582 3.8932,74.4082 6.2852,74.4082" id="Fill-107" fill="#74B943" sketch:type="MSShapeGroup"></path>
            <path d="M26.8091,59.7227 C22.7531,59.7227 19.4691,63.0107 19.4691,67.0667 C19.4691,71.1177 22.7531,74.4087 26.8091,74.4087 C30.8651,74.4087 34.1531,71.1177 34.1531,67.0667 C34.1531,63.0107 30.8651,59.7227 26.8091,59.7227" id="Fill-109" fill="#74B943" sketch:type="MSShapeGroup"></path>
            <path d="M39.4741,67.0664 C39.4741,71.1174 42.7621,74.4084 46.8141,74.4084 C50.8681,74.4084 54.1561,71.1174 54.1561,67.0664 C54.1561,63.0104 50.8681,59.7224 46.8141,59.7224 C42.7621,59.7224 39.4741,63.0104 39.4741,67.0664" id="Fill-111" fill="#0A5928" sketch:type="MSShapeGroup"></path>
            <path d="M67.8564,108.6445 C71.9124,108.6445 75.2004,105.3565 75.2004,101.3005 C75.2004,97.2475 71.9124,93.9615 67.8564,93.9615 C63.8044,93.9615 60.5164,97.2475 60.5164,101.3005 C60.5164,105.3565 63.8044,108.6445 67.8564,108.6445" id="Fill-113" fill="#0A5928" sketch:type="MSShapeGroup"></path>
            <path d="M88.9038,108.6445 C92.9578,108.6445 96.2478,105.3565 96.2478,101.3005 C96.2478,97.2475 92.9578,93.9615 88.9038,93.9615 C84.8448,93.9615 81.5608,97.2475 81.5608,101.3005 C81.5608,105.3565 84.8448,108.6445 88.9038,108.6445" id="Fill-115" fill="#0A5928" sketch:type="MSShapeGroup"></path>
            <path d="M109.9468,108.6445 C114.0038,108.6445 117.2888,105.3565 117.2888,101.3005 C117.2888,97.2475 114.0038,93.9615 109.9468,93.9615 C105.8958,93.9615 102.6028,97.2475 102.6028,101.3005 C102.6028,105.3565 105.8958,108.6445 109.9468,108.6445" id="Fill-117" fill="#74B943" sketch:type="MSShapeGroup"></path>
            <path d="M129.9536,93.9619 C125.8946,93.9619 122.6096,97.2469 122.6096,101.3009 C122.6096,105.3569 125.8946,108.6449 129.9536,108.6449 C134.0056,108.6449 137.2926,105.3569 137.2926,101.3009 C137.2926,97.2469 134.0056,93.9619 129.9536,93.9619" id="Fill-119" fill="#74B943" sketch:type="MSShapeGroup"></path>
            <path d="M150.481,93.9619 C146.42,93.9619 143.137,97.2469 143.137,101.3009 C143.137,105.3569 146.42,108.6449 150.481,108.6449 C151.452,108.6449 152.38,108.4509 153.234,108.1049 C154.591,104.5789 155.709,100.9359 156.557,97.1859 C155.237,95.2389 153.007,93.9619 150.481,93.9619" id="Fill-121" fill="#0A5928" sketch:type="MSShapeGroup"></path>
            <path d="M13.6289,101.3008 C13.6289,97.2468 10.3409,93.9618 6.2849,93.9618 C4.5239,93.9618 2.9089,94.5818 1.6409,95.6158 C2.5599,100.0938 3.8579,104.4358 5.4959,108.5998 C5.7569,108.6278 6.0209,108.6448 6.2849,108.6448 C10.3409,108.6448 13.6289,105.3568 13.6289,101.3008" id="Fill-123" fill="#0A5928" sketch:type="MSShapeGroup"></path>
            <path d="M34.1528,101.3008 C34.1528,97.2468 30.8648,93.9618 26.8088,93.9618 C22.7528,93.9618 19.4688,97.2468 19.4688,101.3008 C19.4688,105.3568 22.7528,108.6448 26.8088,108.6448 C30.8648,108.6448 34.1528,105.3568 34.1528,101.3008" id="Fill-125" fill="#74B943" sketch:type="MSShapeGroup"></path>
            <path d="M46.8145,93.9619 C42.7615,93.9619 39.4745,97.2469 39.4745,101.3009 C39.4745,105.3569 42.7615,108.6449 46.8145,108.6449 C50.8675,108.6449 54.1555,105.3569 54.1555,101.3009 C54.1555,97.2469 50.8675,93.9619 46.8145,93.9619" id="Fill-127" fill="#74B943" sketch:type="MSShapeGroup"></path>
            <path d="M67.8564,7.2051 C71.7124,7.2051 74.8614,4.2361 75.1714,0.4621 C70.3194,0.7101 65.5864,1.3961 61.0054,2.4771 C62.0594,5.2421 64.7274,7.2051 67.8564,7.2051" id="Fill-129" fill="#0A5928" sketch:type="MSShapeGroup"></path>
            <path d="M88.9038,7.2051 C92.1728,7.2051 94.9468,5.0651 95.8938,2.1101 C91.2628,1.1221 86.4808,0.5361 81.5898,0.3961 C81.8608,4.2031 85.0248,7.2051 88.9038,7.2051" id="Fill-131" fill="#0A5928" sketch:type="MSShapeGroup"></path>
            <path d="M60.5166,33.667 C60.5166,37.723 63.8046,41.008 67.8566,41.008 C71.9126,41.008 75.2006,37.723 75.2006,33.667 C75.2006,29.608 71.9126,26.321 67.8566,26.321 C63.8046,26.321 60.5166,29.608 60.5166,33.667" id="Fill-133" fill="#0A5928" sketch:type="MSShapeGroup"></path>
            <path d="M82.6021,33.667 C82.6021,37.723 85.8871,41.008 89.9411,41.008 C93.9981,41.008 97.2851,37.723 97.2851,33.667 C97.2851,29.608 93.9981,26.321 89.9411,26.321 C85.8871,26.321 82.6021,29.608 82.6021,33.667" id="Fill-135" fill="#0A5928" sketch:type="MSShapeGroup"></path>
            <path d="M103.1245,33.667 C103.1245,37.723 106.4145,41.008 110.4655,41.008 C114.5215,41.008 117.8095,37.723 117.8095,33.667 C117.8095,29.608 114.5215,26.321 110.4655,26.321 C106.4145,26.321 103.1245,29.608 103.1245,33.667" id="Fill-137" fill="#0A5928" sketch:type="MSShapeGroup"></path>
            <path d="M129.9536,41.0083 C134.0056,41.0083 137.2926,37.7233 137.2926,33.6673 C137.2926,29.6083 134.0056,26.3203 129.9536,26.3203 C125.8946,26.3203 122.6096,29.6083 122.6096,33.6673 C122.6096,37.7233 125.8946,41.0083 129.9536,41.0083" id="Fill-139" fill="#0A5928" sketch:type="MSShapeGroup"></path>
            <path d="M27.3311,41.0083 C31.3871,41.0083 34.6711,37.7233 34.6711,33.6673 C34.6711,29.6083 31.3871,26.3203 27.3311,26.3203 C23.2751,26.3203 19.9861,29.6083 19.9861,33.6673 C19.9861,37.7233 23.2751,41.0083 27.3311,41.0083" id="Fill-141" fill="#0A5928" sketch:type="MSShapeGroup"></path>
            <path d="M47.3325,41.0083 C51.3885,41.0083 54.6765,37.7233 54.6765,33.6673 C54.6765,29.6083 51.3885,26.3203 47.3325,26.3203 C43.2805,26.3203 39.9925,29.6083 39.9925,33.6673 C39.9925,37.7233 43.2805,41.0083 47.3325,41.0083" id="Fill-143" fill="#0A5928" sketch:type="MSShapeGroup"></path>
            <path d="M67.8564,127.7949 C63.8044,127.7949 60.5164,131.0829 60.5164,135.1389 C60.5164,139.1949 63.8044,142.4779 67.8564,142.4779 C71.9124,142.4779 75.2004,139.1949 75.2004,135.1389 C75.2004,131.0829 71.9124,127.7949 67.8564,127.7949" id="Fill-145" fill="#0A5928" sketch:type="MSShapeGroup"></path>
            <path d="M89.9409,127.7949 C85.8869,127.7949 82.6019,131.0829 82.6019,135.1389 C82.6019,139.1949 85.8869,142.4779 89.9409,142.4779 C93.9989,142.4779 97.2849,139.1949 97.2849,135.1389 C97.2849,131.0829 93.9989,127.7949 89.9409,127.7949" id="Fill-147" fill="#0A5928" sketch:type="MSShapeGroup"></path>
            <path d="M110.4653,127.7949 C106.4143,127.7949 103.1243,131.0829 103.1243,135.1389 C103.1243,139.1949 106.4143,142.4779 110.4653,142.4779 C114.5223,142.4779 117.8093,139.1949 117.8093,135.1389 C117.8093,131.0829 114.5223,127.7949 110.4653,127.7949" id="Fill-149" fill="#0A5928" sketch:type="MSShapeGroup"></path>
            <path d="M129.9536,127.7949 C125.8946,127.7949 122.6096,131.0829 122.6096,135.1389 C122.6096,138.4809 124.8446,141.2929 127.8936,142.1839 C131.2006,139.6089 134.2996,136.7809 137.1556,133.7249 C136.4936,130.3459 133.5216,127.7949 129.9536,127.7949" id="Fill-151" fill="#0A5928" sketch:type="MSShapeGroup"></path>
            <path d="M34.6709,135.1387 C34.6709,131.0827 31.3869,127.7947 27.3309,127.7947 C24.1379,127.7947 21.4359,129.8357 20.4199,132.6757 C23.4289,136.0107 26.7169,139.0917 30.2489,141.8747 C32.8489,140.7457 34.6709,138.1557 34.6709,135.1387" id="Fill-153" fill="#0A5928" sketch:type="MSShapeGroup"></path>
            <path d="M47.3325,127.7949 C43.2805,127.7949 39.9925,131.0829 39.9925,135.1389 C39.9925,139.1949 43.2805,142.4779 47.3325,142.4779 C51.3885,142.4779 54.6765,139.1949 54.6765,135.1389 C54.6765,131.0829 51.3885,127.7949 47.3325,127.7949" id="Fill-155" fill="#0A5928" sketch:type="MSShapeGroup"></path>
        </g>
    </g>
</svg>