<?xml version="1.0" encoding="utf-8"?>
<!-- Generator: Adobe Illustrator 16.0.0, SVG Export Plug-In . SVG Version: 6.00 Build 0)  -->
<!DOCTYPE svg PUBLIC "-//W3C//DTD SVG 1.1//EN" "http://www.w3.org/Graphics/SVG/1.1/DTD/svg11.dtd">
<svg version="1.1" id="Layer_1" xmlns="http://www.w3.org/2000/svg" xmlns:xlink="http://www.w3.org/1999/xlink" x="0px" y="0px"
	 width="841.89px" height="1190.55px" viewBox="0 0 841.89 1190.55" enable-background="new 0 0 841.89 1190.55"
	 xml:space="preserve">
<g>
	<path fill="#FEFEFE" d="M491.295,557.621c1.438,0.83,2.793,1.587,4.125,2.383c6.461,3.862,12.979,7.627,19.35,11.641
		c1.132,0.713,1.739,0.459,2.5-0.767c3.105-5.001,5.576-10.384,9.102-15.132c0.305-0.41,0.203-0.634-0.281-0.901
		c-2.121-1.168-4.283-2.29-6.289-3.638c-3.953-2.657-8.225-4.757-12.283-7.229c-6.306-3.841-12.642-7.639-19.071-11.266
		c-6.74-3.802-13.381-7.771-20.1-11.607c-5.222-2.982-10.391-6.058-15.582-9.092c-4.03-2.355-8.022-4.772-12.094-7.06
		c-3.901-2.192-7.721-4.536-11.539-6.873c-2.669-1.634-5.564-2.897-8.003-4.916c-0.412-0.34-0.969-0.467-1.541-0.083
		c-1.25,0.84-2.619,1.482-3.921,2.228c-6.994,3.999-13.922,8.112-20.891,12.154c-6.77,3.926-13.48,7.956-20.277,11.837
		c-5.791,3.308-11.45,6.846-17.196,10.232c-5.964,3.516-12.014,6.889-17.934,10.476c-7.653,4.637-15.517,8.921-23.011,13.824
		c-0.781,0.511-0.873,0.997-0.688,1.754c0.241,0.982,1.121,1.542,1.563,2.353c2.378,4.366,5.043,8.577,7.105,13.113
		c0.175,0.384,0.294,0.531,0.78,0.406c1.326-0.34,2.534-0.88,3.717-1.576c3.597-2.117,7.126-4.339,10.794-6.349
		c3.193-1.75,6.362-3.602,9.414-5.621c0.382-0.252,0.846-0.607,1.276-0.447c0.58,0.215,0.279,0.857,0.283,1.281
		c0.046,5.456-0.018,10.913,0.172,16.368c0.244,7.008-0.039,14.025,0.31,21.034c0.092,1.863-0.11,3.739-0.06,5.606
		c0.243,9.08-0.074,18.164,0.29,27.244c0.163,4.044,0.011,8.1,0.031,12.149c0.014,2.784-0.002,5.566,0.179,8.352
		c0.12,1.853-0.131,3.727-0.164,5.592c-0.033,1.87,0.229,3.73,0.206,5.608c-0.05,4.1,0.018,8.2,0.015,12.301
		c-0.002,2.396,0.139,4.789,0.175,7.18c0.013,0.863,0.367,1.84-0.244,2.722c-0.408,0.589-0.977,1.306-0.361,2.035
		c0.664,0.787,1.278,1.703,2.576,1.59c1.562-0.137,3.151-0.333,4.7-0.189c3.107,0.288,6.21,0.103,9.312,0.146
		c6.474,0.089,12.949,0.004,19.424,0.04c2.075,0.011,4.15,0.062,6.228,0.164c2.837,0.14,5.708-0.318,8.535-0.106
		c2.379,0.178,4.748,0.138,7.11,0.12c5.299-0.039,10.596,0.117,15.9-0.067c2.354-0.082,4.774-0.002,7.164,0.081
		c2.947,0.102,5.906-0.145,8.855-0.073c2.542,0.061,5.069,0.005,7.609-0.071c3.908-0.116,7.829-0.002,11.744,0.053
		c2.902,0.04,5.822-0.117,8.732-0.095c7.438,0.057,14.88-0.274,22.312,0.228c0.973,0.065,1.368-0.154,1.262-1.201
		c-0.125-1.227-0.145-2.469-0.145-3.704c-0.001-5.017-0.045-10.032-0.188-15.049c-0.215-7.58-0.066-15.165-0.241-22.75
		c-0.23-9.984-0.071-19.978-0.264-29.968c-0.148-7.734,0.053-15.477-0.209-23.21c-0.235-6.976,0.147-13.954-0.233-20.932
		C491.114,565.912,491.295,561.859,491.295,557.621z"/>
	<path fill-rule="evenodd" clip-rule="evenodd" fill="#020305" d="M491.295,557.621c0,4.238-0.181,8.291,0.04,12.322
		c0.381,6.978-0.002,13.956,0.233,20.932c0.262,7.733,0.061,15.476,0.209,23.21c0.192,9.99,0.033,19.983,0.264,29.968
		c0.175,7.585,0.026,15.17,0.241,22.75c0.144,5.017,0.188,10.032,0.188,15.049c0,1.235,0.02,2.478,0.145,3.704
		c0.106,1.047-0.289,1.267-1.262,1.201c-7.433-0.502-14.875-0.171-22.312-0.228c-2.91-0.022-5.83,0.135-8.732,0.095
		c-3.915-0.055-7.836-0.169-11.744-0.053c-2.54,0.076-5.067,0.132-7.609,0.071c-2.949-0.071-5.908,0.175-8.855,0.073
		c-2.39-0.083-4.811-0.163-7.164-0.081c-5.304,0.185-10.602,0.028-15.9,0.067c-2.363,0.018-4.731,0.058-7.11-0.12
		c-2.826-0.212-5.698,0.246-8.535,0.106c-2.078-0.102-4.153-0.153-6.228-0.164c-6.475-0.036-12.95,0.049-19.424-0.04
		c-3.102-0.043-6.206,0.143-9.312-0.146c-1.548-0.144-3.137,0.053-4.7,0.189c-1.298,0.113-1.912-0.803-2.576-1.59
		c-0.615-0.729-0.046-1.446,0.361-2.035c0.611-0.882,0.257-1.858,0.244-2.722c-0.036-2.391-0.177-4.783-0.175-7.18
		c0.003-4.101-0.065-8.201-0.015-12.301c0.023-1.878-0.238-3.738-0.206-5.608c0.033-1.865,0.284-3.739,0.164-5.592
		c-0.181-2.785-0.165-5.567-0.179-8.352c-0.02-4.05,0.132-8.105-0.031-12.149c-0.364-9.08-0.047-18.164-0.29-27.244
		c-0.05-1.867,0.152-3.743,0.06-5.606c-0.348-7.009-0.065-14.025-0.31-21.034c-0.19-5.456-0.126-10.912-0.172-16.368
		c-0.004-0.424,0.297-1.065-0.283-1.281c-0.431-0.16-0.895,0.194-1.276,0.447c-3.052,2.019-6.221,3.871-9.414,5.621
		c-3.668,2.01-7.198,4.232-10.794,6.349c-1.183,0.696-2.391,1.236-3.717,1.576c-0.486,0.125-0.605-0.022-0.78-0.406
		c-2.062-4.536-4.727-8.747-7.105-13.113c-0.442-0.812-1.322-1.371-1.563-2.353c-0.186-0.758-0.093-1.244,0.688-1.754
		c7.494-4.903,15.358-9.188,23.011-13.824c5.92-3.587,11.97-6.96,17.934-10.476c5.746-3.387,11.405-6.925,17.196-10.232
		c6.797-3.882,13.507-7.911,20.277-11.837c6.969-4.042,13.897-8.155,20.891-12.154c1.303-0.745,2.672-1.387,3.921-2.228
		c0.572-0.385,1.129-0.258,1.541,0.083c2.438,2.019,5.334,3.282,8.003,4.916c3.818,2.337,7.638,4.68,11.539,6.873
		c4.071,2.288,8.063,4.705,12.094,7.06c5.191,3.035,10.36,6.11,15.582,9.092c6.719,3.836,13.359,7.805,20.1,11.607
		c6.43,3.627,12.766,7.425,19.071,11.266c4.059,2.472,8.33,4.572,12.283,7.229c2.006,1.348,4.168,2.469,6.289,3.638
		c0.484,0.267,0.586,0.491,0.281,0.901c-3.525,4.749-5.996,10.131-9.102,15.132c-0.761,1.226-1.368,1.479-2.5,0.767
		c-6.37-4.013-12.889-7.779-19.35-11.641C494.088,559.208,492.733,558.451,491.295,557.621z M488.228,568.667
		c-0.059,0-0.117,0-0.175,0c0-3.719,0.006-7.438-0.007-11.158c-0.002-0.554-0.114-1.107-0.138-1.662
		c-0.014-0.314-0.132-0.502-0.397-0.673c-2.402-1.542-4.864-3.031-7.371-4.341c-3.652-1.908-6.974-4.342-10.63-6.219
		c-1.868-0.959-3.563-2.253-5.376-3.263c-1.502-0.837-3.008-1.713-4.509-2.563c-2.613-1.479-5.016-3.358-7.698-4.68
		c-4.291-2.116-8.216-4.833-12.389-7.139c-2.909-1.608-5.808-3.257-8.659-4.984c-3.04-1.841-6.249-3.4-9.209-5.394
		c-0.783-0.527-1.698-0.689-2.658-0.103c-2.025,1.235-4.109,2.372-6.157,3.571c-5.31,3.109-10.691,6.107-15.897,9.383
		c-5.049,3.177-10.382,5.871-15.322,9.227c-2.768,1.881-5.878,3.196-8.691,4.989c-5.704,3.633-11.723,6.725-17.44,10.331
		c-0.944,0.595-1.34,1.243-1.432,2.364c-0.075,0.918,0.073,1.795,0.064,2.692c-0.027,2.902-0.087,5.801-0.039,8.706
		c0.093,5.585-0.06,11.174,0.038,16.759c0.135,7.667,0.21,15.332,0.238,23c0.019,5.001,0.104,10.002,0.156,15.003
		c0.063,6.19,0.123,12.381,0.18,18.572c0.032,3.492,0.055,6.983,0.084,10.476c0.053,6.495,0.206,12.99,0.123,19.482
		c-0.046,3.646,0.192,7.283,0.109,10.924c-0.017,0.752,0.245,0.824,0.897,0.826c6.78,0.015,13.561,0.064,20.341,0.11
		c4.504,0.03,9.009,0.095,13.513,0.102c10.503,0.015,21.006,0.01,31.509-0.002c1.395-0.002,2.819-0.181,4.181-0.088
		c4.101,0.279,8.195,0.007,12.292,0.101c4.821,0.11,9.65-0.153,14.478-0.186c6.434-0.042,12.869,0.079,19.301-0.05
		c5.307-0.106,10.612-0.193,15.918-0.16c1.109,0.007,1.423-0.275,1.403-1.397c-0.243-13.274-0.07-26.551-0.342-39.827
		c-0.178-8.658,0.002-17.321-0.114-25.983c-0.146-10.908-0.13-21.819-0.172-32.729C488.213,578.011,488.228,573.339,488.228,568.667
		z M521.957,557.055c-0.091-0.361-0.379-0.489-0.644-0.66c-4.339-2.807-8.854-5.317-13.308-7.93
		c-4.094-2.401-8.139-4.887-12.213-7.323c-3.598-2.151-7.191-4.31-10.812-6.42c-4.26-2.483-8.562-4.893-12.819-7.382
		c-4.155-2.429-8.262-4.941-12.415-7.375c-3.541-2.075-7.135-4.06-10.675-6.137c-4.166-2.444-8.283-4.969-12.448-7.414
		c-5.18-3.042-10.396-6.021-15.57-9.07c-0.794-0.468-1.419-0.44-2.167,0.023c-1.107,0.687-2.198,1.438-3.334,2.032
		c-2.852,1.491-5.605,3.135-8.355,4.797c-3.039,1.836-6.125,3.595-9.189,5.388c-6.314,3.694-12.682,7.301-18.926,11.109
		c-5.234,3.191-10.593,6.171-15.814,9.377c-4.68,2.874-9.548,5.415-14.2,8.337c-4.289,2.695-8.745,5.124-13.113,7.694
		c-4.6,2.707-9.184,5.441-13.775,8.164c-0.581,0.344-1.166,0.682-1.741,1.035c-0.438,0.269-0.519,0.561-0.229,1.062
		c1.92,3.328,3.81,6.673,5.686,10.026c0.292,0.521,0.466,0.625,1.058,0.276c5.972-3.521,11.956-7.021,17.971-10.468
		c5.181-2.969,10.321-6.01,15.476-9.022c4.745-2.772,9.491-5.546,14.229-8.333c4.896-2.88,9.785-5.772,14.659-8.688
		c5.029-3.008,10.017-6.084,15.061-9.067c3.847-2.275,7.771-4.42,11.614-6.701c0.641-0.38,1.468-0.485,1.932-1.113
		c0.794-1.076,1.761-1.05,2.943-0.765c0.83,0.201,1.261,0.875,1.951,1.186c1.73,0.781,3.352,1.791,4.94,2.784
		c3.066,1.915,6.262,3.593,9.363,5.437c6.944,4.128,14.004,8.064,20.909,12.255c5.007,3.04,10.122,5.885,15.173,8.844
		c3.414,2,6.682,4.255,10.235,6.013c2.932,1.451,5.639,3.289,8.513,4.846c2.353,1.275,4.638,2.748,6.95,4.103
		c3.697,2.168,7.32,4.476,11.101,6.508c1.64,0.881,3.211,1.892,4.809,2.85c0.714,0.428,1.194,0.418,1.655-0.443
		c1.268-2.369,2.644-4.679,3.968-7.018C520.932,558.943,521.437,558.001,521.957,557.055z"/>
	<path fill-rule="evenodd" clip-rule="evenodd" fill="#52A9B2" d="M488.228,568.667c0,4.672-0.015,9.344,0.003,14.016
		c0.042,10.91,0.026,21.82,0.172,32.729c0.116,8.662-0.063,17.325,0.114,25.983c0.271,13.276,0.099,26.553,0.342,39.827
		c0.02,1.122-0.294,1.404-1.403,1.397c-5.306-0.033-10.611,0.054-15.918,0.16c-6.432,0.129-12.867,0.008-19.301,0.05
		c-4.827,0.032-9.656,0.296-14.478,0.186c-4.097-0.094-8.191,0.179-12.292-0.101c-1.361-0.093-2.786,0.086-4.181,0.088
		c-10.503,0.012-21.006,0.017-31.509,0.002c-4.504-0.007-9.009-0.071-13.513-0.102c-6.78-0.046-13.561-0.096-20.341-0.11
		c-0.653-0.002-0.915-0.074-0.897-0.826c0.083-3.641-0.155-7.277-0.109-10.924c0.083-6.492-0.07-12.987-0.123-19.482
		c-0.029-3.492-0.052-6.983-0.084-10.476c-0.057-6.191-0.117-12.382-0.18-18.572c-0.051-5.001-0.137-10.002-0.156-15.003
		c-0.028-7.668-0.104-15.333-0.238-23c-0.098-5.585,0.055-11.174-0.038-16.759c-0.048-2.905,0.012-5.804,0.039-8.706
		c0.008-0.896-0.14-1.774-0.064-2.692c0.092-1.122,0.488-1.769,1.432-2.364c5.717-3.606,11.736-6.697,17.44-10.331
		c2.813-1.792,5.923-3.108,8.691-4.989c4.94-3.356,10.273-6.05,15.322-9.227c5.206-3.276,10.587-6.274,15.897-9.383
		c2.047-1.199,4.132-2.336,6.157-3.571c0.96-0.586,1.875-0.424,2.658,0.103c2.96,1.993,6.169,3.553,9.209,5.394
		c2.852,1.727,5.75,3.375,8.659,4.984c4.173,2.306,8.098,5.023,12.389,7.139c2.683,1.322,5.085,3.201,7.698,4.68
		c1.501,0.85,3.007,1.727,4.509,2.563c1.812,1.009,3.508,2.304,5.376,3.263c3.656,1.877,6.978,4.311,10.63,6.219
		c2.507,1.31,4.969,2.799,7.371,4.341c0.266,0.171,0.384,0.358,0.397,0.673c0.023,0.555,0.136,1.108,0.138,1.662
		c0.013,3.72,0.007,7.439,0.007,11.158C488.11,568.667,488.169,568.667,488.228,568.667z M369.947,598.439
		c-0.265,1.301-0.089,2.615-0.091,3.921c-0.001,0.77-0.25,1.592,0.251,2.314c-0.475,0.787-0.067,1.591-0.044,2.387
		c0.095,3.301,0.15,6.601,0.161,9.904c0.024,7.713,0.124,15.426,0.229,23.139c0.065,4.75-0.175,9.505,0.223,14.251
		c0.062,0.744-0.031,1.48-0.223,2.239c-0.396,1.563,0.233,2.918,2.21,2.913c4.255-0.013,8.512,0.063,12.767,0.126
		c7.245,0.106,14.49,0.227,21.735,0.346c6.328,0.105,12.652-0.164,18.982-0.071c4.927,0.072,9.857-0.143,14.786-0.173
		c5.711-0.036,11.423-0.05,17.134,0.005c3.829,0.037,7.662-0.22,11.491,0.164c1.678,0.168,2.071-0.428,2.422-2.098
		c0.243-1.158-0.065-2.211-0.074-3.311c-0.044-5.626-0.192-11.251-0.208-16.877c-0.021-7.112-0.141-14.223-0.229-21.334
		c-0.141-11.19,0.021-22.381-0.233-33.572c-0.175-7.673-0.039-15.354-0.03-23.032c0.001-1.402-0.609-2.04-1.964-1.785
		c-0.682,0.129-1.34,0.118-2.014,0.118c-25.678,0.002-51.355-0.006-77.033,0.031c-2.109,0.003-4.218,0.333-6.337,0.142
		c-4.422-0.397-8.864,0.021-13.288-0.318c-0.507-0.039-0.807,0.056-0.805,0.698c0.012,3.336-0.194,6.684,0.02,10.005
		c0.147,2.286-0.248,4.552,0.127,6.852c0.257,1.577-0.26,3.268-0.102,4.876c0.128,1.307,0.088,2.609,0.117,3.901
		c0.093,4.259-0.068,8.522,0.195,12.779c-0.358,0.165-0.368,0.416-0.176,0.717C369.945,597.945,369.946,598.192,369.947,598.439z"/>
	<path fill-rule="evenodd" clip-rule="evenodd" fill="#4A747A" d="M521.957,557.055c-0.521,0.946-1.025,1.888-1.553,2.818
		c-1.324,2.338-2.7,4.649-3.968,7.018c-0.461,0.861-0.941,0.871-1.655,0.443c-1.598-0.958-3.169-1.969-4.809-2.85
		c-3.78-2.032-7.403-4.339-11.101-6.508c-2.312-1.355-4.598-2.828-6.95-4.103c-2.874-1.558-5.581-3.396-8.513-4.846
		c-3.554-1.758-6.821-4.013-10.235-6.013c-5.051-2.959-10.166-5.805-15.173-8.844c-6.905-4.191-13.965-8.126-20.909-12.255
		c-3.102-1.844-6.297-3.522-9.363-5.437c-1.589-0.993-3.21-2.002-4.94-2.784c-0.69-0.312-1.121-0.985-1.951-1.186
		c-1.182-0.286-2.148-0.312-2.943,0.765c-0.464,0.628-1.292,0.733-1.932,1.113c-3.843,2.281-7.767,4.425-11.614,6.701
		c-5.043,2.983-10.032,6.06-15.061,9.067c-4.874,2.916-9.763,5.808-14.659,8.688c-4.738,2.787-9.484,5.561-14.229,8.333
		c-5.154,3.012-10.294,6.053-15.476,9.022c-6.015,3.446-11.999,6.947-17.971,10.468c-0.592,0.349-0.767,0.246-1.058-0.276
		c-1.876-3.353-3.766-6.698-5.686-10.026c-0.29-0.502-0.208-0.794,0.229-1.062c0.575-0.353,1.16-0.691,1.741-1.035
		c4.591-2.723,9.175-5.457,13.775-8.164c4.368-2.57,8.824-5,13.113-7.694c4.652-2.923,9.521-5.464,14.2-8.337
		c5.221-3.206,10.58-6.186,15.814-9.377c6.245-3.808,12.612-7.415,18.926-11.109c3.065-1.793,6.15-3.552,9.189-5.388
		c2.75-1.662,5.503-3.306,8.355-4.797c1.136-0.594,2.227-1.346,3.334-2.032c0.748-0.463,1.373-0.491,2.167-0.023
		c5.175,3.049,10.391,6.029,15.57,9.07c4.165,2.445,8.282,4.97,12.448,7.414c3.54,2.077,7.134,4.062,10.675,6.137
		c4.153,2.433,8.26,4.945,12.415,7.375c4.257,2.489,8.56,4.898,12.819,7.382c3.621,2.111,7.215,4.269,10.812,6.42
		c4.074,2.437,8.119,4.922,12.213,7.323c4.454,2.613,8.969,5.124,13.308,7.93C521.578,556.566,521.866,556.694,521.957,557.055z"/>
	<path fill-rule="evenodd" clip-rule="evenodd" fill="#020305" d="M370.12,596.981c-0.263-4.257-0.102-8.521-0.195-12.779
		c-0.028-1.292,0.011-2.594-0.117-3.901c-0.158-1.608,0.359-3.299,0.102-4.876c-0.375-2.3,0.02-4.566-0.127-6.852
		c-0.214-3.322-0.008-6.669-0.02-10.005c-0.002-0.643,0.298-0.737,0.805-0.698c4.424,0.339,8.866-0.079,13.288,0.318
		c2.12,0.19,4.228-0.139,6.337-0.142c25.678-0.037,51.355-0.029,77.033-0.031c0.674,0,1.332,0.011,2.014-0.118
		c1.354-0.255,1.965,0.383,1.964,1.785c-0.009,7.678-0.145,15.358,0.03,23.032c0.254,11.191,0.093,22.382,0.233,33.572
		c0.089,7.111,0.209,14.222,0.229,21.334c0.016,5.626,0.164,11.251,0.208,16.877c0.009,1.1,0.317,2.152,0.074,3.311
		c-0.351,1.67-0.744,2.266-2.422,2.098c-3.829-0.384-7.662-0.127-11.491-0.164c-5.711-0.055-11.423-0.041-17.134-0.005
		c-4.929,0.03-9.859,0.245-14.786,0.173c-6.33-0.093-12.654,0.177-18.982,0.071c-7.245-0.119-14.49-0.239-21.735-0.346
		c-4.255-0.062-8.512-0.139-12.767-0.126c-1.977,0.005-2.607-1.35-2.21-2.913c0.192-0.759,0.286-1.495,0.223-2.239
		c-0.398-4.746-0.158-9.501-0.223-14.251c-0.105-7.713-0.204-15.426-0.229-23.139c-0.01-3.304-0.066-6.604-0.161-9.904
		c-0.022-0.796-0.431-1.6,0.044-2.387c-0.12-2.076,0.095-4.162-0.16-6.235c-0.001-0.247-0.002-0.494-0.003-0.741
		C369.994,597.457,370.26,597.27,370.12,596.981z M468.474,602.955c-0.004,0-0.008,0-0.011,0c0-1.225,0-2.449,0-3.674
		c0-12.347-0.01-24.694,0.026-37.041c0.002-0.748-0.425-0.934-0.88-0.942c-3.017-0.059-6.034-0.059-9.052-0.065
		c-4.686-0.009-9.371,0.016-14.057-0.02c-3.346-0.026-6.699-0.3-10.034-0.14c-2.503,0.12-4.997-0.056-7.503,0.102
		c-3.806,0.239-7.63-0.08-11.451,0.023c-4.453,0.121-8.911,0.018-13.367,0.019c-5.301,0.001-10.604-0.062-15.903,0.038
		c-3.864,0.073-7.721-0.353-11.588-0.046c-1.629,0.129-1.672,0.02-1.702,1.734c-0.034,1.961,0.015,3.923-0.013,5.884
		c-0.035,2.501-0.055,5.004-0.062,7.504c-0.017,4.968,0.246,9.936,0.292,14.905c0.063,6.741-0.039,13.483,0.082,20.222
		c0.042,2.297,0.14,4.597,0.145,6.898c0.012,5.934,0.02,11.868,0.064,17.802c0.015,2.01,0.179,4.019,0.195,6.028
		c0.037,4.339,0.052,8.68,0.009,13.019c-0.011,1.09,0.396,1.371,1.413,1.322c1.861-0.091,3.722-0.112,5.594-0.067
		c5.984,0.142,11.972,0.168,17.958,0.255c8.246,0.12,16.495-0.025,24.742-0.021c4.995,0.003,9.987,0.146,14.982-0.123
		c2.687-0.145,5.388-0.048,8.082-0.057c6.877-0.021,13.754-0.024,20.63-0.075c1.554-0.012,1.638-0.18,1.642-1.765
		c0.011-4.005-0.179-8.007-0.203-12.009C468.423,629.429,468.474,616.191,468.474,602.955z"/>
	<path fill-rule="evenodd" clip-rule="evenodd" fill="#4A747A" d="M369.947,598.439c0.255,2.073,0.041,4.159,0.16,6.235
		c-0.501-0.723-0.252-1.545-0.251-2.314C369.858,601.055,369.682,599.74,369.947,598.439z"/>
	<path fill-rule="evenodd" clip-rule="evenodd" fill="#4A747A" d="M370.12,596.981c0.141,0.288-0.125,0.476-0.176,0.717
		C369.752,597.397,369.761,597.146,370.12,596.981z"/>
	<path fill-rule="evenodd" clip-rule="evenodd" fill="#FAFAFA" d="M468.474,602.955c0,13.236-0.051,26.474,0.03,39.709
		c0.024,4.002,0.214,8.004,0.203,12.009c-0.004,1.585-0.088,1.753-1.642,1.765c-6.876,0.051-13.753,0.054-20.63,0.075
		c-2.694,0.009-5.396-0.088-8.082,0.057c-4.995,0.27-9.987,0.126-14.982,0.123c-8.247-0.004-16.497,0.142-24.742,0.021
		c-5.986-0.087-11.974-0.113-17.958-0.255c-1.872-0.045-3.732-0.023-5.594,0.067c-1.017,0.049-1.424-0.232-1.413-1.322
		c0.043-4.339,0.028-8.68-0.009-13.019c-0.017-2.01-0.181-4.019-0.195-6.028c-0.044-5.934-0.052-11.868-0.064-17.802
		c-0.005-2.302-0.104-4.602-0.145-6.898c-0.12-6.739-0.018-13.481-0.082-20.222c-0.047-4.969-0.309-9.937-0.292-14.905
		c0.008-2.5,0.027-5.003,0.062-7.504c0.028-1.961-0.021-3.923,0.013-5.884c0.03-1.715,0.073-1.605,1.702-1.734
		c3.868-0.307,7.724,0.119,11.588,0.046c5.299-0.1,10.602-0.037,15.903-0.038c4.456,0,8.915,0.102,13.367-0.019
		c3.821-0.104,7.646,0.216,11.451-0.023c2.506-0.157,5,0.019,7.503-0.102c3.335-0.16,6.688,0.114,10.034,0.14
		c4.686,0.036,9.371,0.011,14.057,0.02c3.018,0.006,6.035,0.006,9.052,0.065c0.455,0.009,0.882,0.195,0.88,0.942
		c-0.036,12.347-0.026,24.693-0.026,37.041c0,1.225,0,2.449,0,3.674C468.466,602.955,468.47,602.955,468.474,602.955z
		 M398.988,650.084c6.118,0,12.235-0.019,18.353,0.022c0.849,0.005,1.041-0.215,1.039-1.049
		c-0.029-12.155-0.029-24.311,0.001-36.466c0.002-0.847-0.216-1.038-1.045-1.036c-12.235,0.028-24.471,0.028-36.706-0.002
		c-0.844-0.002-1.043,0.209-1.042,1.047c0.03,12.155,0.031,24.311,0,36.466c-0.002,0.851,0.212,1.044,1.047,1.038
		C386.752,650.065,392.87,650.084,398.988,650.084z M424.489,585.828c0,6.275,0.021,12.551-0.024,18.825
		c-0.007,0.931,0.491,0.794,1.043,0.794c11.998-0.002,23.997-0.012,35.996,0.019c0.848,0.002,1.038-0.212,1.036-1.046
		c-0.029-12.079-0.019-24.158-0.021-36.237c0-1.948-0.006-1.964-1.949-1.965c-11.68-0.005-23.358,0.013-35.037-0.029
		c-0.986-0.004-1.064,0.352-1.061,1.161C424.501,573.509,424.488,579.668,424.489,585.828z M424.53,630.717c0.006,0,0.011,0,0.017,0
		c0,6.077,0.021,12.155-0.024,18.232c-0.007,0.905,0.224,1.104,1.11,1.102c11.955-0.027,23.91-0.023,35.865,0.016
		c0.906,0.003,0.996-0.316,0.994-1.09c-0.022-12.114-0.024-24.229,0.007-36.344c0.002-0.85-0.222-1.039-1.052-1.037
		c-11.955,0.029-23.91,0.034-35.865-0.008c-0.963-0.003-1.074,0.308-1.069,1.137C424.546,618.722,424.53,624.72,424.53,630.717z
		 M379.609,585.846c0,6.196,0.001,12.393-0.001,18.589c0,0.555-0.124,1.036,0.797,1.033c12.393-0.034,24.785-0.028,37.178-0.01
		c0.633,0.001,0.792-0.172,0.791-0.797c-0.019-12.432-0.019-24.865-0.004-37.297c0.001-0.852-0.253-1.171-1.168-1.169
		c-12.193,0.029-24.386,0.029-36.578-0.001c-0.864-0.002-1.038,0.246-1.033,1.063C379.625,573.453,379.608,579.649,379.609,585.846z
		"/>
	<path fill-rule="evenodd" clip-rule="evenodd" d="M398.988,650.084c-6.118,0-12.236-0.019-18.353,0.021
		c-0.834,0.006-1.049-0.188-1.047-1.038c0.031-12.155,0.03-24.311,0-36.466c-0.002-0.838,0.197-1.049,1.042-1.047
		c12.235,0.03,24.471,0.03,36.706,0.002c0.829-0.002,1.047,0.189,1.045,1.036c-0.031,12.155-0.03,24.311-0.001,36.466
		c0.002,0.834-0.189,1.054-1.039,1.049C411.224,650.065,405.106,650.084,398.988,650.084z"/>
	<path fill-rule="evenodd" clip-rule="evenodd" d="M424.488,585.828c0-6.16,0.013-12.319-0.016-18.479
		c-0.004-0.809,0.074-1.165,1.061-1.161c11.679,0.042,23.357,0.024,35.037,0.029c1.943,0.001,1.949,0.017,1.949,1.965
		c0.002,12.079-0.009,24.158,0.021,36.237c0.002,0.834-0.188,1.048-1.036,1.046c-11.999-0.03-23.998-0.021-35.996-0.019
		c-0.552,0-1.05,0.137-1.043-0.794C424.511,598.379,424.489,592.104,424.488,585.828z"/>
	<path fill-rule="evenodd" clip-rule="evenodd" d="M424.53,630.717c0-5.997,0.016-11.995-0.018-17.992
		c-0.005-0.829,0.106-1.14,1.069-1.137c11.955,0.042,23.91,0.037,35.865,0.008c0.83-0.002,1.054,0.188,1.052,1.037
		c-0.031,12.114-0.029,24.229-0.007,36.344c0.002,0.773-0.088,1.093-0.994,1.09c-11.955-0.039-23.91-0.043-35.865-0.016
		c-0.887,0.002-1.117-0.196-1.11-1.102c0.046-6.077,0.024-12.155,0.024-18.232C424.541,630.717,424.536,630.717,424.53,630.717z"/>
	<path fill-rule="evenodd" clip-rule="evenodd" d="M379.608,585.846c0-6.197,0.016-12.393-0.019-18.589
		c-0.005-0.817,0.169-1.066,1.033-1.063c12.192,0.031,24.385,0.031,36.578,0.001c0.916-0.002,1.169,0.318,1.168,1.169
		c-0.015,12.433-0.015,24.865,0.004,37.297c0.001,0.625-0.158,0.798-0.791,0.797c-12.393-0.019-24.785-0.024-37.178,0.01
		c-0.921,0.003-0.798-0.479-0.797-1.033C379.61,598.238,379.609,592.042,379.608,585.846z M401.019,591.944
		c0.203,3.28,1.516,5.708,4.542,6.206c1.508,0.248,3.536-0.721,3.899-2.021c0.514-1.842,0.691-3.704,0.454-5.612
		c-0.211-1.698-2.482-3.843-4.193-3.841C402.859,586.677,400.867,588.973,401.019,591.944z M398.559,593.044
		c0.331-0.93-0.187-1.886-0.408-2.883c-0.631-2.849-4.459-3.978-6.561-2.288c-3.067,2.467-3.231,6.862,0.146,9.422
		c2.058,1.559,4.92,0.963,6.234-1.25C398.493,595.166,398.637,594.195,398.559,593.044z"/>
	<path fill-rule="evenodd" clip-rule="evenodd" fill="#FAFAFA" d="M401.019,591.944c-0.152-2.971,1.841-5.267,4.702-5.269
		c1.711-0.001,3.982,2.144,4.193,3.841c0.238,1.908,0.06,3.77-0.454,5.612c-0.363,1.301-2.391,2.27-3.899,2.021
		C402.535,597.652,401.222,595.224,401.019,591.944z M404.326,592.174c0.025,0.392,0.005,0.836,0.09,1.259
		c0.13,0.642,0.739,0.772,1.238,0.932c0.335,0.108,0.755-0.016,0.859-0.438c0.224-0.91,0.409-1.838,0.23-2.775
		c-0.114-0.597-0.394-0.912-1.156-0.919C404.05,590.217,404.463,591.319,404.326,592.174z"/>
	<path fill-rule="evenodd" clip-rule="evenodd" fill="#FAFAFA" d="M398.559,593.044c0.079,1.151-0.066,2.121-0.588,3.001
		c-1.314,2.213-4.176,2.809-6.234,1.25c-3.378-2.561-3.213-6.956-0.146-9.422c2.102-1.69,5.93-0.561,6.561,2.288
		C398.372,591.159,398.889,592.115,398.559,593.044z M394.512,592.063c0.013,0,0.027,0,0.04,0c0-0.238-0.001-0.476,0-0.714
		c0.007-1.347-0.369-1.589-1.621-1.046c-0.799,0.347-1.161,2.478-0.613,3.616c0.257,0.533,0.585,0.805,1.272,0.773
		c0.736-0.034,0.806-0.548,0.895-0.972C394.596,593.189,394.512,592.618,394.512,592.063z"/>
	<path fill-rule="evenodd" clip-rule="evenodd" fill="#020305" d="M404.326,592.174c0.137-0.854-0.276-1.957,1.262-1.941
		c0.762,0.008,1.042,0.322,1.156,0.919c0.178,0.938-0.007,1.866-0.23,2.775c-0.104,0.422-0.524,0.545-0.859,0.438
		c-0.499-0.16-1.108-0.29-1.238-0.932C404.332,593.01,404.351,592.565,404.326,592.174z"/>
	<path fill-rule="evenodd" clip-rule="evenodd" fill="#020305" d="M394.512,592.063c0,0.554,0.084,1.126-0.027,1.657
		c-0.089,0.424-0.159,0.938-0.895,0.972c-0.687,0.032-1.015-0.24-1.272-0.773c-0.547-1.139-0.186-3.269,0.613-3.616
		c1.251-0.543,1.628-0.301,1.621,1.046c-0.001,0.238,0,0.476,0,0.714C394.539,592.063,394.525,592.063,394.512,592.063z"/>
</g>
</svg>
