<?xml version="1.0" encoding="utf-8"?>
<!-- Generator: Adobe Illustrator 15.1.0, SVG Export Plug-In  -->
<!DOCTYPE svg PUBLIC "-//W3C//DTD SVG 1.1//EN" "http://www.w3.org/Graphics/SVG/1.1/DTD/svg11.dtd" [
	<!ENTITY ns_flows "http://ns.adobe.com/Flows/1.0/">
]>
<svg version="1.1"
	 xmlns="http://www.w3.org/2000/svg" xmlns:xlink="http://www.w3.org/1999/xlink" xmlns:a="http://ns.adobe.com/AdobeSVGViewerExtensions/3.0/"
	 x="0px" y="0px" width="213px" height="193px" viewBox="-1.145 0.931 213 193"
	 overflow="visible" enable-background="new -1.145 0.931 213 193" xml:space="preserve">
<defs>
</defs>
<g>
	<defs>
		<rect id="SVGID_1_" width="210.956" height="193.924"/>
	</defs>
	<clipPath id="SVGID_2_">
		<use xlink:href="#SVGID_1_"  overflow="visible"/>
	</clipPath>
	<path clip-path="url(#SVGID_2_)" fill="#FFFFFF" d="M175.705,64.777c1.439,0.83,2.793,1.587,4.125,2.383
		c6.461,3.862,12.98,7.627,19.35,11.641c1.133,0.714,1.74,0.459,2.5-0.767c3.105-5.001,5.576-10.384,9.104-15.132
		c0.305-0.41,0.203-0.634-0.281-0.901c-2.121-1.168-4.283-2.29-6.289-3.638c-3.953-2.657-8.225-4.757-12.283-7.229
		c-6.307-3.841-12.643-7.639-19.07-11.266c-6.74-3.802-13.381-7.771-20.102-11.607c-5.221-2.981-10.391-6.058-15.582-9.092
		c-4.029-2.354-8.021-4.771-12.094-7.06c-3.9-2.192-7.721-4.536-11.539-6.873c-2.668-1.634-5.562-2.897-8.002-4.916
		c-0.412-0.34-0.969-0.467-1.541-0.083c-1.25,0.84-2.619,1.481-3.921,2.228c-6.994,3.999-13.922,8.112-20.891,12.154
		c-6.771,3.926-13.48,7.956-20.277,11.837c-5.791,3.308-11.45,6.846-17.196,10.232c-5.964,3.516-12.014,6.889-17.934,10.476
		C16.127,51.8,8.264,56.084,0.77,60.988c-0.781,0.511-0.873,0.997-0.688,1.754c0.241,0.982,1.121,1.542,1.563,2.354
		c2.378,4.365,5.043,8.576,7.104,13.112c0.175,0.384,0.294,0.531,0.78,0.406c1.326-0.34,2.534-0.88,3.717-1.576
		c3.597-2.117,7.126-4.339,10.794-6.349c3.193-1.75,6.362-3.603,9.414-5.621c0.382-0.252,0.846-0.607,1.276-0.447
		c0.58,0.215,0.278,0.857,0.283,1.281c0.046,5.456-0.019,10.913,0.172,16.368c0.244,7.008-0.039,14.024,0.31,21.034
		c0.092,1.863-0.11,3.738-0.06,5.605c0.242,9.08-0.074,18.164,0.29,27.244c0.163,4.045,0.011,8.1,0.03,12.148
		c0.015,2.785-0.002,5.566,0.18,8.354c0.12,1.852-0.131,3.727-0.164,5.592c-0.033,1.869,0.229,3.73,0.206,5.607
		c-0.051,4.1,0.018,8.199,0.015,12.301c-0.002,2.396,0.139,4.789,0.175,7.18c0.014,0.863,0.367,1.84-0.244,2.723
		c-0.407,0.59-0.977,1.307-0.36,2.035c0.664,0.787,1.277,1.703,2.576,1.59c1.562-0.137,3.15-0.332,4.699-0.189
		c3.107,0.289,6.21,0.104,9.312,0.146c6.474,0.09,12.949,0.004,19.424,0.039c2.075,0.012,4.15,0.062,6.229,0.164
		c2.837,0.141,5.707-0.316,8.534-0.105c2.379,0.178,4.748,0.139,7.11,0.121c5.299-0.039,10.596,0.115,15.9-0.068
		c2.354-0.082,4.773-0.002,7.164,0.082c2.947,0.102,5.906-0.146,8.855-0.074c2.541,0.062,5.068,0.006,7.609-0.07
		c3.906-0.115,7.828-0.002,11.742,0.053c2.902,0.041,5.822-0.117,8.732-0.094c7.439,0.057,14.881-0.275,22.312,0.227
		c0.973,0.066,1.367-0.154,1.262-1.201c-0.125-1.227-0.145-2.469-0.145-3.703c-0.002-5.018-0.045-10.031-0.188-15.049
		c-0.215-7.58-0.066-15.166-0.242-22.75c-0.229-9.984-0.07-19.979-0.264-29.969c-0.148-7.734,0.053-15.477-0.209-23.209
		c-0.234-6.977,0.146-13.955-0.232-20.933C175.525,73.068,175.705,69.015,175.705,64.777z"/>
	<path clip-path="url(#SVGID_2_)" fill="#050608" d="M175.705,64.777c0,4.238-0.18,8.291,0.041,12.322
		c0.381,6.978-0.002,13.956,0.232,20.931c0.262,7.734,0.061,15.477,0.209,23.211c0.191,9.99,0.033,19.982,0.264,29.967
		c0.176,7.586,0.027,15.17,0.242,22.75c0.143,5.018,0.188,10.033,0.188,15.049c0,1.236,0.02,2.479,0.145,3.705
		c0.105,1.047-0.289,1.268-1.262,1.201c-7.434-0.502-14.875-0.172-22.312-0.229c-2.91-0.021-5.83,0.135-8.732,0.096
		c-3.914-0.055-7.836-0.17-11.742-0.053c-2.541,0.074-5.068,0.131-7.609,0.07c-2.949-0.07-5.908,0.176-8.855,0.072
		c-2.391-0.082-4.811-0.162-7.164-0.08c-5.304,0.186-10.602,0.027-15.9,0.066c-2.363,0.018-4.731,0.059-7.11-0.119
		c-2.826-0.213-5.697,0.246-8.535,0.105c-2.077-0.102-4.152-0.152-6.228-0.164c-6.475-0.035-12.95,0.049-19.424-0.039
		c-3.103-0.043-6.206,0.143-9.312-0.146c-1.548-0.145-3.137,0.053-4.7,0.189c-1.298,0.111-1.911-0.805-2.575-1.592
		c-0.615-0.729-0.046-1.445,0.36-2.033c0.611-0.883,0.257-1.859,0.244-2.723c-0.036-2.391-0.177-4.783-0.175-7.18
		c0.003-4.102-0.065-8.201-0.015-12.301c0.022-1.879-0.238-3.738-0.206-5.609c0.032-1.865,0.283-3.738,0.164-5.592
		c-0.182-2.785-0.165-5.566-0.18-8.352c-0.02-4.051,0.132-8.105-0.03-12.148c-0.364-9.08-0.048-18.164-0.29-27.244
		c-0.051-1.867,0.151-3.744,0.06-5.605c-0.348-7.01-0.065-14.026-0.31-21.035c-0.19-5.456-0.126-10.912-0.173-16.368
		c-0.004-0.424,0.298-1.065-0.282-1.281c-0.432-0.16-0.896,0.194-1.276,0.447c-3.052,2.019-6.221,3.871-9.414,5.621
		c-3.668,2.01-7.198,4.231-10.794,6.349c-1.183,0.696-2.391,1.236-3.717,1.576c-0.486,0.125-0.605-0.021-0.78-0.406
		c-2.062-4.536-4.727-8.747-7.104-13.112c-0.442-0.812-1.322-1.371-1.563-2.354c-0.186-0.758-0.093-1.244,0.688-1.754
		c7.493-4.903,15.357-9.188,23.011-13.824c5.92-3.587,11.97-6.96,17.934-10.476C47.46,33.3,53.12,29.762,58.911,26.455
		c6.797-3.882,13.507-7.911,20.277-11.837c6.969-4.042,13.896-8.155,20.891-12.154c1.303-0.744,2.672-1.387,3.921-2.228
		c0.572-0.385,1.129-0.258,1.541,0.083c2.438,2.019,5.334,3.282,8.002,4.916c3.818,2.337,7.639,4.68,11.539,6.873
		c4.072,2.288,8.064,4.705,12.094,7.06c5.191,3.035,10.361,6.11,15.582,9.093c6.719,3.836,13.359,7.805,20.102,11.606
		c6.43,3.627,12.766,7.425,19.07,11.266c4.059,2.473,8.33,4.572,12.283,7.229c2.006,1.348,4.168,2.469,6.289,3.638
		c0.484,0.268,0.586,0.491,0.281,0.901c-3.525,4.749-5.996,10.131-9.104,15.132c-0.76,1.227-1.367,1.479-2.5,0.768
		c-6.369-4.014-12.889-7.779-19.35-11.642C178.498,66.364,177.145,65.607,175.705,64.777z M172.639,75.823h-0.176
		c0-3.719,0.006-7.438-0.006-11.158c-0.002-0.554-0.115-1.106-0.139-1.662c-0.014-0.313-0.131-0.502-0.396-0.673
		c-2.402-1.542-4.863-3.031-7.371-4.341c-3.652-1.908-6.975-4.342-10.631-6.219c-1.867-0.959-3.562-2.253-5.375-3.264
		c-1.502-0.837-3.008-1.713-4.51-2.562c-2.613-1.479-5.016-3.358-7.697-4.68c-4.291-2.116-8.217-4.833-12.389-7.14
		c-2.91-1.607-5.809-3.257-8.66-4.983c-3.039-1.841-6.248-3.4-9.209-5.395c-0.783-0.526-1.698-0.688-2.658-0.103
		c-2.024,1.234-4.108,2.372-6.156,3.57c-5.311,3.109-10.691,6.107-15.897,9.384c-5.049,3.177-10.382,5.87-15.322,9.227
		c-2.768,1.881-5.878,3.196-8.69,4.989c-5.704,3.633-11.724,6.725-17.44,10.331c-0.944,0.595-1.34,1.243-1.432,2.364
		c-0.075,0.918,0.072,1.795,0.063,2.691c-0.026,2.902-0.087,5.801-0.039,8.706c0.094,5.585-0.06,11.174,0.038,16.759
		c0.135,7.667,0.21,15.332,0.238,23c0.019,5.002,0.104,10.002,0.156,15.004c0.062,6.189,0.123,12.381,0.18,18.572
		c0.032,3.492,0.055,6.982,0.084,10.475c0.053,6.496,0.206,12.99,0.123,19.482c-0.046,3.646,0.192,7.283,0.109,10.924
		c-0.018,0.752,0.244,0.824,0.896,0.826c6.78,0.016,13.562,0.064,20.341,0.111c4.504,0.029,9.01,0.094,13.514,0.102
		c10.503,0.014,21.006,0.01,31.509-0.002c1.395-0.002,2.819-0.182,4.18-0.088c4.102,0.279,8.195,0.006,12.293,0.1
		c4.82,0.111,9.65-0.152,14.479-0.186c6.434-0.041,12.867,0.08,19.301-0.049c5.307-0.107,10.611-0.193,15.918-0.16
		c1.109,0.006,1.422-0.275,1.402-1.398c-0.242-13.273-0.07-26.551-0.342-39.826c-0.178-8.658,0.002-17.32-0.113-25.982
		c-0.146-10.908-0.131-21.82-0.174-32.73C172.623,85.167,172.639,80.495,172.639,75.823z M206.367,64.21
		c-0.09-0.36-0.379-0.488-0.645-0.66c-4.338-2.807-8.854-5.316-13.307-7.93c-4.094-2.4-8.139-4.887-12.213-7.323
		c-3.598-2.15-7.191-4.31-10.812-6.42c-4.26-2.482-8.562-4.893-12.818-7.382c-4.156-2.429-8.262-4.94-12.416-7.375
		c-3.541-2.075-7.135-4.06-10.674-6.137c-4.166-2.444-8.283-4.969-12.449-7.414c-5.18-3.042-10.396-6.021-15.57-9.07
		c-0.794-0.468-1.419-0.439-2.167,0.023c-1.106,0.687-2.198,1.438-3.334,2.032c-2.852,1.49-5.604,3.135-8.354,4.797
		c-3.039,1.836-6.125,3.595-9.189,5.388c-6.313,3.694-12.682,7.301-18.926,11.109c-5.234,3.19-10.593,6.171-15.814,9.377
		c-4.68,2.874-9.548,5.415-14.199,8.337c-4.289,2.694-8.745,5.124-13.113,7.693c-4.601,2.707-9.185,5.441-13.775,8.164
		c-0.581,0.345-1.166,0.683-1.741,1.035c-0.438,0.27-0.519,0.562-0.229,1.062c1.92,3.327,3.81,6.673,5.686,10.025
		c0.292,0.521,0.467,0.625,1.059,0.276c5.972-3.521,11.956-7.021,17.971-10.468c5.181-2.97,10.321-6.011,15.477-9.022
		c4.744-2.771,9.49-5.546,14.229-8.333c4.896-2.88,9.785-5.771,14.659-8.688c5.029-3.009,10.017-6.084,15.061-9.067
		c3.848-2.275,7.771-4.42,11.614-6.701c0.642-0.38,1.468-0.484,1.933-1.113c0.794-1.075,1.761-1.05,2.942-0.765
		c0.831,0.201,1.26,0.875,1.952,1.187c1.729,0.78,3.352,1.791,4.939,2.783c3.066,1.915,6.262,3.594,9.363,5.438
		c6.943,4.128,14.004,8.063,20.908,12.255c5.008,3.04,10.123,5.885,15.174,8.844c3.414,2,6.682,4.255,10.234,6.014
		c2.932,1.45,5.639,3.288,8.514,4.846c2.354,1.274,4.637,2.748,6.949,4.103c3.697,2.168,7.32,4.477,11.102,6.509
		c1.641,0.881,3.211,1.892,4.809,2.85c0.715,0.428,1.193,0.418,1.656-0.443c1.268-2.369,2.643-4.679,3.967-7.018
		C205.342,66.099,205.848,65.157,206.367,64.21z"/>
	<path clip-path="url(#SVGID_2_)" fill="#53A9B1" d="M172.639,75.823c0,4.672-0.016,9.344,0.004,14.016
		c0.041,10.911,0.025,21.821,0.172,32.729c0.115,8.662-0.064,17.326,0.113,25.982c0.271,13.277,0.1,26.555,0.342,39.828
		c0.02,1.121-0.293,1.404-1.402,1.396c-5.307-0.033-10.611,0.055-15.918,0.16c-6.432,0.129-12.867,0.008-19.301,0.051
		c-4.828,0.031-9.656,0.295-14.479,0.186c-4.098-0.094-8.191,0.18-12.293-0.102c-1.359-0.092-2.785,0.086-4.18,0.088
		c-10.503,0.012-21.006,0.018-31.509,0.002c-4.504-0.006-9.01-0.07-13.514-0.102c-6.779-0.047-13.561-0.096-20.341-0.109
		c-0.653-0.002-0.915-0.074-0.896-0.826c0.083-3.641-0.155-7.277-0.109-10.924c0.083-6.492-0.07-12.988-0.123-19.482
		c-0.029-3.492-0.052-6.982-0.084-10.477c-0.057-6.191-0.117-12.381-0.18-18.572c-0.052-5-0.138-10.002-0.156-15.002
		c-0.028-7.668-0.104-15.334-0.238-23c-0.098-5.585,0.056-11.174-0.038-16.759C38.46,72,38.521,69.102,38.547,66.2
		c0.008-0.896-0.14-1.774-0.063-2.692c0.092-1.122,0.487-1.769,1.432-2.363c5.717-3.606,11.736-6.697,17.44-10.331
		c2.812-1.792,5.923-3.108,8.69-4.989c4.94-3.356,10.273-6.05,15.322-9.227c5.206-3.276,10.587-6.274,15.897-9.384
		c2.047-1.198,4.132-2.336,6.156-3.57c0.96-0.586,1.875-0.425,2.658,0.103c2.961,1.993,6.17,3.553,9.209,5.395
		c2.854,1.727,5.75,3.375,8.66,4.983c4.172,2.307,8.098,5.023,12.389,7.14c2.684,1.321,5.084,3.2,7.697,4.68
		c1.502,0.85,3.008,1.727,4.51,2.562c1.812,1.01,3.508,2.305,5.375,3.264c3.656,1.877,6.979,4.311,10.631,6.219
		c2.508,1.31,4.969,2.799,7.371,4.341c0.266,0.171,0.385,0.358,0.396,0.673c0.023,0.555,0.137,1.108,0.139,1.662
		c0.012,3.72,0.006,7.439,0.006,11.158L172.639,75.823z M54.358,105.595c-0.266,1.301-0.089,2.615-0.091,3.922
		c-0.001,0.77-0.25,1.592,0.251,2.312c-0.476,0.787-0.067,1.592-0.045,2.389c0.096,3.301,0.15,6.6,0.161,9.902
		c0.024,7.713,0.124,15.426,0.229,23.141c0.064,4.75-0.175,9.504,0.223,14.25c0.062,0.744-0.031,1.48-0.223,2.238
		c-0.396,1.564,0.232,2.918,2.21,2.914c4.255-0.014,8.512,0.062,12.767,0.125c7.245,0.107,14.49,0.229,21.735,0.348
		c6.328,0.104,12.652-0.164,18.981-0.072c4.928,0.072,9.857-0.143,14.787-0.172c5.711-0.037,11.424-0.051,17.135,0.004
		c3.828,0.037,7.66-0.219,11.49,0.164c1.678,0.168,2.07-0.428,2.422-2.098c0.242-1.158-0.064-2.211-0.074-3.311
		c-0.043-5.627-0.191-11.252-0.207-16.877c-0.021-7.113-0.143-14.223-0.23-21.334c-0.141-11.191,0.021-22.381-0.232-33.573
		c-0.176-7.673-0.039-15.354-0.029-23.032c0-1.401-0.609-2.039-1.965-1.784c-0.682,0.129-1.34,0.117-2.014,0.117
		c-25.678,0.003-51.355-0.006-77.033,0.031c-2.109,0.003-4.219,0.333-6.337,0.143c-4.423-0.397-8.864,0.021-13.288-0.318
		c-0.508-0.039-0.808,0.056-0.806,0.698c0.013,3.336-0.193,6.684,0.021,10.005c0.146,2.286-0.248,4.552,0.127,6.852
		c0.257,1.577-0.26,3.269-0.103,4.876c0.128,1.308,0.089,2.609,0.117,3.901c0.093,4.259-0.067,8.522,0.195,12.78
		c-0.358,0.164-0.368,0.416-0.176,0.717C54.356,105.101,54.357,105.349,54.358,105.595z"/>
	<path clip-path="url(#SVGID_2_)" fill="#4C757B" d="M206.367,64.21c-0.521,0.946-1.025,1.889-1.553,2.818
		c-1.324,2.338-2.699,4.648-3.969,7.018c-0.461,0.861-0.939,0.871-1.654,0.443c-1.598-0.958-3.168-1.969-4.809-2.85
		c-3.779-2.032-7.402-4.34-11.102-6.509c-2.312-1.354-4.598-2.827-6.949-4.103c-2.875-1.558-5.582-3.396-8.514-4.846
		c-3.555-1.759-6.82-4.014-10.234-6.014c-5.051-2.959-10.166-5.805-15.174-8.844c-6.904-4.191-13.965-8.126-20.908-12.255
		c-3.102-1.844-6.297-3.522-9.363-5.438c-1.59-0.992-3.211-2.002-4.939-2.783c-0.691-0.312-1.121-0.985-1.952-1.187
		c-1.182-0.286-2.148-0.312-2.943,0.766c-0.464,0.628-1.292,0.732-1.932,1.112c-3.843,2.281-7.767,4.425-11.614,6.701
		c-5.043,2.983-10.031,6.06-15.061,9.067c-4.874,2.916-9.764,5.808-14.659,8.688c-4.738,2.787-9.484,5.562-14.229,8.333
		c-5.153,3.013-10.294,6.053-15.476,9.022c-6.015,3.445-11.999,6.946-17.971,10.468c-0.592,0.349-0.768,0.246-1.059-0.276
		c-1.876-3.353-3.766-6.697-5.686-10.025c-0.29-0.502-0.208-0.794,0.229-1.062c0.575-0.353,1.16-0.69,1.741-1.035
		c4.591-2.723,9.175-5.457,13.775-8.164c4.368-2.569,8.824-5,13.112-7.693c4.652-2.923,9.521-5.464,14.2-8.337
		c5.222-3.206,10.58-6.187,15.814-9.377c6.245-3.809,12.611-7.415,18.926-11.109c3.065-1.793,6.15-3.552,9.189-5.388
		c2.75-1.662,5.503-3.307,8.354-4.797c1.136-0.595,2.228-1.347,3.334-2.032c0.748-0.463,1.373-0.491,2.167-0.023
		c5.175,3.049,10.39,6.029,15.57,9.07c4.166,2.445,8.283,4.97,12.449,7.414c3.539,2.077,7.133,4.062,10.674,6.137
		c4.152,2.434,8.26,4.945,12.416,7.375c4.256,2.489,8.559,4.898,12.818,7.382c3.621,2.111,7.215,4.27,10.812,6.42
		c4.074,2.438,8.119,4.923,12.213,7.323c4.453,2.613,8.969,5.124,13.307,7.931C205.988,63.722,206.277,63.85,206.367,64.21z"/>
	<path clip-path="url(#SVGID_2_)" fill="#050608" d="M54.531,104.138c-0.263-4.258-0.103-8.522-0.195-12.78
		c-0.028-1.292,0.011-2.594-0.117-3.901c-0.157-1.607,0.359-3.299,0.103-4.876c-0.375-2.3,0.02-4.565-0.127-6.852
		c-0.214-3.322-0.008-6.669-0.021-10.005c-0.002-0.644,0.298-0.737,0.806-0.698c4.424,0.339,8.865-0.079,13.287,0.318
		c2.12,0.189,4.229-0.14,6.338-0.143c25.678-0.037,51.355-0.029,77.033-0.031c0.674,0,1.332,0.012,2.014-0.117
		c1.354-0.256,1.965,0.383,1.965,1.784c-0.01,7.679-0.146,15.358,0.029,23.032c0.254,11.192,0.094,22.381,0.232,33.573
		c0.09,7.111,0.209,14.221,0.23,21.334c0.016,5.625,0.164,11.25,0.207,16.877c0.01,1.1,0.316,2.152,0.074,3.311
		c-0.352,1.67-0.744,2.266-2.422,2.098c-3.83-0.383-7.662-0.127-11.49-0.164c-5.713-0.055-11.424-0.041-17.135-0.004
		c-4.93,0.029-9.859,0.244-14.787,0.172c-6.329-0.092-12.653,0.178-18.981,0.07c-7.245-0.117-14.49-0.238-21.735-0.346
		c-4.255-0.061-8.512-0.139-12.767-0.125c-1.978,0.004-2.607-1.35-2.21-2.914c0.191-0.758,0.286-1.494,0.223-2.238
		c-0.397-4.746-0.158-9.502-0.223-14.252c-0.105-7.713-0.204-15.426-0.229-23.139c-0.01-3.303-0.065-6.604-0.161-9.904
		c-0.021-0.795-0.431-1.6,0.045-2.387c-0.12-2.076,0.095-4.162-0.16-6.234c-0.001-0.246-0.002-0.494-0.003-0.74
		C54.405,104.612,54.67,104.425,54.531,104.138z M152.885,110.11h-0.012c0-1.225,0-2.449,0-3.674c0-12.347-0.01-24.694,0.027-37.041
		c0.002-0.748-0.426-0.935-0.881-0.942c-3.018-0.059-6.033-0.059-9.053-0.064c-4.686-0.01-9.371,0.016-14.057-0.021
		c-3.346-0.026-6.699-0.3-10.033-0.14c-2.504,0.12-4.998-0.057-7.504,0.102c-3.805,0.239-7.629-0.08-11.451,0.023
		c-4.453,0.121-8.911,0.018-13.367,0.019c-5.301,0.001-10.604-0.062-15.902,0.038c-3.864,0.073-7.721-0.353-11.588-0.046
		c-1.629,0.129-1.672,0.02-1.702,1.734c-0.034,1.961,0.015,3.923-0.013,5.884c-0.035,2.501-0.056,5.004-0.062,7.504
		c-0.017,4.968,0.246,9.936,0.292,14.905c0.063,6.74-0.039,13.482,0.082,20.223c0.042,2.297,0.14,4.596,0.145,6.896
		c0.013,5.936,0.021,11.869,0.064,17.803c0.015,2.01,0.179,4.02,0.195,6.027c0.037,4.34,0.052,8.682,0.009,13.02
		c-0.011,1.09,0.396,1.371,1.413,1.322c1.86-0.092,3.722-0.111,5.594-0.066c5.984,0.141,11.972,0.168,17.958,0.254
		c8.246,0.121,16.495-0.025,24.742-0.02c4.996,0.002,9.988,0.145,14.982-0.123c2.688-0.146,5.389-0.049,8.082-0.059
		c6.877-0.02,13.754-0.023,20.631-0.074c1.553-0.012,1.637-0.18,1.641-1.766c0.012-4.004-0.178-8.006-0.203-12.008
		C152.834,136.585,152.885,123.347,152.885,110.11z"/>
	<path clip-path="url(#SVGID_2_)" fill="#4C757B" d="M54.358,105.595c0.255,2.072,0.041,4.158,0.16,6.234
		c-0.501-0.723-0.252-1.545-0.251-2.312C54.269,108.21,54.092,106.896,54.358,105.595z"/>
	<path clip-path="url(#SVGID_2_)" fill="#4C757B" d="M54.531,104.138c0.141,0.287-0.125,0.475-0.176,0.717
		C54.163,104.552,54.171,104.302,54.531,104.138z"/>
	<path clip-path="url(#SVGID_2_)" fill="#FAFAFA" d="M152.885,110.11c0,13.236-0.051,26.475,0.029,39.709
		c0.025,4.002,0.215,8.004,0.203,12.01c-0.004,1.584-0.088,1.752-1.641,1.764c-6.877,0.053-13.754,0.055-20.631,0.076
		c-2.693,0.008-5.396-0.088-8.082,0.057c-4.994,0.27-9.986,0.127-14.982,0.123c-8.247-0.004-16.497,0.143-24.742,0.021
		c-5.986-0.088-11.974-0.113-17.958-0.256c-1.872-0.045-3.731-0.023-5.594,0.068c-1.018,0.049-1.424-0.232-1.413-1.322
		c0.043-4.34,0.028-8.68-0.009-13.02c-0.018-2.01-0.182-4.02-0.195-6.027c-0.044-5.936-0.052-11.869-0.063-17.803
		c-0.006-2.303-0.104-4.602-0.146-6.898c-0.12-6.738-0.018-13.48-0.082-20.221c-0.047-4.97-0.309-9.938-0.292-14.906
		c0.008-2.5,0.027-5.003,0.062-7.504c0.027-1.961-0.021-3.923,0.013-5.884c0.03-1.716,0.073-1.605,1.702-1.734
		c3.868-0.307,7.724,0.119,11.588,0.046c5.299-0.1,10.602-0.037,15.902-0.038c4.456,0,8.915,0.103,13.367-0.019
		c3.821-0.104,7.646,0.216,11.451-0.023c2.506-0.157,5,0.02,7.504-0.102c3.334-0.16,6.688,0.113,10.033,0.14
		c4.686,0.036,9.371,0.011,14.057,0.021c3.02,0.006,6.035,0.006,9.053,0.064c0.455,0.009,0.883,0.195,0.881,0.942
		c-0.037,12.347-0.027,24.692-0.027,37.042c0,1.225,0,2.447,0,3.674H152.885z M83.399,157.239c6.118,0,12.234-0.018,18.353,0.021
		c0.85,0.006,1.041-0.215,1.039-1.049c-0.029-12.154-0.029-24.311,0.001-36.465c0.002-0.848-0.216-1.039-1.045-1.037
		c-12.235,0.029-24.471,0.029-36.706-0.002c-0.844-0.002-1.043,0.209-1.042,1.047c0.03,12.156,0.031,24.312,0,36.467
		c-0.002,0.852,0.212,1.045,1.047,1.037C71.163,157.222,77.281,157.239,83.399,157.239z M108.9,92.984
		c0,6.275,0.02,12.55-0.025,18.826c-0.006,0.93,0.492,0.793,1.043,0.793c11.998-0.002,23.998-0.012,35.996,0.02
		c0.848,0.002,1.039-0.213,1.037-1.047c-0.029-12.078-0.02-24.158-0.021-36.237c0-1.947-0.006-1.964-1.949-1.965
		c-11.68-0.005-23.357,0.013-35.037-0.028c-0.986-0.005-1.064,0.352-1.061,1.16C108.912,80.665,108.898,86.824,108.9,92.984z
		 M108.941,137.872h0.016c0,6.078,0.021,12.156-0.023,18.232c-0.008,0.904,0.225,1.104,1.109,1.102
		c11.955-0.025,23.91-0.021,35.865,0.018c0.906,0.002,0.996-0.316,0.994-1.092c-0.021-12.113-0.023-24.229,0.008-36.344
		c0.002-0.85-0.223-1.039-1.053-1.037c-11.955,0.029-23.91,0.035-35.865-0.008c-0.963-0.002-1.074,0.309-1.068,1.137
		C108.957,125.878,108.941,131.876,108.941,137.872z M64.02,93.001c0,6.197,0.001,12.394-0.001,18.589
		c0,0.555-0.124,1.035,0.797,1.033c12.393-0.035,24.785-0.027,37.178-0.01c0.633,0,0.792-0.172,0.791-0.797
		c-0.019-12.434-0.019-24.866-0.004-37.297c0.001-0.853-0.253-1.171-1.168-1.169c-12.193,0.028-24.386,0.028-36.578-0.001
		c-0.864-0.002-1.038,0.246-1.033,1.062C64.036,80.609,64.019,86.805,64.02,93.001z"/>
	<path clip-path="url(#SVGID_2_)" fill="#010101" d="M83.399,157.239c-6.118,0-12.236-0.018-18.354,0.021
		c-0.834,0.006-1.049-0.188-1.047-1.037c0.031-12.156,0.03-24.312,0-36.467c-0.002-0.838,0.197-1.049,1.042-1.047
		c12.235,0.029,24.471,0.029,36.706,0.002c0.829-0.002,1.047,0.189,1.045,1.035c-0.031,12.156-0.03,24.312-0.001,36.467
		c0.002,0.834-0.188,1.055-1.039,1.049C95.634,157.222,89.517,157.239,83.399,157.239z"/>
	<path clip-path="url(#SVGID_2_)" fill="#010101" d="M108.898,92.984c0-6.16,0.014-12.319-0.016-18.479
		c-0.004-0.809,0.074-1.165,1.061-1.161c11.68,0.043,23.357,0.024,35.037,0.029c1.943,0.001,1.949,0.018,1.949,1.965
		c0.002,12.079-0.01,24.158,0.021,36.238c0.002,0.834-0.189,1.047-1.037,1.045c-11.998-0.029-23.998-0.02-35.996-0.018
		c-0.551,0-1.049,0.137-1.043-0.795C108.922,105.534,108.9,99.259,108.898,92.984z"/>
	<path clip-path="url(#SVGID_2_)" fill="#010101" d="M108.941,137.872c0-5.996,0.016-11.994-0.02-17.992
		c-0.004-0.828,0.107-1.139,1.07-1.137c11.955,0.043,23.91,0.037,35.865,0.008c0.83-0.002,1.053,0.189,1.051,1.037
		c-0.031,12.115-0.029,24.23-0.006,36.344c0.002,0.773-0.088,1.094-0.994,1.092c-11.955-0.039-23.91-0.045-35.865-0.018
		c-0.887,0.002-1.117-0.195-1.109-1.102c0.045-6.076,0.023-12.154,0.023-18.232H108.941z"/>
	<path clip-path="url(#SVGID_2_)" fill="#010101" d="M64.019,93.001c0-6.196,0.016-12.393-0.02-18.589
		c-0.005-0.816,0.169-1.065,1.033-1.062c12.192,0.03,24.385,0.03,36.578,0.001c0.916-0.002,1.169,0.317,1.168,1.169
		c-0.016,12.433-0.016,24.864,0.004,37.297c0.001,0.625-0.158,0.797-0.791,0.797c-12.394-0.02-24.785-0.025-37.178,0.01
		c-0.921,0.002-0.798-0.479-0.797-1.033C64.021,105.394,64.02,99.198,64.019,93.001z M85.429,99.101
		c0.203,3.279,1.517,5.707,4.542,6.205c1.509,0.248,3.536-0.721,3.899-2.021c0.514-1.842,0.691-3.703,0.454-5.612
		c-0.211-1.697-2.482-3.843-4.193-3.841C87.27,93.833,85.278,96.128,85.429,99.101z M82.969,100.2
		c0.331-0.93-0.187-1.887-0.407-2.883c-0.632-2.849-4.459-3.979-6.562-2.288c-3.066,2.467-3.23,6.863,0.146,9.421
		c2.058,1.559,4.92,0.963,6.233-1.25C82.904,102.321,83.047,101.351,82.969,100.2z"/>
	<path clip-path="url(#SVGID_2_)" fill="#FAFAFA" d="M85.429,99.101c-0.151-2.972,1.842-5.268,4.702-5.27
		c1.711-0.001,3.982,2.145,4.193,3.841c0.238,1.908,0.06,3.771-0.454,5.613c-0.363,1.301-2.391,2.27-3.899,2.021
		C86.946,104.808,85.632,102.38,85.429,99.101z M88.737,99.329c0.024,0.393,0.005,0.836,0.09,1.26
		c0.13,0.643,0.739,0.771,1.238,0.932c0.335,0.107,0.755-0.016,0.858-0.438c0.225-0.91,0.409-1.838,0.23-2.775
		c-0.114-0.597-0.395-0.912-1.156-0.918C88.46,97.373,88.874,98.476,88.737,99.329z"/>
	<path clip-path="url(#SVGID_2_)" fill="#FAFAFA" d="M82.969,100.2c0.079,1.15-0.065,2.121-0.588,3
		c-1.313,2.213-4.176,2.809-6.233,1.25c-3.378-2.561-3.213-6.956-0.146-9.421c2.103-1.69,5.93-0.561,6.562,2.288
		C82.783,98.315,83.299,99.271,82.969,100.2z M78.922,99.218h0.04c0-0.236-0.001-0.475,0-0.713c0.007-1.347-0.369-1.589-1.621-1.046
		c-0.799,0.348-1.161,2.478-0.612,3.617c0.257,0.533,0.585,0.805,1.271,0.773c0.736-0.035,0.807-0.549,0.896-0.973
		C79.006,100.345,78.922,99.774,78.922,99.218z"/>
	<path clip-path="url(#SVGID_2_)" fill="#050608" d="M88.737,99.329c0.137-0.854-0.276-1.957,1.262-1.94
		c0.762,0.008,1.042,0.321,1.156,0.918c0.178,0.938-0.007,1.865-0.23,2.775c-0.104,0.422-0.523,0.545-0.858,0.438
		c-0.499-0.16-1.108-0.289-1.238-0.932C88.743,100.165,88.761,99.722,88.737,99.329z"/>
	<path clip-path="url(#SVGID_2_)" fill="#050608" d="M78.922,99.218c0,0.555,0.084,1.127-0.026,1.658
		c-0.089,0.424-0.159,0.938-0.896,0.973c-0.687,0.031-1.015-0.24-1.271-0.773c-0.547-1.139-0.187-3.269,0.612-3.617
		c1.251-0.543,1.628-0.301,1.621,1.046c-0.001,0.238,0,0.477,0,0.713H78.922z"/>
</g>
</svg>
