<?xml version="1.0" encoding="utf-8"?>
<!-- Generator: Adobe Illustrator 16.0.0, SVG Export Plug-In . SVG Version: 6.00 Build 0)  -->
<!DOCTYPE svg PUBLIC "-//W3C//DTD SVG 1.1//EN" "http://www.w3.org/Graphics/SVG/1.1/DTD/svg11.dtd">
<svg version="1.1" id="Layer_1" xmlns="http://www.w3.org/2000/svg" xmlns:xlink="http://www.w3.org/1999/xlink" x="0px" y="0px"
	 width="841.89px" height="1190.55px" viewBox="0 0 841.89 1190.55" enable-background="new 0 0 841.89 1190.55"
	 xml:space="preserve">
<g>
	<path fill="#FEFEFE" d="M490.87,557.621c1.438,0.83,2.793,1.587,4.125,2.383c6.461,3.862,12.979,7.627,19.35,11.641
		c1.132,0.713,1.739,0.459,2.5-0.767c3.105-5.001,5.576-10.384,9.103-15.132c0.304-0.41,0.202-0.634-0.281-0.901
		c-2.122-1.168-4.283-2.29-6.29-3.638c-3.953-2.657-8.225-4.757-12.283-7.229c-6.306-3.841-12.642-7.639-19.071-11.266
		c-6.74-3.802-13.381-7.771-20.1-11.607c-5.222-2.982-10.391-6.058-15.582-9.092c-4.03-2.355-8.022-4.772-12.094-7.06
		c-3.901-2.192-7.721-4.536-11.539-6.873c-2.669-1.634-5.564-2.897-8.003-4.916c-0.411-0.34-0.968-0.467-1.541-0.083
		c-1.25,0.84-2.619,1.482-3.921,2.228c-6.994,3.999-13.922,8.112-20.891,12.154c-6.77,3.926-13.48,7.956-20.277,11.837
		c-5.791,3.308-11.45,6.846-17.196,10.232c-5.964,3.516-12.014,6.889-17.934,10.476c-7.653,4.637-15.517,8.921-23.011,13.824
		c-0.781,0.511-0.873,0.997-0.688,1.754c0.241,0.982,1.121,1.542,1.563,2.353c2.378,4.366,5.043,8.577,7.105,13.113
		c0.175,0.384,0.294,0.531,0.78,0.406c1.326-0.34,2.534-0.88,3.717-1.576c3.597-2.117,7.126-4.339,10.794-6.349
		c3.193-1.75,6.362-3.602,9.414-5.621c0.382-0.252,0.846-0.607,1.276-0.447c0.58,0.215,0.279,0.857,0.283,1.281
		c0.046,5.456-0.018,10.913,0.172,16.368c0.244,7.008-0.039,14.025,0.31,21.034c0.092,1.863-0.11,3.739-0.06,5.606
		c0.243,9.08-0.074,18.164,0.29,27.244c0.163,4.044,0.011,8.1,0.031,12.149c0.014,2.784-0.002,5.566,0.179,8.352
		c0.12,1.853-0.131,3.727-0.164,5.592c-0.033,1.87,0.229,3.73,0.206,5.608c-0.05,4.1,0.018,8.2,0.015,12.301
		c-0.002,2.396,0.139,4.789,0.175,7.18c0.013,0.863,0.367,1.84-0.244,2.722c-0.408,0.589-0.977,1.306-0.361,2.035
		c0.664,0.787,1.278,1.703,2.576,1.59c1.562-0.137,3.151-0.333,4.7-0.189c3.107,0.288,6.21,0.103,9.312,0.146
		c6.474,0.089,12.949,0.004,19.424,0.04c2.075,0.011,4.15,0.062,6.228,0.164c2.837,0.14,5.708-0.318,8.535-0.106
		c2.379,0.178,4.748,0.138,7.11,0.12c5.299-0.039,10.596,0.117,15.9-0.067c2.354-0.082,4.774-0.002,7.164,0.081
		c2.947,0.102,5.906-0.145,8.855-0.073c2.542,0.061,5.069,0.005,7.609-0.071c3.908-0.116,7.829-0.002,11.744,0.053
		c2.902,0.04,5.822-0.117,8.732-0.095c7.438,0.057,14.88-0.274,22.312,0.228c0.973,0.065,1.368-0.154,1.262-1.201
		c-0.125-1.227-0.145-2.469-0.145-3.704c-0.001-5.017-0.045-10.032-0.188-15.049c-0.215-7.58-0.066-15.165-0.241-22.75
		c-0.23-9.984-0.071-19.978-0.264-29.968c-0.148-7.734,0.053-15.477-0.209-23.21c-0.235-6.976,0.147-13.954-0.233-20.932
		C490.689,565.912,490.87,561.859,490.87,557.621z"/>
	<path fill-rule="evenodd" clip-rule="evenodd" fill="#020305" d="M490.87,557.621c0,4.238-0.181,8.291,0.04,12.322
		c0.381,6.978-0.002,13.956,0.233,20.932c0.262,7.733,0.061,15.476,0.209,23.21c0.192,9.99,0.033,19.983,0.264,29.968
		c0.175,7.585,0.026,15.17,0.241,22.75c0.144,5.017,0.188,10.032,0.188,15.049c0,1.235,0.02,2.478,0.145,3.704
		c0.106,1.047-0.289,1.267-1.262,1.201c-7.433-0.502-14.875-0.171-22.312-0.228c-2.91-0.022-5.83,0.135-8.732,0.095
		c-3.915-0.055-7.836-0.169-11.744-0.053c-2.54,0.076-5.067,0.132-7.609,0.071c-2.949-0.071-5.908,0.175-8.855,0.073
		c-2.39-0.083-4.811-0.163-7.164-0.081c-5.304,0.185-10.602,0.028-15.9,0.067c-2.363,0.018-4.731,0.058-7.11-0.12
		c-2.826-0.212-5.698,0.246-8.535,0.106c-2.078-0.102-4.153-0.153-6.228-0.164c-6.475-0.036-12.95,0.049-19.424-0.04
		c-3.102-0.043-6.206,0.143-9.312-0.146c-1.548-0.144-3.137,0.053-4.7,0.189c-1.298,0.113-1.912-0.803-2.576-1.59
		c-0.615-0.729-0.046-1.446,0.361-2.035c0.611-0.882,0.257-1.858,0.244-2.722c-0.036-2.391-0.177-4.783-0.175-7.18
		c0.003-4.101-0.065-8.201-0.015-12.301c0.023-1.878-0.238-3.738-0.206-5.608c0.033-1.865,0.284-3.739,0.164-5.592
		c-0.181-2.785-0.165-5.567-0.179-8.352c-0.02-4.05,0.132-8.105-0.031-12.149c-0.364-9.08-0.047-18.164-0.29-27.244
		c-0.05-1.867,0.152-3.743,0.06-5.606c-0.348-7.009-0.065-14.025-0.31-21.034c-0.19-5.456-0.126-10.912-0.172-16.368
		c-0.004-0.424,0.297-1.065-0.283-1.281c-0.431-0.16-0.895,0.194-1.276,0.447c-3.052,2.019-6.221,3.871-9.414,5.621
		c-3.668,2.01-7.198,4.232-10.794,6.349c-1.183,0.696-2.391,1.236-3.717,1.576c-0.486,0.125-0.605-0.022-0.78-0.406
		c-2.062-4.536-4.727-8.747-7.105-13.113c-0.442-0.812-1.322-1.371-1.563-2.353c-0.186-0.758-0.093-1.244,0.688-1.754
		c7.494-4.903,15.358-9.188,23.011-13.824c5.92-3.587,11.97-6.96,17.934-10.476c5.746-3.387,11.405-6.925,17.196-10.232
		c6.797-3.882,13.507-7.911,20.277-11.837c6.969-4.042,13.897-8.155,20.891-12.154c1.303-0.745,2.672-1.387,3.921-2.228
		c0.572-0.385,1.129-0.258,1.541,0.083c2.439,2.019,5.334,3.282,8.003,4.916c3.818,2.337,7.638,4.68,11.539,6.873
		c4.071,2.288,8.063,4.705,12.094,7.06c5.191,3.035,10.36,6.11,15.582,9.092c6.719,3.836,13.359,7.805,20.1,11.607
		c6.43,3.627,12.766,7.425,19.071,11.266c4.059,2.472,8.33,4.572,12.283,7.229c2.007,1.348,4.168,2.469,6.29,3.638
		c0.483,0.267,0.585,0.491,0.281,0.901c-3.526,4.749-5.997,10.131-9.103,15.132c-0.761,1.226-1.368,1.479-2.5,0.767
		c-6.37-4.013-12.889-7.779-19.35-11.641C493.663,559.208,492.309,558.451,490.87,557.621z M487.803,568.667
		c-0.059,0-0.117,0-0.175,0c0-3.719,0.006-7.438-0.007-11.158c-0.002-0.554-0.114-1.107-0.138-1.662
		c-0.014-0.314-0.132-0.502-0.397-0.673c-2.402-1.542-4.864-3.031-7.371-4.341c-3.652-1.908-6.974-4.342-10.63-6.219
		c-1.868-0.959-3.563-2.253-5.376-3.263c-1.502-0.837-3.008-1.713-4.509-2.563c-2.613-1.479-5.016-3.358-7.698-4.68
		c-4.291-2.116-8.216-4.833-12.389-7.139c-2.909-1.608-5.808-3.257-8.659-4.984c-3.04-1.841-6.249-3.4-9.209-5.394
		c-0.783-0.527-1.698-0.689-2.658-0.103c-2.025,1.235-4.109,2.372-6.157,3.571c-5.31,3.109-10.691,6.107-15.897,9.383
		c-5.049,3.177-10.382,5.871-15.322,9.227c-2.768,1.881-5.878,3.196-8.691,4.989c-5.704,3.633-11.723,6.725-17.44,10.331
		c-0.944,0.595-1.34,1.243-1.432,2.364c-0.075,0.918,0.073,1.795,0.064,2.692c-0.027,2.902-0.087,5.801-0.039,8.706
		c0.093,5.585-0.06,11.174,0.038,16.759c0.135,7.667,0.21,15.332,0.238,23c0.019,5.001,0.104,10.002,0.156,15.003
		c0.063,6.19,0.123,12.381,0.18,18.572c0.032,3.492,0.055,6.983,0.084,10.476c0.053,6.495,0.206,12.99,0.123,19.482
		c-0.046,3.646,0.192,7.283,0.109,10.924c-0.017,0.752,0.245,0.824,0.897,0.826c6.78,0.015,13.561,0.064,20.341,0.11
		c4.504,0.03,9.009,0.095,13.513,0.102c10.503,0.015,21.006,0.01,31.508-0.002c1.395-0.002,2.82-0.181,4.181-0.088
		c4.101,0.279,8.195,0.007,12.292,0.101c4.821,0.11,9.65-0.153,14.478-0.186c6.434-0.042,12.87,0.079,19.301-0.05
		c5.307-0.106,10.612-0.193,15.918-0.16c1.109,0.007,1.423-0.275,1.403-1.397c-0.243-13.274-0.07-26.551-0.342-39.827
		c-0.178-8.658,0.002-17.321-0.114-25.983c-0.146-10.908-0.13-21.819-0.172-32.729C487.788,578.011,487.803,573.339,487.803,568.667
		z M326.08,566.938c0.115-0.078,0.272-0.199,0.442-0.297c5.992-3.486,11.97-6.998,17.984-10.446
		c5.181-2.97,10.322-6.009,15.475-9.023c4.744-2.774,9.492-5.544,14.229-8.333c4.895-2.882,9.783-5.774,14.658-8.69
		c5.029-3.008,10.017-6.083,15.061-9.065c3.847-2.274,7.771-4.418,11.614-6.701c0.641-0.38,1.479-0.477,1.929-1.116
		c0.75-1.067,1.701-1.027,2.833-0.795c0.874,0.179,1.342,0.892,2.065,1.223c1.728,0.789,3.352,1.792,4.939,2.788
		c3.063,1.92,6.264,3.589,9.364,5.435c6.941,4.132,14.004,8.064,20.907,12.258c5.038,3.062,10.187,5.929,15.27,8.912
		c3.379,1.982,6.612,4.218,10.139,5.946c2.937,1.44,5.641,3.284,8.514,4.843c2.353,1.276,4.64,2.746,6.95,4.104
		c3.694,2.172,7.324,4.469,11.101,6.507c1.639,0.885,3.191,1.926,4.821,2.828c0.414,0.229,0.94,0.77,1.436-0.133
		c1.728-3.154,3.524-6.271,5.32-9.387c0.371-0.646,0.434-0.959-0.345-1.463c-4.309-2.787-8.796-5.266-13.213-7.867
		c-4.09-2.409-8.137-4.891-12.21-7.327c-3.598-2.152-7.191-4.31-10.813-6.42c-4.26-2.483-8.562-4.894-12.818-7.383
		c-4.155-2.43-8.263-4.941-12.415-7.374c-3.542-2.075-7.136-4.06-10.676-6.136c-4.132-2.423-8.215-4.928-12.345-7.354
		c-5.249-3.082-10.533-6.103-15.777-9.192c-0.781-0.46-1.375-0.305-2.06,0.097c-1.125,0.66-2.201,1.435-3.338,2.026
		c-2.855,1.487-5.604,3.138-8.355,4.798c-3.006,1.812-6.058,3.551-9.088,5.324c-6.348,3.715-12.748,7.345-19.027,11.173
		c-5.235,3.191-10.594,6.17-15.815,9.376c-4.679,2.874-9.547,5.417-14.2,8.338c-4.29,2.694-8.745,5.123-13.113,7.693
		c-4.6,2.707-9.184,5.442-13.773,8.167c-0.614,0.365-1.229,0.729-1.833,1.111c-0.348,0.22-0.418,0.475-0.185,0.882
		c1.952,3.401,3.875,6.819,5.822,10.224C325.654,566.663,325.671,566.989,326.08,566.938z"/>
	<path fill-rule="evenodd" clip-rule="evenodd" fill="#52A9B2" d="M487.803,568.667c0,4.672-0.015,9.344,0.003,14.016
		c0.042,10.91,0.026,21.82,0.172,32.729c0.116,8.662-0.063,17.325,0.114,25.983c0.271,13.276,0.099,26.553,0.342,39.827
		c0.02,1.122-0.294,1.404-1.403,1.397c-5.306-0.033-10.611,0.054-15.918,0.16c-6.431,0.129-12.867,0.008-19.301,0.05
		c-4.827,0.032-9.656,0.296-14.478,0.186c-4.097-0.094-8.191,0.179-12.292-0.101c-1.361-0.093-2.786,0.086-4.181,0.088
		c-10.502,0.012-21.005,0.017-31.508,0.002c-4.504-0.007-9.009-0.071-13.513-0.102c-6.78-0.046-13.561-0.096-20.341-0.11
		c-0.653-0.002-0.915-0.074-0.897-0.826c0.083-3.641-0.155-7.277-0.109-10.924c0.083-6.492-0.07-12.987-0.123-19.482
		c-0.029-3.492-0.052-6.983-0.084-10.476c-0.057-6.191-0.117-12.382-0.18-18.572c-0.051-5.001-0.137-10.002-0.156-15.003
		c-0.028-7.668-0.104-15.333-0.238-23c-0.098-5.585,0.055-11.174-0.038-16.759c-0.048-2.905,0.012-5.804,0.039-8.706
		c0.008-0.896-0.14-1.774-0.064-2.692c0.092-1.122,0.488-1.769,1.432-2.364c5.717-3.606,11.736-6.697,17.44-10.331
		c2.813-1.792,5.923-3.108,8.691-4.989c4.94-3.356,10.273-6.05,15.322-9.227c5.206-3.276,10.587-6.274,15.897-9.383
		c2.047-1.199,4.132-2.336,6.157-3.571c0.96-0.586,1.875-0.424,2.658,0.103c2.96,1.993,6.169,3.553,9.209,5.394
		c2.852,1.727,5.75,3.375,8.659,4.984c4.173,2.306,8.098,5.023,12.389,7.139c2.683,1.322,5.085,3.201,7.698,4.68
		c1.501,0.85,3.007,1.727,4.509,2.563c1.812,1.009,3.508,2.304,5.376,3.263c3.656,1.877,6.978,4.311,10.63,6.219
		c2.507,1.31,4.969,2.799,7.371,4.341c0.266,0.171,0.384,0.358,0.397,0.673c0.023,0.555,0.136,1.108,0.138,1.662
		c0.013,3.72,0.007,7.439,0.007,11.158C487.686,568.667,487.744,568.667,487.803,568.667z M369.519,597.698
		c0.001,0.247,0.002,0.494,0.003,0.741c-0.265,1.301-0.089,2.615-0.091,3.921c-0.001,0.77-0.25,1.592,0.251,2.314
		c-0.475,0.787-0.067,1.591-0.044,2.387c0.095,3.301,0.15,6.601,0.161,9.904c0.024,7.713,0.124,15.426,0.229,23.139
		c0.065,4.75-0.175,9.505,0.223,14.251c0.062,0.744-0.031,1.48-0.223,2.239c-0.396,1.563,0.233,2.918,2.21,2.913
		c4.255-0.013,8.512,0.063,12.767,0.126c7.245,0.106,14.49,0.227,21.735,0.346c6.328,0.105,12.652-0.164,18.982-0.071
		c4.927,0.072,9.856-0.143,14.786-0.173c5.711-0.036,11.423-0.05,17.134,0.005c3.829,0.037,7.662-0.22,11.491,0.164
		c1.678,0.168,2.071-0.428,2.422-2.098c0.243-1.158-0.065-2.211-0.074-3.311c-0.044-5.626-0.192-11.251-0.208-16.877
		c-0.021-7.112-0.141-14.223-0.229-21.334c-0.141-11.19,0.021-22.381-0.233-33.572c-0.175-7.673-0.039-15.354-0.03-23.032
		c0.002-1.402-0.609-2.04-1.964-1.785c-0.682,0.129-1.34,0.118-2.014,0.118c-25.678,0.002-51.355-0.006-77.033,0.031
		c-2.109,0.003-4.218,0.333-6.337,0.142c-4.422-0.397-8.864,0.021-13.288-0.318c-0.507-0.039-0.807,0.056-0.805,0.698
		c0.012,3.336-0.194,6.684,0.02,10.005c0.147,2.286-0.248,4.552,0.127,6.852c0.257,1.577-0.26,3.268-0.102,4.876
		c0.128,1.307,0.088,2.609,0.117,3.901c0.093,4.259-0.068,8.522,0.195,12.779C369.336,597.146,369.327,597.397,369.519,597.698z"/>
	<path fill-rule="evenodd" clip-rule="evenodd" fill="#4A747A" d="M326.08,566.938c-0.409,0.052-0.426-0.274-0.526-0.45
		c-1.946-3.405-3.87-6.823-5.822-10.224c-0.233-0.407-0.163-0.662,0.185-0.882c0.604-0.382,1.219-0.747,1.833-1.111
		c4.59-2.725,9.173-5.46,13.773-8.167c4.368-2.57,8.824-4.999,13.113-7.693c4.653-2.921,9.521-5.464,14.2-8.338
		c5.221-3.206,10.58-6.185,15.815-9.376c6.279-3.828,12.679-7.458,19.027-11.173c3.031-1.773,6.082-3.511,9.088-5.324
		c2.751-1.66,5.5-3.311,8.355-4.798c1.137-0.592,2.213-1.367,3.338-2.026c0.685-0.402,1.279-0.558,2.06-0.097
		c5.244,3.09,10.528,6.111,15.777,9.192c4.13,2.425,8.213,4.93,12.345,7.354c3.54,2.077,7.134,4.062,10.676,6.136
		c4.152,2.433,8.26,4.944,12.415,7.374c4.257,2.489,8.559,4.899,12.818,7.383c3.622,2.111,7.216,4.269,10.813,6.42
		c4.073,2.436,8.12,4.917,12.21,7.327c4.417,2.601,8.904,5.08,13.213,7.867c0.778,0.503,0.716,0.817,0.345,1.463
		c-1.796,3.116-3.593,6.233-5.32,9.387c-0.495,0.903-1.021,0.363-1.436,0.133c-1.63-0.902-3.183-1.943-4.821-2.828
		c-3.776-2.039-7.406-4.335-11.101-6.507c-2.311-1.358-4.598-2.828-6.95-4.104c-2.873-1.559-5.577-3.403-8.514-4.843
		c-3.526-1.729-6.76-3.964-10.139-5.946c-5.083-2.982-10.231-5.85-15.27-8.912c-6.903-4.194-13.966-8.126-20.907-12.258
		c-3.101-1.846-6.301-3.515-9.364-5.435c-1.588-0.995-3.212-1.999-4.939-2.788c-0.724-0.331-1.191-1.043-2.065-1.223
		c-1.132-0.232-2.083-0.272-2.833,0.795c-0.45,0.64-1.289,0.736-1.929,1.116c-3.842,2.282-7.767,4.426-11.614,6.701
		c-5.044,2.982-10.032,6.058-15.061,9.065c-4.875,2.916-9.763,5.808-14.658,8.69c-4.737,2.789-9.485,5.559-14.229,8.333
		c-5.153,3.014-10.294,6.054-15.475,9.023c-6.014,3.448-11.992,6.96-17.984,10.446C326.352,566.739,326.195,566.86,326.08,566.938z"
		/>
	<path fill-rule="evenodd" clip-rule="evenodd" fill="#020305" d="M369.522,598.439c-0.001-0.247-0.002-0.494-0.003-0.741
		c0.05-0.241,0.316-0.429,0.176-0.717c-0.263-4.257-0.102-8.521-0.195-12.779c-0.028-1.292,0.011-2.594-0.117-3.901
		c-0.158-1.608,0.359-3.299,0.102-4.876c-0.375-2.3,0.02-4.566-0.127-6.852c-0.214-3.322-0.008-6.669-0.02-10.005
		c-0.002-0.643,0.298-0.737,0.805-0.698c4.424,0.339,8.866-0.079,13.288,0.318c2.12,0.19,4.228-0.139,6.337-0.142
		c25.678-0.037,51.355-0.029,77.033-0.031c0.674,0,1.332,0.011,2.014-0.118c1.354-0.255,1.966,0.383,1.964,1.785
		c-0.009,7.678-0.145,15.358,0.03,23.032c0.254,11.191,0.093,22.382,0.233,33.572c0.089,7.111,0.209,14.222,0.229,21.334
		c0.016,5.626,0.164,11.251,0.208,16.877c0.009,1.1,0.317,2.152,0.074,3.311c-0.351,1.67-0.744,2.266-2.422,2.098
		c-3.829-0.384-7.662-0.127-11.491-0.164c-5.711-0.055-11.423-0.041-17.134-0.005c-4.93,0.03-9.859,0.245-14.786,0.173
		c-6.33-0.093-12.654,0.177-18.982,0.071c-7.245-0.119-14.49-0.239-21.735-0.346c-4.255-0.062-8.512-0.139-12.767-0.126
		c-1.977,0.005-2.607-1.35-2.21-2.913c0.192-0.759,0.286-1.495,0.223-2.239c-0.398-4.746-0.158-9.501-0.223-14.251
		c-0.105-7.713-0.204-15.426-0.229-23.139c-0.01-3.304-0.066-6.604-0.161-9.904c-0.022-0.796-0.431-1.6,0.044-2.387
		C369.563,602.599,369.778,600.513,369.522,598.439z M468.049,602.927c0.011,0,0.021-0.001,0.032-0.002
		c-0.046-0.947-0.145-1.896-0.13-2.844c0.2-12.583,0.057-25.166,0.108-37.749c0.003-0.652-0.233-0.993-0.794-1.003
		c-3.053-0.058-6.107-0.083-9.161-0.094c-4.686-0.016-9.371,0.013-14.057-0.023c-3.346-0.026-6.699-0.302-10.034-0.141
		c-2.503,0.121-4.996-0.066-7.503,0.104c-3.725,0.253-7.469-0.088-11.212,0.021c-4.531,0.132-9.07,0.018-13.606,0.019
		c-5.301,0.001-10.604-0.063-15.904,0.04c-3.904,0.077-7.799-0.295-11.71-0.078c-1.26,0.07-1.545,0.549-1.555,1.555
		c-0.017,1.881,0.029,3.764-0.013,5.644c-0.059,2.625-0.137,5.265-0.074,7.875c0.114,4.724,0.125,9.451,0.27,14.175
		c0.214,7.015,0.018,14.041,0.113,21.061c0.032,2.337,0.158,4.675,0.139,7.017c-0.049,5.854,0.194,11.708,0.074,17.564
		c-0.039,1.927,0.18,3.857,0.198,5.787c0.04,4.499,0.047,8.999,0.025,13.499c-0.005,0.891,0.293,1.236,1.185,1.163
		c2.303-0.187,4.605-0.092,6.913-0.031c3.679,0.098,7.367-0.071,11.043,0.067c1.944,0.072,3.897,0.132,5.835,0.153
		c8.208,0.093,16.418,0.027,24.627,0.006c5.032-0.013,10.063,0.149,15.098-0.141c2.686-0.155,5.388-0.049,8.082-0.058
		c6.877-0.022,13.753-0.027,20.63-0.078c1.523-0.011,1.606-0.182,1.614-1.79c0.017-4.005-0.185-8.007-0.207-12.009
		C468.004,629.4,468.049,616.163,468.049,602.927z"/>
	<path fill-rule="evenodd" clip-rule="evenodd" fill="#4A747A" d="M369.522,598.439c0.255,2.073,0.041,4.159,0.16,6.235
		c-0.501-0.723-0.252-1.545-0.251-2.314C369.433,601.055,369.257,599.74,369.522,598.439z"/>
	<path fill-rule="evenodd" clip-rule="evenodd" fill="#4A747A" d="M369.695,596.981c0.141,0.288-0.125,0.476-0.176,0.717
		C369.327,597.397,369.336,597.146,369.695,596.981z"/>
	<path fill-rule="evenodd" clip-rule="evenodd" fill="#FAFAFA" d="M468.049,602.927c0,13.236-0.045,26.474,0.027,39.709
		c0.022,4.002,0.224,8.004,0.207,12.009c-0.008,1.608-0.091,1.779-1.614,1.79c-6.877,0.051-13.753,0.056-20.63,0.078
		c-2.694,0.009-5.396-0.098-8.082,0.058c-5.034,0.29-10.065,0.128-15.098,0.141c-8.209,0.021-16.419,0.087-24.627-0.006
		c-1.938-0.021-3.891-0.081-5.835-0.153c-3.677-0.139-7.364,0.03-11.043-0.067c-2.308-0.061-4.61-0.155-6.913,0.031
		c-0.892,0.073-1.19-0.272-1.185-1.163c0.022-4.5,0.015-9-0.025-13.499c-0.018-1.93-0.237-3.86-0.198-5.787
		c0.12-5.856-0.123-11.71-0.074-17.564c0.02-2.342-0.106-4.68-0.139-7.017c-0.095-7.02,0.101-14.046-0.113-21.061
		c-0.145-4.725-0.155-9.452-0.27-14.175c-0.063-2.61,0.016-5.25,0.074-7.875c0.042-1.88-0.004-3.763,0.013-5.644
		c0.009-1.006,0.294-1.485,1.555-1.555c3.911-0.217,7.806,0.155,11.71,0.078c5.299-0.104,10.603-0.039,15.904-0.04
		c4.536,0,9.075,0.114,13.606-0.019c3.743-0.109,7.487,0.232,11.212-0.021c2.507-0.17,5,0.017,7.503-0.104
		c3.335-0.161,6.688,0.115,10.034,0.141c4.686,0.037,9.371,0.007,14.057,0.023c3.054,0.011,6.108,0.037,9.161,0.094
		c0.561,0.01,0.797,0.351,0.794,1.003c-0.052,12.583,0.092,25.166-0.108,37.749c-0.015,0.947,0.084,1.896,0.13,2.844
		C468.07,602.926,468.06,602.927,468.049,602.927z M398.436,650.085c6.158,0,12.316-0.019,18.473,0.021
		c0.837,0.006,1.049-0.193,1.047-1.04c-0.03-12.155-0.03-24.312,0-36.467c0.002-0.836-0.191-1.047-1.037-1.045
		c-12.235,0.03-24.471,0.029-36.707,0.001c-0.832-0.002-1.052,0.188-1.049,1.038c0.031,12.155,0.031,24.312,0.001,36.467
		c-0.002,0.837,0.192,1.052,1.039,1.046C386.28,650.065,392.358,650.084,398.436,650.085z M424.063,585.854c0.019,0,0.038,0,0.057,0
		c0,6.038,0.078,12.077-0.058,18.111c-0.031,1.406,0.383,1.504,1.526,1.501c11.719-0.033,23.438-0.034,35.157,0.001
		c1.027,0.003,1.385-0.168,1.38-1.314c-0.05-11.799-0.03-23.598-0.029-35.397c0-0.56-0.011-1.12-0.003-1.68
		c0.006-0.341,0.011-0.625-0.474-0.626c-0.507-0.002-0.968-0.251-1.502-0.25c-11.679,0.021-23.357,0.026-35.036-0.005
		c-0.859-0.002-1.043,0.238-1.038,1.062C424.08,573.456,424.063,579.655,424.063,585.854z M462.054,630.954
		c0-6.037-0.022-12.075,0.023-18.112c0.008-0.956-0.169-1.257-1.206-1.254c-11.875,0.043-23.75,0.039-35.625,0.004
		c-0.937-0.002-1.165,0.233-1.162,1.163c0.038,12.035,0.041,24.07,0.019,36.105c-0.001,0.883,0.148,1.198,1.137,1.194
		c11.955-0.035,23.91-0.024,35.865,0.009c0.81,0.002,0.968-0.241,0.964-0.997C462.038,643.029,462.052,636.992,462.054,630.954z
		 M379.184,585.701c0,6.276,0.012,12.553-0.017,18.829c-0.003,0.722,0.148,0.935,0.909,0.934
		c12.312-0.027,24.625-0.025,36.938-0.004c0.701,0.001,0.943-0.113,0.941-0.894c-0.029-12.353-0.027-24.706-0.009-37.059
		c0.001-0.931-0.2-1.323-1.267-1.319c-12.153,0.04-24.306,0.034-36.458,0.006c-0.828-0.002-1.065,0.183-1.06,1.038
		C379.202,573.389,379.184,579.545,379.184,585.701z"/>
	<path fill-rule="evenodd" clip-rule="evenodd" fill="#010101" d="M398.436,650.084c-6.078,0-12.155-0.019-18.233,0.021
		c-0.847,0.006-1.041-0.209-1.039-1.046c0.03-12.155,0.03-24.312-0.001-36.467c-0.002-0.85,0.218-1.04,1.049-1.038
		c12.235,0.028,24.471,0.029,36.707-0.001c0.846-0.002,1.039,0.209,1.037,1.045c-0.03,12.155-0.03,24.312,0,36.467
		c0.002,0.847-0.21,1.046-1.047,1.04C410.751,650.066,404.594,650.085,398.436,650.084z"/>
	<path fill-rule="evenodd" clip-rule="evenodd" fill="#010101" d="M424.063,585.854c0-6.199,0.017-12.399-0.02-18.598
		c-0.005-0.824,0.179-1.064,1.038-1.062c11.679,0.031,23.357,0.026,35.036,0.005c0.534-0.001,0.995,0.249,1.502,0.25
		c0.484,0.001,0.479,0.286,0.474,0.626c-0.008,0.56,0.003,1.12,0.003,1.68c-0.001,11.799-0.021,23.599,0.029,35.397
		c0.005,1.146-0.353,1.317-1.38,1.314c-11.719-0.035-23.438-0.034-35.157-0.001c-1.144,0.003-1.558-0.095-1.526-1.501
		c0.136-6.034,0.058-12.074,0.058-18.111C424.102,585.854,424.082,585.854,424.063,585.854z"/>
	<path fill-rule="evenodd" clip-rule="evenodd" fill="#010101" d="M462.053,630.954c-0.001,6.038-0.015,12.075,0.016,18.112
		c0.004,0.756-0.154,0.999-0.964,0.997c-11.955-0.033-23.91-0.044-35.865-0.009c-0.988,0.004-1.138-0.312-1.137-1.194
		c0.022-12.035,0.02-24.07-0.019-36.105c-0.003-0.93,0.226-1.165,1.162-1.163c11.875,0.035,23.75,0.039,35.625-0.004
		c1.037-0.003,1.214,0.298,1.206,1.254C462.031,618.879,462.054,624.917,462.053,630.954z M446.446,633.246
		c-2.152,0.46-2.251,0.675-1.377,2.473c0.266,0.546,0.667,1.121,1.208,0.936c1.8-0.616,3.468-1.483,4.148-3.474
		c0.087-0.254,0.257-0.6-0.182-0.655c-0.873-0.109-1.728-0.019-2.53,0.407c-0.648,0.344-0.186,0.932-0.331,1.388
		c-0.081,0.253-0.043,0.555-0.01,0.829c0.046,0.39-0.147,0.463-0.479,0.484c-0.398,0.026-0.46-0.171-0.452-0.502
		C446.458,634.536,446.446,633.938,446.446,633.246z M439.451,633.007c0,0.485,0.011,0.92-0.003,1.354
		c-0.011,0.347,0.229,0.826-0.486,0.795c-0.683-0.029-0.255-0.51-0.374-0.764c-0.257-0.545,0.326-1.307-0.411-1.704
		c-0.877-0.473-1.802-0.582-3.102-0.195c0.766,0.308,0.765,0.812,0.94,1.231c0.654,1.556,2.109,2.06,3.486,2.671
		c0.358,0.159,0.678-0.032,0.859-0.228c0.572-0.612,1.057-1.401,0.989-2.197c-0.052-0.615-0.915-0.732-1.498-0.933
		C439.78,633.013,439.696,633.023,439.451,633.007z M442.979,637.703c-0.405,0.363-1.244-0.394-1.309,0.522
		c-0.054,0.766,0.659,1.193,1.225,1.573c0.256,0.172,1.43-1.138,1.379-1.544C444.151,637.277,443.36,638.083,442.979,637.703z"/>
	<path fill-rule="evenodd" clip-rule="evenodd" fill="#010101" d="M379.184,585.701c0-6.156,0.018-12.312-0.021-18.469
		c-0.005-0.855,0.231-1.04,1.06-1.038c12.153,0.028,24.306,0.034,36.458-0.006c1.066-0.003,1.268,0.388,1.267,1.319
		c-0.019,12.353-0.021,24.706,0.009,37.059c0.002,0.78-0.241,0.895-0.941,0.894c-12.313-0.021-24.626-0.023-36.938,0.004
		c-0.761,0.001-0.912-0.212-0.909-0.934C379.196,598.254,379.184,591.978,379.184,585.701z M404.545,586.715
		c-0.712,0.205-1.988,0.413-2.772,1.515c-1.83,2.574-1.461,5.186,0.012,7.765c0.999,1.75,3.19,2.664,5.108,1.994
		c1.01-0.353,1.881-0.928,2.187-2.209c0.381-1.595,0.555-3.144,0.437-4.787C409.382,589.108,407.214,586.473,404.545,586.715z
		 M398.141,593.062c0.247-0.949-0.197-1.871-0.395-2.835c-0.596-2.909-4.522-4.051-6.623-2.322c-3.038,2.5-3.166,6.9,0.231,9.419
		c2.057,1.524,4.944,0.898,6.221-1.319C398.086,595.118,398.202,594.14,398.141,593.062z"/>
	<path fill-rule="evenodd" clip-rule="evenodd" fill="#FAFAFA" d="M446.446,633.246c0,0.692,0.012,1.29-0.005,1.886
		c-0.008,0.331,0.054,0.528,0.452,0.502c0.332-0.021,0.525-0.095,0.479-0.484c-0.033-0.274-0.071-0.576,0.01-0.829
		c0.146-0.456-0.317-1.044,0.331-1.388c0.803-0.426,1.657-0.517,2.53-0.407c0.438,0.056,0.269,0.401,0.182,0.655
		c-0.681,1.99-2.349,2.857-4.148,3.474c-0.541,0.186-0.942-0.39-1.208-0.936C444.195,633.921,444.294,633.706,446.446,633.246z"/>
	<path fill-rule="evenodd" clip-rule="evenodd" fill="#FAFAFA" d="M439.451,633.007c0.245,0.017,0.329,0.006,0.401,0.03
		c0.583,0.2,1.446,0.317,1.498,0.933c0.067,0.796-0.417,1.585-0.989,2.197c-0.182,0.195-0.501,0.387-0.859,0.228
		c-1.377-0.611-2.832-1.115-3.486-2.671c-0.176-0.419-0.175-0.924-0.94-1.231c1.3-0.387,2.225-0.277,3.102,0.195
		c0.737,0.397,0.154,1.159,0.411,1.704c0.119,0.254-0.309,0.734,0.374,0.764c0.715,0.031,0.476-0.448,0.486-0.795
		C439.462,633.927,439.451,633.492,439.451,633.007z"/>
	<path fill-rule="evenodd" clip-rule="evenodd" fill="#FAFAFA" d="M442.979,637.703c0.381,0.38,1.172-0.426,1.295,0.552
		c0.051,0.406-1.123,1.716-1.379,1.544c-0.565-0.38-1.278-0.808-1.225-1.573C441.735,637.31,442.574,638.066,442.979,637.703z"/>
	<path fill-rule="evenodd" clip-rule="evenodd" fill="#FAFAFA" d="M404.545,586.715c2.669-0.242,4.837,2.394,4.973,4.279
		c0.118,1.643-0.056,3.192-0.437,4.787c-0.306,1.281-1.177,1.856-2.187,2.209c-1.918,0.67-4.109-0.244-5.108-1.994
		c-1.473-2.58-1.842-5.191-0.012-7.765C402.557,587.128,403.833,586.919,404.545,586.715z M406.12,592.176
		c0-2.008,0.001-1.982-1.184-1.916c-0.691,0.039-1.006,0.341-0.988,1.029c0.016,0.59,0.02,1.182,0.003,1.772
		c-0.026,0.951,0.696,1.211,1.373,1.294c0.902,0.111,0.8-0.637,0.796-1.229C406.118,592.81,406.12,592.493,406.12,592.176z"/>
	<path fill-rule="evenodd" clip-rule="evenodd" fill="#FAFAFA" d="M398.141,593.062c0.061,1.078-0.055,2.056-0.565,2.942
		c-1.277,2.218-4.164,2.844-6.221,1.319c-3.396-2.519-3.269-6.919-0.231-9.419c2.101-1.729,6.027-0.587,6.623,2.322
		C397.944,591.191,398.388,592.113,398.141,593.062z M394.074,592.109c0.017,0,0.035,0,0.052,0c0-0.238-0.001-0.477,0-0.715
		c0.008-1.381-0.432-1.661-1.689-1.07c-0.758,0.355-1.067,2.585-0.508,3.658c0.251,0.482,0.557,0.722,1.189,0.712
		c0.727-0.012,0.832-0.518,0.927-0.931C394.166,593.238,394.074,592.663,394.074,592.109z"/>
	<path fill-rule="evenodd" clip-rule="evenodd" fill="#020305" d="M406.12,592.176c0,0.317-0.001,0.634,0,0.951
		c0.003,0.592,0.105,1.34-0.796,1.229c-0.677-0.083-1.399-0.343-1.373-1.294c0.017-0.59,0.013-1.182-0.003-1.772
		c-0.018-0.688,0.297-0.991,0.988-1.029C406.121,590.193,406.12,590.168,406.12,592.176z"/>
	<path fill-rule="evenodd" clip-rule="evenodd" fill="#020305" d="M394.074,592.109c0,0.554,0.092,1.129-0.029,1.654
		c-0.095,0.413-0.2,0.919-0.927,0.931c-0.633,0.01-0.938-0.23-1.189-0.712c-0.559-1.073-0.25-3.303,0.508-3.658
		c1.257-0.59,1.698-0.311,1.689,1.07c-0.001,0.238,0,0.477,0,0.715C394.109,592.109,394.091,592.109,394.074,592.109z"/>
</g>
</svg>
