<?xml version="1.0" encoding="utf-8"?>
<!-- Generator: Adobe Illustrator 15.1.0, SVG Export Plug-In  -->
<!DOCTYPE svg PUBLIC "-//W3C//DTD SVG 1.1//EN" "http://www.w3.org/Graphics/SVG/1.1/DTD/svg11.dtd" [
	<!ENTITY ns_flows "http://ns.adobe.com/Flows/1.0/">
]>
<svg version="1.1"
	 xmlns="http://www.w3.org/2000/svg" xmlns:xlink="http://www.w3.org/1999/xlink" xmlns:a="http://ns.adobe.com/AdobeSVGViewerExtensions/3.0/"
	 x="0px" y="0px" width="213px" height="193px" viewBox="-0.72 0.931 213 193"
	 overflow="visible" enable-background="new -0.72 0.931 213 193" xml:space="preserve">
<defs>
</defs>
<g>
	<defs>
		<rect id="SVGID_1_" width="210.955" height="193.924"/>
	</defs>
	<clipPath id="SVGID_2_">
		<use xlink:href="#SVGID_1_"  overflow="visible"/>
	</clipPath>
	<path clip-path="url(#SVGID_2_)" fill="#FFFFFF" d="M175.706,64.777c1.438,0.83,2.793,1.587,4.125,2.383
		c6.461,3.862,12.979,7.627,19.35,11.641c1.131,0.714,1.738,0.459,2.5-0.767c3.105-5.001,5.576-10.384,9.104-15.132
		c0.303-0.41,0.201-0.634-0.281-0.901c-2.123-1.168-4.283-2.29-6.291-3.638c-3.953-2.657-8.225-4.757-12.283-7.229
		c-6.305-3.841-12.641-7.639-19.07-11.266c-6.74-3.802-13.381-7.771-20.1-11.607c-5.223-2.981-10.391-6.058-15.582-9.092
		c-4.031-2.354-8.021-4.771-12.094-7.06c-3.902-2.192-7.721-4.536-11.539-6.873c-2.67-1.634-5.564-2.897-8.003-4.916
		c-0.411-0.34-0.968-0.467-1.541-0.083c-1.25,0.84-2.619,1.481-3.921,2.228c-6.994,3.999-13.922,8.112-20.891,12.154
		c-6.77,3.926-13.48,7.956-20.277,11.837c-5.791,3.309-11.45,6.846-17.196,10.232c-5.964,3.516-12.014,6.889-17.934,10.476
		C16.127,51.8,8.264,56.084,0.77,60.988c-0.781,0.511-0.873,0.997-0.688,1.754c0.241,0.982,1.121,1.542,1.563,2.353
		c2.378,4.366,5.043,8.577,7.105,13.113c0.175,0.384,0.294,0.531,0.78,0.406c1.326-0.34,2.534-0.88,3.717-1.576
		c3.597-2.117,7.126-4.339,10.794-6.349c3.193-1.75,6.362-3.603,9.414-5.621c0.382-0.252,0.846-0.607,1.276-0.447
		c0.58,0.215,0.279,0.857,0.283,1.281c0.046,5.456-0.018,10.913,0.172,16.368c0.244,7.008-0.039,14.024,0.31,21.034
		c0.092,1.863-0.11,3.738-0.06,5.605c0.243,9.08-0.074,18.164,0.29,27.244c0.163,4.045,0.011,8.1,0.031,12.15
		c0.014,2.783-0.002,5.564,0.179,8.352c0.12,1.852-0.131,3.727-0.164,5.592c-0.033,1.869,0.229,3.73,0.206,5.607
		c-0.05,4.1,0.018,8.201,0.015,12.301c-0.002,2.396,0.139,4.789,0.175,7.18c0.013,0.863,0.367,1.84-0.244,2.723
		c-0.408,0.59-0.977,1.307-0.361,2.035c0.664,0.787,1.278,1.703,2.576,1.59c1.562-0.137,3.151-0.332,4.7-0.189
		c3.107,0.289,6.21,0.104,9.312,0.146c6.474,0.09,12.949,0.004,19.424,0.039c2.075,0.012,4.15,0.062,6.228,0.164
		c2.837,0.141,5.708-0.316,8.535-0.105c2.379,0.178,4.748,0.139,7.11,0.121c5.299-0.039,10.596,0.117,15.899-0.068
		c2.355-0.082,4.775-0.002,7.164,0.082c2.947,0.102,5.906-0.145,8.855-0.074c2.543,0.062,5.07,0.006,7.609-0.07
		c3.908-0.115,7.828-0.002,11.744,0.053c2.902,0.041,5.822-0.117,8.732-0.094c7.438,0.057,14.879-0.275,22.311,0.227
		c0.975,0.066,1.369-0.154,1.264-1.201c-0.125-1.227-0.146-2.469-0.146-3.703c0-5.018-0.045-10.031-0.188-15.049
		c-0.215-7.58-0.066-15.166-0.24-22.75c-0.23-9.984-0.072-19.979-0.264-29.969c-0.148-7.734,0.053-15.477-0.209-23.209
		c-0.236-6.977,0.146-13.955-0.234-20.932C175.524,73.068,175.706,69.015,175.706,64.777z"/>
	<path clip-path="url(#SVGID_2_)" fill="#050608" d="M175.706,64.777c0,4.238-0.182,8.291,0.039,12.322
		c0.381,6.978-0.002,13.956,0.232,20.931c0.264,7.734,0.062,15.477,0.209,23.211c0.193,9.99,0.033,19.982,0.266,29.967
		c0.174,7.586,0.025,15.17,0.24,22.75c0.145,5.018,0.188,10.033,0.188,15.051c0,1.234,0.021,2.477,0.146,3.703
		c0.105,1.047-0.289,1.268-1.264,1.201c-7.432-0.502-14.875-0.172-22.311-0.229c-2.91-0.021-5.83,0.135-8.732,0.096
		c-3.916-0.055-7.836-0.17-11.744-0.053c-2.541,0.076-5.066,0.131-7.609,0.07c-2.949-0.07-5.908,0.176-8.855,0.072
		c-2.389-0.082-4.811-0.162-7.164-0.08c-5.303,0.186-10.601,0.027-15.899,0.066c-2.363,0.018-4.731,0.059-7.11-0.119
		c-2.826-0.213-5.698,0.246-8.535,0.105c-2.078-0.102-4.153-0.152-6.228-0.164c-6.475-0.035-12.95,0.049-19.424-0.039
		c-3.102-0.043-6.206,0.143-9.312-0.146c-1.548-0.145-3.137,0.053-4.7,0.189c-1.298,0.111-1.912-0.805-2.576-1.59
		c-0.615-0.73-0.046-1.447,0.361-2.035c0.611-0.883,0.257-1.859,0.244-2.723c-0.036-2.391-0.177-4.783-0.175-7.18
		c0.003-4.102-0.065-8.201-0.015-12.301c0.023-1.879-0.238-3.738-0.206-5.609c0.033-1.863,0.284-3.738,0.164-5.592
		c-0.181-2.785-0.165-5.566-0.179-8.352c-0.02-4.051,0.132-8.105-0.031-12.148c-0.364-9.08-0.047-18.164-0.29-27.244
		c-0.05-1.867,0.152-3.744,0.06-5.605c-0.348-7.01-0.065-14.026-0.31-21.035c-0.19-5.456-0.126-10.912-0.172-16.368
		c-0.004-0.424,0.297-1.065-0.283-1.281c-0.431-0.16-0.895,0.194-1.276,0.447c-3.052,2.019-6.221,3.871-9.414,5.621
		c-3.668,2.01-7.198,4.231-10.794,6.349c-1.183,0.696-2.391,1.236-3.717,1.576c-0.486,0.125-0.605-0.021-0.78-0.406
		c-2.062-4.536-4.727-8.747-7.105-13.112c-0.442-0.812-1.322-1.371-1.563-2.354c-0.186-0.758-0.093-1.244,0.688-1.754
		c7.494-4.903,15.358-9.188,23.011-13.824c5.92-3.587,11.97-6.96,17.934-10.476c5.746-3.388,11.405-6.925,17.196-10.232
		c6.797-3.882,13.507-7.911,20.277-11.837c6.969-4.042,13.897-8.155,20.891-12.154c1.303-0.744,2.672-1.387,3.921-2.228
		c0.572-0.385,1.129-0.258,1.541,0.083c2.439,2.019,5.333,3.282,8.003,4.916c3.818,2.337,7.637,4.68,11.539,6.873
		c4.07,2.288,8.062,4.705,12.094,7.06c5.191,3.035,10.359,6.11,15.582,9.093c6.719,3.836,13.359,7.805,20.1,11.606
		c6.43,3.627,12.766,7.425,19.07,11.267c4.061,2.472,8.33,4.571,12.283,7.229c2.008,1.348,4.168,2.469,6.291,3.638
		c0.482,0.268,0.584,0.491,0.281,0.901c-3.527,4.749-5.998,10.131-9.104,15.132c-0.762,1.227-1.369,1.479-2.5,0.768
		c-6.371-4.014-12.889-7.779-19.35-11.642C178.499,66.364,177.144,65.607,175.706,64.777z M172.638,75.823h-0.174
		c0-3.719,0.006-7.438-0.008-11.158c-0.002-0.554-0.113-1.106-0.137-1.662c-0.016-0.313-0.133-0.502-0.398-0.673
		c-2.402-1.542-4.863-3.031-7.371-4.341c-3.65-1.908-6.973-4.342-10.629-6.219c-1.869-0.959-3.562-2.253-5.377-3.264
		c-1.502-0.837-3.008-1.713-4.508-2.562c-2.613-1.479-5.018-3.358-7.699-4.68c-4.291-2.116-8.215-4.833-12.389-7.14
		c-2.908-1.607-5.809-3.257-8.658-4.983c-3.041-1.842-6.25-3.4-9.209-5.395c-0.783-0.526-1.698-0.688-2.658-0.103
		c-2.025,1.234-4.109,2.372-6.157,3.57c-5.31,3.109-10.691,6.107-15.897,9.384c-5.049,3.177-10.382,5.871-15.322,9.227
		c-2.768,1.881-5.878,3.196-8.691,4.989c-5.704,3.633-11.723,6.725-17.44,10.331c-0.944,0.595-1.34,1.243-1.432,2.363
		c-0.075,0.919,0.073,1.796,0.064,2.692c-0.027,2.902-0.087,5.801-0.039,8.706c0.093,5.585-0.06,11.174,0.038,16.759
		c0.135,7.667,0.21,15.332,0.238,23c0.019,5.002,0.104,10.002,0.156,15.004c0.063,6.189,0.123,12.381,0.18,18.572
		c0.032,3.492,0.055,6.982,0.084,10.477c0.053,6.494,0.206,12.988,0.123,19.48c-0.046,3.646,0.192,7.283,0.109,10.924
		c-0.017,0.752,0.245,0.824,0.897,0.826c6.78,0.016,13.561,0.064,20.341,0.111c4.504,0.029,9.009,0.094,13.513,0.102
		c10.503,0.016,21.006,0.01,31.508-0.002c1.396-0.002,2.819-0.182,4.181-0.088c4.102,0.279,8.195,0.006,12.293,0.1
		c4.82,0.111,9.65-0.152,14.477-0.186c6.436-0.041,12.871,0.08,19.303-0.049c5.307-0.107,10.611-0.193,15.918-0.16
		c1.107,0.006,1.422-0.275,1.402-1.398c-0.242-13.273-0.07-26.551-0.342-39.826c-0.178-8.658,0.002-17.32-0.115-25.982
		c-0.145-10.908-0.129-21.82-0.172-32.729C172.624,85.167,172.638,80.495,172.638,75.823z M10.916,74.094
		c0.115-0.078,0.272-0.199,0.442-0.298c5.992-3.485,11.97-6.998,17.984-10.445c5.181-2.971,10.322-6.009,15.475-9.023
		c4.744-2.773,9.492-5.544,14.229-8.333c4.895-2.882,9.783-5.773,14.658-8.689c5.029-3.009,10.017-6.083,15.061-9.065
		c3.847-2.274,7.771-4.418,11.614-6.701c0.641-0.38,1.479-0.477,1.929-1.116c0.75-1.066,1.701-1.026,2.833-0.795
		c0.874,0.18,1.342,0.893,2.065,1.224c1.727,0.789,3.352,1.792,4.938,2.788c3.064,1.92,6.266,3.589,9.365,5.435
		c6.941,4.132,14.004,8.064,20.906,12.258c5.039,3.062,10.188,5.93,15.27,8.912c3.381,1.982,6.613,4.218,10.141,5.946
		c2.936,1.439,5.641,3.284,8.514,4.843c2.354,1.276,4.639,2.746,6.949,4.104c3.695,2.172,7.324,4.469,11.102,6.507
		c1.639,0.885,3.191,1.926,4.82,2.828c0.414,0.229,0.941,0.77,1.438-0.134c1.727-3.153,3.523-6.271,5.318-9.387
		c0.371-0.646,0.436-0.959-0.344-1.463c-4.309-2.787-8.797-5.266-13.213-7.867c-4.09-2.409-8.137-4.891-12.211-7.327
		c-3.598-2.151-7.191-4.31-10.812-6.42c-4.26-2.482-8.562-4.894-12.818-7.383c-4.154-2.43-8.264-4.94-12.414-7.374
		c-3.543-2.075-7.137-4.06-10.678-6.136c-4.131-2.423-8.215-4.928-12.344-7.354c-5.25-3.082-10.533-6.103-15.777-9.191
		c-0.781-0.46-1.375-0.306-2.06,0.097c-1.125,0.66-2.201,1.435-3.338,2.026c-2.855,1.486-5.604,3.138-8.355,4.798
		c-3.006,1.812-6.058,3.551-9.088,5.324c-6.348,3.715-12.748,7.345-19.027,11.173c-5.235,3.19-10.594,6.17-15.815,9.376
		c-4.679,2.874-9.547,5.417-14.2,8.338c-4.29,2.694-8.745,5.123-13.113,7.692c-4.6,2.707-9.184,5.442-13.773,8.168
		c-0.614,0.364-1.229,0.729-1.833,1.11c-0.348,0.22-0.418,0.476-0.185,0.882c1.952,3.401,3.875,6.819,5.822,10.225
		C10.489,73.819,10.506,74.145,10.916,74.094z"/>
	<path clip-path="url(#SVGID_2_)" fill="#53A9B1" d="M172.638,75.823c0,4.672-0.014,9.344,0.004,14.016
		c0.041,10.911,0.025,21.821,0.172,32.729c0.115,8.662-0.062,17.326,0.113,25.982c0.271,13.277,0.1,26.555,0.342,39.828
		c0.021,1.121-0.293,1.404-1.402,1.396c-5.307-0.033-10.611,0.055-15.918,0.16c-6.432,0.129-12.867,0.008-19.301,0.051
		c-4.826,0.031-9.656,0.295-14.479,0.186c-4.096-0.094-8.191,0.18-12.291-0.102c-1.361-0.092-2.787,0.086-4.182,0.088
		c-10.502,0.012-21.005,0.018-31.508,0.002c-4.504-0.006-9.009-0.07-13.513-0.102c-6.78-0.047-13.561-0.096-20.341-0.109
		c-0.653-0.002-0.915-0.074-0.897-0.826c0.083-3.641-0.155-7.277-0.109-10.924c0.083-6.492-0.07-12.988-0.123-19.482
		c-0.029-3.492-0.052-6.982-0.084-10.477c-0.057-6.191-0.117-12.381-0.18-18.572c-0.051-5-0.137-10.002-0.156-15.002
		c-0.028-7.668-0.104-15.334-0.238-23c-0.098-5.585,0.055-11.174-0.038-16.759C38.461,72,38.521,69.102,38.548,66.2
		c0.008-0.896-0.14-1.774-0.064-2.692c0.092-1.122,0.488-1.769,1.432-2.363c5.717-3.606,11.736-6.697,17.44-10.331
		c2.813-1.792,5.923-3.108,8.691-4.989c4.94-3.356,10.273-6.05,15.322-9.228c5.206-3.275,10.587-6.273,15.897-9.383
		c2.047-1.198,4.132-2.336,6.157-3.57c0.96-0.586,1.875-0.425,2.658,0.103c2.96,1.993,6.169,3.553,9.208,5.395
		c2.852,1.727,5.75,3.375,8.66,4.983c4.172,2.307,8.098,5.023,12.389,7.139c2.684,1.322,5.084,3.201,7.697,4.681
		c1.502,0.85,3.008,1.727,4.51,2.562c1.812,1.009,3.508,2.305,5.375,3.264c3.656,1.877,6.979,4.311,10.631,6.219
		c2.506,1.31,4.969,2.799,7.371,4.341c0.266,0.171,0.383,0.358,0.396,0.673c0.023,0.556,0.137,1.108,0.139,1.662
		c0.012,3.72,0.006,7.439,0.006,11.158L172.638,75.823z M54.354,104.854c0.001,0.246,0.002,0.494,0.003,0.74
		c-0.265,1.301-0.089,2.615-0.091,3.922c-0.001,0.77-0.25,1.592,0.251,2.312c-0.475,0.787-0.067,1.592-0.044,2.389
		c0.095,3.301,0.15,6.6,0.161,9.902c0.024,7.713,0.124,15.428,0.229,23.141c0.065,4.75-0.175,9.504,0.223,14.25
		c0.062,0.744-0.031,1.48-0.223,2.238c-0.396,1.564,0.233,2.918,2.21,2.914c4.255-0.014,8.512,0.062,12.767,0.125
		c7.245,0.107,14.49,0.229,21.735,0.348c6.328,0.104,12.652-0.164,18.982-0.072c4.928,0.072,9.855-0.143,14.785-0.172
		c5.711-0.037,11.424-0.051,17.135,0.004c3.828,0.037,7.662-0.219,11.49,0.164c1.678,0.168,2.072-0.428,2.422-2.098
		c0.244-1.158-0.064-2.211-0.072-3.311c-0.045-5.627-0.193-11.252-0.209-16.877c-0.021-7.113-0.141-14.223-0.229-21.334
		c-0.141-11.191,0.021-22.381-0.234-33.573c-0.174-7.673-0.037-15.354-0.029-23.032c0.002-1.401-0.609-2.04-1.963-1.784
		c-0.684,0.129-1.342,0.117-2.016,0.117c-25.678,0.002-51.354-0.006-77.032,0.031c-2.109,0.003-4.218,0.333-6.337,0.143
		c-4.422-0.397-8.864,0.021-13.288-0.318c-0.507-0.039-0.807,0.056-0.805,0.698c0.012,3.336-0.194,6.684,0.02,10.005
		c0.147,2.286-0.248,4.552,0.127,6.852c0.257,1.577-0.26,3.269-0.102,4.876c0.128,1.308,0.088,2.609,0.117,3.901
		c0.093,4.259-0.068,8.522,0.195,12.78C54.171,104.302,54.163,104.554,54.354,104.854z"/>
	<path clip-path="url(#SVGID_2_)" fill="#4C757B" d="M10.916,74.094c-0.409,0.052-0.426-0.274-0.526-0.45
		c-1.946-3.405-3.87-6.823-5.822-10.225c-0.233-0.406-0.163-0.662,0.185-0.882c0.604-0.382,1.219-0.747,1.833-1.111
		c4.59-2.725,9.173-5.46,13.773-8.167c4.368-2.569,8.824-4.999,13.113-7.692c4.653-2.921,9.521-5.464,14.2-8.338
		c5.221-3.206,10.58-6.186,15.815-9.376c6.279-3.828,12.679-7.458,19.027-11.173c3.031-1.773,6.082-3.512,9.088-5.324
		c2.751-1.66,5.5-3.312,8.355-4.798c1.137-0.593,2.213-1.367,3.338-2.026c0.685-0.402,1.279-0.558,2.06-0.097
		c5.244,3.09,10.527,6.11,15.777,9.191c4.129,2.425,8.213,4.931,12.344,7.354c3.541,2.077,7.135,4.062,10.678,6.136
		c4.15,2.433,8.26,4.944,12.414,7.374c4.258,2.489,8.559,4.899,12.818,7.383c3.621,2.111,7.215,4.27,10.812,6.42
		c4.074,2.437,8.121,4.917,12.211,7.327c4.416,2.602,8.904,5.08,13.213,7.867c0.777,0.503,0.715,0.817,0.344,1.463
		c-1.795,3.116-3.592,6.233-5.318,9.387c-0.496,0.903-1.021,0.363-1.438,0.134c-1.629-0.902-3.182-1.943-4.82-2.828
		c-3.775-2.039-7.406-4.335-11.102-6.508c-2.311-1.357-4.598-2.827-6.949-4.104c-2.873-1.559-5.578-3.403-8.514-4.843
		c-3.527-1.729-6.76-3.964-10.141-5.946c-5.082-2.982-10.23-5.85-15.27-8.912c-6.902-4.193-13.965-8.126-20.906-12.258
		c-3.102-1.846-6.301-3.515-9.365-5.435c-1.588-0.995-3.211-1.999-4.938-2.788c-0.725-0.331-1.191-1.043-2.065-1.224
		c-1.132-0.231-2.083-0.271-2.833,0.795c-0.45,0.641-1.289,0.736-1.929,1.116c-3.842,2.282-7.767,4.426-11.614,6.701
		c-5.044,2.982-10.032,6.058-15.061,9.064c-4.875,2.916-9.763,5.809-14.658,8.69c-4.737,2.789-9.485,5.56-14.229,8.333
		c-5.153,3.014-10.294,6.054-15.475,9.023c-6.014,3.447-11.992,6.96-17.984,10.445C11.188,73.895,11.03,74.016,10.916,74.094z"/>
	<path clip-path="url(#SVGID_2_)" fill="#050608" d="M54.357,105.595c-0.001-0.246-0.002-0.494-0.003-0.74
		c0.05-0.242,0.316-0.43,0.176-0.717c-0.263-4.258-0.102-8.522-0.195-12.78c-0.028-1.292,0.011-2.594-0.117-3.901
		c-0.158-1.607,0.359-3.299,0.102-4.876c-0.375-2.3,0.02-4.565-0.127-6.852c-0.214-3.322-0.008-6.669-0.02-10.005
		c-0.002-0.644,0.298-0.737,0.805-0.698c4.424,0.339,8.866-0.079,13.288,0.318c2.12,0.189,4.228-0.14,6.337-0.143
		c25.678-0.037,51.354-0.029,77.032-0.031c0.674,0,1.332,0.012,2.016-0.117c1.354-0.256,1.965,0.383,1.963,1.784
		c-0.01,7.679-0.145,15.358,0.029,23.032c0.254,11.192,0.094,22.381,0.234,33.573c0.088,7.111,0.209,14.221,0.229,21.334
		c0.016,5.625,0.164,11.25,0.207,16.877c0.01,1.1,0.318,2.152,0.074,3.311c-0.35,1.67-0.744,2.266-2.422,2.098
		c-3.828-0.383-7.662-0.127-11.49-0.164c-5.711-0.055-11.424-0.041-17.135-0.004c-4.93,0.029-9.857,0.244-14.785,0.172
		c-6.33-0.092-12.654,0.178-18.982,0.072c-7.245-0.119-14.49-0.24-21.735-0.348c-4.255-0.061-8.512-0.139-12.767-0.125
		c-1.977,0.004-2.607-1.35-2.21-2.914c0.192-0.758,0.286-1.494,0.223-2.238c-0.398-4.746-0.158-9.5-0.223-14.25
		c-0.105-7.715-0.204-15.428-0.229-23.141c-0.01-3.303-0.066-6.604-0.161-9.902c-0.022-0.797-0.431-1.602,0.044-2.389
		C54.398,109.755,54.613,107.669,54.357,105.595z M152.884,110.083l0.033-0.002c-0.047-0.947-0.145-1.896-0.131-2.844
		c0.201-12.583,0.057-25.167,0.107-37.75c0.004-0.652-0.232-0.993-0.793-1.003c-3.053-0.059-6.107-0.083-9.16-0.094
		c-4.688-0.017-9.371,0.013-14.059-0.023c-3.346-0.026-6.699-0.302-10.033-0.141c-2.504,0.121-4.996-0.066-7.504,0.104
		c-3.725,0.253-7.468-0.088-11.211,0.021c-4.531,0.132-9.07,0.018-13.606,0.019c-5.301,0.001-10.604-0.062-15.904,0.04
		c-3.904,0.077-7.799-0.295-11.71-0.078c-1.26,0.07-1.545,0.549-1.555,1.555c-0.017,1.882,0.029,3.765-0.013,5.645
		c-0.059,2.625-0.137,5.265-0.074,7.875c0.114,4.724,0.125,9.451,0.27,14.175c0.214,7.015,0.018,14.041,0.113,21.062
		c0.032,2.336,0.158,4.674,0.139,7.016c-0.049,5.855,0.194,11.709,0.074,17.564c-0.039,1.928,0.18,3.857,0.198,5.787
		c0.04,4.498,0.047,8.998,0.025,13.498c-0.005,0.893,0.293,1.236,1.185,1.164c2.303-0.188,4.605-0.092,6.913-0.031
		c3.679,0.098,7.367-0.07,11.043,0.066c1.944,0.072,3.897,0.133,5.835,0.154c8.208,0.092,16.418,0.027,24.628,0.006
		c5.031-0.014,10.062,0.148,15.098-0.141c2.686-0.156,5.387-0.049,8.082-0.059c6.877-0.021,13.752-0.027,20.629-0.078
		c1.523-0.012,1.607-0.182,1.615-1.789c0.016-4.006-0.186-8.008-0.207-12.01C152.839,136.556,152.884,123.319,152.884,110.083z"/>
	<path clip-path="url(#SVGID_2_)" fill="#4C757B" d="M54.357,105.595c0.255,2.072,0.041,4.158,0.16,6.234
		c-0.501-0.723-0.252-1.545-0.251-2.312C54.269,108.21,54.092,106.896,54.357,105.595z"/>
	<path clip-path="url(#SVGID_2_)" fill="#4C757B" d="M54.53,104.138c0.141,0.287-0.125,0.475-0.176,0.717
		C54.163,104.554,54.171,104.302,54.53,104.138z"/>
	<path clip-path="url(#SVGID_2_)" fill="#FAFAFA" d="M152.884,110.083c0,13.236-0.045,26.475,0.027,39.709
		c0.021,4.002,0.225,8.004,0.207,12.008c-0.008,1.609-0.09,1.779-1.613,1.791c-6.877,0.051-13.754,0.057-20.631,0.078
		c-2.693,0.008-5.396-0.098-8.082,0.059c-5.033,0.289-10.064,0.127-15.098,0.141c-8.209,0.021-16.419,0.086-24.627-0.006
		c-1.938-0.021-3.891-0.082-5.835-0.154c-3.677-0.139-7.364,0.031-11.043-0.066c-2.308-0.061-4.61-0.154-6.913,0.031
		c-0.892,0.072-1.19-0.271-1.185-1.164c0.022-4.5,0.015-9-0.025-13.498c-0.018-1.93-0.237-3.859-0.198-5.787
		c0.12-5.855-0.123-11.711-0.074-17.564c0.02-2.342-0.106-4.68-0.139-7.016c-0.095-7.021,0.101-14.047-0.113-21.062
		c-0.145-4.725-0.155-9.452-0.27-14.175c-0.063-2.61,0.016-5.25,0.074-7.875c0.042-1.88-0.004-3.763,0.013-5.645
		c0.009-1.006,0.294-1.484,1.555-1.555c3.911-0.217,7.806,0.155,11.71,0.078c5.299-0.104,10.603-0.039,15.904-0.04
		c4.536,0,9.075,0.114,13.606-0.019c3.743-0.109,7.488,0.231,11.212-0.021c2.506-0.17,5,0.018,7.502-0.104
		c3.336-0.161,6.689,0.114,10.035,0.141c4.686,0.037,9.371,0.007,14.057,0.023c3.055,0.011,6.107,0.036,9.16,0.094
		c0.562,0.01,0.799,0.351,0.795,1.003c-0.053,12.583,0.092,25.166-0.107,37.75c-0.016,0.947,0.084,1.895,0.129,2.844
		L152.884,110.083z M83.271,157.241c6.158,0,12.316-0.02,18.473,0.021c0.837,0.006,1.049-0.193,1.047-1.041
		c-0.03-12.154-0.03-24.312,0-36.467c0.002-0.836-0.191-1.047-1.037-1.045c-12.235,0.029-24.471,0.029-36.707,0
		c-0.832-0.002-1.052,0.189-1.049,1.039c0.031,12.154,0.031,24.312,0.001,36.467c-0.002,0.838,0.192,1.053,1.039,1.047
		C71.115,157.222,77.193,157.239,83.271,157.241z M108.899,93.01h0.057c0,6.038,0.078,12.077-0.059,18.11
		c-0.031,1.406,0.383,1.504,1.525,1.502c11.719-0.033,23.439-0.035,35.158,0c1.027,0.004,1.385-0.168,1.379-1.312
		c-0.049-11.801-0.029-23.599-0.029-35.398c0-0.56-0.01-1.12-0.002-1.68c0.006-0.341,0.012-0.625-0.475-0.626
		c-0.506-0.002-0.967-0.251-1.502-0.25c-11.678,0.021-23.357,0.025-35.035-0.005c-0.859-0.002-1.043,0.237-1.039,1.062
		C108.915,80.612,108.899,86.811,108.899,93.01z M146.89,138.11c0-6.037-0.021-12.076,0.023-18.113
		c0.008-0.955-0.17-1.256-1.207-1.254c-11.875,0.043-23.75,0.039-35.625,0.004c-0.938-0.002-1.164,0.234-1.162,1.164
		c0.039,12.035,0.041,24.07,0.02,36.105c-0.002,0.883,0.148,1.197,1.137,1.193c11.955-0.035,23.91-0.023,35.865,0.008
		c0.811,0.004,0.969-0.24,0.965-0.996C146.874,150.185,146.888,144.147,146.89,138.11z M64.02,92.857
		c0,6.275,0.012,12.552-0.017,18.83c-0.003,0.721,0.148,0.934,0.909,0.934c12.312-0.027,24.625-0.025,36.938-0.004
		c0.701,0,0.943-0.113,0.941-0.895c-0.029-12.354-0.027-24.706-0.009-37.059c0.001-0.931-0.2-1.323-1.267-1.318
		c-12.153,0.039-24.306,0.033-36.458,0.006c-0.828-0.002-1.065,0.183-1.06,1.038C64.038,80.544,64.02,86.701,64.02,92.857z"/>
	<path clip-path="url(#SVGID_2_)" fill="#020202" d="M83.271,157.239c-6.078,0-12.155-0.018-18.233,0.021
		c-0.847,0.006-1.041-0.209-1.039-1.047c0.03-12.154,0.03-24.311-0.001-36.467c-0.002-0.85,0.218-1.039,1.049-1.037
		c12.235,0.027,24.471,0.029,36.707-0.002c0.846-0.002,1.039,0.209,1.037,1.045c-0.03,12.156-0.03,24.312,0,36.469
		c0.002,0.846-0.21,1.045-1.047,1.039C95.586,157.222,89.429,157.241,83.271,157.239z"/>
	<path clip-path="url(#SVGID_2_)" fill="#020202" d="M108.899,93.01c0-6.199,0.016-12.399-0.021-18.599
		c-0.004-0.824,0.18-1.063,1.039-1.062c11.678,0.03,23.357,0.025,35.035,0.005c0.535-0.001,0.996,0.249,1.502,0.25
		c0.484,0.001,0.479,0.286,0.475,0.626c-0.008,0.56,0.002,1.12,0.002,1.68c0,11.799-0.02,23.598,0.029,35.397
		c0.006,1.146-0.352,1.316-1.379,1.314c-11.719-0.035-23.439-0.035-35.158-0.002c-1.143,0.004-1.557-0.094-1.525-1.5
		c0.137-6.035,0.059-12.074,0.059-18.112L108.899,93.01z"/>
	<path clip-path="url(#SVGID_2_)" fill="#020202" d="M146.888,138.11c0,6.037-0.014,12.074,0.018,18.111
		c0.004,0.756-0.154,1-0.965,0.998c-11.955-0.033-23.91-0.045-35.865-0.01c-0.988,0.004-1.139-0.312-1.137-1.193
		c0.021-12.035,0.02-24.07-0.02-36.105c-0.002-0.93,0.227-1.166,1.162-1.164c11.875,0.035,23.75,0.039,35.625-0.004
		c1.037-0.002,1.215,0.299,1.207,1.254C146.866,126.034,146.89,132.073,146.888,138.11z M131.282,140.401
		c-2.152,0.461-2.252,0.676-1.377,2.473c0.266,0.547,0.666,1.121,1.207,0.938c1.801-0.617,3.469-1.484,4.148-3.475
		c0.086-0.254,0.256-0.6-0.182-0.654c-0.873-0.109-1.729-0.02-2.531,0.406c-0.646,0.344-0.186,0.932-0.33,1.389
		c-0.082,0.252-0.043,0.555-0.01,0.828c0.045,0.391-0.148,0.463-0.48,0.484c-0.396,0.025-0.459-0.172-0.451-0.502
		C131.294,141.692,131.282,141.095,131.282,140.401z M124.286,140.163c0,0.484,0.012,0.92-0.002,1.354
		c-0.012,0.348,0.229,0.826-0.486,0.795c-0.684-0.029-0.256-0.51-0.375-0.764c-0.256-0.545,0.326-1.307-0.41-1.703
		c-0.877-0.475-1.803-0.582-3.102-0.195c0.766,0.307,0.764,0.811,0.939,1.23c0.654,1.557,2.109,2.061,3.486,2.672
		c0.357,0.158,0.678-0.033,0.859-0.229c0.57-0.613,1.057-1.402,0.988-2.197c-0.053-0.615-0.916-0.732-1.498-0.934
		C124.616,140.169,124.532,140.179,124.286,140.163z M127.815,144.858c-0.406,0.363-1.244-0.395-1.311,0.521
		c-0.053,0.768,0.66,1.193,1.227,1.574c0.256,0.172,1.43-1.139,1.379-1.545C128.987,144.433,128.196,145.239,127.815,144.858z"/>
	<path clip-path="url(#SVGID_2_)" fill="#020202" d="M64.02,92.857c0-6.156,0.018-12.312-0.021-18.469
		c-0.005-0.855,0.231-1.04,1.06-1.038c12.153,0.027,24.306,0.033,36.458-0.006c1.066-0.004,1.268,0.388,1.267,1.318
		c-0.019,12.354-0.021,24.706,0.009,37.059c0.002,0.779-0.241,0.895-0.941,0.895c-12.313-0.021-24.626-0.023-36.938,0.004
		c-0.761,0-0.912-0.213-0.909-0.934C64.031,105.409,64.02,99.134,64.02,92.857z M89.38,93.871c-0.712,0.205-1.988,0.413-2.772,1.516
		c-1.83,2.574-1.461,5.185,0.012,7.765c0.999,1.75,3.19,2.664,5.108,1.994c1.01-0.354,1.881-0.928,2.187-2.209
		c0.381-1.596,0.555-3.145,0.437-4.787C94.217,96.264,92.049,93.628,89.38,93.871z M82.977,100.218
		c0.247-0.949-0.197-1.871-0.395-2.835c-0.596-2.908-4.522-4.051-6.623-2.321c-3.038,2.5-3.166,6.899,0.231,9.418
		c2.057,1.523,4.944,0.898,6.221-1.318C82.921,102.274,83.038,101.296,82.977,100.218z"/>
	<path clip-path="url(#SVGID_2_)" fill="#FAFAFA" d="M131.282,140.401c0,0.693,0.012,1.291-0.006,1.887
		c-0.008,0.33,0.055,0.527,0.451,0.502c0.332-0.021,0.525-0.096,0.48-0.484c-0.033-0.273-0.072-0.576,0.01-0.828
		c0.146-0.457-0.316-1.045,0.33-1.389c0.803-0.426,1.658-0.518,2.531-0.406c0.438,0.055,0.268,0.4,0.182,0.654
		c-0.682,1.99-2.35,2.857-4.148,3.475c-0.541,0.186-0.941-0.391-1.207-0.938C129.03,141.077,129.13,140.862,131.282,140.401z"/>
	<path clip-path="url(#SVGID_2_)" fill="#FAFAFA" d="M124.286,140.163c0.246,0.018,0.33,0.006,0.4,0.029
		c0.584,0.201,1.447,0.318,1.498,0.934c0.068,0.795-0.416,1.584-0.988,2.197c-0.182,0.195-0.5,0.387-0.859,0.229
		c-1.377-0.611-2.832-1.115-3.486-2.672c-0.176-0.42-0.174-0.924-0.939-1.23c1.301-0.387,2.225-0.277,3.102,0.195
		c0.738,0.396,0.154,1.158,0.412,1.703c0.119,0.254-0.309,0.734,0.373,0.764c0.715,0.031,0.477-0.447,0.486-0.795
		C124.298,141.083,124.286,140.647,124.286,140.163z"/>
	<path clip-path="url(#SVGID_2_)" fill="#FAFAFA" d="M127.815,144.858c0.381,0.381,1.172-0.426,1.295,0.553
		c0.051,0.406-1.123,1.715-1.379,1.543c-0.566-0.379-1.279-0.807-1.227-1.572C126.571,144.466,127.409,145.222,127.815,144.858z"/>
	<path clip-path="url(#SVGID_2_)" fill="#FAFAFA" d="M89.38,93.871c2.669-0.242,4.837,2.395,4.973,4.279
		c0.118,1.643-0.056,3.193-0.437,4.787c-0.306,1.281-1.177,1.855-2.187,2.209c-1.918,0.67-4.109-0.244-5.108-1.994
		c-1.473-2.58-1.842-5.191-0.012-7.764C87.393,94.284,88.668,94.075,89.38,93.871z M90.956,99.331c0-2.007,0.001-1.981-1.184-1.916
		c-0.691,0.039-1.006,0.341-0.988,1.029c0.016,0.59,0.02,1.182,0.003,1.771c-0.026,0.951,0.696,1.213,1.373,1.295
		c0.902,0.111,0.8-0.637,0.796-1.229C90.954,99.966,90.956,99.649,90.956,99.331z"/>
	<path clip-path="url(#SVGID_2_)" fill="#FAFAFA" d="M82.977,100.218c0.061,1.078-0.055,2.057-0.565,2.941
		c-1.277,2.219-4.164,2.844-6.221,1.32c-3.396-2.52-3.269-6.919-0.231-9.419c2.101-1.729,6.027-0.587,6.623,2.321
		C82.779,98.347,83.224,99.269,82.977,100.218z M78.91,99.265h0.052c0-0.238-0.001-0.477,0-0.715
		c0.008-1.381-0.432-1.661-1.689-1.07c-0.758,0.354-1.067,2.585-0.508,3.658c0.251,0.482,0.557,0.723,1.189,0.713
		c0.727-0.014,0.832-0.52,0.927-0.932C79.001,100.394,78.91,99.819,78.91,99.265z"/>
	<path clip-path="url(#SVGID_2_)" fill="#050608" d="M90.956,99.331c0,0.318-0.001,0.635,0,0.951c0.003,0.592,0.105,1.34-0.796,1.23
		c-0.677-0.084-1.399-0.344-1.373-1.295c0.017-0.59,0.013-1.182-0.003-1.771c-0.018-0.688,0.297-0.992,0.988-1.03
		C90.957,97.349,90.956,97.324,90.956,99.331z"/>
	<path clip-path="url(#SVGID_2_)" fill="#050608" d="M78.91,99.265c0,0.555,0.092,1.129-0.029,1.654
		c-0.095,0.412-0.2,0.918-0.927,0.932c-0.633,0.01-0.938-0.23-1.189-0.713c-0.559-1.072-0.25-3.303,0.508-3.658
		c1.257-0.59,1.698-0.312,1.689,1.07c-0.001,0.238,0,0.477,0,0.715H78.91z"/>
</g>
</svg>
