<?xml version="1.0" encoding="utf-8"?>
<!-- Generator: Adobe Illustrator 16.0.0, SVG Export Plug-In . SVG Version: 6.00 Build 0)  -->
<!DOCTYPE svg PUBLIC "-//W3C//DTD SVG 1.1//EN" "http://www.w3.org/Graphics/SVG/1.1/DTD/svg11.dtd">
<svg version="1.1" id="Layer_1" xmlns="http://www.w3.org/2000/svg" xmlns:xlink="http://www.w3.org/1999/xlink" x="0px" y="0px"
	 width="841.89px" height="1190.55px" viewBox="0 0 841.89 1190.55" enable-background="new 0 0 841.89 1190.55"
	 xml:space="preserve">
<g>
	<path fill="#FEFEFE" d="M490.832,557.61c1.39,0.79,2.684,1.489,3.942,2.249c6.479,3.911,13.058,7.66,19.446,11.724
		c1.201,0.764,1.876,0.572,2.609-0.689c1.57-2.703,3.125-5.416,4.717-8.106c1.405-2.375,2.603-4.881,4.382-7.024
		c0.257-0.309,0.318-0.584-0.135-0.861c-1.679-1.022-3.398-1.976-5.095-2.961c-2.89-1.678-5.709-3.472-8.668-5.046
		c-4.258-2.265-8.315-4.902-12.478-7.349c-7.987-4.695-15.983-9.376-23.984-14.047c-6.168-3.601-12.35-7.177-18.524-10.765
		c-5.618-3.265-11.244-6.518-16.851-9.802c-3.76-2.202-7.52-4.407-11.23-6.689c-2.764-1.701-5.759-3.023-8.298-5.099
		c-0.363-0.296-0.891-0.465-1.432-0.096c-1.311,0.893-2.758,1.556-4.132,2.338c-6.006,3.418-11.96,6.927-17.927,10.413
		c-6.792,3.968-13.587,7.932-20.363,11.926c-6.648,3.918-13.262,7.894-19.914,11.806c-5.966,3.509-12.015,6.878-17.933,10.465
		c-7.648,4.636-15.512,8.914-22.998,13.822c-0.819,0.537-0.913,1.038-0.7,1.85c0.249,0.946,1.123,1.452,1.537,2.23
		c2.334,4.387,5.033,8.578,7.094,13.111c0.132,0.291,0.206,0.683,0.637,0.505c0.644-0.266,1.336-0.33,1.987-0.606
		c1.559-0.664,2.864-1.731,4.323-2.552c2.954-1.662,5.815-3.481,8.792-5.113c3.135-1.719,6.155-3.648,9.237-5.466
		c1.098-0.647,1.307-0.531,1.316,0.782c0.036,5.284,0.068,10.567,0.205,15.852c0.188,7.244-0.045,14.495,0.27,21.74
		c0.094,2.179,0.006,4.364,0.015,6.547c0.041,9.795,0.019,19.592,0.16,29.386c0.063,4.348,0.044,8.694,0.057,13.041
		c0.005,1.712,0.328,3.398,0.222,5.112c-0.101,1.622-0.159,3.248-0.18,4.873c-0.023,1.873,0.225,3.735,0.202,5.614
		c-0.049,4.061,0.011,8.123,0.023,12.184c0.006,2.396,0.039,4.787,0.176,7.182c0.052,0.9,0.327,1.915-0.267,2.831
		c-0.39,0.601-0.958,1.313-0.336,2.039c0.669,0.781,1.284,1.69,2.58,1.573c1.562-0.141,3.154-0.353,4.697-0.188
		c2.909,0.309,5.81,0.018,8.713,0.142c2.955,0.127,5.919,0.022,8.879,0.03c5.212,0.016,10.424,0.035,15.635,0.064
		c2.63,0.014,5.271,0.208,7.886,0.021c1.671-0.119,3.286,0.145,4.927,0.149c3.707,0.011,7.415,0.07,11.12-0.018
		c3.101-0.073,6.209-0.056,9.304-0.084c2.327-0.021,4.696-0.038,7.046,0.063c2.987,0.129,5.989-0.122,8.981-0.063
		c2.54,0.051,5.063,0.058,7.607-0.081c3.598-0.196,7.214-0.061,10.822-0.048c2.659,0.011,5.319,0.005,7.978,0.021
		c7.997,0.045,15.998-0.299,23.987,0.226c1.09,0.071,1.35-0.256,1.297-1.297c-0.116-2.312-0.118-4.63-0.15-6.945
		c-0.051-3.578-0.021-7.16-0.143-10.736c-0.273-8.018-0.066-16.038-0.283-24.059c-0.257-9.544-0.078-19.098-0.262-28.647
		c-0.17-8.814-0.045-17.634-0.249-26.451c-0.156-6.76-0.018-13.528-0.158-20.289C490.876,564.81,490.896,561.284,490.832,557.61z"/>
	<path fill-rule="evenodd" clip-rule="evenodd" fill="#030406" d="M490.832,557.61c0.064,3.673,0.044,7.2,0.117,10.729
		c0.141,6.761,0.002,13.528,0.158,20.289c0.204,8.817,0.079,17.636,0.249,26.451c0.184,9.55,0.005,19.104,0.262,28.647
		c0.217,8.021,0.01,16.041,0.283,24.059c0.122,3.576,0.092,7.158,0.143,10.736c0.032,2.315,0.034,4.634,0.15,6.945
		c0.053,1.041-0.207,1.368-1.297,1.297c-7.989-0.524-15.99-0.181-23.987-0.226c-2.658-0.016-5.318-0.01-7.978-0.021
		c-3.608-0.013-7.225-0.148-10.822,0.048c-2.544,0.139-5.067,0.132-7.607,0.081c-2.992-0.059-5.994,0.192-8.981,0.063
		c-2.35-0.102-4.719-0.085-7.046-0.063c-3.095,0.028-6.203,0.011-9.304,0.084c-3.705,0.088-7.413,0.028-11.12,0.018
		c-1.641-0.005-3.255-0.269-4.927-0.149c-2.615,0.187-5.256-0.008-7.886-0.021c-5.211-0.029-10.423-0.049-15.635-0.064
		c-2.96-0.008-5.924,0.097-8.879-0.03c-2.903-0.124-5.804,0.167-8.713-0.142c-1.543-0.164-3.136,0.048-4.697,0.188
		c-1.295,0.117-1.911-0.792-2.58-1.573c-0.622-0.726-0.054-1.438,0.336-2.039c0.594-0.916,0.319-1.931,0.267-2.831
		c-0.138-2.395-0.17-4.786-0.176-7.182c-0.012-4.061-0.072-8.123-0.023-12.184c0.023-1.879-0.226-3.741-0.202-5.614
		c0.021-1.625,0.079-3.251,0.18-4.873c0.106-1.714-0.217-3.4-0.222-5.112c-0.012-4.347,0.006-8.693-0.057-13.041
		c-0.141-9.794-0.119-19.591-0.16-29.386c-0.009-2.183,0.079-4.368-0.015-6.547c-0.314-7.245-0.082-14.496-0.27-21.74
		c-0.137-5.285-0.169-10.567-0.205-15.852c-0.009-1.313-0.218-1.429-1.316-0.782c-3.082,1.818-6.102,3.747-9.237,5.466
		c-2.976,1.632-5.837,3.451-8.792,5.113c-1.459,0.82-2.764,1.888-4.323,2.552c-0.651,0.277-1.343,0.341-1.987,0.606
		c-0.431,0.178-0.504-0.214-0.637-0.505c-2.061-4.533-4.759-8.724-7.094-13.111c-0.414-0.778-1.288-1.284-1.537-2.23
		c-0.213-0.812-0.12-1.312,0.7-1.85c7.486-4.908,15.349-9.187,22.998-13.822c5.918-3.587,11.967-6.956,17.933-10.465
		c6.651-3.912,13.266-7.887,19.914-11.806c6.776-3.994,13.571-7.958,20.363-11.926c5.967-3.486,11.921-6.994,17.927-10.413
		c1.374-0.782,2.821-1.445,4.132-2.338c0.542-0.369,1.069-0.201,1.432,0.096c2.539,2.076,5.534,3.398,8.298,5.099
		c3.711,2.283,7.471,4.488,11.23,6.689c5.606,3.284,11.232,6.537,16.851,9.802c6.175,3.588,12.356,7.165,18.524,10.765
		c8.001,4.671,15.997,9.353,23.984,14.047c4.162,2.447,8.22,5.084,12.478,7.349c2.959,1.575,5.778,3.369,8.668,5.046
		c1.696,0.985,3.416,1.939,5.095,2.961c0.453,0.276,0.392,0.552,0.135,0.861c-1.779,2.144-2.977,4.649-4.382,7.024
		c-1.592,2.691-3.146,5.403-4.717,8.106c-0.733,1.261-1.408,1.454-2.609,0.689c-6.389-4.063-12.967-7.813-19.446-11.724
		C493.516,559.1,492.222,558.4,490.832,557.61z M487.696,568.603c-0.023,0-0.046,0-0.069,0c0-3.68,0.005-7.359-0.006-11.039
		c-0.001-0.476-0.127-0.953-0.105-1.425c0.029-0.625-0.302-0.887-0.8-1.162c-2.801-1.546-5.484-3.289-8.297-4.82
		c-3.854-2.099-7.472-4.607-11.349-6.672c-1.223-0.651-2.256-1.667-3.479-2.236c-2.311-1.075-4.407-2.479-6.579-3.769
		c-1.864-1.107-3.604-2.459-5.548-3.394c-4.349-2.091-8.281-4.881-12.489-7.207c-2.877-1.589-5.751-3.199-8.561-4.919
		c-2.996-1.834-6.196-3.32-9.089-5.35c-0.665-0.467-1.561-0.805-2.537-0.2c-2.043,1.265-4.179,2.378-6.254,3.591
		c-5.354,3.128-10.772,6.155-16.023,9.448c-5.532,3.469-11.28,6.566-16.782,10.087c-4.019,2.572-8.297,4.73-12.362,7.249
		c-3.335,2.067-6.811,3.907-10.189,5.907c-1.678,0.993-3.835,1.649-3.6,4.284c0.062,0.694,0.119,1.391,0.117,2.087
		c-0.007,2.104-0.094,4.209-0.06,6.312c0.103,6.267,0.04,12.533,0.045,18.799c0.004,5.502,0.195,11.003,0.255,16.506
		c0.081,7.362,0.109,14.726,0.171,22.088c0.052,6.15,0.123,12.302,0.18,18.452c0.032,3.412,0.052,6.825,0.08,10.237
		c0.053,6.536,0.2,13.074,0.123,19.608c-0.042,3.608,0.187,7.207,0.115,10.81c-0.015,0.772,0.17,0.917,0.919,0.918
		c6.781,0.008,13.562,0.062,20.342,0.111c3.825,0.027,7.65,0.093,11.476,0.098c11.863,0.013,23.726,0.007,35.588-0.002
		c0.715-0.001,1.441-0.202,2.144-0.13c4.047,0.416,8.102-0.002,12.153,0.157c3.445,0.136,6.902-0.03,10.354-0.085
		c2.1-0.033,4.2-0.153,6.3-0.157c5.835-0.013,11.673,0.123,17.504-0.004c5.227-0.113,10.452-0.207,15.679-0.158
		c1.172,0.012,1.394-0.365,1.365-1.434c-0.283-10.585,0.064-21.176-0.278-31.761c-0.087-2.694-0.011-5.389-0.027-8.081
		c-0.06-10.026-0.056-20.052-0.218-30.078c-0.169-10.383-0.154-20.77-0.207-31.155C487.68,576.278,487.696,572.44,487.696,568.603z
		 M521.498,557.058c0.001-0.391-0.334-0.503-0.592-0.654c-3.003-1.754-5.876-3.714-8.951-5.362c-2.912-1.562-5.642-3.46-8.488-5.149
		c-3.58-2.124-7.206-4.168-10.794-6.278c-3.511-2.065-6.985-4.189-10.499-6.25c-3.469-2.033-6.979-3.995-10.447-6.032
		c-3.061-1.798-6.064-3.692-9.131-5.48c-4.643-2.706-9.334-5.329-13.974-8.039c-4.138-2.417-8.219-4.931-12.352-7.357
		c-5.251-3.083-10.539-6.105-15.785-9.199c-0.748-0.441-1.342-0.29-1.964,0.076c-1.157,0.679-2.267,1.482-3.439,2.083
		c-2.795,1.435-5.46,3.075-8.155,4.674c-3.805,2.257-7.616,4.505-11.434,6.742c-6.245,3.658-12.513,7.276-18.715,11.007
		c-3.227,1.94-6.406,3.96-9.757,5.704c-2.619,1.362-5.061,3.062-7.616,4.552c-3.111,1.815-6.343,3.438-9.365,5.389
		c-2.3,1.485-4.67,2.847-6.991,4.29c-2.079,1.292-4.295,2.36-6.411,3.595c-2.087,1.217-4.11,2.542-6.186,3.78
		c-3.395,2.025-6.801,4.029-10.219,6.015c-0.657,0.382-0.738,0.693-0.332,1.379c1.735,2.932,3.421,5.895,5.073,8.875
		c0.922,1.662,0.869,1.674,2.463,0.741c5.714-3.346,11.417-6.713,17.158-10.013c5.145-2.958,10.255-5.977,15.377-8.971
		c4.746-2.774,9.501-5.537,14.232-8.338c4.988-2.954,9.957-5.941,14.921-8.936c4.92-2.969,9.933-5.781,14.818-8.813
		c3.528-2.19,7.207-4.134,10.78-6.253c1.097-0.651,2.212-1.256,3.248-2.072c1.267-0.999,2.648-0.212,4.028,0.668
		c2.825,1.803,5.753,3.469,8.688,5.093c5.208,2.884,10.297,5.965,15.452,8.935c4.563,2.629,9.093,5.317,13.607,8.031
		c5.19,3.12,10.508,6.026,15.727,9.1c1.942,1.144,3.794,2.446,5.805,3.479c3.545,1.819,6.904,3.965,10.394,5.887
		c2.276,1.253,4.497,2.691,6.741,4.003c3.771,2.204,7.451,4.576,11.312,6.633c1.537,0.82,3.017,1.751,4.501,2.667
		c0.795,0.491,1.303,0.528,1.828-0.445c1.541-2.852,3.196-5.642,4.799-8.461C521.089,557.936,521.281,557.497,521.498,557.058z"/>
	<path fill-rule="evenodd" clip-rule="evenodd" fill="#52A9B2" d="M487.696,568.603c0,3.838-0.017,7.676,0.003,11.513
		c0.053,10.385,0.038,20.772,0.207,31.155c0.162,10.026,0.158,20.052,0.218,30.078c0.017,2.692-0.06,5.387,0.027,8.081
		c0.343,10.585-0.005,21.176,0.278,31.761c0.028,1.068-0.193,1.445-1.365,1.434c-5.227-0.049-10.452,0.045-15.679,0.158
		c-5.831,0.127-11.669-0.009-17.504,0.004c-2.1,0.004-4.2,0.124-6.3,0.157c-3.452,0.055-6.909,0.221-10.354,0.085
		c-4.052-0.159-8.106,0.259-12.153-0.157c-0.702-0.072-1.429,0.129-2.144,0.13c-11.863,0.009-23.726,0.015-35.588,0.002
		c-3.825-0.005-7.65-0.07-11.476-0.098c-6.781-0.049-13.561-0.104-20.342-0.111c-0.749-0.001-0.935-0.146-0.919-0.918
		c0.072-3.603-0.157-7.201-0.115-10.81c0.077-6.534-0.07-13.072-0.123-19.608c-0.028-3.412-0.048-6.825-0.08-10.237
		c-0.058-6.15-0.128-12.302-0.18-18.452c-0.062-7.362-0.091-14.726-0.171-22.088c-0.06-5.502-0.25-11.004-0.255-16.506
		c-0.005-6.267,0.058-12.533-0.045-18.799c-0.034-2.103,0.053-4.208,0.06-6.312c0.002-0.696-0.055-1.393-0.117-2.087
		c-0.235-2.635,1.922-3.291,3.6-4.284c3.378-2,6.854-3.84,10.189-5.907c4.064-2.519,8.343-4.677,12.362-7.249
		c5.502-3.521,11.25-6.618,16.782-10.087c5.251-3.293,10.669-6.32,16.023-9.448c2.076-1.213,4.211-2.327,6.254-3.591
		c0.976-0.605,1.872-0.268,2.537,0.2c2.893,2.03,6.093,3.516,9.089,5.35c2.81,1.721,5.684,3.331,8.561,4.919
		c4.208,2.325,8.141,5.116,12.489,7.207c1.943,0.934,3.684,2.286,5.548,3.394c2.172,1.29,4.269,2.694,6.579,3.769
		c1.223,0.568,2.256,1.585,3.479,2.236c3.877,2.065,7.495,4.573,11.349,6.672c2.812,1.532,5.496,3.274,8.297,4.82
		c0.498,0.275,0.829,0.538,0.8,1.162c-0.021,0.472,0.104,0.95,0.105,1.425c0.011,3.68,0.006,7.359,0.006,11.039
		C487.65,568.603,487.673,568.603,487.696,568.603z M369.681,604.675c-0.473,0.787-0.064,1.591-0.042,2.386
		c0.096,3.302,0.15,6.602,0.16,9.905c0.021,7.234,0.125,14.468,0.227,21.701c0.074,5.231-0.176,10.468,0.224,15.696
		c0.05,0.662,0.061,1.329-0.155,2.011c-0.54,1.706,0.167,3.188,2.273,3.138c3.818-0.091,7.646-0.167,11.458,0.004
		c6.477,0.291,12.958,0.24,19.436,0.392c7.527,0.177,15.062,0.058,22.593,0.021c4.65-0.022,9.301-0.177,13.95-0.192
		c9.234-0.032,18.468-0.012,27.701-0.007c0.475,0,0.942,0.026,1.423,0.11c1.782,0.313,2.283-0.246,2.626-2.038
		c0.197-1.032-0.047-1.966-0.059-2.944c-0.072-5.746-0.192-11.492-0.227-17.238c-0.038-6.671-0.118-13.341-0.216-20.012
		c-0.171-11.669,0.024-23.342-0.242-35.014c-0.176-7.674-0.037-15.356-0.035-23.034c0-1.27-0.591-1.9-1.843-1.664
		c-1.121,0.211-2.224,0.101-3.333,0.107c-26.233,0.156-52.468-0.252-78.702,0.216c-5.264,0.094-10.536-0.214-15.804-0.357
		c-1.736-0.047-1.729-0.077-1.734,1.679c-0.013,4.514-0.015,9.028-0.066,13.541c-0.01,0.847,0.237,1.656,0.23,2.48
		c-0.01,1.263-0.207,2.525-0.201,3.787c0.009,1.618,0.203,3.235,0.207,4.854c0.011,4.262-0.084,8.524,0.159,12.782
		c-0.237,0.079-0.333,0.219-0.2,0.459c0.019,0.493,0.038,0.988,0.057,1.482C369.382,600.847,369.192,602.769,369.681,604.675z"/>
	<path fill-rule="evenodd" clip-rule="evenodd" fill="#4A747A" d="M521.498,557.058c-0.217,0.439-0.409,0.878-0.645,1.292
		c-1.603,2.819-3.258,5.609-4.799,8.461c-0.525,0.974-1.033,0.936-1.828,0.445c-1.484-0.916-2.964-1.847-4.501-2.667
		c-3.86-2.057-7.54-4.429-11.312-6.633c-2.244-1.312-4.465-2.75-6.741-4.003c-3.489-1.921-6.849-4.067-10.394-5.887
		c-2.011-1.032-3.862-2.334-5.805-3.479c-5.219-3.074-10.536-5.98-15.727-9.1c-4.515-2.714-9.044-5.402-13.607-8.031
		c-5.155-2.97-10.244-6.051-15.452-8.935c-2.935-1.624-5.862-3.29-8.688-5.093c-1.38-0.88-2.761-1.667-4.028-0.668
		c-1.036,0.816-2.151,1.421-3.248,2.072c-3.573,2.119-7.252,4.063-10.78,6.253c-4.885,3.032-9.897,5.844-14.818,8.813
		c-4.964,2.995-9.933,5.982-14.921,8.936c-4.731,2.801-9.486,5.564-14.232,8.338c-5.122,2.994-10.232,6.014-15.377,8.971
		c-5.741,3.3-11.443,6.667-17.158,10.013c-1.594,0.933-1.542,0.921-2.463-0.741c-1.652-2.98-3.338-5.942-5.073-8.875
		c-0.406-0.687-0.325-0.998,0.332-1.379c3.417-1.986,6.824-3.99,10.219-6.015c2.075-1.238,4.099-2.563,6.186-3.78
		c2.116-1.234,4.333-2.303,6.411-3.595c2.321-1.443,4.691-2.805,6.991-4.29c3.022-1.951,6.253-3.574,9.365-5.389
		c2.555-1.49,4.997-3.19,7.616-4.552c3.351-1.743,6.53-3.764,9.757-5.704c6.203-3.731,12.47-7.349,18.715-11.007
		c3.817-2.236,7.628-4.484,11.434-6.742c2.695-1.599,5.36-3.239,8.155-4.674c1.172-0.602,2.282-1.404,3.439-2.083
		c0.622-0.366,1.216-0.517,1.964-0.076c5.246,3.094,10.534,6.116,15.785,9.199c4.133,2.426,8.214,4.939,12.352,7.357
		c4.64,2.71,9.331,5.333,13.974,8.039c3.066,1.788,6.07,3.682,9.131,5.48c3.468,2.037,6.979,3.999,10.447,6.032
		c3.514,2.06,6.988,4.185,10.499,6.25c3.588,2.11,7.214,4.154,10.794,6.278c2.847,1.689,5.576,3.587,8.488,5.149
		c3.075,1.648,5.948,3.608,8.951,5.362C521.164,556.555,521.499,556.667,521.498,557.058z"/>
	<path fill-rule="evenodd" clip-rule="evenodd" fill="#030406" d="M369.688,596.983c-0.243-4.258-0.148-8.521-0.159-12.782
		c-0.004-1.618-0.198-3.235-0.207-4.854c-0.006-1.262,0.19-2.524,0.201-3.787c0.007-0.825-0.24-1.633-0.23-2.48
		c0.051-4.513,0.053-9.027,0.066-13.541c0.005-1.756-0.002-1.726,1.734-1.679c5.268,0.144,10.54,0.452,15.804,0.357
		c26.234-0.469,52.468-0.061,78.702-0.216c1.109-0.006,2.212,0.104,3.333-0.107c1.252-0.236,1.843,0.395,1.843,1.664
		c-0.002,7.678-0.141,15.36,0.035,23.034c0.267,11.672,0.071,23.345,0.242,35.014c0.098,6.671,0.178,13.341,0.216,20.012
		c0.034,5.746,0.154,11.492,0.227,17.238c0.012,0.979,0.256,1.912,0.059,2.944c-0.343,1.792-0.844,2.352-2.626,2.038
		c-0.48-0.084-0.948-0.11-1.423-0.11c-9.233-0.005-18.467-0.025-27.701,0.007c-4.649,0.016-9.3,0.17-13.95,0.192
		c-7.531,0.037-15.065,0.156-22.593-0.021c-6.478-0.151-12.958-0.101-19.436-0.392c-3.812-0.171-7.64-0.095-11.458-0.004
		c-2.106,0.051-2.813-1.432-2.273-3.138c0.216-0.682,0.206-1.349,0.155-2.011c-0.4-5.229-0.15-10.465-0.224-15.696
		c-0.102-7.233-0.206-14.467-0.227-21.701c-0.01-3.304-0.064-6.604-0.16-9.905c-0.023-0.795-0.432-1.599,0.042-2.386
		c-0.045-1.917-0.091-3.834-0.137-5.75c-0.019-0.494-0.038-0.989-0.057-1.482C369.609,597.313,369.871,597.246,369.688,596.983z
		 M468.05,602.954c-0.004,0-0.009,0-0.013,0c0-1.225,0-2.45,0-3.675c0.001-12.35-0.009-24.699,0.029-37.048
		c0.002-0.766-0.445-0.917-0.891-0.927c-3.016-0.061-6.033-0.063-9.051-0.07c-4.688-0.01-9.378,0.017-14.066-0.02
		c-3.351-0.026-6.71-0.306-10.049-0.142c-2.469,0.121-4.927-0.086-7.4,0.104c-3.801,0.292-7.62-0.163-11.445,0.005
		c-4.491,0.196-8.997,0.03-13.497,0.031c-5.301,0.001-10.604-0.071-15.902,0.047c-3.867,0.086-7.723-0.387-11.592-0.049
		c-1.524,0.133-1.618,0.068-1.646,1.67c-0.034,1.879-0.007,3.761-0.006,5.641c0,3.295,0.068,6.593-0.017,9.886
		c-0.135,5.258,0.23,10.505,0.229,15.762c-0.001,6.766-0.07,13.537,0.252,20.302c0.101,2.112,0.06,4.234,0.007,6.35
		c-0.128,5.101,0.23,10.197,0.051,15.3c-0.065,1.845,0.173,3.698,0.188,5.549c0.038,4.54,0.047,9.08,0.021,13.619
		c-0.006,0.94,0.3,1.324,1.248,1.227c2.431-0.248,4.864-0.038,7.297-0.013c3.562,0.037,7.129-0.09,10.686,0.051
		c1.906,0.076,3.823,0.134,5.722,0.153c8.245,0.083,16.492-0.021,24.738-0.015c4.992,0.004,9.981,0.147,14.975-0.121
		c2.687-0.145,5.387-0.048,8.081-0.057c6.878-0.022,13.756-0.024,20.633-0.077c1.56-0.012,1.647-0.188,1.653-1.755
		c0.015-4.006-0.183-8.01-0.205-12.012C468.004,629.431,468.05,616.192,468.05,602.954z"/>
	<path fill-rule="evenodd" clip-rule="evenodd" fill="#4A747A" d="M369.544,598.925c0.045,1.916,0.091,3.833,0.137,5.75
		C369.192,602.769,369.382,600.847,369.544,598.925z"/>
	<path fill-rule="evenodd" clip-rule="evenodd" fill="#4A747A" d="M369.688,596.983c0.184,0.263-0.079,0.33-0.2,0.459
		C369.354,597.202,369.451,597.062,369.688,596.983z"/>
	<path fill-rule="evenodd" clip-rule="evenodd" fill="#FAFAFA" d="M468.05,602.954c0,13.238-0.046,26.477,0.028,39.715
		c0.022,4.002,0.22,8.006,0.205,12.012c-0.006,1.567-0.094,1.743-1.653,1.755c-6.877,0.053-13.755,0.055-20.633,0.077
		c-2.694,0.009-5.395-0.088-8.081,0.057c-4.993,0.269-9.982,0.125-14.975,0.121c-8.246-0.007-16.493,0.098-24.738,0.015
		c-1.899-0.02-3.816-0.077-5.722-0.153c-3.557-0.141-7.124-0.014-10.686-0.051c-2.433-0.025-4.866-0.235-7.297,0.013
		c-0.948,0.098-1.254-0.286-1.248-1.227c0.027-4.539,0.018-9.079-0.021-13.619c-0.016-1.851-0.253-3.704-0.188-5.549
		c0.18-5.103-0.179-10.199-0.051-15.3c0.053-2.115,0.094-4.237-0.007-6.35c-0.322-6.765-0.254-13.536-0.252-20.302
		c0.001-5.257-0.363-10.504-0.229-15.762c0.084-3.293,0.017-6.59,0.017-9.886c0-1.88-0.028-3.762,0.006-5.641
		c0.029-1.602,0.123-1.537,1.646-1.67c3.869-0.338,7.726,0.135,11.592,0.049c5.298-0.118,10.601-0.046,15.902-0.047
		c4.5-0.001,9.006,0.166,13.497-0.031c3.826-0.167,7.645,0.287,11.445-0.005c2.474-0.19,4.932,0.017,7.4-0.104
		c3.339-0.164,6.698,0.116,10.049,0.142c4.688,0.037,9.378,0.01,14.066,0.02c3.018,0.007,6.035,0.009,9.051,0.07
		c0.445,0.009,0.893,0.161,0.891,0.927c-0.038,12.349-0.028,24.699-0.029,37.048c0,1.225,0,2.45,0,3.675
		C468.041,602.954,468.046,602.954,468.05,602.954z M398.566,611.574c-6.078,0-12.156,0.021-18.234-0.022
		c-0.929-0.007-1.173,0.217-1.17,1.159c0.035,12.076,0.035,24.153,0,36.229c-0.003,0.935,0.22,1.171,1.158,1.168
		c12.196-0.034,24.393-0.032,36.589-0.004c0.832,0.002,1.05-0.182,1.048-1.034c-0.031-12.156-0.03-24.312-0.001-36.469
		c0.002-0.83-0.182-1.055-1.035-1.049C410.803,611.594,404.684,611.575,398.566,611.574z M424.066,585.824
		c0,6.155,0.021,12.31-0.021,18.465c-0.006,0.909,0.182,1.185,1.146,1.182c11.919-0.038,23.839-0.038,35.758-0.002
		c0.941,0.003,1.171-0.226,1.168-1.16c-0.035-12.16-0.055-24.319,0.017-36.478c0.007-1.275-0.551-1.5-1.503-1.612
		c-0.197-0.023-0.399-0.003-0.6-0.003c-11.599,0-23.199,0.01-34.798-0.02c-0.899-0.002-1.204,0.169-1.195,1.149
		C424.088,573.504,424.063,579.664,424.066,585.824z M462.054,630.911c0-6.037-0.028-12.074,0.028-18.111
		c0.01-1.031-0.291-1.21-1.252-1.207c-11.875,0.035-23.749,0.032-35.624,0.002c-0.859-0.002-1.128,0.153-1.125,1.084
		c0.043,12.114,0.046,24.229,0.02,36.344c-0.002,0.867,0.249,1.026,1.062,1.025c11.954-0.022,23.908-0.019,35.863,0.016
		c0.833,0.002,1.053-0.193,1.048-1.042C462.032,642.985,462.051,636.948,462.054,630.911z M417.935,585.959
		c0-6.117-0.02-12.233,0.019-18.35c0.006-1.066-0.257-1.429-1.409-1.424c-12.073,0.047-24.147,0.041-36.22,0.005
		c-0.954-0.003-1.164,0.254-1.162,1.176c0.032,12.313,0.033,24.626,0,36.94c-0.002,0.938,0.235,1.164,1.167,1.161
		c12.193-0.034,24.387-0.032,36.58-0.003c0.833,0.002,1.053-0.187,1.047-1.035C417.917,598.273,417.935,592.116,417.935,585.959z"/>
	<path fill-rule="evenodd" clip-rule="evenodd" fill="#010101" d="M398.566,611.574c6.118,0.001,12.237,0.02,18.354-0.021
		c0.853-0.006,1.037,0.219,1.035,1.049c-0.029,12.156-0.03,24.312,0.001,36.469c0.002,0.853-0.216,1.036-1.048,1.034
		c-12.196-0.028-24.393-0.03-36.589,0.004c-0.938,0.003-1.161-0.233-1.158-1.168c0.035-12.076,0.034-24.153,0-36.229
		c-0.002-0.942,0.242-1.166,1.17-1.159C386.41,611.596,392.488,611.574,398.566,611.574z M408.424,635.981
		c0.124,1.647,1.262,2.604,2.968,2.49c1.692-0.111,3.016-1.506,2.938-3.094c-0.065-1.329-1.765-2.907-3.023-2.808
		C409.676,632.699,408.299,634.329,408.424,635.981z M406.24,635.823c0.073-1.971-0.895-3.067-2.845-3.226
		c-1.032-0.084-2.686,1.879-2.819,3.348c-0.069,0.767,1.49,2.373,2.318,2.389C405.073,638.375,406.176,637.547,406.24,635.823z"/>
	<path fill-rule="evenodd" clip-rule="evenodd" fill="#010101" d="M424.065,585.824c-0.002-6.16,0.022-12.32-0.027-18.479
		c-0.009-0.979,0.296-1.151,1.195-1.149c11.599,0.029,23.199,0.02,34.798,0.02c0.2,0,0.402-0.02,0.6,0.003
		c0.952,0.111,1.51,0.336,1.503,1.612c-0.071,12.159-0.052,24.318-0.017,36.478c0.003,0.935-0.227,1.163-1.168,1.16
		c-11.919-0.036-23.839-0.036-35.758,0.002c-0.965,0.003-1.152-0.272-1.146-1.182C424.087,598.134,424.066,591.979,424.065,585.824z
		 M452.829,598.77c0.127,1.661,1.233,2.602,2.951,2.507c1.706-0.093,3.103-1.617,2.938-3.207c-0.136-1.315-1.776-2.783-3.011-2.693
		C454.09,595.494,452.703,597.128,452.829,598.77z M450.639,598.56c0.098-1.879-0.978-3.038-2.87-3.162
		c-1.025-0.067-2.71,1.961-2.802,3.372c-0.046,0.708,1.466,2.362,2.232,2.34c1.111-0.033,2.231-0.207,3.176-0.825
		C451.035,599.853,450.351,599.068,450.639,598.56z"/>
	<path fill-rule="evenodd" clip-rule="evenodd" fill="#010101" d="M462.053,630.911c-0.002,6.037-0.021,12.074,0.021,18.11
		c0.005,0.849-0.215,1.044-1.048,1.042c-11.955-0.034-23.909-0.038-35.863-0.016c-0.812,0.001-1.063-0.158-1.062-1.025
		c0.026-12.115,0.023-24.229-0.02-36.344c-0.003-0.931,0.266-1.086,1.125-1.084c11.875,0.03,23.749,0.033,35.624-0.002
		c0.961-0.003,1.262,0.176,1.252,1.207C462.025,618.837,462.054,624.874,462.053,630.911z M435.066,618.692
		c0.134,1.663,1.241,2.6,2.956,2.5c1.721-0.102,3.091-1.598,2.934-3.205c-0.127-1.299-1.782-2.781-3.007-2.691
		C436.323,615.415,434.935,617.052,435.066,618.692z M432.878,618.583c0.081-2.01-1.018-3.228-2.931-3.247
		c-1.108-0.012-2.724,2.013-2.729,3.42c-0.003,0.736,1.515,2.265,2.28,2.295C431.614,621.136,432.81,620.263,432.878,618.583z"/>
	<path fill-rule="evenodd" clip-rule="evenodd" fill="#010101" d="M417.935,585.959c0,6.157-0.019,12.314,0.021,18.47
		c0.006,0.849-0.214,1.037-1.047,1.035c-12.193-0.029-24.387-0.031-36.58,0.003c-0.933,0.003-1.17-0.224-1.167-1.161
		c0.033-12.313,0.032-24.626,0-36.94c-0.002-0.922,0.208-1.179,1.162-1.176c12.073,0.036,24.147,0.042,36.22-0.005
		c1.152-0.004,1.416,0.358,1.409,1.424C417.915,573.726,417.935,579.843,417.935,585.959z M396.975,579.473
		c-0.206-1.315-0.206-3.128-1.769-4.412c-0.312-0.256-0.416-0.384-0.852-0.173c-1.944,0.942-3.928,1.805-5.899,2.69
		c-0.557,0.25-0.84,0.618-0.84,1.276c0,2.034,0.6,3.754,2.116,5.212c2.063,1.984,4.819,1.142,6.431-0.858
		C396.93,582.256,396.904,581.065,396.975,579.473z M408.43,580.146c0.031-1.08-0.238-1.506-1.066-1.832
		c-1.812-0.714-3.54-1.644-5.299-2.492c-0.786-0.378-1.384-0.432-1.97,0.462c-0.684,1.044-0.808,2.127-0.679,3.277
		c0.317,2.819,1.299,5.111,4.393,5.711c1.381,0.268,3.557-0.616,3.915-1.836C408.066,582.269,408.242,581.052,408.43,580.146z"/>
	<path fill-rule="evenodd" clip-rule="evenodd" fill="#FAFAFA" d="M408.424,635.981c-0.125-1.652,1.252-3.282,2.882-3.411
		c1.259-0.1,2.958,1.479,3.023,2.808c0.078,1.588-1.246,2.982-2.938,3.094C409.686,638.585,408.548,637.629,408.424,635.981z
		 M409.965,635.135c-0.145,0.995,0.196,1.829,1.203,1.929c0.63,0.063,0.816-0.721,0.852-1.322c0.056-0.957-0.457-1.623-1.338-1.75
		C409.944,633.885,409.832,634.521,409.965,635.135z"/>
	<path fill-rule="evenodd" clip-rule="evenodd" fill="#FAFAFA" d="M406.24,635.823c-0.064,1.724-1.167,2.552-3.346,2.511
		c-0.829-0.016-2.388-1.622-2.318-2.389c0.134-1.469,1.787-3.432,2.819-3.348C405.346,632.756,406.313,633.853,406.24,635.823z
		 M402.586,635.321c0.311,0.481-0.039,1.425,0.904,1.626c0.741,0.157,0.887-0.612,1.096-1.031c0.26-0.521-0.536-1.903-0.975-1.937
		C402.692,633.911,402.859,634.726,402.586,635.321z"/>
	<path fill-rule="evenodd" clip-rule="evenodd" fill="#FAFAFA" d="M452.829,598.77c-0.126-1.642,1.261-3.276,2.878-3.394
		c1.234-0.09,2.875,1.378,3.011,2.693c0.165,1.59-1.231,3.114-2.938,3.207C454.062,601.371,452.956,600.431,452.829,598.77z
		 M454.366,597.985c-0.163,0.99,0.253,1.746,1.153,1.881c0.689,0.103,0.859-0.698,0.898-1.277c0.064-0.965-0.67-1.882-1.401-1.812
		C454.205,596.853,454.293,597.448,454.366,597.985z"/>
	<path fill-rule="evenodd" clip-rule="evenodd" fill="#FAFAFA" d="M450.639,598.56c-0.288,0.509,0.396,1.293-0.264,1.725
		c-0.944,0.618-2.064,0.792-3.176,0.825c-0.767,0.022-2.278-1.632-2.232-2.34c0.092-1.411,1.776-3.439,2.802-3.372
		C449.661,595.521,450.736,596.681,450.639,598.56z M447.886,596.763c-0.831-0.023-0.824,0.822-0.82,1.276
		c0.005,0.613-0.113,1.534,0.846,1.706c0.738,0.132,0.902-0.622,1.078-1.051C449.233,598.1,448.438,596.805,447.886,596.763z"/>
	<path fill-rule="evenodd" clip-rule="evenodd" fill="#FAFAFA" d="M435.066,618.692c-0.132-1.641,1.257-3.277,2.883-3.396
		c1.225-0.09,2.88,1.393,3.007,2.691c0.157,1.607-1.213,3.104-2.934,3.205C436.308,621.292,435.2,620.355,435.066,618.692z
		 M436.611,617.918c-0.184,0.937,0.22,1.729,1.114,1.862c0.729,0.108,0.889-0.699,0.923-1.35c0.053-0.974-0.476-1.611-1.361-1.715
		C436.522,616.627,436.497,617.3,436.611,617.918z"/>
	<path fill-rule="evenodd" clip-rule="evenodd" fill="#FAFAFA" d="M432.878,618.583c-0.068,1.68-1.264,2.553-3.379,2.468
		c-0.766-0.03-2.283-1.559-2.28-2.295c0.005-1.407,1.62-3.432,2.729-3.42C431.86,615.355,432.959,616.573,432.878,618.583z
		 M429.249,617.978c-0.073,0.669,0.443,1.671,0.899,1.705c0.75,0.056,0.895-0.646,1.087-1.068c0.253-0.553-0.564-1.896-1.017-1.919
		C429.298,616.648,429.52,617.493,429.249,617.978z"/>
	<path fill-rule="evenodd" clip-rule="evenodd" fill="#FAFAFA" d="M396.975,579.473c-0.071,1.593-0.045,2.784-0.813,3.736
		c-1.612,2-4.368,2.842-6.431,0.858c-1.516-1.458-2.116-3.178-2.116-5.212c0-0.658,0.283-1.026,0.84-1.276
		c1.972-0.886,3.955-1.749,5.899-2.69c0.436-0.211,0.54-0.083,0.852,0.173C396.769,576.345,396.769,578.157,396.975,579.473z
		 M392.875,578.896c0-0.199,0.006-0.397-0.001-0.596c-0.019-0.481,0.248-1.119-0.529-1.237c-0.579-0.088-1.199,0.078-1.477,0.588
		c-0.571,1.048-0.563,2.196-0.113,3.29c0.168,0.408,0.444,0.817,1.082,0.735c0.652-0.084,0.726-0.6,0.837-1.01
		C392.828,580.101,392.817,579.49,392.875,578.896z"/>
	<path fill-rule="evenodd" clip-rule="evenodd" fill="#FAFAFA" d="M408.43,580.146c-0.188,0.906-0.364,2.123-0.706,3.291
		c-0.358,1.22-2.534,2.104-3.915,1.836c-3.094-0.6-4.076-2.892-4.393-5.711c-0.129-1.15-0.005-2.233,0.679-3.277
		c0.586-0.894,1.184-0.841,1.97-0.462c1.759,0.848,3.487,1.778,5.299,2.492C408.192,578.64,408.461,579.066,408.43,580.146z
		 M402.279,579.51c0,0.297,0.01,0.535-0.002,0.771c-0.038,0.76,0.142,1.301,1.058,1.361c0.995,0.065,1.234-0.566,1.283-1.323
		c0.054-0.821-0.034-1.642-0.414-2.402c-0.217-0.433-0.548-0.615-1.042-0.619c-0.544-0.004-0.604,0.438-0.772,0.757
		C402.139,578.53,402.342,579.064,402.279,579.51z"/>
	<path fill-rule="evenodd" clip-rule="evenodd" fill="#030406" d="M409.965,635.135c-0.133-0.613-0.021-1.25,0.716-1.144
		c0.882,0.127,1.395,0.793,1.338,1.75c-0.035,0.602-0.221,1.386-0.852,1.322C410.161,636.964,409.82,636.13,409.965,635.135z"/>
	<path fill-rule="evenodd" clip-rule="evenodd" fill="#030406" d="M402.586,635.321c0.273-0.596,0.106-1.41,1.025-1.342
		c0.439,0.033,1.235,1.416,0.975,1.937c-0.209,0.419-0.355,1.188-1.096,1.031C402.547,636.746,402.896,635.803,402.586,635.321z"/>
	<path fill-rule="evenodd" clip-rule="evenodd" fill="#030406" d="M454.366,597.985c-0.073-0.537-0.161-1.133,0.65-1.209
		c0.731-0.069,1.466,0.848,1.401,1.812c-0.039,0.579-0.209,1.38-0.898,1.277C454.619,599.731,454.203,598.976,454.366,597.985z"/>
	<path fill-rule="evenodd" clip-rule="evenodd" fill="#030406" d="M447.886,596.763c0.553,0.042,1.348,1.337,1.104,1.932
		c-0.176,0.429-0.34,1.183-1.078,1.051c-0.959-0.172-0.841-1.093-0.846-1.706C447.062,597.585,447.055,596.739,447.886,596.763z"/>
	<path fill-rule="evenodd" clip-rule="evenodd" fill="#030406" d="M436.611,617.918c-0.114-0.618-0.089-1.291,0.676-1.202
		c0.886,0.104,1.414,0.741,1.361,1.715c-0.034,0.65-0.194,1.458-0.923,1.35C436.831,619.646,436.428,618.854,436.611,617.918z"/>
	<path fill-rule="evenodd" clip-rule="evenodd" fill="#030406" d="M429.249,617.978c0.271-0.484,0.049-1.329,0.97-1.282
		c0.452,0.022,1.27,1.366,1.017,1.919c-0.192,0.422-0.337,1.124-1.087,1.068C429.692,619.648,429.176,618.646,429.249,617.978z"/>
	<path fill-rule="evenodd" clip-rule="evenodd" fill="#030406" d="M392.875,578.897c-0.059,0.593-0.048,1.204-0.202,1.77
		c-0.111,0.41-0.186,0.926-0.837,1.01c-0.638,0.083-0.914-0.327-1.082-0.735c-0.45-1.094-0.458-2.242,0.113-3.29
		c0.278-0.511,0.898-0.677,1.477-0.588c0.776,0.118,0.51,0.756,0.529,1.237C392.881,578.499,392.875,578.698,392.875,578.897z"/>
	<path fill-rule="evenodd" clip-rule="evenodd" fill="#030406" d="M402.279,579.51c0.063-0.445-0.14-0.98,0.111-1.455
		c0.168-0.318,0.228-0.761,0.772-0.757c0.493,0.004,0.825,0.186,1.042,0.619c0.38,0.76,0.467,1.581,0.414,2.402
		c-0.049,0.757-0.288,1.388-1.283,1.323c-0.916-0.06-1.096-0.601-1.058-1.361C402.289,580.044,402.279,579.807,402.279,579.51z"/>
</g>
</svg>
