<?xml version="1.0" encoding="utf-8"?>
<!-- Generator: Adobe Illustrator 15.1.0, SVG Export Plug-In  -->
<!DOCTYPE svg PUBLIC "-//W3C//DTD SVG 1.1//EN" "http://www.w3.org/Graphics/SVG/1.1/DTD/svg11.dtd" [
	<!ENTITY ns_flows "http://ns.adobe.com/Flows/1.0/">
]>
<svg version="1.1"
	 xmlns="http://www.w3.org/2000/svg" xmlns:xlink="http://www.w3.org/1999/xlink" xmlns:a="http://ns.adobe.com/AdobeSVGViewerExtensions/3.0/"
	 x="0px" y="0px" width="213px" height="193px" viewBox="-0.722 0.942 213 193"
	 overflow="visible" enable-background="new -0.722 0.942 213 193" xml:space="preserve">
<defs>
</defs>
<g>
	<defs>
		<rect id="SVGID_1_" width="210.96" height="193.949"/>
	</defs>
	<clipPath id="SVGID_2_">
		<use xlink:href="#SVGID_1_"  overflow="visible"/>
	</clipPath>
	<path clip-path="url(#SVGID_2_)" fill="#FFFFFF" d="M175.665,64.778c1.391,0.79,2.684,1.488,3.943,2.249
		c6.479,3.91,13.057,7.659,19.445,11.724c1.201,0.764,1.875,0.572,2.609-0.689c1.57-2.702,3.125-5.416,4.717-8.105
		c1.404-2.375,2.604-4.881,4.381-7.024c0.258-0.309,0.318-0.584-0.135-0.86c-1.678-1.022-3.398-1.977-5.094-2.961
		c-2.891-1.679-5.709-3.473-8.668-5.047c-4.26-2.265-8.316-4.901-12.479-7.349c-7.986-4.695-15.982-9.376-23.984-14.047
		c-6.168-3.602-12.35-7.177-18.523-10.765c-5.619-3.266-11.244-6.519-16.852-9.803c-3.76-2.202-7.52-4.406-11.23-6.688
		c-2.764-1.701-5.758-3.023-8.297-5.1c-0.363-0.296-0.891-0.465-1.432-0.096c-1.312,0.894-2.759,1.556-4.133,2.338
		c-6.006,3.418-11.96,6.927-17.927,10.413C75.215,16.935,68.42,20.9,61.644,24.893c-6.647,3.918-13.262,7.895-19.914,11.807
		c-5.966,3.509-12.015,6.878-17.933,10.465C16.149,51.8,8.285,56.079,0.799,60.987c-0.819,0.537-0.913,1.038-0.7,1.85
		c0.249,0.946,1.123,1.452,1.537,2.23c2.334,4.387,5.033,8.577,7.094,13.11c0.133,0.291,0.206,0.684,0.638,0.505
		c0.644-0.266,1.336-0.33,1.986-0.605c1.56-0.664,2.864-1.731,4.323-2.552c2.954-1.662,5.815-3.481,8.792-5.113
		c3.135-1.719,6.155-3.648,9.237-5.466c1.098-0.647,1.307-0.531,1.315,0.781c0.036,5.284,0.068,10.567,0.205,15.853
		c0.188,7.244-0.045,14.495,0.271,21.74c0.094,2.18,0.006,4.363,0.015,6.547c0.041,9.795,0.02,19.592,0.16,29.387
		c0.063,4.348,0.044,8.693,0.057,13.041c0.006,1.711,0.328,3.398,0.223,5.111c-0.102,1.623-0.159,3.248-0.181,4.873
		c-0.022,1.873,0.226,3.734,0.202,5.613c-0.049,4.062,0.011,8.123,0.023,12.186c0.006,2.395,0.039,4.787,0.176,7.182
		c0.052,0.9,0.327,1.914-0.267,2.83c-0.391,0.602-0.958,1.314-0.336,2.039c0.669,0.781,1.283,1.691,2.579,1.574
		c1.562-0.143,3.154-0.354,4.697-0.189c2.909,0.311,5.811,0.02,8.713,0.143c2.955,0.127,5.919,0.021,8.879,0.029
		c5.212,0.018,10.425,0.035,15.636,0.064c2.63,0.014,5.271,0.209,7.886,0.021c1.671-0.119,3.286,0.145,4.927,0.148
		c3.707,0.012,7.415,0.07,11.12-0.018c3.101-0.072,6.209-0.057,9.303-0.084c2.328-0.021,4.697-0.037,7.047,0.062
		c2.986,0.129,5.988-0.121,8.98-0.062c2.541,0.051,5.062,0.059,7.607-0.08c3.598-0.197,7.215-0.062,10.822-0.049
		c2.658,0.012,5.318,0.006,7.979,0.021c7.996,0.045,15.998-0.299,23.986,0.227c1.09,0.07,1.35-0.258,1.297-1.299
		c-0.115-2.311-0.117-4.629-0.15-6.943c-0.051-3.578-0.021-7.16-0.143-10.736c-0.273-8.018-0.066-16.039-0.283-24.059
		c-0.256-9.545-0.078-19.1-0.262-28.648c-0.17-8.812-0.045-17.633-0.25-26.451c-0.154-6.76-0.018-13.527-0.156-20.289
		C175.709,71.977,175.729,68.452,175.665,64.778z"/>
	<path clip-path="url(#SVGID_2_)" fill="#060709" d="M175.665,64.778c0.064,3.673,0.045,7.199,0.117,10.729
		c0.141,6.761,0.002,13.528,0.158,20.289c0.203,8.817,0.078,17.635,0.25,26.452c0.184,9.549,0.004,19.104,0.262,28.646
		c0.217,8.021,0.01,16.041,0.283,24.059c0.121,3.576,0.092,7.158,0.143,10.736c0.031,2.314,0.033,4.635,0.15,6.945
		c0.053,1.041-0.207,1.367-1.299,1.297c-7.988-0.523-15.988-0.182-23.986-0.227c-2.658-0.016-5.318-0.01-7.979-0.021
		c-3.607-0.012-7.225-0.146-10.82,0.049c-2.545,0.139-5.068,0.133-7.607,0.08c-2.992-0.059-5.994,0.193-8.98,0.064
		c-2.352-0.104-4.721-0.086-7.047-0.064c-3.095,0.029-6.203,0.012-9.304,0.084c-3.705,0.09-7.413,0.029-11.12,0.02
		c-1.641-0.006-3.255-0.27-4.927-0.15c-2.615,0.188-5.256-0.008-7.886-0.02c-5.211-0.029-10.423-0.049-15.635-0.064
		c-2.96-0.008-5.925,0.098-8.88-0.031c-2.902-0.123-5.804,0.168-8.713-0.141c-1.543-0.164-3.136,0.047-4.696,0.188
		c-1.296,0.117-1.911-0.791-2.58-1.572c-0.622-0.727-0.055-1.439,0.336-2.039c0.594-0.916,0.318-1.932,0.267-2.832
		c-0.138-2.395-0.17-4.785-0.176-7.182c-0.012-4.061-0.072-8.123-0.023-12.184c0.023-1.879-0.226-3.742-0.201-5.615
		c0.021-1.625,0.078-3.25,0.18-4.873c0.105-1.713-0.217-3.398-0.222-5.111c-0.013-4.348,0.006-8.693-0.058-13.041
		c-0.141-9.793-0.119-19.59-0.16-29.387c-0.009-2.182,0.079-4.367-0.015-6.547c-0.314-7.244-0.082-14.496-0.271-21.739
		c-0.137-5.285-0.169-10.567-0.204-15.853c-0.01-1.312-0.219-1.429-1.316-0.782c-3.082,1.818-6.102,3.747-9.237,5.467
		c-2.976,1.632-5.837,3.45-8.792,5.112c-1.459,0.82-2.764,1.889-4.322,2.553c-0.651,0.276-1.344,0.341-1.987,0.605
		c-0.432,0.178-0.504-0.214-0.637-0.505c-2.062-4.533-4.76-8.724-7.095-13.111c-0.414-0.777-1.288-1.284-1.537-2.229
		c-0.213-0.812-0.119-1.312,0.7-1.851c7.486-4.907,15.35-9.187,22.998-13.821c5.918-3.587,11.967-6.956,17.934-10.465
		c6.65-3.912,13.266-7.888,19.914-11.807c6.775-3.994,13.57-7.958,20.362-11.926c5.967-3.486,11.921-6.994,17.927-10.413
		c1.374-0.782,2.821-1.445,4.133-2.338c0.542-0.369,1.068-0.201,1.432,0.096c2.539,2.076,5.535,3.398,8.298,5.1
		c3.711,2.282,7.471,4.487,11.23,6.688c5.605,3.284,11.23,6.537,16.85,9.802c6.176,3.588,12.357,7.165,18.525,10.766
		c8,4.671,15.996,9.353,23.982,14.047c4.162,2.447,8.221,5.084,12.479,7.349c2.959,1.575,5.777,3.369,8.668,5.046
		c1.697,0.985,3.416,1.939,5.096,2.961c0.453,0.276,0.393,0.553,0.135,0.861c-1.779,2.144-2.977,4.649-4.383,7.024
		c-1.592,2.69-3.145,5.402-4.717,8.105c-0.732,1.261-1.408,1.454-2.609,0.689c-6.389-4.063-12.967-7.813-19.445-11.725
		C178.348,66.267,177.055,65.568,175.665,64.778z M172.53,75.771h-0.07c0-3.681,0.006-7.359-0.006-11.039
		c0-0.477-0.127-0.953-0.105-1.426c0.029-0.625-0.301-0.887-0.799-1.162c-2.801-1.546-5.484-3.288-8.297-4.819
		c-3.854-2.1-7.473-4.607-11.35-6.672c-1.223-0.651-2.256-1.667-3.479-2.236c-2.311-1.075-4.408-2.479-6.58-3.769
		c-1.863-1.107-3.604-2.459-5.547-3.395c-4.35-2.091-8.281-4.881-12.49-7.207c-2.877-1.589-5.75-3.199-8.561-4.919
		c-2.996-1.834-6.195-3.32-9.088-5.35c-0.665-0.467-1.562-0.806-2.537-0.2c-2.043,1.265-4.179,2.378-6.254,3.591
		c-5.354,3.128-10.772,6.155-16.023,9.448c-5.532,3.469-11.279,6.565-16.782,10.087c-4.019,2.572-8.297,4.729-12.361,7.249
		c-3.335,2.067-6.812,3.907-10.189,5.907c-1.678,0.993-3.835,1.648-3.6,4.284c0.062,0.693,0.119,1.391,0.117,2.087
		c-0.008,2.104-0.095,4.209-0.061,6.312c0.104,6.268,0.04,12.533,0.045,18.799c0.004,5.502,0.195,11.003,0.255,16.505
		c0.081,7.363,0.109,14.727,0.172,22.088c0.052,6.15,0.122,12.303,0.18,18.453c0.032,3.412,0.052,6.824,0.08,10.236
		c0.053,6.537,0.2,13.074,0.123,19.609c-0.042,3.607,0.187,7.207,0.114,10.809c-0.015,0.773,0.171,0.918,0.92,0.918
		c6.78,0.008,13.562,0.062,20.342,0.111c3.825,0.027,7.649,0.094,11.476,0.098c11.863,0.014,23.727,0.008,35.588-0.002
		c0.715,0,1.441-0.201,2.145-0.129c4.047,0.416,8.102-0.002,12.152,0.156c3.445,0.137,6.902-0.029,10.354-0.084
		c2.1-0.033,4.201-0.154,6.301-0.158c5.834-0.012,11.672,0.123,17.504-0.004c5.227-0.113,10.451-0.207,15.678-0.158
		c1.174,0.012,1.395-0.365,1.365-1.434c-0.283-10.586,0.064-21.176-0.277-31.762c-0.088-2.693-0.012-5.389-0.027-8.08
		c-0.061-10.025-0.055-20.053-0.217-30.078c-0.17-10.383-0.154-20.77-0.207-31.155C172.512,83.446,172.53,79.608,172.53,75.771z
		 M206.331,64.225c0.002-0.391-0.334-0.503-0.592-0.653c-3.002-1.754-5.875-3.714-8.951-5.362c-2.912-1.562-5.643-3.46-8.488-5.149
		c-3.58-2.124-7.205-4.168-10.793-6.277c-3.512-2.065-6.984-4.189-10.5-6.25c-3.469-2.033-6.979-3.995-10.447-6.032
		c-3.061-1.798-6.062-3.692-9.131-5.479c-4.643-2.706-9.334-5.329-13.973-8.039c-4.139-2.417-8.219-4.932-12.354-7.357
		c-5.25-3.083-10.537-6.105-15.784-9.199c-0.748-0.44-1.343-0.29-1.964,0.076c-1.157,0.679-2.268,1.482-3.439,2.083
		c-2.795,1.435-5.46,3.075-8.155,4.674c-3.805,2.257-7.616,4.505-11.434,6.742c-6.245,3.658-12.513,7.276-18.715,11.007
		c-3.228,1.94-6.406,3.96-9.757,5.704c-2.619,1.362-5.062,3.062-7.616,4.552c-3.111,1.815-6.343,3.438-9.365,5.39
		c-2.3,1.484-4.67,2.847-6.991,4.29c-2.079,1.292-4.295,2.359-6.411,3.595c-2.087,1.217-4.109,2.542-6.186,3.78
		c-3.396,2.024-6.801,4.028-10.219,6.015c-0.657,0.382-0.738,0.693-0.332,1.379c1.734,2.932,3.421,5.896,5.072,8.875
		c0.923,1.662,0.869,1.674,2.464,0.741c5.714-3.346,11.417-6.713,17.157-10.013c5.146-2.958,10.255-5.978,15.377-8.972
		c4.746-2.773,9.501-5.537,14.232-8.338c4.988-2.954,9.957-5.94,14.921-8.936c4.92-2.97,9.933-5.781,14.818-8.813
		c3.527-2.189,7.207-4.134,10.779-6.253c1.098-0.65,2.213-1.256,3.248-2.072c1.268-0.999,2.648-0.212,4.029,0.668
		c2.824,1.804,5.752,3.47,8.688,5.094c5.207,2.884,10.297,5.965,15.451,8.935c4.564,2.629,9.094,5.317,13.607,8.031
		c5.189,3.12,10.508,6.026,15.727,9.1c1.943,1.145,3.795,2.446,5.807,3.479c3.545,1.818,6.902,3.965,10.393,5.887
		c2.277,1.253,4.498,2.691,6.742,4.003c3.77,2.204,7.451,4.576,11.311,6.633c1.537,0.82,3.018,1.751,4.502,2.667
		c0.795,0.491,1.303,0.528,1.828-0.444c1.541-2.853,3.195-5.643,4.799-8.461C205.922,65.103,206.114,64.665,206.331,64.225z"/>
	<path clip-path="url(#SVGID_2_)" fill="#53A9B1" d="M172.53,75.771c0,3.838-0.018,7.676,0.002,11.513
		c0.053,10.385,0.039,20.772,0.207,31.155c0.162,10.025,0.158,20.053,0.219,30.078c0.016,2.691-0.061,5.387,0.027,8.08
		c0.342,10.586-0.006,21.178,0.277,31.762c0.027,1.068-0.193,1.445-1.365,1.434c-5.227-0.049-10.451,0.045-15.68,0.158
		c-5.83,0.127-11.668-0.008-17.504,0.004c-2.1,0.004-4.199,0.125-6.299,0.158c-3.453,0.055-6.91,0.221-10.355,0.084
		c-4.051-0.158-8.105,0.26-12.152-0.156c-0.701-0.072-1.428,0.129-2.145,0.129c-11.862,0.01-23.725,0.016-35.587,0.002
		c-3.825-0.004-7.649-0.068-11.476-0.098c-6.781-0.049-13.562-0.104-20.342-0.111c-0.749,0-0.936-0.145-0.919-0.918
		c0.071-3.602-0.157-7.201-0.115-10.809c0.077-6.535-0.07-13.072-0.123-19.609c-0.028-3.412-0.048-6.824-0.08-10.236
		c-0.059-6.15-0.128-12.303-0.18-18.451c-0.062-7.363-0.092-14.727-0.172-22.09c-0.06-5.502-0.25-11.003-0.255-16.505
		c-0.005-6.267,0.059-12.533-0.045-18.799c-0.034-2.103,0.054-4.208,0.061-6.312c0.002-0.696-0.056-1.394-0.117-2.087
		c-0.235-2.636,1.922-3.291,3.6-4.284c3.378-2,6.854-3.84,10.189-5.907c4.063-2.519,8.343-4.677,12.362-7.249
		c5.502-3.521,11.25-6.618,16.781-10.087c5.251-3.293,10.669-6.32,16.023-9.448c2.076-1.213,4.211-2.327,6.254-3.591
		c0.976-0.605,1.872-0.268,2.537,0.2c2.892,2.03,6.093,3.516,9.089,5.35c2.809,1.722,5.684,3.331,8.561,4.919
		c4.207,2.325,8.141,5.116,12.488,7.207c1.943,0.935,3.686,2.286,5.549,3.395c2.172,1.29,4.27,2.693,6.578,3.769
		c1.225,0.568,2.256,1.585,3.48,2.236c3.877,2.064,7.494,4.573,11.348,6.672c2.812,1.532,5.496,3.273,8.297,4.82
		c0.498,0.274,0.83,0.538,0.801,1.161c-0.021,0.473,0.104,0.95,0.105,1.426c0.01,3.68,0.006,7.358,0.006,11.039L172.53,75.771z
		 M54.514,111.843c-0.473,0.787-0.063,1.59-0.042,2.385c0.097,3.303,0.15,6.604,0.16,9.906c0.021,7.234,0.125,14.467,0.228,21.701
		c0.073,5.23-0.177,10.467,0.224,15.695c0.05,0.662,0.061,1.33-0.155,2.012c-0.54,1.705,0.167,3.188,2.273,3.137
		c3.817-0.09,7.646-0.166,11.458,0.004c6.477,0.291,12.958,0.24,19.436,0.393c7.527,0.178,15.062,0.059,22.593,0.021
		c4.65-0.021,9.301-0.178,13.949-0.191c9.234-0.033,18.469-0.014,27.701-0.008c0.477,0,0.943,0.025,1.424,0.109
		c1.781,0.314,2.283-0.246,2.625-2.037c0.197-1.033-0.047-1.967-0.059-2.943c-0.072-5.746-0.191-11.492-0.227-17.238
		c-0.037-6.672-0.117-13.342-0.217-20.012c-0.17-11.67,0.025-23.344-0.242-35.015c-0.176-7.674-0.035-15.355-0.033-23.034
		c0-1.27-0.592-1.899-1.844-1.663c-1.121,0.211-2.225,0.101-3.334,0.106c-26.232,0.156-52.467-0.252-78.701,0.216
		c-5.265,0.094-10.536-0.214-15.805-0.356c-1.735-0.047-1.729-0.077-1.733,1.679c-0.014,4.514-0.016,9.028-0.066,13.541
		c-0.01,0.847,0.237,1.656,0.23,2.48c-0.011,1.263-0.207,2.524-0.201,3.786c0.009,1.618,0.203,3.235,0.207,4.854
		c0.011,4.262-0.084,8.523,0.159,12.783c-0.237,0.078-0.333,0.219-0.2,0.459c0.019,0.492,0.038,0.986,0.057,1.48
		C54.215,108.015,54.025,109.937,54.514,111.843z"/>
	<path clip-path="url(#SVGID_2_)" fill="#4C757B" d="M206.331,64.225c-0.217,0.439-0.408,0.878-0.645,1.292
		c-1.604,2.819-3.258,5.609-4.799,8.461c-0.525,0.975-1.033,0.937-1.828,0.445c-1.484-0.916-2.965-1.847-4.502-2.667
		c-3.859-2.057-7.539-4.429-11.311-6.633c-2.244-1.312-4.465-2.75-6.742-4.003c-3.488-1.921-6.848-4.067-10.393-5.887
		c-2.012-1.032-3.863-2.334-5.807-3.479c-5.219-3.074-10.535-5.979-15.727-9.1c-4.516-2.714-9.043-5.402-13.607-8.031
		c-5.154-2.97-10.244-6.051-15.451-8.935c-2.936-1.625-5.861-3.29-8.688-5.094c-1.38-0.88-2.761-1.667-4.029-0.668
		c-1.036,0.816-2.15,1.421-3.248,2.072c-3.572,2.119-7.252,4.062-10.779,6.253c-4.886,3.032-9.897,5.844-14.818,8.813
		c-4.964,2.994-9.933,5.981-14.921,8.936c-4.731,2.801-9.486,5.564-14.232,8.338c-5.122,2.994-10.231,6.014-15.377,8.971
		c-5.741,3.301-11.442,6.667-17.158,10.014c-1.594,0.933-1.542,0.921-2.463-0.741c-1.651-2.98-3.338-5.942-5.072-8.875
		c-0.406-0.688-0.325-0.998,0.332-1.379c3.417-1.986,6.823-3.99,10.219-6.016c2.075-1.237,4.099-2.562,6.186-3.779
		c2.116-1.234,4.333-2.304,6.411-3.596c2.321-1.442,4.691-2.805,6.991-4.29c3.021-1.95,6.253-3.573,9.365-5.389
		c2.555-1.49,4.997-3.189,7.615-4.552c3.352-1.743,6.53-3.764,9.758-5.704c6.202-3.731,12.47-7.349,18.715-11.007
		c3.816-2.236,7.628-4.484,11.434-6.742c2.695-1.599,5.36-3.239,8.155-4.674c1.172-0.603,2.282-1.404,3.438-2.083
		c0.622-0.366,1.217-0.518,1.965-0.076c5.245,3.094,10.534,6.116,15.784,9.199c4.135,2.426,8.215,4.938,12.354,7.356
		c4.639,2.71,9.33,5.333,13.973,8.039c3.066,1.788,6.07,3.683,9.131,5.48c3.469,2.037,6.98,3.999,10.447,6.032
		c3.514,2.06,6.988,4.185,10.5,6.25c3.588,2.109,7.213,4.153,10.793,6.277c2.848,1.689,5.576,3.587,8.488,5.149
		c3.076,1.647,5.949,3.607,8.951,5.362C205.997,63.722,206.333,63.834,206.331,64.225z"/>
	<path clip-path="url(#SVGID_2_)" fill="#060709" d="M54.521,104.151c-0.242-4.26-0.147-8.522-0.158-12.783
		c-0.004-1.618-0.198-3.235-0.207-4.854c-0.006-1.262,0.189-2.523,0.201-3.787c0.007-0.824-0.24-1.633-0.23-2.479
		c0.051-4.513,0.053-9.027,0.066-13.541c0.005-1.756-0.002-1.727,1.733-1.679c5.269,0.144,10.54,0.452,15.804,0.356
		c26.234-0.469,52.468-0.061,78.703-0.216c1.109-0.006,2.211,0.104,3.332-0.107c1.252-0.235,1.844,0.396,1.844,1.664
		c-0.002,7.679-0.141,15.36,0.035,23.034c0.268,11.671,0.07,23.345,0.242,35.013c0.098,6.672,0.178,13.342,0.215,20.014
		c0.035,5.746,0.154,11.492,0.229,17.236c0.012,0.98,0.256,1.912,0.059,2.945c-0.344,1.791-0.844,2.352-2.627,2.037
		c-0.479-0.084-0.947-0.109-1.422-0.109c-9.234-0.006-18.467-0.025-27.701,0.008c-4.648,0.016-9.301,0.17-13.951,0.191
		c-7.53,0.037-15.064,0.156-22.592-0.021c-6.478-0.15-12.958-0.102-19.436-0.393c-3.812-0.17-7.641-0.094-11.458-0.004
		c-2.106,0.051-2.813-1.432-2.273-3.137c0.216-0.684,0.206-1.35,0.155-2.012c-0.4-5.229-0.15-10.465-0.224-15.695
		c-0.103-7.234-0.206-14.467-0.228-21.701c-0.01-3.305-0.063-6.604-0.16-9.906c-0.022-0.795-0.432-1.598,0.042-2.385
		c-0.045-1.918-0.091-3.834-0.137-5.75c-0.02-0.494-0.038-0.99-0.057-1.482C54.442,104.479,54.704,104.413,54.521,104.151z
		 M152.883,110.122h-0.014c0-1.227,0-2.451,0-3.676c0.002-12.35-0.008-24.699,0.029-37.047c0.002-0.767-0.445-0.917-0.891-0.928
		c-3.016-0.061-6.033-0.062-9.051-0.069c-4.689-0.011-9.379,0.017-14.066-0.021c-3.352-0.026-6.711-0.306-10.049-0.142
		c-2.469,0.121-4.928-0.086-7.4,0.104c-3.801,0.292-7.62-0.163-11.445,0.005C95.506,68.544,91,68.378,86.5,68.379
		c-5.301,0.001-10.604-0.071-15.902,0.047c-3.866,0.086-7.723-0.387-11.592-0.049c-1.523,0.133-1.618,0.068-1.646,1.67
		c-0.034,1.879-0.008,3.761-0.007,5.641c0,3.296,0.068,6.594-0.017,9.887c-0.135,5.258,0.23,10.505,0.229,15.762
		c-0.001,6.766-0.07,13.537,0.252,20.301c0.101,2.113,0.06,4.234,0.007,6.352c-0.128,5.1,0.229,10.195,0.051,15.299
		c-0.065,1.846,0.173,3.699,0.188,5.549c0.038,4.541,0.048,9.08,0.021,13.619c-0.006,0.939,0.3,1.324,1.248,1.227
		c2.431-0.248,4.864-0.037,7.297-0.012c3.562,0.037,7.129-0.09,10.686,0.051c1.906,0.076,3.823,0.133,5.723,0.152
		c8.245,0.084,16.492-0.021,24.738-0.014c4.992,0.004,9.98,0.146,14.975-0.121c2.688-0.146,5.387-0.049,8.082-0.059
		c6.877-0.021,13.756-0.023,20.633-0.076c1.559-0.012,1.646-0.188,1.652-1.756c0.016-4.006-0.184-8.01-0.205-12.012
		C152.836,136.599,152.883,123.36,152.883,110.122z"/>
	<path clip-path="url(#SVGID_2_)" fill="#4C757B" d="M54.377,106.093c0.045,1.916,0.091,3.832,0.137,5.75
		C54.025,109.937,54.215,108.015,54.377,106.093z"/>
	<path clip-path="url(#SVGID_2_)" fill="#4C757B" d="M54.521,104.151c0.185,0.262-0.078,0.328-0.199,0.459
		C54.187,104.37,54.284,104.229,54.521,104.151z"/>
	<path clip-path="url(#SVGID_2_)" fill="#FAFAFA" d="M152.883,110.122c0,13.238-0.047,26.477,0.027,39.715
		c0.021,4.002,0.221,8.006,0.205,12.012c-0.006,1.566-0.094,1.742-1.652,1.754c-6.877,0.055-13.756,0.057-20.633,0.078
		c-2.695,0.01-5.396-0.088-8.082,0.057c-4.992,0.27-9.982,0.125-14.975,0.121c-8.246-0.008-16.493,0.098-24.738,0.016
		c-1.899-0.021-3.816-0.078-5.723-0.154c-3.557-0.141-7.123-0.014-10.686-0.051c-2.433-0.025-4.866-0.234-7.297,0.014
		c-0.948,0.098-1.254-0.287-1.248-1.227c0.027-4.539,0.018-9.08-0.021-13.619c-0.016-1.852-0.253-3.705-0.188-5.549
		c0.18-5.104-0.179-10.199-0.051-15.301c0.053-2.115,0.094-4.236-0.007-6.35c-0.322-6.766-0.255-13.537-0.252-20.303
		c0.001-5.256-0.363-10.503-0.229-15.761c0.084-3.293,0.017-6.59,0.017-9.887c0-1.88-0.027-3.762,0.007-5.641
		c0.028-1.602,0.123-1.537,1.646-1.67c3.869-0.338,7.727,0.135,11.592,0.049c5.298-0.118,10.602-0.046,15.902-0.047
		c4.5-0.001,9.006,0.166,13.497-0.031c3.826-0.167,7.644,0.287,11.445-0.005c2.475-0.189,4.932,0.018,7.4-0.104
		c3.338-0.164,6.697,0.116,10.049,0.142c4.688,0.037,9.377,0.01,14.066,0.021c3.018,0.007,6.035,0.009,9.051,0.069
		c0.445,0.01,0.893,0.161,0.891,0.928c-0.037,12.349-0.027,24.698-0.029,37.048c0,1.225,0,2.449,0,3.674L152.883,110.122z
		 M83.399,118.741c-6.078,0-12.156,0.021-18.234-0.021c-0.929-0.008-1.173,0.217-1.17,1.158c0.035,12.076,0.035,24.154,0,36.23
		c-0.003,0.934,0.22,1.17,1.158,1.168c12.195-0.035,24.393-0.033,36.589-0.006c0.832,0.004,1.05-0.182,1.048-1.033
		c-0.031-12.156-0.03-24.312-0.001-36.469c0.002-0.83-0.182-1.055-1.035-1.049C95.636,118.761,89.517,118.743,83.399,118.741z
		 M108.899,92.992c0,6.154,0.021,12.31-0.021,18.464c-0.006,0.91,0.182,1.186,1.146,1.182c11.92-0.037,23.84-0.037,35.758-0.002
		c0.941,0.004,1.172-0.225,1.168-1.16c-0.035-12.158-0.055-24.318,0.018-36.477c0.006-1.275-0.551-1.5-1.504-1.612
		c-0.197-0.022-0.398-0.003-0.6-0.003c-11.6,0-23.199,0.01-34.797-0.02c-0.9-0.002-1.205,0.169-1.195,1.148
		C108.92,80.671,108.895,86.832,108.899,92.992z M146.887,138.079c0-6.037-0.027-12.074,0.027-18.111
		c0.01-1.031-0.291-1.211-1.252-1.207c-11.875,0.035-23.748,0.031-35.623,0.002c-0.859-0.002-1.129,0.152-1.125,1.084
		c0.043,12.113,0.045,24.229,0.02,36.344c-0.002,0.867,0.248,1.025,1.062,1.025c11.953-0.021,23.908-0.02,35.863,0.016
		c0.832,0.002,1.053-0.193,1.047-1.041C146.866,150.153,146.883,144.116,146.887,138.079z M102.768,93.126
		c0-6.117-0.02-12.233,0.02-18.35c0.006-1.066-0.257-1.43-1.409-1.425c-12.073,0.048-24.146,0.041-36.22,0.006
		c-0.954-0.003-1.164,0.254-1.162,1.176c0.032,12.312,0.033,24.625,0,36.94c-0.002,0.938,0.235,1.164,1.167,1.16
		c12.193-0.033,24.387-0.031,36.58-0.002c0.833,0.002,1.053-0.188,1.047-1.035C102.75,105.44,102.768,99.284,102.768,93.126z"/>
	<path clip-path="url(#SVGID_2_)" fill="#020202" d="M83.399,118.741c6.117,0.002,12.236,0.02,18.354-0.021
		c0.854-0.006,1.037,0.219,1.035,1.049c-0.029,12.156-0.03,24.312,0.001,36.471c0.002,0.852-0.216,1.035-1.048,1.033
		c-12.196-0.027-24.394-0.029-36.589,0.004c-0.938,0.004-1.161-0.232-1.158-1.168c0.035-12.076,0.034-24.152,0-36.229
		c-0.002-0.943,0.242-1.166,1.17-1.16C71.243,118.763,77.321,118.741,83.399,118.741z M93.257,143.149
		c0.124,1.646,1.262,2.604,2.968,2.488c1.692-0.109,3.017-1.506,2.938-3.094c-0.065-1.328-1.765-2.906-3.023-2.807
		C94.509,139.866,93.132,141.497,93.257,143.149z M91.073,142.991c0.072-1.973-0.896-3.068-2.846-3.227
		c-1.031-0.084-2.686,1.879-2.818,3.348c-0.069,0.768,1.49,2.373,2.317,2.389C89.906,145.542,91.009,144.714,91.073,142.991z"/>
	<path clip-path="url(#SVGID_2_)" fill="#020202" d="M108.899,92.992c-0.004-6.16,0.021-12.32-0.027-18.479
		c-0.01-0.979,0.295-1.15,1.195-1.148c11.598,0.028,23.197,0.02,34.797,0.02c0.201,0,0.402-0.02,0.6,0.003
		c0.953,0.111,1.51,0.336,1.504,1.612c-0.072,12.159-0.053,24.319-0.018,36.477c0.004,0.936-0.227,1.164-1.168,1.16
		c-11.918-0.035-23.838-0.035-35.758,0.002c-0.965,0.004-1.152-0.271-1.146-1.182C108.92,105.302,108.899,99.146,108.899,92.992z
		 M137.663,105.937c0.127,1.662,1.232,2.604,2.951,2.508c1.705-0.094,3.102-1.617,2.938-3.207c-0.137-1.314-1.775-2.783-3.012-2.693
		C138.922,102.661,137.536,104.296,137.663,105.937z M135.471,105.728c0.1-1.879-0.977-3.039-2.869-3.162
		c-1.025-0.066-2.711,1.961-2.803,3.371c-0.045,0.709,1.467,2.363,2.232,2.342c1.111-0.033,2.23-0.207,3.176-0.826
		C135.868,107.021,135.184,106.235,135.471,105.728z"/>
	<path clip-path="url(#SVGID_2_)" fill="#020202" d="M146.885,138.079c-0.002,6.037-0.02,12.074,0.021,18.109
		c0.006,0.85-0.215,1.045-1.047,1.041c-11.955-0.033-23.91-0.037-35.863-0.016c-0.812,0.002-1.064-0.158-1.062-1.025
		c0.025-12.113,0.023-24.229-0.02-36.344c-0.004-0.93,0.266-1.086,1.125-1.084c11.875,0.031,23.748,0.033,35.623-0.002
		c0.961-0.002,1.262,0.176,1.252,1.207C146.858,126.005,146.887,132.042,146.885,138.079z M119.899,125.86
		c0.135,1.662,1.24,2.6,2.957,2.5c1.721-0.104,3.09-1.6,2.934-3.205c-0.127-1.301-1.783-2.781-3.008-2.691
		C121.157,122.583,119.768,124.22,119.899,125.86z M117.711,125.751c0.08-2.01-1.018-3.229-2.932-3.248
		c-1.107-0.012-2.725,2.014-2.729,3.42c-0.004,0.736,1.516,2.266,2.279,2.295C116.448,128.304,117.643,127.431,117.711,125.751z"/>
	<path clip-path="url(#SVGID_2_)" fill="#020202" d="M102.768,93.126c0,6.158-0.019,12.314,0.021,18.47
		c0.006,0.85-0.214,1.037-1.047,1.035c-12.193-0.029-24.387-0.031-36.58,0.002c-0.934,0.004-1.17-0.223-1.167-1.16
		c0.033-12.312,0.032-24.626,0-36.94c-0.002-0.922,0.208-1.18,1.162-1.177c12.072,0.036,24.146,0.042,36.22-0.005
		c1.152-0.004,1.416,0.358,1.409,1.425C102.748,80.893,102.768,87.01,102.768,93.126z M81.808,86.64
		c-0.206-1.314-0.206-3.128-1.769-4.412c-0.312-0.256-0.416-0.384-0.853-0.173c-1.943,0.942-3.928,1.806-5.898,2.69
		c-0.557,0.25-0.84,0.618-0.84,1.276c0,2.033,0.6,3.754,2.116,5.212c2.062,1.983,4.818,1.142,6.431-0.858
		C81.763,89.423,81.737,88.233,81.808,86.64z M93.263,87.314c0.031-1.08-0.237-1.507-1.065-1.832
		c-1.812-0.715-3.54-1.645-5.299-2.492c-0.786-0.378-1.385-0.433-1.971,0.462c-0.684,1.044-0.808,2.127-0.679,3.276
		c0.317,2.819,1.299,5.111,4.393,5.711c1.382,0.269,3.558-0.615,3.915-1.836C92.899,89.436,93.075,88.219,93.263,87.314z"/>
	<path clip-path="url(#SVGID_2_)" fill="#FAFAFA" d="M93.257,143.149c-0.125-1.652,1.252-3.283,2.882-3.412
		c1.26-0.1,2.958,1.479,3.023,2.809c0.078,1.588-1.246,2.982-2.938,3.094C94.519,145.753,93.381,144.796,93.257,143.149z
		 M94.798,142.302c-0.145,0.996,0.196,1.83,1.203,1.93c0.63,0.062,0.816-0.721,0.852-1.322c0.057-0.957-0.457-1.623-1.338-1.75
		C94.777,141.052,94.665,141.688,94.798,142.302z"/>
	<path clip-path="url(#SVGID_2_)" fill="#FAFAFA" d="M91.073,142.991c-0.064,1.723-1.167,2.551-3.347,2.51
		c-0.828-0.016-2.388-1.621-2.317-2.389c0.134-1.469,1.787-3.432,2.818-3.348C90.179,139.923,91.146,141.021,91.073,142.991z
		 M87.419,142.489c0.312,0.48-0.039,1.424,0.904,1.625c0.741,0.156,0.887-0.611,1.096-1.031c0.26-0.521-0.536-1.902-0.975-1.938
		C87.525,141.079,87.692,141.894,87.419,142.489z"/>
	<path clip-path="url(#SVGID_2_)" fill="#FAFAFA" d="M137.663,105.937c-0.127-1.641,1.26-3.275,2.877-3.393
		c1.234-0.09,2.875,1.377,3.012,2.693c0.164,1.59-1.23,3.113-2.938,3.207C138.895,108.538,137.79,107.599,137.663,105.937z
		 M139.2,105.153c-0.164,0.988,0.252,1.744,1.152,1.881c0.689,0.102,0.859-0.699,0.898-1.277c0.064-0.965-0.67-1.883-1.402-1.812
		C139.038,104.021,139.125,104.616,139.2,105.153z"/>
	<path clip-path="url(#SVGID_2_)" fill="#FAFAFA" d="M135.471,105.728c-0.287,0.51,0.396,1.293-0.264,1.725
		c-0.943,0.619-2.064,0.793-3.176,0.826c-0.768,0.021-2.277-1.633-2.232-2.342c0.092-1.41,1.777-3.438,2.803-3.371
		C134.495,102.688,135.569,103.849,135.471,105.728z M132.719,103.931c-0.832-0.023-0.824,0.822-0.82,1.275
		c0.006,0.613-0.113,1.535,0.846,1.707c0.738,0.131,0.902-0.623,1.078-1.051C134.067,105.267,133.27,103.972,132.719,103.931z"/>
	<path clip-path="url(#SVGID_2_)" fill="#FAFAFA" d="M119.899,125.86c-0.133-1.643,1.258-3.277,2.883-3.396
		c1.225-0.09,2.881,1.393,3.008,2.691c0.156,1.605-1.213,3.104-2.934,3.205C121.141,128.46,120.034,127.522,119.899,125.86z
		 M121.444,125.085c-0.184,0.938,0.221,1.73,1.113,1.863c0.73,0.107,0.891-0.699,0.924-1.352c0.053-0.973-0.477-1.609-1.361-1.715
		C121.356,123.794,121.331,124.468,121.444,125.085z"/>
	<path clip-path="url(#SVGID_2_)" fill="#FAFAFA" d="M117.711,125.751c-0.068,1.68-1.264,2.553-3.379,2.467
		c-0.766-0.029-2.283-1.559-2.281-2.295c0.006-1.406,1.621-3.432,2.73-3.42C116.694,122.522,117.792,123.741,117.711,125.751z
		 M114.083,125.146c-0.074,0.67,0.443,1.672,0.898,1.705c0.75,0.057,0.895-0.646,1.088-1.068c0.252-0.553-0.564-1.896-1.018-1.918
		C114.131,123.815,114.352,124.661,114.083,125.146z"/>
	<path clip-path="url(#SVGID_2_)" fill="#FAFAFA" d="M81.808,86.64c-0.07,1.594-0.045,2.784-0.812,3.736
		c-1.612,2-4.368,2.842-6.431,0.858c-1.517-1.458-2.116-3.179-2.116-5.212c0-0.658,0.283-1.026,0.84-1.276
		c1.972-0.886,3.955-1.749,5.898-2.69c0.437-0.211,0.54-0.083,0.853,0.174C81.602,83.512,81.602,85.325,81.808,86.64z
		 M77.708,86.064c0-0.199,0.006-0.397-0.001-0.597c-0.019-0.48,0.248-1.119-0.529-1.237c-0.579-0.088-1.198,0.078-1.477,0.589
		c-0.571,1.048-0.563,2.195-0.113,3.29c0.168,0.407,0.444,0.816,1.082,0.734c0.652-0.084,0.727-0.6,0.837-1.01
		C77.661,87.268,77.65,86.658,77.708,86.064z"/>
	<path clip-path="url(#SVGID_2_)" fill="#FAFAFA" d="M93.263,87.314c-0.188,0.905-0.363,2.122-0.706,3.291
		c-0.357,1.22-2.533,2.104-3.915,1.836c-3.094-0.601-4.075-2.893-4.393-5.711c-0.129-1.15-0.005-2.233,0.679-3.277
		c0.586-0.895,1.185-0.841,1.971-0.462c1.759,0.848,3.486,1.778,5.299,2.492C93.025,85.807,93.294,86.234,93.263,87.314z
		 M87.112,86.677c0,0.297,0.01,0.535-0.002,0.771c-0.038,0.76,0.142,1.301,1.058,1.36c0.995,0.065,1.234-0.565,1.283-1.322
		c0.054-0.821-0.034-1.643-0.414-2.402c-0.217-0.433-0.548-0.615-1.042-0.619c-0.544-0.004-0.604,0.438-0.772,0.757
		C86.972,85.698,87.175,86.232,87.112,86.677z"/>
	<path clip-path="url(#SVGID_2_)" fill="#060709" d="M94.798,142.302c-0.133-0.611-0.021-1.25,0.716-1.143
		c0.882,0.127,1.396,0.793,1.338,1.75c-0.034,0.602-0.221,1.385-0.852,1.322C94.994,144.132,94.653,143.298,94.798,142.302z"/>
	<path clip-path="url(#SVGID_2_)" fill="#060709" d="M87.419,142.489c0.273-0.598,0.106-1.41,1.025-1.344
		c0.438,0.033,1.234,1.416,0.975,1.938c-0.209,0.42-0.354,1.188-1.096,1.031C87.38,143.913,87.729,142.97,87.419,142.489z"/>
	<path clip-path="url(#SVGID_2_)" fill="#060709" d="M139.2,105.153c-0.074-0.537-0.162-1.135,0.648-1.209
		c0.732-0.07,1.467,0.848,1.402,1.811c-0.039,0.58-0.209,1.381-0.898,1.277C139.452,106.899,139.036,106.144,139.2,105.153z"/>
	<path clip-path="url(#SVGID_2_)" fill="#060709" d="M132.719,103.931c0.553,0.041,1.348,1.336,1.104,1.932
		c-0.176,0.43-0.34,1.184-1.078,1.051c-0.959-0.172-0.84-1.092-0.846-1.705C131.895,104.753,131.887,103.907,132.719,103.931z"/>
	<path clip-path="url(#SVGID_2_)" fill="#060709" d="M121.444,125.085c-0.113-0.617-0.088-1.291,0.676-1.201
		c0.887,0.104,1.414,0.74,1.361,1.715c-0.033,0.65-0.193,1.457-0.924,1.35C121.665,126.813,121.26,126.021,121.444,125.085z"/>
	<path clip-path="url(#SVGID_2_)" fill="#060709" d="M114.083,125.146c0.27-0.484,0.049-1.328,0.969-1.281
		c0.453,0.021,1.271,1.365,1.018,1.918c-0.191,0.422-0.336,1.125-1.086,1.068C114.526,126.815,114.008,125.813,114.083,125.146z"/>
	<path clip-path="url(#SVGID_2_)" fill="#060709" d="M77.708,86.064c-0.059,0.594-0.048,1.204-0.202,1.771
		c-0.11,0.41-0.186,0.926-0.837,1.01c-0.638,0.083-0.914-0.327-1.082-0.734c-0.45-1.095-0.458-2.242,0.113-3.29
		c0.277-0.512,0.897-0.678,1.477-0.588c0.776,0.117,0.51,0.756,0.529,1.236C77.714,85.667,77.708,85.866,77.708,86.064z"/>
	<path clip-path="url(#SVGID_2_)" fill="#060709" d="M87.112,86.677c0.062-0.444-0.141-0.979,0.11-1.455
		c0.168-0.317,0.229-0.761,0.772-0.757c0.493,0.004,0.825,0.187,1.042,0.619c0.38,0.76,0.467,1.581,0.414,2.402
		c-0.049,0.757-0.288,1.388-1.283,1.322c-0.916-0.06-1.096-0.601-1.058-1.36C87.122,87.211,87.112,86.974,87.112,86.677z"/>
</g>
</svg>
